<svg width="179" height="179" viewBox="0 0 179 179" fill="none" xmlns="http://www.w3.org/2000/svg">
<path d="M35.6619 8.41635C34.8658 8.09153 34.0049 7.9572 33.1477 8.02407C28.1461 7.94383 19.5159 8.20238 19.6051 8.20238C18.7135 7.62287 17.822 7.0612 16.8234 6.55301C15.5485 5.86652 12.3746 4.45787 11.2691 5.34942C11.1602 5.44234 11.0901 5.57282 11.0729 5.71496C11.0016 6.16965 11.4652 6.46386 12.856 7.49806C14.3984 8.63033 16.2796 9.9409 17.8576 11.0643C18.6065 14.2649 19.614 18.5176 20.3005 21.2458C20.3568 21.6711 20.5098 22.0779 20.7478 22.4349C20.9858 22.7919 21.3025 23.0896 21.6735 23.3052C22.458 23.6886 22.565 22.8773 22.6987 22.0303C22.9484 20.4701 23.4655 16.4938 23.6616 15.0227C25.5785 16.3155 27.5309 17.6261 29.5993 18.9366C29.8167 20.1439 30.1145 21.3353 30.4909 22.5028C31.1506 24.0006 31.8906 21.8074 32.274 20.2205C36.3127 19.0169 38.0334 17.6528 34.1641 17.6528C35.127 17.207 36.705 16.4581 35.6619 16.048C34.6188 15.6379 31.8371 16.3066 30.9634 16.4938C29.421 15.2189 27.6379 13.8637 26.1758 12.7849C39.2013 8.80864 35.0913 10.1103 35.858 9.78934C36.8655 9.39706 36.6693 8.91562 35.6619 8.41635ZM30.8475 16.8148C31.115 17.0287 32.9159 16.155 35.127 16.2085C35.8045 16.2085 35.751 16.4136 35.7778 16.4225C35.1372 16.9359 34.433 17.3644 33.6826 17.6974C32.2205 17.6974 31.8371 17.7955 30.7494 17.8311C28.6721 16.6186 18.4193 9.86067 13.7476 6.78482C12.2944 5.83086 12.1874 5.73279 11.8753 5.65255C11.7713 5.61591 11.6603 5.60329 11.5507 5.61564C11.441 5.62799 11.3356 5.665 11.2423 5.72387C11.2622 5.63728 11.309 5.55923 11.3761 5.50099C12.3924 4.60944 15.5396 6.07158 16.7254 6.72241C17.5723 7.18601 18.4015 7.68528 19.2128 8.20238C18.7046 8.26479 18.4015 8.83538 19.1325 9.56645C20.8177 10.8528 22.5739 12.0434 24.3927 13.1327C24.485 13.1878 24.5887 13.2213 24.6958 13.2307C25.0926 13.1574 25.481 13.0438 25.8548 12.8919C27.5399 14.1669 29.1981 15.4863 30.8475 16.8148ZM33.7361 10.2173C32.2116 10.1638 24.5443 9.86958 19.1682 9.20092C18.9542 8.97803 18.9007 8.7908 18.9364 8.6749C18.9721 8.559 19.3644 8.4431 19.828 8.43418C20.2916 8.42527 30.4196 8.23804 33.2012 8.24696C34.0402 8.16901 34.8859 8.28807 35.6708 8.59466C37.3558 9.45055 35.6619 9.65561 33.7361 10.2173ZM34.3424 22.2889C38.2117 24.9635 43.3738 28.7259 47.4482 31.7661C47.5017 31.7661 47.4482 31.8909 47.3947 31.8463C43.3114 28.9844 38.283 25.3915 34.28 22.3691C34.2737 22.3598 34.2705 22.3487 34.2709 22.3374C34.2713 22.3261 34.2752 22.3153 34.2821 22.3064C34.289 22.2975 34.2986 22.291 34.3094 22.2879C34.3202 22.2847 34.3318 22.2851 34.3424 22.2889ZM35.7065 20.7643C39.8878 23.6351 47.047 28.7883 50.9341 31.6412C50.9876 31.6412 50.9341 31.7661 50.8806 31.7215C47.1985 29.1716 39.9057 24.0096 35.6619 20.8446C35.6573 20.8366 35.6548 20.8275 35.6547 20.8182C35.6546 20.809 35.6569 20.7999 35.6614 20.7918C35.6659 20.7837 35.6724 20.7769 35.6803 20.7721C35.6882 20.7673 35.6972 20.7646 35.7065 20.7643ZM161.54 71.6273C160.703 71.4411 159.847 71.3573 158.99 71.3776C162.69 66.9199 154.193 63.6746 152.482 68.5514C151.911 60.3046 140.472 60.3581 139.652 67.3121C139.565 68.112 139.598 68.9204 139.75 69.7104C139.205 69.1701 138.514 68.8006 137.762 68.6473C137.01 68.4941 136.23 68.5638 135.517 68.8478C134.804 69.1319 134.19 69.6179 133.749 70.2463C133.309 70.8746 133.061 71.618 133.037 72.3851C131.504 72.5901 128.276 73.1964 128.401 74.6496C128.401 75.5412 130.015 75.7997 130.897 75.8889C132.119 76.0137 131.013 76.0226 158.99 75.978C160.773 75.978 164.99 75.9156 165.231 74.1949C165.231 72.7239 162.94 71.9304 161.54 71.6273ZM161.772 75.5412C160.069 75.7195 161.344 75.6749 133.715 75.666C132.627 75.666 128.686 75.7997 128.668 74.6318C128.472 73.4193 131.949 72.7506 133.126 72.599C133.14 72.599 133.154 72.5963 133.167 72.5909C133.18 72.5855 133.192 72.5776 133.202 72.5677C133.212 72.5578 133.22 72.546 133.225 72.533C133.23 72.52 133.233 72.5061 133.233 72.4921C133.367 68.8456 137.593 67.8293 139.813 70.1562C139.831 70.1716 139.854 70.1814 139.877 70.1844C139.901 70.1874 139.925 70.1836 139.947 70.1732C139.968 70.1629 139.987 70.1465 139.999 70.1261C140.012 70.1057 140.018 70.0821 140.018 70.0581C139.841 69.178 139.802 68.2756 139.902 67.3835C140.793 60.6612 152.25 60.7771 152.241 69.434C152.248 69.4583 152.262 69.4796 152.283 69.4947C152.303 69.5099 152.327 69.5181 152.352 69.5181C152.378 69.5181 152.402 69.5099 152.422 69.4947C152.442 69.4796 152.457 69.4583 152.464 69.434C152.576 68.9212 152.779 68.4322 153.061 67.9897C154.693 65.5469 158.723 66.4384 159.427 68.6049C159.536 69.1105 159.517 69.6354 159.372 70.1319C159.228 70.6285 158.961 71.0812 158.598 71.4489C158.584 71.4665 158.576 71.4877 158.573 71.5099C158.571 71.5321 158.576 71.5545 158.586 71.5742C158.597 71.594 158.612 71.6104 158.632 71.6214C158.651 71.6323 158.673 71.6375 158.696 71.6362C160.562 71.5245 162.421 71.9582 164.045 72.8843C164.286 73.009 164.492 73.19 164.648 73.4121C164.803 73.6341 164.902 73.8905 164.937 74.1593C164.767 75.1578 162.788 75.4342 161.772 75.5412ZM71.0564 17.742C70.6463 18.5444 69.1307 18.6335 68.988 19.4448C68.8454 20.2561 69.9331 20.6128 70.673 20.7822C70.7026 20.7916 70.7347 20.7889 70.7623 20.7747C70.7899 20.7605 70.8107 20.7359 70.8202 20.7064C70.8296 20.6768 70.8269 20.6447 70.8127 20.6171C70.7985 20.5895 70.7739 20.5687 70.7444 20.5593C67.517 19.2487 70.8424 19.1863 71.2793 17.8846C71.2982 17.8551 71.3046 17.8192 71.2971 17.7849C71.2896 17.7506 71.2687 17.7208 71.2392 17.7018C71.2096 17.6829 71.1738 17.6765 71.1395 17.6841C71.1052 17.6916 71.0753 17.7124 71.0564 17.742ZM68.3015 17.6617C68.462 17.6617 68.6403 17.3853 68.7027 17.002C68.7651 16.6186 68.7027 16.2798 68.5066 16.2531C68.3104 16.2263 68.1589 16.5295 68.1054 16.9128C68.0519 17.2962 68.1321 17.635 68.3015 17.6617ZM73.7935 18.4463C73.9629 18.4463 74.1412 18.1788 74.2036 17.7865C74.266 17.3943 74.2036 17.0644 73.9985 17.0466C73.7935 17.0287 73.6597 17.314 73.5973 17.7063C73.5349 18.0986 73.633 18.4285 73.7935 18.4463ZM73.945 14.0599C74.1175 13.8787 74.3297 13.7401 74.5648 13.655C74.8 13.5699 75.0518 13.5406 75.3002 13.5695C75.8039 13.7244 76.2445 14.0369 76.5573 14.4611C76.5738 14.4871 76.6 14.5054 76.6301 14.5121C76.6602 14.5188 76.6917 14.5133 76.7178 14.4967C76.7438 14.4802 76.7621 14.454 76.7688 14.4239C76.7755 14.3938 76.77 14.3623 76.7534 14.3362C76.6662 14.0263 76.4898 13.7488 76.246 13.5384C76.0022 13.3281 75.7019 13.1941 75.3825 13.1532C75.0631 13.1124 74.7387 13.1664 74.4498 13.3086C74.1609 13.4508 73.9202 13.6748 73.7578 13.9529C73.758 13.9747 73.7639 13.9961 73.7749 14.0149C73.786 14.0337 73.8018 14.0493 73.8207 14.0601C73.8396 14.071 73.8611 14.0766 73.8829 14.0766C73.9047 14.0765 73.9261 14.0708 73.945 14.0599ZM79.6955 16.2442C79.7242 16.2504 79.7538 16.2501 79.7823 16.2433C79.8108 16.2366 79.8374 16.2236 79.8602 16.2052C79.883 16.1868 79.9014 16.1635 79.9141 16.1371C79.9267 16.1107 79.9333 16.0818 79.9333 16.0525C79.9333 16.0232 79.9267 15.9943 79.9141 15.9679C79.9014 15.9414 79.883 15.9182 79.8602 15.8998C79.8374 15.8814 79.8108 15.8684 79.7823 15.8616C79.7538 15.8549 79.7242 15.8546 79.6955 15.8608C79.6518 15.8703 79.6125 15.8945 79.5844 15.9294C79.5563 15.9642 79.541 16.0077 79.541 16.0525C79.541 16.0973 79.5563 16.1407 79.5844 16.1756C79.6125 16.2105 79.6518 16.2347 79.6955 16.2442ZM80.7386 16.5027C80.7824 16.4932 80.8216 16.469 80.8498 16.4341C80.8779 16.3993 80.8932 16.3558 80.8932 16.311C80.8932 16.2662 80.8779 16.2228 80.8498 16.1879C80.8216 16.153 80.7824 16.1288 80.7386 16.1193C80.71 16.1131 80.6804 16.1134 80.6519 16.1202C80.6234 16.1269 80.5967 16.14 80.574 16.1583C80.5511 16.1767 80.5328 16.2 80.5201 16.2264C80.5075 16.2528 80.5009 16.2817 80.5009 16.311C80.5009 16.3403 80.5075 16.3692 80.5201 16.3957C80.5328 16.4221 80.5511 16.4453 80.574 16.4637C80.5967 16.4821 80.6234 16.4951 80.6519 16.5019C80.6804 16.5086 80.71 16.5089 80.7386 16.5027ZM79.9897 16.6721C80.0184 16.6659 80.048 16.6662 80.0765 16.6729C80.105 16.6797 80.1316 16.6927 80.1544 16.7111C80.1772 16.7295 80.1956 16.7527 80.2083 16.7792C80.2209 16.8056 80.2275 16.8345 80.2275 16.8638C80.2275 16.8931 80.2209 16.922 80.2083 16.9484C80.1956 16.9748 80.1772 16.9981 80.1544 17.0165C80.1316 17.0349 80.105 17.0479 80.0765 17.0547C80.048 17.0614 80.0184 17.0617 79.9897 17.0555C79.946 17.046 79.9068 17.0218 79.8786 16.9869C79.8505 16.952 79.8352 16.9086 79.8352 16.8638C79.8352 16.819 79.8505 16.7755 79.8786 16.7407C79.9068 16.7058 79.946 16.6816 79.9897 16.6721ZM82.0225 17.4299C82.0757 17.4299 82.1267 17.4511 82.1643 17.4887C82.2019 17.5263 82.2231 17.5773 82.2231 17.6305C82.2231 17.6837 82.2019 17.7347 82.1643 17.7724C82.1267 17.81 82.0757 17.8311 82.0225 17.8311C81.9693 17.8311 81.9183 17.81 81.8806 17.7724C81.843 17.7347 81.8219 17.6837 81.8219 17.6305C81.8219 17.5773 81.843 17.5263 81.8806 17.4887C81.9183 17.4511 81.9693 17.4299 82.0225 17.4299ZM79.8738 19.0347C79.9025 19.0409 79.9321 19.0406 79.9606 19.0339C79.9891 19.0271 80.0157 19.0141 80.0385 18.9957C80.0613 18.9773 80.0797 18.9541 80.0924 18.9277C80.105 18.9012 80.1116 18.8723 80.1116 18.843C80.1116 18.8137 80.105 18.7848 80.0924 18.7584C80.0797 18.732 80.0613 18.7087 80.0385 18.6903C80.0157 18.672 79.9891 18.6589 79.9606 18.6522C79.9321 18.6454 79.9025 18.6451 79.8738 18.6513C79.8301 18.6608 79.7909 18.685 79.7627 18.7199C79.7346 18.7548 79.7193 18.7982 79.7193 18.843C79.7193 18.8878 79.7346 18.9313 79.7627 18.9661C79.7909 19.001 79.8301 19.0252 79.8738 19.0347ZM80.8456 19.3111C80.8743 19.3173 80.9039 19.317 80.9324 19.3103C80.9609 19.3035 80.9875 19.2905 81.0103 19.2721C81.0331 19.2537 81.0515 19.2305 81.0642 19.204C81.0768 19.1776 81.0834 19.1487 81.0834 19.1194C81.0834 19.0901 81.0768 19.0612 81.0642 19.0348C81.0515 19.0084 81.0331 18.9851 81.0103 18.9667C80.9875 18.9483 80.9609 18.9353 80.9324 18.9285C80.9039 18.9218 80.8743 18.9215 80.8456 18.9277C80.8019 18.9372 80.7626 18.9614 80.7345 18.9963C80.7064 19.0312 80.6911 19.0746 80.6911 19.1194C80.6911 19.1642 80.7064 19.2077 80.7345 19.2425C80.7626 19.2774 80.8019 19.3016 80.8456 19.3111ZM80.2394 19.3735C80.2832 19.383 80.3224 19.4072 80.3505 19.4421C80.3786 19.4769 80.3939 19.5204 80.3939 19.5652C80.3939 19.61 80.3786 19.6534 80.3505 19.6883C80.3224 19.7232 80.2832 19.7474 80.2394 19.7569C80.2108 19.7631 80.1811 19.7628 80.1526 19.7561C80.1241 19.7493 80.0975 19.7363 80.0747 19.7179C80.0519 19.6995 80.0335 19.6762 80.0209 19.6498C80.0082 19.6234 80.0017 19.5945 80.0017 19.5652C80.0017 19.5359 80.0082 19.507 80.0209 19.4806C80.0335 19.4541 80.0519 19.4309 80.0747 19.4125C80.0975 19.3941 80.1241 19.3811 80.1526 19.3743C80.1811 19.3676 80.2108 19.3673 80.2394 19.3735ZM81.3806 19.8282C81.3868 19.7996 81.3865 19.7699 81.3797 19.7414C81.373 19.7129 81.3599 19.6863 81.3416 19.6635C81.3232 19.6407 81.2999 19.6223 81.2735 19.6097C81.2471 19.597 81.2182 19.5905 81.1889 19.5905C81.1596 19.5905 81.1307 19.597 81.1042 19.6097C81.0778 19.6223 81.0546 19.6407 81.0362 19.6635C81.0178 19.6863 81.0048 19.7129 80.998 19.7414C80.9913 19.7699 80.991 19.7996 80.9972 19.8282C81.0067 19.872 81.0309 19.9112 81.0658 19.9393C81.1006 19.9674 81.1441 19.9828 81.1889 19.9828C81.2337 19.9828 81.2771 19.9674 81.312 19.9393C81.3469 19.9112 81.3711 19.872 81.3806 19.8282ZM79.8738 20.6038C79.8218 20.6038 79.7719 20.6245 79.7351 20.6613C79.6984 20.6981 79.6777 20.748 79.6777 20.8C79.6777 20.852 79.6984 20.9019 79.7351 20.9387C79.7719 20.9755 79.8218 20.9961 79.8738 20.9961C79.9259 20.9961 79.9757 20.9755 80.0125 20.9387C80.0493 20.9019 80.07 20.852 80.07 20.8C80.07 20.748 80.0493 20.6981 80.0125 20.6613C79.9757 20.6245 79.9259 20.6038 79.8738 20.6038ZM80.8635 20.8713C80.8197 20.8808 80.7805 20.905 80.7524 20.9399C80.7242 20.9747 80.7089 21.0182 80.7089 21.063C80.7089 21.1078 80.7242 21.1512 80.7524 21.1861C80.7805 21.221 80.8197 21.2452 80.8635 21.2547C80.8921 21.2609 80.9217 21.2606 80.9502 21.2539C80.9787 21.2471 81.0054 21.2341 81.0282 21.2157C81.051 21.1973 81.0694 21.174 81.082 21.1476C81.0946 21.1212 81.1012 21.0923 81.1012 21.063C81.1012 21.0337 81.0946 21.0048 81.082 20.9784C81.0694 20.9519 81.051 20.9287 81.0282 20.9103C81.0054 20.8919 80.9787 20.8789 80.9502 20.8721C80.9217 20.8654 80.8921 20.8651 80.8635 20.8713ZM81.8353 19.1952C81.8639 19.189 81.8935 19.1893 81.922 19.196C81.9505 19.2028 81.9771 19.2158 82 19.2342C82.0228 19.2526 82.0411 19.2758 82.0538 19.3023C82.0664 19.3287 82.073 19.3576 82.073 19.3869C82.073 19.4162 82.0664 19.4451 82.0538 19.4715C82.0411 19.4979 82.0228 19.5212 82 19.5396C81.9771 19.5579 81.9505 19.571 81.922 19.5777C81.8935 19.5845 81.8639 19.5848 81.8353 19.5786C81.7915 19.5691 81.7523 19.5449 81.7241 19.51C81.696 19.4751 81.6807 19.4317 81.6807 19.3869C81.6807 19.3421 81.696 19.2986 81.7241 19.2638C81.7523 19.2289 81.7915 19.2047 81.8353 19.1952ZM79.5351 19.8639C79.4913 19.8734 79.4521 19.8975 79.4239 19.9324C79.3958 19.9673 79.3805 20.0107 79.3805 20.0555C79.3805 20.1003 79.3958 20.1438 79.4239 20.1787C79.4521 20.2135 79.4913 20.2377 79.5351 20.2472C79.5637 20.2534 79.5933 20.2532 79.6218 20.2464C79.6503 20.2397 79.6769 20.2266 79.6998 20.2082C79.7225 20.1898 79.7409 20.1666 79.7536 20.1402C79.7662 20.1137 79.7728 20.0848 79.7728 20.0555C79.7728 20.0263 79.7662 19.9973 79.7536 19.9709C79.7409 19.9445 79.7225 19.9212 79.6998 19.9029C79.6769 19.8845 79.6503 19.8714 79.6218 19.8647C79.5933 19.8579 79.5637 19.8576 79.5351 19.8639ZM80.5068 20.1402C80.4631 20.1497 80.4239 20.1739 80.3957 20.2088C80.3676 20.2437 80.3523 20.2871 80.3523 20.3319C80.3523 20.3767 80.3676 20.4202 80.3957 20.455C80.4239 20.4899 80.4631 20.5141 80.5068 20.5236C80.5355 20.5298 80.5651 20.5295 80.5936 20.5228C80.6221 20.516 80.6487 20.503 80.6715 20.4846C80.6943 20.4662 80.7127 20.443 80.7254 20.4165C80.738 20.3901 80.7446 20.3612 80.7446 20.3319C80.7446 20.3026 80.738 20.2737 80.7254 20.2473C80.7127 20.2209 80.6943 20.1976 80.6715 20.1792C80.6487 20.1608 80.6221 20.1478 80.5936 20.1411C80.5651 20.1343 80.5355 20.134 80.5068 20.1402ZM81.4965 20.4166C81.4527 20.4261 81.4135 20.4503 81.3854 20.4852C81.3572 20.5201 81.3419 20.5635 81.3419 20.6083C81.3419 20.6531 81.3572 20.6965 81.3854 20.7314C81.4135 20.7663 81.4527 20.7905 81.4965 20.8C81.5251 20.8062 81.5547 20.8059 81.5832 20.7992C81.6117 20.7924 81.6384 20.7794 81.6612 20.761C81.684 20.7426 81.7024 20.7193 81.715 20.6929C81.7276 20.6665 81.7342 20.6376 81.7342 20.6083C81.7342 20.579 81.7276 20.5501 81.715 20.5237C81.7024 20.4973 81.684 20.474 81.6612 20.4556C81.6384 20.4372 81.6117 20.4242 81.5832 20.4174C81.5547 20.4107 81.5251 20.4104 81.4965 20.4166ZM80.8546 17.2338C80.8483 17.2624 80.8486 17.2921 80.8554 17.3206C80.8621 17.3491 80.8752 17.3757 80.8935 17.3985C80.9119 17.4213 80.9352 17.4397 80.9616 17.4523C80.988 17.4649 81.0169 17.4715 81.0462 17.4715C81.0755 17.4715 81.1044 17.4649 81.1309 17.4523C81.1573 17.4397 81.1805 17.4213 81.1989 17.3985C81.2173 17.3757 81.2303 17.3491 81.2371 17.3206C81.2438 17.2921 81.2441 17.2624 81.2379 17.2338C81.2284 17.19 81.2042 17.1508 81.1693 17.1227C81.1345 17.0946 81.091 17.0792 81.0462 17.0792C81.0014 17.0792 80.958 17.0946 80.9231 17.1227C80.8882 17.1508 80.864 17.19 80.8546 17.2338ZM81.6748 16.8593C81.7034 16.8655 81.733 16.8653 81.7616 16.8585C81.79 16.8518 81.8167 16.8387 81.8395 16.8203C81.8623 16.802 81.8807 16.7787 81.8933 16.7523C81.9059 16.7259 81.9125 16.6969 81.9125 16.6676C81.9125 16.6384 81.9059 16.6094 81.8933 16.583C81.8807 16.5566 81.8623 16.5333 81.8395 16.515C81.8167 16.4966 81.79 16.4835 81.7616 16.4768C81.733 16.47 81.7034 16.4698 81.6748 16.476C81.631 16.4855 81.5918 16.5097 81.5637 16.5445C81.5355 16.5794 81.5202 16.6229 81.5202 16.6676C81.5202 16.7124 81.5355 16.7559 81.5637 16.7908C81.5918 16.8256 81.631 16.8498 81.6748 16.8593ZM82.5039 17.2338C82.5477 17.2243 82.5869 17.2001 82.615 17.1652C82.6432 17.1303 82.6585 17.0869 82.6585 17.0421C82.6585 16.9973 82.6432 16.9539 82.615 16.919C82.5869 16.8841 82.5477 16.8599 82.5039 16.8504C82.4753 16.8442 82.4456 16.8445 82.4171 16.8512C82.3886 16.858 82.362 16.871 82.3392 16.8894C82.3164 16.9078 82.298 16.9311 82.2854 16.9575C82.2728 16.9839 82.2662 17.0128 82.2662 17.0421C82.2662 17.0714 82.2728 17.1003 82.2854 17.1267C82.298 17.1531 82.3164 17.1764 82.3392 17.1948C82.362 17.2132 82.3886 17.2262 82.4171 17.233C82.4456 17.2397 82.4753 17.24 82.5039 17.2338ZM155.611 167.986C155.317 166.381 153.926 164.687 151.046 165.454C150.319 165.635 149.674 166.058 149.22 166.655C148.766 167.252 148.53 167.985 148.55 168.735C148.541 169.184 148.624 169.63 148.791 170.046C148.959 170.462 149.208 170.841 149.525 171.159C149.842 171.477 150.22 171.727 150.636 171.896C151.052 172.065 151.498 172.148 151.947 172.141C152.474 172.153 152.998 172.05 153.482 171.838C153.965 171.627 154.397 171.312 154.746 170.916C155.095 170.52 155.353 170.053 155.503 169.547C155.652 169.041 155.689 168.508 155.611 167.986ZM152.268 170.197C151.993 170.197 151.724 170.115 151.495 169.963C151.266 169.81 151.088 169.593 150.983 169.338C150.877 169.084 150.85 168.805 150.904 168.535C150.957 168.265 151.09 168.017 151.284 167.823C151.479 167.628 151.727 167.496 151.996 167.442C152.266 167.388 152.546 167.416 152.8 167.521C153.054 167.627 153.271 167.805 153.424 168.034C153.577 168.262 153.659 168.531 153.659 168.806C153.659 169.175 153.512 169.529 153.251 169.79C152.99 170.05 152.637 170.197 152.268 170.197ZM137.022 128.383C136.131 124.148 140.134 118.862 142.63 118.041C140.446 116.731 135.899 116.668 132.27 118.71C133.777 122.098 133.902 122.463 133.937 122.606C134.003 122.841 134.011 123.088 133.962 123.327C133.913 123.566 133.808 123.79 133.656 123.981C133.504 124.171 133.308 124.323 133.086 124.424C132.864 124.524 132.621 124.57 132.377 124.559C131.976 124.559 131.566 124.247 131.263 123.605C131.04 123.123 129.899 120.413 129.899 120.413C127.108 123.15 126.208 127.599 127.162 131.45C129.471 128.963 134.829 127.67 137.022 128.383Z" fill="black"/>
<path d="M170.937 142.496H157.243C153.329 134.98 147.436 124.05 144.627 119.886C144.172 119.226 143.594 118.66 142.924 118.219C140.838 118.995 138.681 122.401 137.941 124.772C136.835 128.267 137.762 129.399 144.181 141.712C146.17 145.501 155.772 163.483 157.029 165.676C162.521 162.182 162.137 159.186 162.102 154.933C162.137 152.832 161.59 150.762 160.524 148.951C159.882 147.676 158.741 145.456 157.368 142.79H170.919C170.95 142.79 170.979 142.778 171.001 142.756C171.023 142.735 171.035 142.705 171.035 142.674C171.053 142.594 170.999 142.496 170.937 142.496Z" fill="black"/>
<path d="M137.147 128.847C135.453 128.08 129.266 129.739 127.287 131.878C127.483 132.868 129.801 137.531 132.27 142.327H105.738C105.577 141.552 105.417 140.749 105.265 139.938C105.265 139.938 104.882 138.262 103.652 129.881C102.731 122.782 102.171 115.64 101.975 108.484L120.912 100.514L120.261 98.9801C115.554 100.763 108.93 103.322 99.3187 107.851C99.3187 107.851 99.2295 107.771 99.2741 107.744C106.291 103.91 119.405 98.9444 120.127 98.6681L117.685 92.4985C117.675 92.4784 117.674 92.4554 117.682 92.4345C117.689 92.4136 117.705 92.3965 117.725 92.3871C117.745 92.3776 117.768 92.3765 117.789 92.3841C117.81 92.3916 117.827 92.4071 117.836 92.4272C128.098 115.608 130.79 121.715 131.486 123.275C131.842 124.059 132.083 124.095 132.27 124.166C132.446 124.18 132.622 124.157 132.788 124.099C132.955 124.041 133.107 123.949 133.236 123.829C133.365 123.71 133.468 123.565 133.538 123.403C133.608 123.242 133.644 123.067 133.643 122.891C133.643 122.464 134.455 124.264 119.708 91.3663C119.698 91.3414 119.697 91.3134 119.707 91.2883C119.717 91.2632 119.737 91.2432 119.762 91.2325C119.787 91.2219 119.815 91.2215 119.84 91.2316C119.865 91.2416 119.885 91.2612 119.896 91.286L122.936 97.6339C125.156 96.8315 127.394 96.1004 129.997 95.3782C130.077 95.3782 130.157 95.5476 130.077 95.5744C129.515 95.7794 127.723 96.2787 123.078 98.0172L123.756 99.4705L131.423 96.2609C131.452 96.249 131.474 96.2264 131.486 96.198C131.498 96.1696 131.498 96.1377 131.486 96.1093C128.811 89.3424 126.547 83.5384 124.353 79.4997L119.066 82.7539C118.799 82.5934 118.701 82.5042 118.656 82.4864C123.676 79.4195 124.532 78.8667 124.621 78.8489C123.644 75.8079 122.359 72.8744 120.787 70.0939C119.896 70.2187 118.906 70.3881 117.952 70.5753C117.813 63.5653 116.282 56.6529 113.45 50.2391C123.471 50.3817 137.941 50.4887 147.926 50.0607C149.564 50.0248 151.194 49.8277 152.794 49.4723C154.577 49.0355 156.565 48.135 156.253 46.343C155.798 43.6683 150.119 43.4098 147.418 43.4009C147.73 36.0723 139.073 33.5938 134.374 37.8376C135.195 34.1198 134.374 29.992 131.093 27.6293C130.033 26.8493 128.827 26.2896 127.547 25.9833C126.267 25.6771 124.939 25.6305 123.64 25.8462C119.316 26.6576 116.294 30.616 116.356 33.7632C113.521 32.4348 111.114 33.0143 109.598 34.5924C108.759 35.4873 108.2 36.608 107.989 37.8165C107.779 39.025 107.926 40.2688 108.412 41.3949C108.261 41.3949 108.109 41.3949 107.967 41.4484C100.522 32.5329 89.4581 28.2891 80.8547 28.5744L79.8026 25.9978C80.3808 25.2377 80.8825 24.4225 81.3004 23.5639C84.7507 24.7229 86.5427 19.1061 83.3153 19.2577C83.2827 19.008 83.1738 18.7744 83.0033 18.589C83.244 17.7777 83.4758 16.9575 83.6898 16.1373C84.2523 15.9508 84.8315 15.8194 85.4194 15.745C85.4643 15.735 85.5045 15.7102 85.5336 15.6747C85.5627 15.6391 85.579 15.5948 85.5799 15.5488V14.372C85.5803 14.3418 85.5741 14.3118 85.5617 14.2843C85.5492 14.2568 85.5308 14.2324 85.5078 14.2128C85.4848 14.1932 85.4578 14.1789 85.4286 14.171C85.3995 14.1631 85.3689 14.1617 85.3392 14.1669L84.6972 14.265C84.6703 14.2701 84.6425 14.2698 84.6157 14.264C84.5889 14.2582 84.5635 14.247 84.541 14.2312C84.5186 14.2154 84.4995 14.1953 84.485 14.172C84.4705 14.1487 84.4608 14.1227 84.4565 14.0956V13.8816C84.4478 13.8322 84.4576 13.7814 84.4838 13.7387C84.5101 13.6959 84.5512 13.6643 84.5992 13.6498L85.99 13.2397C86.0323 13.2278 86.0694 13.2019 86.0953 13.1663C86.1211 13.1308 86.1343 13.0875 86.1326 13.0436V11.9381C86.134 11.91 86.1294 11.882 86.119 11.8558C86.1086 11.8297 86.0927 11.8061 86.0724 11.7867C86.0522 11.7673 86.0279 11.7524 86.0014 11.7431C85.9749 11.7339 85.9466 11.7304 85.9187 11.733L84.7597 11.8222C84.7169 11.8242 84.6745 11.8135 84.638 11.7912C84.6014 11.769 84.5724 11.7363 84.5546 11.6973L84.4833 11.5369C84.4704 11.5102 84.4635 11.4811 84.4629 11.4515C84.4623 11.422 84.4682 11.3926 84.4801 11.3655C84.4919 11.3384 84.5095 11.3142 84.5316 11.2945C84.5537 11.2749 84.5798 11.2602 84.6081 11.2516L86.0791 10.788C86.132 10.7697 86.1755 10.7315 86.2005 10.6815C86.2255 10.6315 86.2299 10.5737 86.2129 10.5205L85.8295 9.37931C85.815 9.32987 85.7816 9.28813 85.7366 9.2631C85.6915 9.23808 85.6384 9.23178 85.5888 9.24558L83.8057 9.64678C83.7606 9.65955 83.7125 9.65578 83.67 9.63616C83.6275 9.61654 83.5934 9.58236 83.5739 9.53979L83.4847 9.36148C83.4724 9.33749 83.4649 9.3113 83.4627 9.28441C83.4605 9.25752 83.4637 9.23046 83.472 9.20479C83.4802 9.17912 83.4935 9.15533 83.511 9.13479C83.5285 9.11425 83.5499 9.09737 83.5739 9.0851L84.9112 8.38078C84.9442 8.36538 84.9725 8.34147 84.9932 8.3115C85.0139 8.28154 85.0263 8.24661 85.029 8.2103C85.0317 8.17398 85.0247 8.1376 85.0087 8.10489C84.9927 8.07217 84.9683 8.04431 84.938 8.02416L83.5917 6.59768C83.5535 6.56064 83.5023 6.53993 83.4491 6.53993C83.3958 6.53993 83.3447 6.56064 83.3064 6.59768L81.8532 7.78344C81.8189 7.81414 81.7744 7.83111 81.7284 7.83111C81.6823 7.83111 81.6379 7.81414 81.6036 7.78344C81.5671 7.7467 81.5466 7.69702 81.5466 7.64525C81.5466 7.59347 81.5671 7.5438 81.6036 7.50706L82.406 6.33913C82.4243 6.31331 82.4365 6.28358 82.4414 6.25228C82.4464 6.22097 82.444 6.18895 82.4345 6.15871C82.425 6.12848 82.4087 6.10086 82.3867 6.07802C82.3647 6.05518 82.3377 6.03775 82.3079 6.02709L80.8012 5.46541C80.7567 5.44752 80.7074 5.44576 80.6618 5.46041C80.6162 5.47507 80.5772 5.50522 80.5515 5.54565L79.7224 6.84731C79.6979 6.89135 79.6573 6.92425 79.6092 6.93919C79.561 6.95413 79.509 6.94996 79.4638 6.92755L79.3658 6.88297C79.3151 6.85801 79.2763 6.814 79.2579 6.76055C79.2395 6.7071 79.2431 6.64854 79.2677 6.59768L79.9631 5.24252C79.9763 5.21702 79.9841 5.18903 79.9858 5.16035C79.9875 5.13168 79.9832 5.10296 79.9731 5.07607C79.963 5.04917 79.9474 5.02469 79.9272 5.00422C79.9071 4.98374 79.8829 4.96773 79.8561 4.95722L78.6347 4.45796C78.5861 4.43646 78.5311 4.43467 78.4812 4.45296C78.4313 4.47126 78.3904 4.50821 78.3672 4.55603L77.3776 6.5531C77.3564 6.59636 77.3207 6.6308 77.2767 6.65036C77.2327 6.66992 77.1832 6.67336 77.1369 6.66009C77.1106 6.65396 77.0859 6.64247 77.0642 6.62635C77.0426 6.61023 77.0245 6.58981 77.0111 6.56638C76.9977 6.54295 76.9893 6.51701 76.9864 6.49018C76.9835 6.46335 76.9862 6.43621 76.9942 6.41045L77.4133 4.95722C77.423 4.92833 77.4258 4.89757 77.4216 4.86738C77.4174 4.83719 77.4062 4.80841 77.3888 4.78331C77.3715 4.75822 77.3486 4.7375 77.3219 4.72281C77.2952 4.70812 77.2654 4.69985 77.235 4.69868L75.7015 4.60952C75.6536 4.60656 75.6063 4.62125 75.5685 4.65082C75.5307 4.6804 75.5051 4.7228 75.4964 4.77L75.1755 6.31238C75.1647 6.36552 75.1334 6.41223 75.0882 6.44231C75.0431 6.47238 74.988 6.48337 74.9348 6.47286H74.8634C74.8356 6.47068 74.8086 6.46286 74.7839 6.44986C74.7592 6.43687 74.7374 6.41897 74.7199 6.39727C74.7024 6.37558 74.6895 6.35053 74.682 6.32367C74.6744 6.29681 74.6725 6.2687 74.6762 6.24106V4.94831C74.6752 4.91857 74.668 4.88936 74.6551 4.86256C74.6422 4.83576 74.6238 4.81194 74.6011 4.79265C74.5785 4.77335 74.552 4.75899 74.5235 4.75048C74.495 4.74198 74.465 4.73952 74.4355 4.74325L73.1784 4.96614C73.1272 4.97491 73.0812 5.0028 73.0498 5.04418C73.0183 5.08555 73.0038 5.13733 73.009 5.18903L73.1071 6.33021C73.1077 6.37959 73.0905 6.42754 73.0587 6.46525C73.0268 6.50296 72.9824 6.5279 72.9336 6.53549C72.8848 6.54308 72.8349 6.53281 72.7931 6.50656C72.7512 6.48032 72.7203 6.43986 72.7059 6.39262L72.483 5.50107C72.4758 5.47331 72.4631 5.44728 72.4456 5.42453C72.4282 5.40178 72.4063 5.38277 72.3814 5.36863C72.3564 5.35449 72.3289 5.34552 72.3004 5.34223C72.2719 5.33894 72.2431 5.34142 72.2155 5.34951L71.1278 5.76854C71.1026 5.77837 71.0795 5.79312 71.06 5.81192C71.0405 5.83073 71.0249 5.85321 71.0141 5.87809C71.0033 5.90296 70.9976 5.92972 70.9972 5.95683C70.9968 5.98393 71.0019 6.01084 71.012 6.036L71.5112 7.31092C71.5301 7.35848 71.5305 7.41137 71.5123 7.45921C71.4942 7.50705 71.4588 7.54637 71.4131 7.56947L71.324 7.5873C71.3 7.59963 71.2738 7.60711 71.2469 7.6093C71.22 7.61149 71.193 7.60836 71.1673 7.60008C71.1416 7.59179 71.1178 7.57853 71.0973 7.56103C71.0768 7.54354 71.0599 7.52217 71.0476 7.49814L70.4324 6.36587C70.4212 6.34096 70.4048 6.31869 70.3844 6.30047C70.364 6.28226 70.34 6.26852 70.314 6.26012C70.288 6.25173 70.2605 6.24887 70.2333 6.25172C70.2061 6.25458 70.1798 6.2631 70.1561 6.27672L69.4696 6.63334C69.4441 6.64532 69.4216 6.66262 69.4034 6.68407C69.3853 6.70552 69.3719 6.73062 69.3643 6.75767C69.3567 6.78473 69.355 6.8131 69.3593 6.84087C69.3636 6.86864 69.3739 6.89516 69.3893 6.91864L70.2809 8.46993C70.3122 8.5057 70.3295 8.55165 70.3295 8.59921C70.3295 8.64677 70.3122 8.69271 70.2809 8.72848L70.165 8.81764C70.1278 8.84964 70.0803 8.86725 70.0312 8.86725C69.9822 8.86725 69.9347 8.84964 69.8975 8.81764L69.318 8.27379C69.2815 8.24411 69.2358 8.22791 69.1887 8.22791C69.1417 8.22791 69.096 8.24411 69.0595 8.27379L68.5424 8.66607C68.5097 8.7047 68.4917 8.75367 68.4917 8.80426C68.4917 8.85486 68.5097 8.90382 68.5424 8.94245C69 9.81953 69.3789 10.7355 69.6746 11.6795C69.3507 12.0571 69.0528 12.4562 68.7831 12.8742C68.5304 12.8873 68.2885 12.9809 68.0928 13.1413C67.8971 13.3017 67.7578 13.5205 67.6954 13.7657C67.6911 13.7879 67.694 13.8109 67.7037 13.8313C67.7133 13.8518 67.7291 13.8687 67.7489 13.8795C67.7687 13.8904 67.7914 13.8948 67.8139 13.892C67.8363 13.8891 67.8572 13.8793 67.8737 13.8638C68.0336 13.6554 68.2376 13.4849 68.471 13.3645C68.2019 13.7914 67.9549 14.2318 67.731 14.684L65.7161 14.5146C65.6836 14.5096 65.6503 14.5115 65.6186 14.5203C65.5868 14.529 65.5573 14.5445 65.532 14.5656C65.5067 14.5867 65.4862 14.6129 65.4718 14.6426C65.4574 14.6722 65.4496 14.7046 65.4487 14.7375V15.1209C65.4452 15.1742 65.4589 15.2272 65.4878 15.2721C65.5167 15.3171 65.5592 15.3516 65.6092 15.3705C65.3863 16.592 65.3952 18.2413 66.4383 18.9367C66.3581 19.4093 66.2957 19.8283 66.2511 20.3989C65.1455 19.9263 63.8885 20.1136 63.835 21.335C62.3104 20.7644 61.4724 21.4063 61.41 22.4227C59.1187 21.7719 58.4946 26.1761 59.0919 28.2534C54.9641 32.8538 39.3976 42.5182 43.0975 54.5631C45.0322 61.3299 52.0665 62.4087 59.2792 60.4473C58.0131 71.1459 58.6729 82.5577 59.0919 82.7361C59.297 82.843 59.511 82.95 59.7249 83.0392C58.3341 84.9887 57.0592 86.9739 55.9002 88.9947H55.3207C55.5168 81.3185 46.6637 79.2501 42.1971 83.5028C42.1971 72.6259 25.8371 72.2158 25.748 83.7524C20.9603 80.3645 14.6392 83.9664 16.4669 88.2102C14.1043 88.2102 11.2781 88.4687 9.24537 89.708C5.80399 91.8299 7.1324 95.6903 10.8769 95.6992C20.47 95.6992 36.8923 96.2965 52.4677 95.824C46.0931 110.285 44.7915 126.137 45.8702 142.309C42.5983 142.309 14.5768 142.47 8.19334 142.684C8.03287 142.684 8.04178 142.934 8.19334 142.925C14.5501 142.773 42.4556 142.728 45.897 142.728C46.2982 148.577 47.0114 154.488 47.903 160.399C47.9041 160.457 47.9252 160.512 47.9625 160.556C47.9999 160.6 48.0513 160.629 48.108 160.64L49.9446 160.943C49.8198 161.692 49.6504 162.655 49.5167 163.288C46.6546 163.3 43.8173 163.819 41.1361 164.821C35.029 167.576 54.0368 169.627 54.0636 169.627C54.8031 167.086 55.3661 164.497 55.7486 161.879L57.0949 162.102C57.1723 162.11 57.25 162.089 57.3127 162.043C57.3753 161.997 57.4185 161.929 57.4336 161.852C58.557 155.487 59.9032 149.041 61.6685 142.72H86.3555C90.9972 150.345 96.3048 157.544 102.216 164.233C102.266 164.29 102.334 164.328 102.409 164.341C102.483 164.354 102.56 164.341 102.626 164.304L103.812 163.635C104.302 164.598 104.507 164.946 104.918 165.686C102.763 167.552 100.952 169.782 99.5683 172.274C98.6767 174.173 100.799 174.058 102.778 173.496C105.961 172.604 112.531 167.558 112.531 167.558C112.389 167.13 110.668 162.94 109.464 160.426L110.249 159.98C110.311 159.943 110.359 159.885 110.383 159.817C110.408 159.748 110.408 159.674 110.383 159.605C108.507 154.087 106.994 148.453 105.854 142.737H132.511C135.186 147.864 137.923 153.035 138.422 153.98C144.752 165.891 144.663 165.677 145.554 166.506C146.333 167.247 147.273 167.796 148.3 168.111C148.818 164.393 153.908 163.591 155.504 166.604C155.902 166.384 156.304 166.152 156.708 165.909C153.81 161.112 138.012 131.727 137.147 128.847ZM121.171 86.3825C121.237 87.1479 121.177 87.919 120.992 88.6649C120.841 90.0022 121.474 91.5802 120.529 91.8209C120.074 91.0899 119.637 90.3053 119.165 89.5564C118.514 88.6024 117.381 87.6396 116.57 88.0229C115.759 88.4063 116.356 89.5921 116.704 90.3321C117.31 91.6248 117.203 93.2118 116.82 93.0067C116.633 92.9086 116.178 91.5802 115.402 90.5995C112.924 87.4434 113.423 85.3215 113.191 83.8327C113.792 83.7407 114.387 83.6157 114.974 83.4582C115.183 83.7002 115.466 83.8652 115.779 83.927C116.093 83.9887 116.418 83.9435 116.702 83.7986C116.987 83.6538 117.215 83.4176 117.349 83.128C117.484 82.8384 117.517 82.512 117.444 82.2011C119.075 83.0481 120.885 84.5459 121.171 86.3825ZM115.108 82.5399C115.108 82.3636 115.16 82.1912 115.258 82.0446C115.356 81.898 115.495 81.7837 115.658 81.7162C115.821 81.6488 116.001 81.6311 116.173 81.6655C116.346 81.6999 116.505 81.7848 116.63 81.9095C116.755 82.0342 116.84 82.193 116.874 82.366C116.908 82.5389 116.891 82.7182 116.823 82.8811C116.756 83.044 116.641 83.1832 116.495 83.2812C116.348 83.3792 116.176 83.4315 116 83.4315C115.763 83.4315 115.536 83.3375 115.369 83.1703C115.202 83.0031 115.108 82.7764 115.108 82.5399ZM108.618 41.6088C108.637 41.6074 108.656 41.6014 108.672 41.5913C108.689 41.5813 108.703 41.5675 108.714 41.551C108.724 41.5346 108.73 41.5159 108.732 41.4965C108.734 41.4772 108.732 41.4576 108.725 41.4395C107.138 37.9892 109.259 33.5671 112.977 33.3085C114.209 33.2637 115.434 33.5208 116.543 34.0574C116.559 34.0576 116.575 34.0544 116.589 34.048C116.603 34.0415 116.616 34.032 116.626 34.0201C116.636 34.0082 116.644 33.9942 116.648 33.979C116.652 33.9639 116.653 33.9481 116.65 33.9326C116.543 31.0707 119.441 27.0855 123.783 26.2742C125.636 25.9653 127.539 26.2261 129.241 27.022C130.943 27.818 132.363 29.1116 133.313 30.7319C134.399 33.0273 134.682 35.6209 134.116 38.0961C134.107 38.1216 134.107 38.1494 134.116 38.1748C134.125 38.2003 134.143 38.2217 134.166 38.2355C134.189 38.2492 134.216 38.2544 134.243 38.2501C134.27 38.2458 134.294 38.2324 134.312 38.212C138.859 33.9415 147.445 36.3487 147.239 43.4454C147.238 43.4614 147.24 43.4774 147.246 43.4925C147.251 43.5076 147.259 43.5215 147.27 43.5332C147.281 43.545 147.294 43.5543 147.309 43.5607C147.324 43.567 147.339 43.5703 147.355 43.5703C149.477 43.6862 153.917 43.9447 155.379 45.4069C155.659 45.6464 155.847 45.9758 155.91 46.3385C155.973 46.7012 155.909 47.0747 155.727 47.395C154.657 49.2405 150.039 49.5882 147.935 49.6863C138.458 50.0607 126.252 49.927 113.325 49.8646C111.95 46.9139 110.216 44.144 108.163 41.6178L108.618 41.6088ZM87.9068 29.6353C110.49 34.8598 120.234 57.951 117.096 80.2397C116.966 80.6022 116.752 80.9289 116.472 81.1937C116.282 81.1318 116.082 81.1103 115.884 81.1306C115.685 81.151 115.493 81.2127 115.32 81.3119C115.147 81.411 114.997 81.5453 114.879 81.7062C114.761 81.867 114.678 82.0508 114.635 82.2457C113.771 82.515 112.866 82.6326 111.961 82.5934C111.961 82.5934 111.551 81.9069 110.927 80.8103C113.066 80.6766 116 79.8207 116.998 77.9573C117.011 77.9281 117.014 77.8951 117.004 77.8643C116.995 77.8335 116.975 77.8071 116.948 77.7897C116.921 77.7724 116.889 77.7654 116.857 77.77C116.825 77.7746 116.796 77.7905 116.775 77.8147C115.527 79.4819 112.826 80.204 110.757 80.4893C104.784 70.2276 99.5237 61.2319 91.5176 53.199C91.4833 53.1659 91.4373 53.1478 91.3896 53.1486C91.342 53.1494 91.2966 53.1692 91.2635 53.2035C91.2304 53.2377 91.2123 53.2838 91.2131 53.3314C91.2139 53.3791 91.2337 53.4244 91.268 53.4576C94.3181 56.5857 97.1145 59.9515 99.6307 63.5232C101.797 68.605 103.063 72.7329 103.767 74.8369C99.5379 76.5142 95.4273 78.4772 91.4641 80.7122C87.9781 62.2037 84.0821 45.5941 84.6972 36.5538C84.9469 32.9876 86.4803 30.3129 87.8622 29.671L87.9068 29.6353ZM106.353 73.9008C105.658 74.1504 104.971 74.4179 104.285 74.6854C103.224 71.4669 102.074 68.2751 100.772 65.1458C102.858 68.186 104.632 71.0389 106.353 73.9008ZM88.0049 84.6975C86.9755 84.9252 85.9335 85.0919 84.8845 85.1967C82.6023 78.615 80.7324 71.8976 79.2855 65.0834C79.3758 56.8853 80.7939 48.756 83.4847 41.0115C83.4847 48.875 86.4893 62.5335 90.4477 81.3541C89.4314 81.9485 88.4685 82.5429 87.5591 83.1373C87.7018 83.6811 87.8533 84.1893 88.0049 84.6975ZM67.7578 75.7106C66.5453 63.4697 66.7236 43.8645 71.5023 32.6309L70.6107 38.8718C70.6074 38.9072 70.6148 38.9429 70.6318 38.9741C70.6489 39.0053 70.675 39.0307 70.7066 39.047C70.7383 39.0633 70.7741 39.0698 70.8094 39.0656C70.8448 39.0614 70.878 39.0467 70.905 39.0234L72.4919 37.5256L72.9734 39.5137C68.6583 54.5542 70.4592 64.5752 71.9659 71.9305C72.0729 72.4476 76.495 74.6854 76.7446 74.6051C76.796 74.5874 76.8431 74.5593 76.883 74.5225C76.9229 74.4856 76.9547 74.4409 76.9764 74.3911L78.7595 70.2722C75.9868 62.8991 73.4102 50.6581 74.1859 39.8168L75.8263 38.0337L77.235 40.4231C77.2482 40.4415 77.2656 40.4565 77.2857 40.4668C77.3059 40.4772 77.3282 40.4826 77.3509 40.4826C77.3735 40.4826 77.3959 40.4772 77.416 40.4668C77.4362 40.4565 77.4536 40.4415 77.4668 40.4231C75.8441 51.9419 78.3583 65.333 81.5501 76.4685C76.9395 76.6048 72.3257 76.3513 67.7578 75.7106ZM75.0596 77.7166C74.2816 77.714 73.5044 77.6634 72.7326 77.5651L72.6613 76.5844C73.2497 76.6557 74.2126 76.7003 74.9437 76.7092L75.0596 77.7166ZM67.8024 37.4453L66.5809 35.047C67.1031 34.4166 67.666 33.8209 68.266 33.2639C69.3252 32.1956 70.611 31.3791 72.0283 30.8746C70.8737 33.064 69.9762 35.3795 69.3537 37.7752C67.4101 44.9076 66.679 53.5289 66.5631 60.9109C65.8677 52.7532 65.1099 45.7546 64.6463 40.539C68.0431 37.3294 67.847 37.5523 67.8024 37.4453ZM72.4028 30.0722C72.3762 30.172 72.3554 30.2732 72.3404 30.3753C67.107 32.4794 63.8439 35.5374 60.3401 38.9699C60.7591 36.9015 62.0162 30.5893 62.0251 30.5625C62.7909 30.5494 63.5484 30.4015 64.2629 30.1257C65.7696 29.5462 65.5824 29.0202 67.7667 27.5491C68.3011 28.2908 68.995 28.9033 69.7973 29.3414C70.5996 29.7796 71.4899 30.0324 72.4028 30.0811V30.0722ZM69.2021 24.0721C69.8797 24.8566 71.4221 24.3663 71.8768 23.546C71.8827 23.5271 71.8959 23.5113 71.9134 23.5021C71.931 23.4929 71.9514 23.4911 71.9704 23.497C71.9893 23.5029 72.0051 23.5161 72.0143 23.5337C72.0235 23.5512 72.0253 23.5717 72.0194 23.5906C71.8233 24.8923 69.639 25.3737 69.0149 24.2058C69.0014 24.1809 68.9974 24.152 69.0037 24.1244C69.0101 24.0968 69.0263 24.0725 69.0493 24.0561C69.0723 24.0396 69.1006 24.0322 69.1287 24.0351C69.1569 24.0381 69.183 24.0512 69.2021 24.0721ZM72.5187 30.9102C72.5187 30.9102 72.7059 32.3456 72.7237 32.3724C73.1428 33.4423 73.544 34.5121 73.963 35.5731L70.9585 38.3814L72.0194 31.6948L72.5187 30.9102ZM74.8189 35.6622L80.4267 29.7334C78.9431 33.0667 77.9405 36.5938 77.4489 40.2091L74.8189 35.6622ZM87.2203 29.4838C84.3941 31.1153 83.6541 36.0277 83.5204 39.2908L80.4535 36.6162C81.8799 35.1005 84.1088 32.5418 84.831 31.677C84.8593 31.6433 84.8748 31.6006 84.8748 31.5566C84.8748 31.5126 84.8593 31.47 84.831 31.4363C83.9246 30.3884 82.8143 29.536 81.5679 28.931C83.4665 28.9197 85.3611 29.108 87.2203 29.4927V29.4838ZM81.0508 29.038C82.3549 29.6022 83.5135 30.4559 84.4387 31.5343C83.7076 32.3724 81.6036 34.9222 80.293 36.5538C80.2856 36.5596 80.2796 36.567 80.2754 36.5755C80.2713 36.584 80.2692 36.5934 80.2692 36.6028C80.2692 36.6122 80.2713 36.6216 80.2754 36.63C80.2796 36.6385 80.2856 36.646 80.293 36.6518L83.4937 39.8079C80.8725 47.4663 79.0983 54.4293 79.0359 63.6836C77.3152 54.6701 76.5663 44.7025 78.6971 35.8584C79.224 33.5069 80.0135 31.222 81.0508 29.0469V29.038ZM80.6318 29.1004C76.174 33.781 74.8813 35.047 74.5514 35.4572C74.3909 35.6444 74.3463 35.6444 74.2839 35.4572C74.2215 35.2699 73.8827 34.4943 73.0447 32.2476C72.9555 31.5165 72.8753 30.7854 72.7861 30.0633C75.4608 30.0633 77.9393 28.2802 79.6243 26.2207C79.66 26.3366 80.4891 28.6992 80.6318 29.1093V29.1004ZM83.3599 19.5519C83.5315 19.5265 83.7065 19.5396 83.8724 19.5902C84.0383 19.6409 84.1908 19.7279 84.3188 19.8448C84.4469 19.9618 84.5473 20.1058 84.6127 20.2664C84.6782 20.427 84.7071 20.6002 84.6972 20.7733C84.7104 21.1855 84.6212 21.5945 84.4376 21.9637C84.2541 22.333 83.982 22.6511 83.6455 22.8895C83.3091 23.1279 82.9188 23.2793 82.5096 23.3301C82.1004 23.3808 81.685 23.3295 81.3004 23.1805H81.238C81.3808 22.8005 81.494 22.41 81.5768 22.0126C81.5833 21.9692 81.5744 21.9249 81.5516 21.8874C81.5288 21.8499 81.4935 21.8217 81.452 21.8075L79.0448 21.0764C79.0052 21.0658 78.9633 21.0678 78.9249 21.0822C78.8866 21.0966 78.8537 21.1226 78.8308 21.1567C78.6495 21.559 78.3859 21.9189 78.0569 22.213C77.7278 22.5072 77.3408 22.729 76.9207 22.8643C76.5006 22.9996 76.0569 23.0452 75.618 22.9983C75.1792 22.9515 74.7551 22.8131 74.3731 22.5921C71.3953 20.9873 70.0937 21.3083 68.6137 21.7005L66.4205 22.289C66.367 21.2007 66.4297 20.1098 66.6077 19.0348C66.9663 19.1849 67.3512 19.2621 67.74 19.2621C68.1287 19.2621 68.5136 19.1849 68.8722 19.0348C69.233 18.781 69.5313 18.4484 69.7444 18.0622C69.9576 17.6761 70.0801 17.2464 70.1026 16.8059C70.896 16.3156 71.3062 16.5474 72.0907 17.0912C71.9481 18.3929 72.2334 19.5876 73.4905 19.9888C75.1933 20.5237 76.495 19.9442 77.0567 17.9204C77.5847 17.826 78.1281 17.869 78.6347 18.0452C79.7491 18.4107 82.1117 19.124 82.504 19.2488C82.504 19.3647 82.4416 19.4895 82.406 19.6054C82.3961 19.6316 82.3947 19.6602 82.402 19.6872C82.4092 19.7143 82.4248 19.7383 82.4464 19.756C82.4681 19.7738 82.4948 19.7842 82.5227 19.786C82.5506 19.7878 82.5784 19.7807 82.6021 19.7659C82.8319 19.6302 83.093 19.5565 83.3599 19.5519ZM72.5811 15.9322L77.0388 16.5385C76.5752 18.7941 75.7639 20.1849 73.5796 19.5341C72.2155 19.1061 72.278 17.3409 72.5811 15.9322ZM68.8187 13.2576C69.2062 13.4251 69.5373 13.7006 69.7727 14.051C69.7892 14.0665 69.8101 14.0764 69.8325 14.0792C69.8549 14.082 69.8777 14.0777 69.8975 14.0668C69.9173 14.0559 69.9331 14.039 69.9427 14.0186C69.9524 13.9981 69.9552 13.9752 69.951 13.953C69.885 13.7247 69.7714 13.5129 69.6178 13.3316C69.4641 13.1503 69.2738 13.0035 69.0595 12.9009C69.3527 12.4864 69.6713 12.0904 70.0134 11.7152C72.1398 11.3083 74.3206 11.2721 76.4593 11.6082C76.8724 11.6592 77.2709 11.793 77.631 12.0016C77.9912 12.2102 78.3055 12.4894 78.5552 12.8224C78.8049 13.1553 78.9849 13.5352 79.0844 13.9394C79.1838 14.3435 79.2007 14.7636 79.134 15.1744C79.1289 15.2251 79.1437 15.2757 79.1754 15.3157C79.207 15.3556 79.2529 15.3817 79.3034 15.3884C80.6746 15.6449 81.9809 16.1723 83.1459 16.9397C83.0122 17.4568 82.8874 17.9649 82.7447 18.4731L77.3954 16.5474C77.5203 16.4671 77.5024 16.3602 77.5559 16.0035C77.5635 15.9386 77.5454 15.8733 77.5054 15.8216C77.4654 15.77 77.4067 15.736 77.342 15.7271L72.59 15.0763C72.5251 15.0687 72.4598 15.0869 72.4081 15.1269C72.3564 15.1669 72.3225 15.2255 72.3136 15.2903L72.2601 15.6647C72.2522 15.7119 72.2592 15.7604 72.2799 15.8035C72.3007 15.8466 72.3342 15.8822 72.376 15.9055C72.2886 16.1731 72.2231 16.4474 72.1799 16.7257C72.0752 16.5676 71.9397 16.4324 71.7815 16.3279C71.6233 16.2235 71.4456 16.1521 71.2591 16.118C71.0727 16.0838 70.8812 16.0877 70.6963 16.1293C70.5113 16.1709 70.3367 16.2494 70.1828 16.3602V15.7182C70.2173 15.7005 70.2463 15.6737 70.2667 15.6407C70.2871 15.6077 70.2982 15.5698 70.2987 15.531C70.2987 15.3705 70.4681 14.9158 70.1115 14.8891L67.9985 14.7019C68.2447 14.2141 68.5186 13.7408 68.8187 13.2843V13.2576ZM69.9421 15.6826C69.8529 16.6811 69.5766 18.1611 68.6939 18.6247C68.0506 18.8849 67.3313 18.8849 66.6879 18.6247C66.8723 17.5614 67.1713 16.5211 67.5795 15.5221L69.9421 15.6826ZM65.6894 15.326L67.2318 15.4508C66.8386 16.3998 66.54 17.3853 66.3402 18.3929C65.6092 17.8312 65.6002 16.3334 65.6894 15.3527V15.326ZM67.1605 26.5595C66.3491 26.8359 64.4056 27.6293 63.3268 28.1019C62.7473 26.818 62.5868 26.399 61.6596 24.4643C62.1842 24.4892 62.7078 24.3979 63.1931 24.1969C63.933 23.8046 64.1381 23.02 62.462 22.6634C63.6735 22.2948 64.864 21.8603 66.0282 21.3617C65.9621 23.1706 66.3514 24.9671 67.1605 26.5862V26.5595ZM66.0638 20.7377V21.1121C65.3239 21.3172 64.78 21.5133 64.4769 21.6203C64.315 21.52 64.145 21.4335 63.9687 21.3617C64.0489 20.283 65.0831 20.3275 66.0638 20.7377ZM63.9687 21.7897C63.621 21.9145 62.8721 22.182 61.9538 22.5653L61.5169 22.4316C61.6953 21.1478 62.7829 21.2726 63.9687 21.7897ZM59.0563 28.5298C59.1311 28.7568 59.2361 28.9727 59.3683 29.1717C59.3924 29.2007 59.4264 29.2196 59.4636 29.2249C59.5009 29.2301 59.5388 29.2213 59.5699 29.2002C59.6011 29.1791 59.6232 29.1471 59.6321 29.1105C59.641 29.074 59.6359 29.0354 59.6179 29.0023C59.4688 28.7643 59.3547 28.5061 59.2792 28.2356C58.7264 26.5238 59.2167 22.2176 61.0623 22.6991C61.3297 22.7704 61.5972 22.8774 61.8914 22.9665C62.1856 23.0557 64.1648 23.3232 63.0326 23.9383C62.2378 24.2168 61.3876 24.2994 60.5541 24.179C60.5341 24.1853 60.5167 24.1977 60.5043 24.2146C60.4919 24.2314 60.4852 24.2518 60.4852 24.2727C60.4852 24.2936 60.4919 24.3139 60.5043 24.3308C60.5167 24.3476 60.5341 24.36 60.5541 24.3663C60.8178 24.4447 61.0904 24.4896 61.3654 24.5C62.1589 26.5327 62.4709 27.1747 63.0326 28.5655C63.058 28.6229 63.1049 28.668 63.1632 28.6913C63.2215 28.7147 63.2866 28.7143 63.3446 28.6903C64.4234 28.2534 66.5185 27.2995 67.3477 26.9072C67.4373 27.0698 67.5355 27.2276 67.6419 27.3797C65.5913 28.4763 65.6002 29.243 64.1559 29.8136C63.3473 30.1365 62.4856 30.3058 61.615 30.3129C61.5822 30.3211 61.553 30.34 61.5321 30.3666C61.5113 30.3933 61.4999 30.4262 61.4999 30.46C61.4999 30.4939 61.5113 30.5267 61.5321 30.5534C61.553 30.5801 61.5822 30.599 61.615 30.6071H61.8557C61.7844 30.8657 61.722 31.1242 61.6507 31.3828C60.8394 30.6963 59.5644 29.671 58.6729 29.0469C58.7531 28.8419 58.9047 28.6725 59.0563 28.5298ZM58.3163 29.3144C59.1365 30.0098 60.6076 31.0975 61.4902 31.6948C61.1425 33.0143 60.9998 33.6651 60.875 34.1822C59.201 33.3877 57.5835 32.4791 56.0339 31.463C56.6847 30.8478 57.5406 30.0811 58.3163 29.2876V29.3144ZM59.4753 82.3884C58.5766 71.9004 59.1407 61.3384 61.1514 51.0058C61.1549 50.9906 61.1554 50.9748 61.1528 50.9594C61.1502 50.944 61.1446 50.9292 61.1364 50.916C61.1281 50.9028 61.1173 50.8913 61.1046 50.8822C61.0919 50.8731 61.0775 50.8666 61.0623 50.8631C61.047 50.8596 61.0313 50.8591 61.0159 50.8617C61.0005 50.8643 60.9857 50.8699 60.9725 50.8782C60.9592 50.8865 60.9477 50.8973 60.9387 50.91C60.9296 50.9227 60.9231 50.9371 60.9196 50.9523C60.2129 53.9499 59.683 56.9864 59.3326 60.0461C52.539 61.8292 45.5404 61.0179 43.5166 54.3313C41.5819 47.9834 45.2997 42.117 49.8466 37.3205C51.7366 35.3234 53.7159 33.576 55.7397 31.7394C56.8185 32.8449 59.3059 33.9772 60.8037 34.5032C60.1974 37.1333 59.404 41.1987 58.8869 44.5242C58.8923 44.54 58.9026 44.5536 58.9162 44.5632C58.9297 44.5729 58.946 44.5781 58.9627 44.5781C58.9793 44.5781 58.9956 44.5729 59.0091 44.5632C59.0227 44.5536 59.033 44.54 59.0384 44.5242C59.4575 43.0175 59.8765 41.1542 60.1974 39.6207C62.5669 37.0919 65.2205 34.8452 68.1055 32.9251C67.4239 33.5425 66.7863 34.2068 66.1976 34.9133C66.1776 34.9438 66.167 34.9794 66.167 35.0158C66.167 35.0523 66.1776 35.0879 66.1976 35.1184L67.5973 37.4453C64.0311 40.5033 64.2005 40.2894 64.2094 40.4409C64.5482 45.1929 65.4219 52.3966 66.5364 63.7193C66.5155 70.3427 67.0643 76.9556 68.1768 83.485C65.2282 83.9181 62.2172 83.5293 59.4753 82.3616V82.3884ZM10.8769 95.3961C7.44444 95.3961 6.1517 91.9458 9.37911 89.9665C11.4029 88.7184 14.354 88.4598 16.7255 88.5846C16.753 88.5868 16.7806 88.5819 16.8057 88.5703C16.8308 88.5587 16.8524 88.5408 16.8686 88.5184C16.8847 88.496 16.8948 88.4698 16.8978 88.4424C16.9009 88.4149 16.8968 88.3871 16.886 88.3617C16.6482 87.8638 16.5291 87.3176 16.5383 86.7659C16.5828 83.5206 21.6914 80.9886 25.8015 84.1625C25.8213 84.1774 25.8449 84.1865 25.8697 84.1887C25.8944 84.191 25.9193 84.1863 25.9415 84.1752C25.9637 84.1641 25.9824 84.147 25.9955 84.1259C26.0085 84.1047 26.0154 84.0804 26.0154 84.0555C26.0154 72.6615 42.2684 73.3569 41.9474 83.8237C41.9469 83.8477 41.9534 83.8713 41.966 83.8917C41.9785 83.9121 41.9967 83.9285 42.0184 83.9388C42.04 83.9492 42.0641 83.9531 42.0879 83.9501C42.1117 83.947 42.1341 83.9372 42.1525 83.9218C46.8064 79.7761 55.178 82.0228 55.08 89.1552C55.0818 89.1862 55.0943 89.2157 55.1155 89.2385C55.1366 89.2612 55.165 89.2759 55.1959 89.28H55.7486C54.5599 91.3128 53.5138 93.3752 52.6104 95.4674C47.9476 95.6011 10.8769 95.3961 10.8769 95.3961ZM54.4737 166.239L50.8183 165.829L49.9268 163.466C50.1655 162.67 50.3561 161.86 50.4974 161.041L55.2404 161.817C54.9373 163.279 54.7055 164.75 54.4737 166.239ZM61.7933 142.274C64.6017 132.342 68.4443 122.749 74.1056 114.252C76.7422 124.11 80.7742 133.54 86.0791 142.256C77.9839 142.25 69.8886 142.256 61.7933 142.274ZM110.829 164.696L107.503 166.774L105.292 165.534C104.9 164.687 104.713 164.268 104.249 163.368L108.947 160.693C109.063 160.854 108.618 159.944 110.855 164.696H110.829ZM109.661 159.588L102.528 163.6C85.036 143.379 71.8054 118.799 71.7163 91.8299C71.7163 91.6337 71.3507 91.5981 71.3418 91.8299C71.254 99.1627 72.1232 106.476 73.9273 113.584C64.2897 127.492 59.7338 144.833 56.8987 161.46L48.4647 160.096C44.7291 132.823 44.3724 105.97 60.0548 83.2086C62.7862 84.2391 65.7376 84.5462 68.6226 84.1001C68.7001 84.085 68.7686 84.0401 68.8136 83.9752C68.8586 83.9102 68.8764 83.8303 68.8633 83.7524C68.4799 81.6573 68.1768 79.5443 67.9718 77.4224C72.6486 78.1024 77.3679 78.448 82.0939 78.4566C83.0746 81.7019 84.3674 85.5355 84.4119 85.589C84.4317 85.6477 84.4705 85.698 84.5222 85.7319C84.574 85.7659 84.6356 85.7815 84.6972 85.7762C85.8673 85.6741 87.029 85.4924 88.1743 85.2324C88.7794 87.2773 89.5919 89.2549 90.5993 91.1345C90.6885 91.0631 92.0169 90.8759 109.955 87.7822L112.995 85.9278L113.049 86.4092C112.121 87.1445 111.151 87.8233 110.142 88.442L91.0807 91.5267C93.2585 97.7452 95.807 103.828 98.7124 109.741C98.7276 109.769 98.7525 109.789 98.7822 109.799C98.8119 109.809 98.8443 109.807 98.8729 109.795L101.503 108.698C101.637 123.114 104.071 144.833 109.661 159.588Z" fill="black"/>
</svg>
