<svg width="230" height="230" viewBox="0 0 230 230" fill="none" xmlns="http://www.w3.org/2000/svg">
<path fill-rule="evenodd" clip-rule="evenodd" d="M66.067 53.5584V54.3747C66.067 54.6034 66.1579 54.8228 66.3196 54.9845C66.4813 55.1462 66.7007 55.2371 66.9294 55.2371C67.1581 55.2371 67.3774 55.1462 67.5391 54.9845C67.7009 54.8228 67.7917 54.6034 67.7917 54.3747V53.5124C67.7799 53.2856 67.6815 53.0721 67.5167 52.9159C67.3519 52.7597 67.1334 52.6727 66.9064 52.673C66.7927 52.6745 66.6804 52.6987 66.5762 52.7443C66.472 52.7899 66.378 52.8559 66.2997 52.9384C66.2215 53.021 66.1606 53.1184 66.1206 53.2248C66.0806 53.3313 66.0624 53.4447 66.067 53.5584ZM65.7336 51.1553C66.9984 50.8564 68.0332 50.0055 66.1935 50.1205C65.7378 50.184 65.288 50.284 64.8483 50.4194C63.1236 51.1323 64.6183 51.4198 65.7336 51.1553ZM171.227 59.1579C170.698 60.2696 169.811 61.1721 168.709 61.7219C168.667 61.7372 168.63 61.7668 168.607 61.8057C168.584 61.8447 168.575 61.8905 168.582 61.9353C168.588 61.9802 168.611 62.0213 168.644 62.0516C168.678 62.0819 168.721 62.0995 168.767 62.1014C169.139 62.1669 169.521 62.1397 169.881 62.0222C170.24 61.9047 170.564 61.7005 170.826 61.4277C171.087 61.1549 171.278 60.8219 171.38 60.4581C171.482 60.0942 171.493 59.7109 171.411 59.3419C171.411 59.2931 171.392 59.2463 171.357 59.2118C171.323 59.1773 171.276 59.1579 171.227 59.1579ZM166.651 50.04C166.43 49.9834 166.196 50.0155 165.998 50.1294C165.801 50.2432 165.655 50.4299 165.593 50.6494C165.489 51.0237 165.47 51.4164 165.536 51.7992C165.536 52.0279 165.627 52.2472 165.788 52.409C165.95 52.5707 166.17 52.6615 166.398 52.6615C166.627 52.6615 166.846 52.5707 167.008 52.409C167.17 52.2472 167.261 52.0279 167.261 51.7992C167.261 50.9713 167.445 50.2585 166.651 50.04ZM127.11 163.007C126.178 162.536 108.368 163.697 107.92 165.698C107.828 166.135 108.115 167.814 108.621 168.09C109.621 168.618 126.753 167.653 127.696 165.79C127.964 165.337 128.053 164.8 127.944 164.285C127.836 163.77 127.538 163.314 127.11 163.007ZM108.839 167.607C108.485 167.05 108.294 166.404 108.288 165.744C108.517 164.709 118.003 164.146 119.05 164.077C119.025 165.006 119.264 165.923 119.74 166.721C118.429 166.928 109.46 167.94 108.839 167.641V167.607ZM126.857 165.307C125.948 165.951 121.338 166.537 120.234 166.675C120.331 165.765 120.137 164.848 119.682 164.054C121.05 163.962 125.431 163.72 126.73 163.835C127.075 164.088 127.087 164.87 126.857 165.33V165.307ZM96.8931 165.732C96.862 165.713 96.8262 165.703 96.7896 165.703C96.753 165.703 96.7171 165.713 96.6861 165.732C96.6861 165.617 74.725 177.989 74.0581 179.3C74.0284 179.363 74.013 179.432 74.013 179.501C74.013 179.571 74.0284 179.64 74.0581 179.702C74.7595 181.715 97.6749 202.434 98.6292 202.905C98.9052 203.043 99.2501 202.802 100.331 202.227C102.631 200.997 122.258 190.511 124.281 188.82C124.845 188.245 125.19 183.071 124.879 182.485C124.569 181.899 96.8931 165.847 96.8931 165.732ZM98.8822 201.951C96.4331 200.008 77.0361 182.531 74.886 179.565C76.8866 177.679 96.2377 166.468 96.8241 166.123C99.7905 167.929 121.142 180.921 123.879 182.761C122.432 183.179 121.057 183.811 119.797 184.635C119.142 185.268 120.774 186.44 123.039 188.636C119.579 190.867 102.412 200.065 98.8822 201.951ZM123.695 187.981C123.58 187.866 120.809 185.164 120.682 185.061C121.799 184.363 122.951 183.722 124.132 183.14C124.135 184.765 123.981 186.386 123.672 187.981H123.695Z" fill="#3D3834"/>
<path fill-rule="evenodd" clip-rule="evenodd" d="M114.14 185.865C113.335 186.21 103.516 189.464 100.745 190.591C99.9304 190.997 99.0429 191.235 98.1347 191.292C97.9738 191.292 98.9051 189.498 105.953 184.002C106.689 183.428 108.103 182.335 108.253 181.438C108.931 178.472 100.894 182.91 93.708 185.716C92.9649 186.115 92.1538 186.372 91.3165 186.474C91.236 186.003 92.8572 184.52 92.9607 184.405C97.2494 179.668 102.688 177.713 102.32 175.965C101.757 173.229 91.7764 178.552 89.6722 179.415C87.9016 180.162 85.0731 181.059 85.2455 181.059C84.8661 181.208 85.2455 181.473 85.3145 181.438C85.3835 181.404 89.0284 180.289 89.9137 179.898C91.236 179.392 100.078 175.126 101.55 176.126C102.136 176.54 95.8811 179.909 92.3513 183.807C91.7304 184.474 90.0517 185.831 90.5691 186.934C90.664 187.105 90.8078 187.243 90.982 187.331C91.1562 187.419 91.3528 187.453 91.5464 187.429C93.2596 187.429 104.942 181.576 107.345 181.392C106.793 182.12 106.134 182.76 105.39 183.29C103.677 184.646 98.7096 188.694 97.5598 190.556C96.962 191.522 97.4564 192.097 98.2382 192.108C99.2731 192.108 100.538 191.407 103.654 190.234C114.22 186.164 114.554 186.348 114.381 185.969C114.373 185.946 114.359 185.925 114.342 185.907C114.325 185.89 114.305 185.876 114.282 185.866C114.26 185.856 114.236 185.851 114.211 185.851C114.187 185.851 114.163 185.856 114.14 185.865Z" fill="#3D3834"/>
<path fill-rule="evenodd" clip-rule="evenodd" d="M224.21 142.023C224.061 129.996 222.98 105.448 220.6 93.5479C219.346 87.2355 216.633 78.6005 211.585 74.4268C209.447 72.6676 206.296 70.9774 200.582 67.8154C200.651 67.666 191.556 63.9866 191.13 65.2054C190.777 63.1084 190.282 61.0378 189.647 59.008C190.498 58.7321 190.119 56.2485 190.475 54.8458C190.831 53.443 192.177 52.4427 192.867 51.2929C194.419 48.7288 194.683 44.2561 194.396 41.2782C194.12 38.5072 190.073 32.3212 187.405 31.3094C184.738 30.2976 182.001 30.3321 179.184 29.7687C176.884 29.2973 175.183 28.021 172.607 27.6991C170.032 27.3771 168.491 28.8489 166.283 28.8489C164.076 28.8489 161.592 27.1357 159.281 26.9977C158.025 26.9782 156.805 27.415 155.847 28.227C154.89 29.039 154.259 30.1711 154.072 31.4129C153.794 33.2639 154.013 35.1558 154.708 36.8938C155.403 38.6318 156.549 40.1531 158.028 41.3012C159.828 42.44 161.851 43.1809 163.961 43.4743C163.823 49.3497 164.444 47.7745 163.754 48.2919C163.064 48.8093 163.282 52.4312 163.524 53.4315C163.627 53.8339 163.731 53.9834 164.225 54.1444C163.949 55.2942 162.006 57.7777 163.754 58.3871C163.984 58.4676 164.904 58.6286 164.996 58.6631C165.231 59.7535 165.578 60.8168 166.03 61.8365C166.476 62.8617 167.128 63.7845 167.945 64.5478C168.761 65.3112 169.726 65.899 170.779 66.2747C172.435 66.9186 173.745 67.0911 174.711 67.4245C174.844 67.9 174.914 68.391 174.918 68.8848C170.812 69.964 166.944 71.8007 163.512 74.3003C157.292 79.3479 148.45 100.286 146.139 102.585C145.242 103.471 124.12 107.564 121.004 109.68C120.395 110.093 120.372 110.45 120.452 111.186C119.694 111.324 116.497 111.922 116.141 112.6C116.035 113.093 116.063 113.605 116.221 114.083C113.376 113.552 110.505 113.168 107.621 112.933C107.093 112.946 106.573 113.069 106.096 113.295C105.619 113.52 105.194 113.844 104.85 114.244C103.884 115.394 104.666 115.199 103.642 115.038C101.469 114.727 93.6852 117.337 92.7078 117.797C92.7078 117.383 92.7078 117.096 92.2709 116.866C90.9876 116.494 89.6469 116.361 88.3156 116.475C87.5108 117.015 90.6152 116.831 91.903 117.498C91.903 118.383 92.018 127.467 91.903 129.249C91.903 129.571 91.903 129.525 91.6615 129.559C90.5117 129.72 88.856 129.559 88.3501 129.927C88.5341 125.926 88.3501 116.13 87.7982 115.555C87.4648 115.21 81.3249 114.474 74.6445 113.669C74.6682 108.836 74.3995 104.006 73.8397 99.2049C72.6094 88.5348 70.0339 75.956 61.9853 69.5746C62.4517 69.7651 62.965 69.8092 63.457 69.7011C64.1141 69.4403 64.8214 69.3303 65.5267 69.3792C66.6765 69.6896 66.8259 70.529 69.7004 68.5973C69.8844 68.4708 70.3673 68.5053 70.7467 68.1259C72.046 66.8266 71.3906 65.0674 71.3906 63.7567C71.581 62.8656 71.643 61.9518 71.5746 61.0432C71.5393 60.9077 71.4733 60.7822 71.3815 60.6765C71.2898 60.5708 71.1748 60.4877 71.0457 60.4338C71.0457 60.0543 71.4481 59.3759 70.8732 58.6401C71.7011 58.2032 72.5979 57.6972 72.138 56.8004C71.2594 55.3952 70.5347 53.8995 69.9764 52.3392C69.6199 51.0054 70.1029 49.3037 70.0799 47.8665C70.0799 46.8777 70.1833 45.6934 70.0799 44.6126C70.9667 43.9933 71.6444 43.1192 72.023 42.106C72.1069 41.6965 72.0889 41.2726 71.9706 40.8716C71.8523 40.4706 71.6374 40.1049 71.3446 39.8064C70.9652 39.565 70.8847 39.8064 70.8962 39.0935C70.9378 38.8434 70.9265 38.5873 70.8632 38.3417C70.7998 38.0962 70.6857 37.8666 70.5283 37.6678C70.0454 37.1964 68.9416 36.679 68.5966 36.1961C68.0102 35.3337 67.6653 34.4714 66.5615 34.1264C65.7796 33.8735 65.0438 34.3679 64.5148 34.1954C63.7905 33.9655 63.0431 33.1836 62.2153 34.0115C62.0304 34.1117 61.8276 34.1744 61.6185 34.1961C61.4093 34.2178 61.198 34.1981 60.9965 34.1379C60.3066 33.5515 60.1341 32.5397 58.9613 32.3213C58.2944 32.2063 56.9837 32.5282 56.4778 32.3213C55.649 31.7112 54.7346 31.2269 53.7643 30.884C52.6794 30.7807 51.5849 30.8742 50.5333 31.16C49.7975 31.3094 48.8546 31.2289 48.0843 31.3439C46.486 31.5969 46.0261 32.9766 44.9683 33.6435C43.9105 34.3104 42.1283 34.3219 41.1165 35.8166C40.2657 37.0814 40.4496 38.4497 40.1162 39.7144C39.9782 40.2548 39.2423 40.8642 38.9664 41.4161C38.3225 42.6924 38.8169 43.9802 38.8054 45.084C38.7939 46.1878 38.0235 47.1996 38.242 48.5334C38.4195 49.1995 38.7113 49.8297 39.1044 50.396C39.1091 50.5824 39.0859 50.7685 39.0354 50.9479C38.6846 51.8528 38.6125 52.8418 38.8284 53.7879C39.0166 54.695 39.4547 55.5313 40.0932 56.2025C40.898 56.9039 41.312 56.7199 41.8984 57.7202C42.145 58.2492 42.5158 58.7107 42.9792 59.0655C43.83 59.6404 44.8763 59.146 45.3822 59.3989C45.697 59.5652 46.0403 59.6705 46.3941 59.7094C46.111 59.8524 45.8665 60.0614 45.6812 60.3188C39.4263 61.1121 31.1708 65.6768 26.1347 71.9202C24.1455 74.4843 20.7996 78.1866 19.5463 81.1531C12.8085 96.3764 16.0969 120.246 13.3834 127.616L6.66862 145.128C6.34667 145.967 5.51882 150.141 5.81777 151.578C6.30068 153.717 8.54278 151.038 9.91104 149.52C9.06019 152.544 9.07169 153.337 8.62327 165.238C8.48529 168.963 8.35882 173.022 8.30133 176.437C8.29803 176.461 8.30004 176.486 8.30722 176.51C8.31439 176.533 8.32657 176.555 8.34293 176.574C8.35929 176.592 8.37944 176.607 8.40202 176.617C8.42459 176.627 8.44907 176.632 8.47379 176.632C8.79574 176.632 8.58877 177 9.06019 167.503C9.39363 160.822 9.77306 154.591 9.80756 154.085C9.97776 152.119 10.4109 150.186 11.0953 148.336C14.3063 145.937 17.9197 144.13 21.7654 143.001C26.0455 141.856 30.5653 141.971 34.7811 143.334C35.9309 143.713 39.0239 144.484 40.1277 143.966C42.4273 142.817 48.3487 139.011 49.326 136.7C49.809 135.55 50.1999 134.619 50.5793 133.756C52.3385 133.917 54.5001 134.366 56.4203 134.389C58.5704 134.389 59.9502 134.044 62.3302 131.94C71.0802 132.135 80.727 131.871 85.3261 131.698C88.3961 132.848 97.8244 136.217 100.113 138.482C101.009 139.356 101.538 141.793 101.86 144.507C102.284 147.75 102.396 151.027 102.194 154.292C95.8928 155.499 87.8672 157.408 81.6583 158.948C81.3106 158.851 80.9473 158.824 80.589 158.868C78.9448 159.04 79.7151 159.707 79.1747 158.04C79.2006 158.046 79.2276 158.046 79.2533 158.039C79.279 158.032 79.3025 158.019 79.3219 158C79.3412 157.982 79.3558 157.96 79.3642 157.934C79.3727 157.909 79.3747 157.882 79.3702 157.856C79.3533 155.646 79.095 153.444 78.5998 151.291C78.5194 150.969 77.956 150.808 77.611 150.704C73.8857 149.623 59.5017 148.175 56.3398 148.991C54.2817 149.531 40.0357 156.89 39.3918 158.454C38.7479 160.018 37.0002 169.423 36.6783 171.159C29.2276 173.332 23.3522 175.126 20.4777 176.103C20.4538 176.111 20.4318 176.123 20.413 176.14C20.3942 176.156 20.3789 176.177 20.3682 176.199C20.3574 176.222 20.3514 176.246 20.3504 176.271C20.3495 176.296 20.3536 176.321 20.3627 176.345C20.5007 176.77 24.272 174.815 62.9051 164.663C63.2934 165.654 63.7908 166.599 64.3884 167.48C63.2386 167.756 61.9393 168.262 61.5599 169.319C61.4924 169.543 61.4813 169.779 61.5274 170.008C61.5735 170.237 61.6755 170.45 61.8243 170.63C62.7676 171.686 64.0251 172.412 65.4117 172.7C67.8429 173.309 70.3692 173.442 72.8509 173.091C75.2339 172.883 77.582 172.381 79.8416 171.596C82.3022 170.561 82.1412 169.02 81.1984 168.319C80.2268 167.748 79.1592 167.358 78.0479 167.169C79.0943 165.272 78.1169 166.111 79.6807 165.732C80.5655 165.521 81.3739 165.067 82.0147 164.421C83.0266 163.386 83.7049 160.834 82.7391 159.604C87.5912 158.454 107.103 153.625 111.875 153.981C120.533 154.614 183.484 180.495 198.386 185.486C198.409 185.493 198.434 185.496 198.458 185.494C198.483 185.492 198.507 185.485 198.528 185.474C198.55 185.463 198.57 185.447 198.586 185.429C198.602 185.41 198.614 185.388 198.621 185.365C198.629 185.341 198.632 185.317 198.63 185.292C198.628 185.268 198.621 185.244 198.61 185.222C198.599 185.2 198.583 185.181 198.564 185.165C198.546 185.149 198.524 185.137 198.501 185.129C194.603 183.772 185.91 180.311 175.505 176.149C176.011 174.93 177.344 170.998 178.379 169.641C178.805 169.089 178.782 169.043 182.576 169.262C192.522 169.837 201.283 169.572 210.826 166.525C216.656 164.651 219.519 160.328 221.175 154.545C221.508 154.648 222.416 154.947 222.738 155.016C222.83 155.038 222.926 155.038 223.018 155.016C223.11 154.994 223.195 154.951 223.267 154.89C224.405 153.728 224.21 144.288 224.21 142.023ZM66.9409 62.9633C66.6297 63.0767 66.2938 63.1045 65.9682 63.0438C65.6426 62.9831 65.3392 62.8362 65.0897 62.6184C64.8416 62.4197 64.6473 62.1619 64.5247 61.8686C64.4021 61.5753 64.3553 61.2558 64.3884 60.9397C64.3731 60.8924 64.3773 60.841 64.3999 60.7968C64.4226 60.7526 64.4618 60.7192 64.5091 60.704C64.5564 60.6887 64.6078 60.6929 64.652 60.7155C64.6962 60.7382 64.7296 60.7774 64.7448 60.8247C65.3125 61.6412 66.1142 62.2666 67.0444 62.6184C67.074 62.6429 67.0957 62.6755 67.1069 62.7123C67.118 62.7491 67.1181 62.7883 67.107 62.8252C67.096 62.862 67.0743 62.8947 67.0448 62.9193C67.0153 62.9438 66.9791 62.9592 66.9409 62.9633ZM56.1443 52.8911C56.1836 52.5533 56.3193 52.234 56.5353 51.9713C56.7882 51.7183 57.5586 51.8793 58.099 51.5113C58.5031 51.1919 58.8098 50.7658 58.9843 50.2811C59.6282 49.0048 60.6515 49.9936 62.0773 47.8895C62.4412 47.2978 62.7235 46.6596 62.9166 45.9923C63.7215 45.6129 64.7678 46.1648 65.7796 44.4976C66.1131 43.9342 66.3315 43.3478 66.9294 43.1868C67.3778 43.6697 67.8263 45.4864 69.6429 44.785C69.6429 45.4059 69.505 48.5449 69.4705 48.7978C69.3214 49.5556 69.2406 50.3252 69.229 51.0974C69.229 53.397 70.2868 54.6618 71.4596 57.0649C71.6436 57.4443 70.6777 57.8122 70.1948 58.0767C69.5136 57.8257 68.8086 57.6447 68.0907 57.5363C65.8601 56.9959 64.0779 58.1572 62.1578 58.6861C61.8323 58.6881 61.5078 58.6495 61.1919 58.5711C60.4676 58.5021 59.7087 59.238 58.6854 59.3759C58.4186 59.4283 58.1422 59.3993 57.8921 59.2927C57.6419 59.1861 57.4296 59.0068 57.2826 58.7781C57.1586 58.3569 57.0702 57.9262 57.0182 57.4903C56.9147 57.0764 56.7882 56.6624 56.6962 56.26C56.5123 55.4321 57.0527 55.1102 56.4203 53.9604C55.9834 53.1785 55.9949 53.5235 56.1443 52.8911ZM56.5813 76.3469C57.3555 74.8777 57.9869 73.3376 58.4669 71.7478C59.1108 75.749 59.4557 77.7727 59.6167 78.7845C58.7774 78.0831 58.6969 77.8187 56.5813 76.3009V76.3469ZM60.0306 81.0266C60.594 84.476 60.4676 83.6941 60.571 84.407C60.2964 83.8896 59.9605 83.407 59.5707 82.9698C59.6994 82.2102 59.7572 81.4404 59.7432 80.6702L60.0306 81.0266ZM55.8684 83.0962C55.1817 82.3823 54.5549 81.6132 53.9942 80.7966C54.5627 79.4671 55.2038 78.1697 55.9144 76.9103C58.3289 78.7615 58.145 78.7385 58.7429 79.4859C58.8306 80.4651 58.8306 81.4502 58.7429 82.4294L55.8684 83.0962ZM56.0179 83.8436C57.3861 86.8906 57.938 91.8922 58.2255 95.2266C56.7901 91.0267 54.8602 87.0126 52.4765 83.2687C52.9427 82.6317 53.3579 81.9589 53.7183 81.2566C54.1918 82.1385 54.7585 82.9673 55.4085 83.7286C55.4915 83.7809 55.5851 83.8141 55.6825 83.826C55.7798 83.838 55.8787 83.8283 55.9719 83.7976L56.0179 83.8436ZM49.1881 59.238C49.2816 59.267 49.378 59.2863 49.4755 59.2955C49.7432 59.2834 49.9999 59.1851 50.2071 59.0152C50.4144 58.8452 50.5611 58.6128 50.6253 58.3526C50.8093 58.2376 50.9473 58.1112 50.9358 57.8927C50.9243 57.6742 48.4522 54.2938 51.6026 52.5577C51.8805 52.5275 52.1598 52.5996 52.3883 52.7604C52.6168 52.9213 52.779 53.1598 52.8444 53.4315C52.9932 54.0448 53.3074 54.6056 53.7528 55.0527C53.7876 55.7877 53.8837 56.5184 54.0402 57.2373C54.1322 57.6628 53.8102 58.2147 53.7413 58.8011C53.5803 59.9508 54.6956 61.2156 55.098 62.2504C55.6384 63.6417 55.2705 65.1364 56.5583 66.3667C57.846 67.597 57.6046 66.5852 58.053 69.3447C57.5166 71.5133 56.7774 73.6268 55.8454 75.6571C54.5461 73.8174 47.9693 63.0783 46.647 60.6292C47.1414 60.3303 48.6822 59.4564 49.1421 59.192L49.1881 59.238ZM45.7387 60.7672C46.578 62.7219 54.937 75.9675 54.937 76.0825C54.5346 77.3588 52.2235 82.6478 51.1312 83.2227C48.7282 81.5095 42.1398 63.4922 41.6684 61.8595C42.9656 61.3038 44.3302 60.9211 45.7272 60.7212L45.7387 60.7672ZM57.6046 111.531C56.3398 111.128 52.258 97.2732 48.6132 89.6041C46.4286 85.0049 42.1398 77.4047 37.4602 75.3811C32.4011 73.208 22.9957 78.4166 21.9954 85.1774C21.3846 89.6361 21.7454 94.1743 23.0532 98.4805C28.4802 114.888 35.8274 127.973 51.5222 131.721C51.8901 130.985 50.5908 131.595 60.916 131.871C60.4099 132.264 59.8714 132.614 59.3063 132.917C57.3746 133.963 53.7068 133.124 50.9932 132.825L51.3382 132.078C35.1721 128.467 27.6064 114.831 22.1909 98.7335C20.8232 94.2975 20.4309 89.6182 21.0411 85.0164C22.0759 77.7037 31.8147 72.4606 37.2072 74.2773C38.5822 74.7896 39.8409 75.5714 40.9095 76.5769C40.3968 71.9695 40.2698 67.3274 40.5301 62.6989C40.7414 62.5112 40.9683 62.3419 41.2085 62.1929C42.1973 65.6423 47.8313 82.1304 50.6943 83.9586C50.8759 84.0659 51.0885 84.1084 51.2973 84.0792C51.5062 84.0499 51.699 83.9507 51.8441 83.7976C54.4311 88.2473 56.8457 92.8005 57.8115 97.5952C58.3579 100.241 58.4975 102.955 58.2255 105.644C56.5928 98.8829 52.0741 89.1097 46.9345 84.43C52.189 93.5019 56.0179 108.012 57.7311 110.875C58.4164 111.064 59.1164 111.195 59.8237 111.266C59.5247 104.367 59.2948 89.9835 56.3743 83.7401C56.7307 83.7401 59.2488 83.1997 59.2488 83.1997C59.7029 83.745 60.089 84.3434 60.3986 84.9819C60.87 85.8902 60.709 85.2004 61.4219 90.0295C64.8713 112.324 64.6758 112.209 65.1242 112.451C62.8706 112.163 58.9038 111.922 57.6046 111.531ZM65.2392 106.932C60.755 81.475 60.709 80.7621 58.8234 70.138C58.9728 69.6321 59.0878 69.2182 59.1683 68.9193C59.8812 69.8276 63.7675 74.8062 64.1929 75.8985C63.5605 76.4619 61.2839 77.4277 61.9738 78.1981C62.2842 78.5545 64.8483 80.7736 65.6531 81.5785C66.0901 83.4297 65.4002 103.712 65.2392 106.932ZM37.1382 171.01C37.4601 169.549 39.5643 160.052 40.1507 158.718C40.5761 157.729 54.4426 150.371 56.6272 149.819C59.7777 148.991 76.9326 150.693 78.1284 151.463C78.6683 153.469 78.9845 155.528 79.0713 157.603C77.1396 155.303 62.1923 155.913 62.0313 159.155C62.0281 159.262 62.0505 159.367 62.0965 159.463C62.1425 159.559 62.2108 159.643 62.2957 159.707C62.2882 161.097 62.4465 162.483 62.7672 163.835C53.9367 166.215 45.1063 168.699 37.1382 171.01ZM80.9799 169.216C81.5663 171.113 74.679 171.929 72.6899 172.159C70.328 172.496 67.9234 172.375 65.6072 171.803C64.5953 171.527 62.7212 170.791 62.3647 169.871C62.1923 169.434 62.7557 169.02 63.1696 168.802C63.694 168.528 64.2501 168.32 64.8253 168.181C65.4517 169.044 66.2916 169.73 67.2629 170.17C68.4127 170.676 73.3223 170.32 75.024 169.952C75.7713 169.791 76.5647 169.572 77.6915 167.767C78.3814 167.871 80.7845 168.584 80.9799 169.216ZM75.4839 168.814C74.6216 169.331 68.5276 169.745 67.5963 169.365C64.5148 168.135 62.8361 163.329 62.7097 159.937C65.2146 160.488 67.7856 160.678 70.3443 160.5C72.2645 160.248 76.8062 159.466 78.4734 158.626C79.4737 162.398 77.3581 167.721 75.4839 168.814ZM81.9113 162.881C81.6 163.496 81.1628 164.04 80.628 164.475C80.0931 164.911 79.4727 165.23 78.8068 165.41C79.4083 163.797 79.6933 162.083 79.6462 160.363C79.7369 160.172 79.8687 160.005 80.032 159.872C80.1953 159.739 80.386 159.643 80.5905 159.593C80.795 159.542 81.0082 159.538 81.2147 159.579C81.4212 159.621 81.6159 159.708 81.7848 159.834C82.6471 160.397 82.2677 161.903 81.9113 162.881ZM200.34 68.1489C208.113 72.4376 211.562 74.2313 214.046 77.9911C212.483 76.6477 210.495 75.9021 208.435 75.887C201.065 75.6341 197.443 86.5456 195.557 93.6054C192.43 105.379 194.35 120.281 194.177 122.465C192.188 124.316 182.001 129.605 177.448 132.078C178.08 129.41 180.334 119.119 181.806 115.061C183.783 109.611 189.475 96.9168 189.854 94.1573C189.958 93.3409 189.797 93.2374 187.382 91.6737C188.313 91.6737 190.831 91.4208 191.613 91.2713C191.947 91.2713 192.119 91.1218 192.246 90.4204C192.671 87.9829 193.499 67.8959 193.568 65.7573C193.487 65.7113 199.351 67.5855 200.375 68.1489H200.34ZM191.475 65.4009C191.999 65.3631 192.525 65.4216 193.028 65.5733C192.453 73.9094 191.878 88.5693 191.337 90.4434C190.728 90.5584 188.566 90.7079 187.727 90.7654C185.933 90.8689 185.887 90.7654 185.703 91.0183C185.519 91.2713 185.772 91.6162 186.106 91.8462C186.692 92.2601 188.647 93.4904 188.923 93.8123C188.657 95.1813 188.249 96.5186 187.704 97.8021C181.208 115.049 181.599 109.749 177.229 128.663C177.521 119.602 178.358 110.568 179.736 101.608C180.656 96.6753 181.771 92.0416 185.485 81.4865C186.945 77.4047 189.969 69.5861 190.084 69.6321C190.661 68.258 191.137 66.8439 191.51 65.4009H191.475ZM171.503 135.964C171.722 136.815 171.722 136.7 171.653 136.711L171.296 136.642C171.296 136.527 170.676 124.983 170.974 120.212C171.515 111.761 172.205 102.597 172.849 93.7663C173.159 89.4891 174.332 80.3022 174.297 80.6472L175.447 79.7963C175.924 80.7482 176.466 81.6664 177.068 82.5443C177.298 82.8548 177.609 83.2457 177.977 83.2802C177.724 85.3613 173.895 111.036 172.768 127.444C172.147 136.378 172.768 134.481 171.86 135.297C171.752 135.37 171.665 135.47 171.609 135.587C171.552 135.704 171.528 135.834 171.538 135.964H171.503ZM178.333 83.2917C179.207 83.2917 180.15 81.452 181.3 80.6702C181.748 81.1416 183.105 83.3952 184.002 83.6941C180.196 94.1343 176.126 108.691 176.137 132.721C175.16 133.25 173.837 134.009 172.86 134.573C173.435 124.788 177.597 92.674 178.368 83.2917H178.333ZM190.406 67.8384C190.038 68.9882 184.577 82.1764 184.197 82.7858C183.604 82.2045 183.076 81.5607 182.622 80.8656C181.656 79.5664 181.323 79.1409 179.678 80.9921C182.116 76.3929 186.876 71.7248 188.877 69.4022C190.785 67.2176 190.532 67.4015 190.406 67.8384ZM164.651 43.6927C165.508 43.9569 166.426 43.9569 167.284 43.6927C167.94 43.4011 168.664 43.2976 169.376 43.3938C170.381 43.857 171.414 44.2564 172.469 44.5896C173.774 44.5781 175.077 44.4743 176.367 44.2791C176.958 44.5554 177.459 44.9938 177.811 45.5433C178.163 46.0928 178.352 46.7309 178.356 47.3836C176.213 47.6947 174.145 48.3921 172.251 49.4417C172.134 49.0642 171.904 48.7321 171.591 48.4911C171.278 48.2502 170.898 48.1123 170.503 48.0965C168.618 47.8696 166.713 47.8465 164.823 48.0275C164.655 46.5583 164.598 45.0786 164.651 43.6007V43.6927ZM164.202 53.5005C163.915 52.9946 163.351 49.0738 163.926 48.6484C164.018 48.7633 163.616 48.4069 165.8 48.4299C167.34 48.4785 168.876 48.6167 170.4 48.8438C171.434 49.0278 171.607 49.4992 171.549 50.4995C171.549 52.3507 171.607 52.1667 171.549 52.7416C171.549 52.9026 171.48 53.328 171.354 53.42C168.989 53.848 166.566 53.8441 164.202 53.4085V53.5005ZM174.769 66.4587C171.618 65.5618 168.732 65.4469 166.789 61.4456C165.536 58.87 166.226 58.1227 165.087 57.7892C164.665 57.7389 164.249 57.6465 163.846 57.5133C163.846 56.7429 164.812 55.1332 164.996 54.3168C166.905 54.5451 168.835 54.5451 170.744 54.3168C171.894 54.1444 172.504 53.9489 172.32 51.6148V49.8326C174.125 49.2807 177.954 48.3724 178.414 48.2459C178.416 48.8714 178.501 49.4938 178.667 50.0971C178.846 50.4764 179.156 50.7785 179.54 50.9479C179.602 50.9752 179.669 50.988 179.736 50.9852C179.803 50.9825 179.869 50.9642 179.928 50.932C179.987 50.8997 180.037 50.8543 180.076 50.7992C180.114 50.7442 180.14 50.6809 180.15 50.6145C180.414 49.5452 180.621 48.5909 180.702 48.1309C180.702 48.3839 180.805 47.3261 181.564 46.9122C182.714 46.3143 184.496 47.648 184.623 49.5337C184.692 50.4535 183.772 52.1207 183.082 54.0409C182.668 55.1907 185.174 55.6851 186.048 56.1105C186.37 56.8579 186.175 57.6972 186.612 58.1457C187.268 58.5499 187.987 58.8414 188.739 59.008C189.532 61.5495 190.109 64.1535 190.463 66.7921C187.543 69.8621 186.888 70.598 186.106 71.3913C183.051 74.2937 180.461 77.648 178.425 81.337C177.609 76.5424 176.057 72.3111 175.884 70.9199C175.746 69.8391 175.976 67.9304 175.47 66.9071C175.393 66.7853 175.291 66.682 175.17 66.6045C175.048 66.527 174.911 66.4772 174.769 66.4587ZM175.102 70.3565C175.654 72.4031 177.126 79.049 177.551 81.7165C176.85 80.6587 175.988 78.911 175.988 78.911C175.958 78.8486 175.914 78.7938 175.86 78.7506C175.806 78.7074 175.743 78.6769 175.676 78.6614C175.608 78.646 175.538 78.6459 175.471 78.6612C175.403 78.6766 175.34 78.7069 175.286 78.75L174.447 79.3939C174.769 76.4044 175.091 73.3575 175.137 70.3565H175.102ZM174.769 69.3332C174.665 77.7957 172.975 85.3383 172.285 93.7663C169.986 122.097 169.986 120.706 170.216 130.732C168.974 121.672 167.238 104.046 166.283 94.4907C166.962 93.9733 170.239 91.4782 170.607 90.7194C170.779 90.3514 170.607 89.972 169.779 89.972C168.34 90.0805 166.894 90.0805 165.455 89.972C166.329 86.4076 171.331 73.4035 172.665 69.9541C173.343 69.7586 173.906 69.5631 174.769 69.3332ZM121.315 110.542C123.097 108.668 145.46 104.298 146.679 103.114C148.392 101.389 153.107 90.6849 157.913 82.5673C161.995 75.6686 164.214 73.116 172.159 70.184C170.25 74.9097 166.525 84.154 164.846 89.5351C164.743 89.8685 164.593 90.2365 164.846 90.4549C165.478 91.0758 168.123 90.7079 169.641 90.7309C168.571 91.8002 165.628 93.9733 165.628 93.9733C165.571 94.0152 165.526 94.0712 165.498 94.1357C165.47 94.2003 165.459 94.2712 165.467 94.3412C165.95 99.6763 168.916 131.514 170.204 136.136L168.134 135.607C166.797 134.951 165.344 134.56 163.857 134.458C166.479 121.419 165.536 117.774 165.858 110.668C165.858 109.932 162.753 95.1461 162.73 95.0311C162.73 94.9823 162.711 94.9355 162.677 94.901C162.642 94.8665 162.595 94.8471 162.546 94.8471C162.498 94.8471 162.451 94.8665 162.416 94.901C162.382 94.9355 162.362 94.9823 162.362 95.0311C162.558 100.067 163.984 104.862 164.961 110.358C161.282 113.807 157.43 118.579 151.163 120.131C147.289 121.108 129.145 125.064 126.73 125.236C124.753 123.029 121.004 112.014 121.315 110.542ZM119.13 112.071C119.13 112.071 120.51 111.738 120.487 111.519C121.561 115.559 122.913 119.52 124.534 123.374C123.489 123.697 122.42 123.939 121.338 124.098C120.682 124.098 121.142 124.673 119.544 120.879C118.559 118.52 117.715 116.105 117.015 113.646C116.819 112.853 116.486 112.933 119.13 112.071ZM105.666 114.497C106.574 113.497 107.23 113.347 116.313 114.497C117.121 117.239 118.1 119.927 119.245 122.546C117.376 124.003 115.233 125.07 112.944 125.685C112.875 125.19 112.714 125.34 113.105 125.374C113.435 125.384 113.763 125.319 114.065 125.184C114.367 125.05 114.635 124.85 114.849 124.598C115.063 124.347 115.218 124.05 115.302 123.731C115.386 123.411 115.398 123.077 115.336 122.753C115.244 121.603 111.955 119.211 111.024 118.556C111.577 118.67 112.151 118.626 112.68 118.429C112.727 118.414 112.766 118.381 112.789 118.337C112.812 118.292 112.816 118.241 112.801 118.194C112.785 118.146 112.752 118.107 112.708 118.085C112.663 118.062 112.612 118.058 112.565 118.073C110.633 118.579 108.679 116.279 108.426 116.21C107.54 115.992 108.092 118.05 106.126 119.28C105.839 119.464 104.735 119.05 104.666 118.487C104.521 117.79 104.536 117.068 104.709 116.378C104.882 115.687 105.209 115.044 105.666 114.497ZM92.8113 118.119C94.2831 117.59 101.78 115.268 103.941 115.819C103.698 116.738 103.643 117.696 103.78 118.636C103.853 118.935 103.99 119.215 104.181 119.456C104.372 119.697 104.612 119.894 104.886 120.034C105.16 120.173 105.461 120.252 105.768 120.265C106.075 120.278 106.382 120.224 106.666 120.108C107.468 119.574 108.07 118.79 108.38 117.878C109.403 118.498 114.485 121.867 114.416 123.063C114.416 123.868 113.991 124.546 113.186 124.477C112.506 124.234 111.864 123.897 111.277 123.477C110.687 123.005 110.064 122.575 109.414 122.189C109.311 122.136 109.192 122.122 109.079 122.151C108.966 122.181 108.868 122.25 108.804 122.348C108.74 122.445 108.714 122.562 108.731 122.677C108.748 122.792 108.807 122.897 108.897 122.971C108.897 122.971 109.759 123.615 110.714 124.236C112.151 125.386 112.645 126.444 110.863 126.984C110.584 127.067 110.291 127.091 110.002 127.056C109.713 127.02 109.435 126.925 109.184 126.777C108.891 126.198 108.503 125.674 108.035 125.225C107.826 124.688 107.451 124.231 106.965 123.921C106.48 123.611 105.908 123.463 105.333 123.5C104.735 123.569 104.689 123.868 104.746 123.592C105.022 122.224 103.274 121.396 102.056 121.626C100.09 122.017 98.9972 124.615 98.3533 126.513C97.9624 127.34 99.5031 126.421 92.7768 128.812C92.9664 125.473 92.9664 122.125 92.7768 118.786C92.7193 117.993 92.6963 118.177 92.8113 118.119ZM98.6753 126.639C99.3077 125.282 100.699 122.741 102.182 122.511C102.757 122.408 103.918 122.799 103.792 123.385C103.543 124.942 102.825 126.386 101.734 127.524C101.872 127.754 98.2729 127.823 98.6753 126.639ZM105.183 124.443C105.459 124.167 107.069 124.73 107.115 125.593C107.195 127.03 105.827 128.743 104.643 129.536C104.263 129.801 102.769 128.582 102.424 128.088C103.245 126.801 104.168 125.582 105.183 124.443ZM107.126 128.272C107.207 128.157 108.357 125.604 108.552 127.72C108.633 128.548 107.402 128.985 106.597 128.87C106.784 128.68 106.961 128.48 107.126 128.272ZM132.698 143.219C127.857 146.979 127.167 151.923 127.961 157.821C120.188 155.062 114.255 153.222 111.944 153.027C108.816 153.091 105.703 153.477 102.654 154.177C102.964 151.084 102.826 140.23 100.63 137.999C98.4338 135.768 90.4657 132.721 87.4648 131.572H88.1432C88.4076 131.434 87.9707 130.226 88.971 130.157C90.1783 130.088 91.8685 130.548 92.4204 130.065C92.5852 129.815 92.6804 129.525 92.6963 129.226C93.9611 128.824 96.9391 127.915 98.4453 127.524C98.9517 127.926 99.5445 128.205 100.177 128.339C100.81 128.472 101.464 128.457 102.09 128.295C102.435 129.065 104.045 130.755 105.045 130.203C105.323 130.043 105.588 129.862 105.839 129.663C106.566 129.865 107.338 129.832 108.046 129.571C108.421 129.469 108.755 129.254 109.004 128.956C109.253 128.658 109.404 128.291 109.437 127.904C110.039 128.077 110.681 128.049 111.266 127.825C111.851 127.601 112.347 127.193 112.68 126.662C115.201 126.096 117.56 124.963 119.579 123.351C119.797 123.822 120.004 124.224 120.176 124.5C120.234 124.597 120.314 124.679 120.41 124.737C120.507 124.795 120.616 124.828 120.728 124.834C121.878 124.949 124.592 123.684 124.707 123.684C125.101 124.506 125.591 125.278 126.167 125.984C126.374 126.191 126.719 126.133 127.041 126.099C130.375 125.696 146.932 122.132 151.359 121.028C157.108 119.591 160.856 115.555 164.8 111.715C164.582 118.314 165.444 121.534 162.834 134.492C157.407 135.167 152.029 136.196 146.737 137.574C142.103 138.896 136.584 140.207 132.698 143.231V143.219ZM149.473 165.905L149.071 165.744C148.979 159.903 150.428 154.522 154.705 150.532C155.083 150.628 155.467 150.701 155.855 150.75C151.451 154.522 149.715 160.018 149.473 165.905ZM167.629 146.737C164.179 148.761 165.191 149.853 162.029 150.187C159.496 150.361 156.951 150.163 154.475 149.6C152.474 148.957 153.532 148.186 155.625 147.956C155.981 148.014 158.787 148.037 160.109 147.956C160.217 147.939 160.315 147.884 160.386 147.801C160.457 147.717 160.496 147.611 160.496 147.502C160.496 147.393 160.457 147.287 160.386 147.204C160.315 147.12 160.217 147.065 160.109 147.048C158.618 146.92 157.119 146.896 155.625 146.979C154.673 146.965 153.725 146.853 152.796 146.645C152.704 146.495 152.65 146.323 152.64 146.147C152.63 145.97 152.664 145.794 152.739 145.634C153.946 144.909 159.637 145.185 160.58 145.151C160.691 145.133 160.792 145.077 160.865 144.991C160.938 144.906 160.978 144.797 160.978 144.685C160.978 144.573 160.938 144.464 160.865 144.379C160.792 144.293 160.691 144.237 160.58 144.219C158.694 144.259 156.807 144.159 154.935 143.92C154.13 143.782 152.256 143.38 152.394 142.564C152.647 141.092 155.671 142.357 157.798 142.207C159.298 142.185 160.784 141.905 162.19 141.379C162.295 141.347 162.383 141.275 162.435 141.178C162.487 141.081 162.498 140.967 162.466 140.862C162.434 140.757 162.361 140.669 162.264 140.617C162.167 140.565 162.054 140.554 161.949 140.586C160.51 140.932 159.05 141.185 157.579 141.345C157.486 141.326 157.403 141.273 157.346 141.197C157.289 141.12 157.261 141.026 157.269 140.931C157.285 140.716 157.34 140.506 157.43 140.31C158.023 139.537 158.819 138.944 159.729 138.597C162.995 137.24 165.478 138.597 169.215 138.838C169.684 140.964 170.279 143.061 170.997 145.116C169.852 145.574 168.741 146.116 167.675 146.737H167.629ZM172.021 145.335C171.618 143.978 170.124 139.057 169.974 137.907C170.568 137.617 171.193 137.397 171.837 137.252C172.366 139.218 173.343 142.633 173.975 144.541C173.358 144.85 172.721 145.115 172.067 145.335H172.021ZM175.275 145.335C174.665 143.955 172.86 137.528 172.446 135.918C174.424 134.297 192.177 125.57 194.821 122.914C195.649 122.086 192.855 106.506 196.132 93.6859C197.88 86.7871 201.306 75.9445 208.377 76.186C213.229 76.3469 216 80.0493 217.576 84.6715C220.462 93.1799 219.312 104.988 219.312 104.873C219.312 114.52 215.862 129.019 208.964 135.918C203.755 141.138 178.517 145.921 175.321 145.369L175.275 145.335ZM222.681 154.073C221.336 153.717 215.161 151.44 212.551 151.222C198.995 150.072 199.834 147.496 191.452 143.817C196.051 142.667 206.273 140 209.665 136.642C216.828 129.536 220.14 114.888 220.105 104.977C220.371 101.506 220.371 98.0193 220.105 94.5482C222.646 108.967 224.21 149.704 222.681 154.073Z" fill="#3D3834"/>
<path fill-rule="evenodd" clip-rule="evenodd" d="M44.8991 76.3467L41.1278 76.7836C42.2775 77.8648 43.3245 79.0504 44.2553 80.325L45.3016 76.8756C45.3335 76.8138 45.3472 76.7442 45.3412 76.6749C45.3351 76.6056 45.3096 76.5394 45.2675 76.484C45.2253 76.4286 45.1684 76.3864 45.1032 76.362C45.038 76.3377 44.9672 76.3324 44.8991 76.3467ZM153.969 181.277C153.02 180.677 151.973 180.248 150.876 180.012C153.486 175.77 153.014 170.814 152.325 170.377C151.675 169.715 150.811 169.307 149.887 169.227C146.438 168.503 138.079 168.445 135.871 170.285C135.388 170.687 135.101 171.343 135.572 171.78C135.348 174.505 135.919 177.237 137.216 179.644C136.066 179.863 134.733 180.3 134.296 181.335C134.22 181.557 134.2 181.795 134.236 182.027C134.272 182.259 134.363 182.479 134.503 182.668C135.385 183.763 136.593 184.548 137.952 184.91C140.352 185.641 142.87 185.902 145.368 185.681C147.756 185.584 150.122 185.197 152.417 184.531C154.958 183.588 154.935 182.036 153.969 181.277ZM135.974 171.987C138.446 172.662 141.002 172.979 143.563 172.93C146.356 172.738 149.114 172.198 151.773 171.32C152.003 172.902 151.918 174.513 151.524 176.062C151.129 177.611 150.432 179.067 149.473 180.346C149.241 180.752 148.907 181.09 148.503 181.326C148.1 181.562 147.641 181.688 147.173 181.691C145.564 181.898 141.172 182.013 140.275 181.611C137.366 180.265 135.928 175.379 135.974 171.987ZM145.322 184.634C142.949 184.859 140.554 184.617 138.274 183.922C137.242 183.64 136.291 183.116 135.503 182.392C135.319 182.197 135.02 181.806 135.112 181.565C135.411 180.806 136.871 180.415 137.676 180.277C138.252 181.155 139.044 181.872 139.976 182.358C141.126 182.944 147.495 182.875 148.68 182.266C149.418 181.815 150.043 181.202 150.508 180.472C151.186 180.668 153.555 181.473 153.716 182.116C154.233 184.094 147.392 184.566 145.322 184.692V184.634Z" fill="#3D3834"/>
</svg>
