<svg width="466" height="466" viewBox="0 0 466 466" fill="none" xmlns="http://www.w3.org/2000/svg">
<path d="M206.24 66.3526C207.243 74.1799 212.06 75.4064 212.06 75.4064C219.932 75.9416 217.167 68.9171 217.167 68.9171C209.094 52.7496 189.403 58.1239 189.403 58.1239C189.403 58.1239 205.147 58.5253 206.24 66.3526ZM320.304 96.5468C331.588 81.0929 311.563 69.2739 311.563 69.2739C312.881 75.2904 312.881 81.5211 311.563 87.5376C310.492 102.189 320.304 96.5468 320.304 96.5468Z" fill="#3D3834"/>
<path d="M422.55 110.774C422.55 110.774 400.25 54.3552 320.461 31.6092C240.671 8.86322 180.328 56.1392 180.328 56.1392C256.772 31.6092 271.289 51.3893 271.289 51.3893C271.289 51.3893 284.357 66.2634 296.377 64.4571C308.396 62.6508 300.391 51.0771 300.391 51.0771C329.225 56.8305 333.952 73.7116 341.044 88.0505C348.135 102.389 356.654 95.0527 364.771 86.9801C372.888 78.9075 381.429 88.5857 381.429 88.5857C388.684 98.6331 393.34 110.32 394.982 122.604C396.624 134.887 395.201 147.387 390.84 158.987C376.055 199.84 401.588 202.249 401.588 202.249C453.436 192.994 422.55 110.774 422.55 110.774ZM352.952 77.3242C348.67 78.6845 346.507 71.0133 346.507 71.0133C346.008 69.9997 345.899 68.8384 346.199 67.7494C346.499 66.6603 347.188 65.719 348.135 65.1038C353.041 62.8738 354.825 69.207 354.825 69.207C354.825 69.207 357.233 76.0531 352.93 77.3911L352.952 77.3242ZM418.09 139.341C418.643 139.345 419.186 139.482 419.674 139.742C420.162 140.001 420.58 140.374 420.893 140.829C421.206 141.284 421.404 141.808 421.472 142.357C421.539 142.905 421.473 143.462 421.279 143.979C420.119 148.439 415.37 144.893 415.37 144.893C415.033 144.37 414.837 143.769 414.801 143.148C414.765 142.528 414.89 141.908 415.164 141.35C415.437 140.791 415.851 140.313 416.363 139.961C416.876 139.609 417.471 139.395 418.09 139.341ZM412.047 187.196C412.047 187.196 410.04 185.591 412.047 180.506C413.705 175.334 414.921 170.03 415.682 164.651C418.224 155.909 423.732 162.109 423.732 162.109C423.732 162.109 427.635 168.286 421.725 180.239C415.816 192.192 412.047 187.219 412.047 187.219V187.196ZM175.801 143.801C175.848 143.801 175.893 143.782 175.927 143.748C175.96 143.715 175.979 143.669 175.979 143.622C175.979 143.575 175.96 143.529 175.927 143.496C175.893 143.463 175.848 143.444 175.801 143.444C175.753 143.444 175.708 143.463 175.674 143.496C175.641 143.529 175.622 143.575 175.622 143.622C175.622 143.669 175.641 143.715 175.674 143.748C175.708 143.782 175.753 143.801 175.801 143.801ZM195.558 158.296C195.347 158.491 195.115 158.663 194.867 158.808C194.839 158.833 194.819 158.866 194.81 158.903C194.802 158.94 194.805 158.979 194.82 159.013C194.835 159.048 194.861 159.077 194.893 159.096C194.926 159.116 194.963 159.124 195.001 159.121C197.945 158.318 195.202 155.976 195.001 154.415C195.001 154.081 194.243 154.415 195.848 157.047C195.928 157.26 195.943 157.493 195.892 157.715C195.84 157.937 195.724 158.139 195.558 158.296ZM198.547 151.405C198.39 152.185 198.39 152.988 198.547 153.769C198.574 153.805 198.609 153.835 198.649 153.856C198.69 153.877 198.735 153.888 198.781 153.888C198.826 153.888 198.871 153.877 198.912 153.856C198.953 153.835 198.988 153.805 199.015 153.769C199.117 153.029 199.117 152.278 199.015 151.539C199.171 151.137 198.591 151.048 198.547 151.405ZM189.292 151.65C189.107 152.514 189.209 153.414 189.582 154.215C189.625 154.255 189.677 154.285 189.734 154.3C189.791 154.316 189.85 154.317 189.908 154.303C189.965 154.29 190.019 154.263 190.063 154.224C190.107 154.185 190.141 154.136 190.162 154.081C190.222 153.259 190.124 152.434 189.872 151.65C189.843 151.599 189.8 151.557 189.749 151.527C189.699 151.498 189.641 151.483 189.582 151.483C189.523 151.483 189.465 151.498 189.415 151.527C189.364 151.557 189.321 151.599 189.292 151.65ZM186.795 149.777C187.285 149.309 189.426 147.77 189.872 147.346C190.318 146.923 189.292 146.32 186.482 149.465C186.282 149.665 186.594 150 186.795 149.777ZM200.241 148.796C199.704 148.057 199.001 147.454 198.19 147.034C197.878 146.9 197.632 147.458 197.967 147.592C198.301 147.725 200.487 150.022 200.241 148.796ZM187.597 164.361C187.731 164.517 187.954 164.361 187.865 164.16C187.177 163.265 186.801 162.168 186.795 161.038C189.292 163.781 192.035 163.112 190.965 162.822C189.414 162.48 187.992 161.707 186.861 160.592C186.304 160.057 185.969 162.443 187.597 164.361ZM173.927 146.477C173.845 146.477 173.765 146.509 173.707 146.568C173.648 146.627 173.615 146.706 173.615 146.789C173.615 146.872 173.648 146.951 173.707 147.009C173.765 147.068 173.845 147.101 173.927 147.101C174.01 147.101 174.09 147.068 174.148 147.009C174.207 146.951 174.24 146.872 174.24 146.789C174.24 146.706 174.207 146.627 174.148 146.568C174.09 146.509 174.01 146.477 173.927 146.477ZM176.492 148.818C176.587 148.818 176.677 148.78 176.744 148.714C176.811 148.647 176.849 148.556 176.849 148.461C176.849 148.367 176.811 148.276 176.744 148.209C176.677 148.142 176.587 148.104 176.492 148.104C176.397 148.104 176.307 148.142 176.24 148.209C176.173 148.276 176.135 148.367 176.135 148.461C176.135 148.556 176.173 148.647 176.24 148.714C176.307 148.78 176.397 148.818 176.492 148.818ZM176.893 145.83C176.965 145.811 177.028 145.769 177.073 145.71C177.118 145.652 177.142 145.58 177.142 145.506C177.142 145.433 177.118 145.361 177.073 145.302C177.028 145.244 176.965 145.202 176.893 145.183C176.822 145.202 176.759 145.244 176.714 145.302C176.669 145.361 176.644 145.433 176.644 145.506C176.644 145.58 176.669 145.652 176.714 145.71C176.759 145.769 176.822 145.811 176.893 145.83ZM180.439 146.32C180.516 146.301 180.584 146.256 180.632 146.194C180.681 146.131 180.707 146.054 180.707 145.975C180.707 145.896 180.681 145.819 180.632 145.756C180.584 145.693 180.516 145.649 180.439 145.629C180.362 145.649 180.294 145.693 180.246 145.756C180.197 145.819 180.171 145.896 180.171 145.975C180.171 146.054 180.197 146.131 180.246 146.194C180.294 146.256 180.362 146.301 180.439 146.32ZM181.242 152.386C181.889 152.163 181.041 151.427 180.863 152.007C180.796 152.185 181.019 152.475 181.242 152.386ZM180.171 149.732C180.225 149.732 180.276 149.711 180.313 149.674C180.351 149.636 180.372 149.585 180.372 149.532C180.372 149.478 180.351 149.427 180.313 149.39C180.276 149.352 180.225 149.331 180.171 149.331C180.118 149.331 180.067 149.352 180.03 149.39C179.992 149.427 179.971 149.478 179.971 149.532C179.971 149.585 179.992 149.636 180.03 149.674C180.067 149.711 180.118 149.732 180.171 149.732ZM173.727 150.491C173.668 150.491 173.611 150.514 173.569 150.556C173.527 150.598 173.504 150.654 173.504 150.714C173.504 150.773 173.527 150.829 173.569 150.871C173.611 150.913 173.668 150.937 173.727 150.937C173.786 150.937 173.843 150.913 173.884 150.871C173.926 150.829 173.95 150.773 173.95 150.714C173.95 150.654 173.926 150.598 173.884 150.556C173.843 150.514 173.786 150.491 173.727 150.491ZM176.068 159.567C176.013 159.583 175.965 159.617 175.93 159.663C175.896 159.709 175.877 159.765 175.877 159.823C175.877 159.881 175.896 159.937 175.93 159.983C175.965 160.029 176.013 160.063 176.068 160.08C176.123 160.063 176.172 160.029 176.206 159.983C176.241 159.937 176.259 159.881 176.259 159.823C176.259 159.765 176.241 159.709 176.206 159.663C176.172 159.617 176.123 159.583 176.068 159.567ZM173.192 153.546C173.097 153.546 173.006 153.583 172.939 153.65C172.872 153.717 172.835 153.808 172.835 153.902C172.835 153.997 172.872 154.088 172.939 154.155C173.006 154.222 173.097 154.259 173.192 154.259C173.286 154.259 173.377 154.222 173.444 154.155C173.511 154.088 173.548 153.997 173.548 153.902C173.548 153.808 173.511 153.717 173.444 153.65C173.377 153.583 173.286 153.546 173.192 153.546ZM176.492 150.491C176.446 150.478 176.397 150.476 176.35 150.485C176.303 150.494 176.258 150.514 176.22 150.543C176.182 150.572 176.151 150.61 176.129 150.653C176.108 150.696 176.097 150.744 176.097 150.792C176.097 150.84 176.108 150.887 176.129 150.93C176.151 150.973 176.182 151.011 176.22 151.04C176.258 151.069 176.303 151.089 176.35 151.098C176.397 151.107 176.446 151.105 176.492 151.093C176.558 151.075 176.616 151.035 176.658 150.981C176.699 150.926 176.721 150.86 176.721 150.792C176.721 150.723 176.699 150.657 176.658 150.602C176.616 150.548 176.558 150.509 176.492 150.491ZM178.967 148.617C179.044 148.617 179.118 148.587 179.172 148.532C179.227 148.478 179.257 148.404 179.257 148.327C179.257 148.251 179.227 148.177 179.172 148.122C179.118 148.068 179.044 148.038 178.967 148.038C178.89 148.038 178.817 148.068 178.762 148.122C178.708 148.177 178.677 148.251 178.677 148.327C178.677 148.404 178.708 148.478 178.762 148.532C178.817 148.587 178.89 148.617 178.967 148.617ZM148.662 222.921C148.682 222.818 148.682 222.712 148.662 222.609C148.416 220.379 144.826 222.297 146.432 224.125C146.583 224.276 146.778 224.378 146.989 224.415C147.203 224.462 147.425 224.458 147.637 224.402C147.849 224.347 148.044 224.242 148.208 224.096C148.371 223.95 148.497 223.767 148.576 223.563C148.655 223.359 148.684 223.139 148.662 222.921ZM151.248 210.388C151.412 210.551 151.617 210.666 151.841 210.721C152.065 210.776 152.299 210.769 152.519 210.701C152.694 210.64 152.854 210.543 152.989 210.417C153.124 210.29 153.23 210.137 153.302 209.967C153.373 209.796 153.408 209.613 153.404 209.428C153.4 209.243 153.357 209.061 153.278 208.894C152.876 207.222 149.687 208.76 151.248 210.388ZM156.4 218.104C156.536 217.737 156.536 217.334 156.4 216.967C153.568 214.492 153.791 221.338 156.4 218.104ZM135.282 228.161C136.686 229.165 138.024 227.782 136.798 226.333C136.33 225.775 133.587 226.89 135.282 228.161ZM147.993 233.447C145.094 231.35 144.67 237.639 147.703 235.677C148.003 235.398 148.202 235.028 148.266 234.623C148.331 234.219 148.258 233.805 148.059 233.447H147.993ZM156.645 199.194C155.976 200.576 158.184 201.781 158.697 199.64C158.697 199.149 158.697 198.502 157.559 198.413C157.347 198.44 157.148 198.528 156.985 198.666C156.823 198.805 156.704 198.988 156.645 199.194ZM154.95 190.631C155.165 190.749 155.413 190.796 155.656 190.765C155.9 190.734 156.127 190.627 156.306 190.458C156.485 190.289 156.605 190.068 156.65 189.827C156.695 189.585 156.662 189.336 156.556 189.114C155.887 187.821 153.456 189.293 154.95 190.631ZM159.165 181.198C159.165 182.469 161.529 182.29 161.395 180.841C161.393 180.695 161.356 180.551 161.286 180.423C161.216 180.294 161.115 180.185 160.993 180.105C160.481 179.481 158.585 179.949 159.165 181.198ZM168.843 168.197C170.114 167.439 169.289 165.588 168.063 166.257C166.457 166.413 167.394 169.044 168.843 168.197ZM160.168 158.318C160.178 158.244 160.178 158.169 160.168 158.095C160.203 157.919 160.193 157.738 160.139 157.568C160.086 157.397 159.99 157.243 159.861 157.118C159.733 156.994 159.575 156.904 159.403 156.857C159.231 156.809 159.049 156.805 158.875 156.846C158.693 156.894 158.527 156.989 158.395 157.123C158.263 157.257 158.169 157.423 158.123 157.606C158.078 157.788 158.082 157.98 158.136 158.16C158.189 158.34 158.291 158.502 158.429 158.63C158.514 158.813 158.658 158.962 158.837 159.055C159.016 159.147 159.22 159.178 159.419 159.143C159.617 159.107 159.798 159.007 159.934 158.858C160.069 158.708 160.152 158.519 160.168 158.318ZM146.03 148.261C144.982 146.9 143.287 148.595 144.335 149.71C144.43 149.797 144.535 149.872 144.648 149.933C145.383 150.647 146.989 149.376 146.03 148.261ZM147.413 134.68C146.878 135.193 146.944 136.598 147.881 136.709C148.098 136.808 148.341 136.834 148.574 136.782C148.806 136.731 149.016 136.604 149.17 136.422C149.324 136.24 149.414 136.013 149.427 135.775C149.44 135.537 149.375 135.301 149.241 135.104C149.16 134.944 149.045 134.805 148.904 134.695C148.763 134.584 148.6 134.506 148.426 134.466C148.251 134.426 148.07 134.424 147.896 134.461C147.721 134.498 147.556 134.573 147.413 134.68ZM151.137 120.675C150.896 120.557 150.622 120.526 150.36 120.587C150.099 120.648 149.867 120.798 149.704 121.011C149.541 121.224 149.457 121.487 149.466 121.755C149.475 122.024 149.577 122.28 149.754 122.482C149.81 122.707 149.924 122.914 150.084 123.082C150.245 123.25 150.446 123.374 150.669 123.441C150.812 123.459 150.958 123.449 151.098 123.411C151.238 123.373 151.368 123.307 151.482 123.218C151.597 123.129 151.692 123.018 151.763 122.891C151.834 122.765 151.878 122.626 151.895 122.482C151.943 122.262 151.938 122.034 151.88 121.817C151.822 121.599 151.712 121.399 151.561 121.233C151.495 121 151.343 120.801 151.137 120.675ZM143.064 128.547C143.599 126.83 140.7 126.652 140.7 128.257C140.706 128.55 140.821 128.83 141.024 129.04C141.226 129.251 141.501 129.378 141.793 129.395C142.07 129.418 142.346 129.347 142.577 129.193C142.808 129.039 142.979 128.812 143.064 128.547ZM141.972 215.339C142.908 216.967 144.96 214.046 142.551 213.889C142.172 214.135 141.57 214.335 141.972 215.339ZM196.406 223.211C196.633 223.173 196.846 223.072 197.018 222.92C197.191 222.767 197.317 222.569 197.383 222.347C197.448 222.126 197.449 221.891 197.387 221.669C197.325 221.447 197.201 221.247 197.03 221.092C195.915 219.888 194.042 223.099 196.406 223.211ZM198.97 206.508C199.238 205.973 199.238 205.282 198.569 205.059C195.358 204.568 197.03 209.474 198.97 206.508ZM193.708 193.329C193.488 193.273 193.258 193.273 193.039 193.329C189.604 195.715 196.986 196.473 193.708 193.329ZM201.78 189.672C202.583 188.958 202.628 187.308 201.067 187.442C199.506 187.575 199.907 190.787 201.78 189.672ZM205.95 197.99C205.929 197.843 205.877 197.704 205.796 197.58C205.715 197.457 205.608 197.353 205.482 197.276C205.318 197.16 205.122 197.097 204.921 197.096C204.719 197.095 204.523 197.155 204.357 197.27C204.192 197.384 204.065 197.547 203.995 197.735C203.925 197.924 203.915 198.129 203.966 198.324C204.01 198.587 204.157 198.822 204.374 198.977C204.592 199.131 204.862 199.193 205.125 199.149C205.388 199.105 205.623 198.958 205.778 198.74C205.933 198.523 205.995 198.253 205.95 197.99ZM212.328 204.813C212.545 204.76 212.738 204.638 212.879 204.465C213.02 204.292 213.1 204.077 213.109 203.854C213.177 203.621 213.149 203.37 213.032 203.156C212.915 202.943 212.718 202.785 212.484 202.717C212.251 202.649 211.999 202.677 211.786 202.794C211.573 202.911 211.415 203.108 211.347 203.342C211.012 203.676 211.191 205.103 212.328 204.813ZM210.455 215.294C210.228 215.399 210.046 215.581 209.942 215.807C208.604 220.356 214.558 215.361 210.455 215.294ZM226.622 216.142C226.59 215.897 226.471 215.673 226.287 215.509C226.102 215.345 225.865 215.253 225.619 215.25C222.006 216.253 225.998 219.621 226.622 216.142ZM229.856 203.208C230.815 203.654 231.595 201.758 230.458 201.245C229.834 200.755 228.496 201.847 229.321 202.94C229.458 203.095 229.65 203.191 229.856 203.208ZM238.33 206.776C239.333 206.776 239.98 204.546 238.33 204.546C237.862 204.546 237.349 204.813 237.237 205.661C237.224 205.809 237.243 205.958 237.293 206.097C237.343 206.237 237.422 206.364 237.526 206.47C237.63 206.576 237.756 206.659 237.894 206.711C238.033 206.764 238.182 206.786 238.33 206.776ZM206.664 237.594C206.96 237.565 207.231 237.419 207.42 237.189C207.608 236.959 207.697 236.664 207.667 236.368C207.638 236.072 207.492 235.8 207.262 235.612C207.032 235.424 206.737 235.335 206.441 235.364C206.145 235.394 205.873 235.54 205.685 235.77C205.497 236 205.408 236.295 205.437 236.591C205.467 236.887 205.613 237.158 205.843 237.347C206.073 237.535 206.368 237.624 206.664 237.594ZM196.785 250.261C197.744 251.041 199.617 249.547 198.547 248.209C197.811 246.938 195.469 248.744 196.785 250.261ZM209.875 253.561C210.11 253.407 210.285 253.176 210.37 252.908C210.455 252.64 210.446 252.351 210.343 252.089C210.343 251.443 208.827 250.439 208.403 251.889C208.268 252.101 208.205 252.351 208.225 252.601C208.244 252.852 208.344 253.089 208.51 253.278C208.677 253.467 208.899 253.596 209.145 253.647C209.392 253.699 209.648 253.668 209.875 253.561ZM195.246 234.294C194.979 234.138 194.867 234.116 194.198 234.294C193.529 234.472 193.462 235.253 194.198 235.922C194.934 236.591 196.874 235.231 195.246 234.294ZM275.236 168.933C275.292 168.575 275.259 168.209 275.141 167.867C275.024 167.525 274.825 167.217 274.561 166.969C274.298 166.721 273.978 166.54 273.629 166.444C273.281 166.347 272.914 166.336 272.56 166.413C272.112 166.584 271.746 166.919 271.535 167.349C271.357 167.521 271.22 167.73 271.135 167.962C271.05 168.194 271.019 168.442 271.044 168.687C270.42 171.163 274.634 171.988 275.236 168.933ZM280.834 176.247C283.465 178.098 286.743 174.24 285.004 171.943C284.592 171.361 283.994 170.938 283.308 170.743C282.623 170.548 281.891 170.594 281.235 170.873C279.384 171.854 278.604 175.132 280.834 176.247ZM282.952 188.824C284.379 192.013 289.642 187.085 286.141 184.877C283.844 183.405 281.837 186.973 282.952 188.824ZM276.396 200.599C276.788 200.643 277.186 200.603 277.562 200.483C277.938 200.363 278.285 200.165 278.579 199.902C278.874 199.639 279.11 199.317 279.272 198.957C279.433 198.596 279.517 198.206 279.518 197.811C280.544 195.091 277.556 193.485 275.749 193.931C273.006 194.6 273.675 200.933 276.396 200.599ZM264.421 203.743C264.879 204.097 265.441 204.29 266.02 204.289C266.599 204.289 267.161 204.096 267.619 203.741C268.076 203.386 268.402 202.889 268.546 202.328C268.689 201.767 268.643 201.174 268.413 200.643C267.141 197.677 263.061 198.904 263.573 202.405C263.743 202.913 264.034 203.372 264.421 203.743ZM257.53 193.396C257.254 193.366 256.974 193.395 256.709 193.479C256.444 193.564 256.2 193.702 255.991 193.886C254.832 194.912 254.81 197.744 256.571 198.056C258.801 198.971 260.853 195.447 258.957 193.976C258.542 193.658 258.049 193.458 257.53 193.396Z" fill="#3D3834"/>
<path d="M251.844 342.873C240.047 341.535 227.537 340.509 215.852 343.319L196.964 301.283C201.424 294.727 204.189 284.469 206.084 275.504C215.696 276.842 225.374 273.074 221.984 264.064C219.955 258.779 216.632 253.36 215.049 247.919C213.402 241.926 212.754 235.703 213.131 229.499C214.244 229.939 215.417 230.21 216.61 230.302C220.891 230.592 224.192 228.072 227.292 225.508C234.543 219.393 240.515 211.905 244.864 203.475C244.389 202.307 243.83 201.174 243.191 200.086C245.193 199.378 247.067 198.354 248.744 197.053C249.592 208.426 259.56 215.45 266.963 214.112C277.333 212.261 284.045 205.46 290.512 197.075C293.683 193.325 295.779 188.786 296.578 183.94C297.581 175.823 296.221 164.45 288.327 160.035C286.303 158.932 284.045 158.328 281.741 158.274C279.437 158.22 277.154 158.716 275.08 159.723C270.191 161.789 266.297 165.675 264.22 170.56C260.34 164.406 246.715 168.598 250.394 181.71C247.866 182.669 245.694 184.382 244.173 186.616C243.284 187.879 242.3 189.072 241.229 190.184C240.337 190.987 239.2 191.433 238.263 192.191C238.085 192.05 237.928 191.885 237.795 191.701H237.505C230.888 195.635 224.719 200.279 219.107 205.549C213.822 194.622 204.969 180.038 195.09 173.727C194.957 171.653 194.778 169.267 194.8 169.267C197.677 167.617 201.49 167.305 202.717 160.347C203.579 154.753 203.26 149.041 201.78 143.577C207.913 141.347 209.117 132.74 207.467 134.524C206.682 135.5 205.575 136.164 204.345 136.397C206.063 134.258 206.944 131.568 206.825 128.827C206.706 126.086 205.595 123.482 203.698 121.5C203.619 121.404 203.512 121.336 203.391 121.305C203.27 121.275 203.143 121.284 203.028 121.332C202.913 121.379 202.816 121.462 202.752 121.569C202.688 121.676 202.66 121.8 202.672 121.924C202.928 123.358 202.642 124.835 201.872 126.07C201.102 127.306 199.902 128.212 198.502 128.614V126.139C198.506 126.047 198.479 125.957 198.425 125.883C198.37 125.81 198.292 125.757 198.204 125.733C198.115 125.71 198.022 125.717 197.938 125.755C197.854 125.792 197.786 125.857 197.744 125.938C197.145 126.956 196.349 127.845 195.404 128.553C194.458 129.262 193.382 129.775 192.236 130.064C192.545 129 192.798 127.92 192.994 126.83C193.005 126.713 192.984 126.595 192.932 126.489C192.881 126.383 192.802 126.293 192.703 126.229C192.604 126.164 192.49 126.128 192.372 126.124C192.255 126.12 192.138 126.148 192.035 126.206L186.951 129.283C186.951 129.283 187.754 127.232 185.323 127.41C185.323 127.41 177.406 134.769 174.574 134.613C172.545 134.613 171.675 138.315 174.909 141.303C168.955 145.763 170.694 157.961 176.448 162.042C174.998 164.272 174.775 164.517 175.087 164.584C175.886 164.849 176.721 164.984 177.563 164.985C176.62 165.242 175.719 165.633 174.887 166.145C169.172 159.112 162.981 152.48 156.355 146.298C155.842 130.487 155.285 115.925 153.902 115.413C153.523 115.282 153.136 115.177 152.743 115.1C154.058 110.819 152.743 104.731 148.283 102.835C164.517 84.7723 166.636 84.2371 165.833 80.8921C168.754 82.743 172.523 80.6468 174.329 78.1938C182.067 75.3394 180.774 57.4548 178.388 59.8855C177.496 60.7998 178.142 64.1002 173.192 64.234C170.404 64.234 167.416 63.2751 165.944 64.5685C160.369 64.8584 158.273 73.9791 160.994 77.6586C160.095 77.8352 159.244 78.2 158.496 78.729L142.73 99.2004C142.15 99.2004 139.608 97.6394 138.939 100.182C138.798 100.715 138.798 101.276 138.939 101.81C138.277 101.563 137.549 101.563 136.887 101.81C136.409 101.949 135.991 102.244 135.7 102.648C135.409 103.052 135.262 103.542 135.282 104.04C135.267 104.407 135.36 104.772 135.549 105.088C135.225 105.12 134.92 105.261 134.686 105.487C134.451 105.714 134.3 106.013 134.256 106.336C134.179 106.759 134.196 107.193 134.303 107.609C134.411 108.025 134.608 108.413 134.88 108.745L116.215 129.06C116.215 129.06 113.606 131.937 115.011 133.342C115.011 133.342 116.371 134.702 119.471 131.602L140.455 112.134C140.459 112.795 140.639 113.443 140.976 114.011C141.313 114.579 141.795 115.048 142.373 115.368C141.813 115.387 141.255 115.439 140.701 115.524C140.567 115.524 140.701 115.747 140.701 115.747C153.479 115.368 153.835 115.992 153.902 115.97C154.081 120.921 155.954 141.058 155.753 146.164C155.744 146.216 155.744 146.269 155.753 146.32C155.753 146.811 166.212 156.734 174.329 166.39C171.724 168.388 169.566 170.91 167.996 173.794C161.774 184.097 159.522 215.54 159.41 225.909C157.626 242.121 146.03 245.778 142.373 241.363C139.676 238.335 136.689 235.579 133.453 233.134C131.089 230.458 127.321 226.734 124.377 227.782C129.372 223.099 138.181 221.092 143.555 210.299C152.141 193.017 151.672 169.869 150.78 179.837C143.329 171.128 138.433 160.527 136.634 149.208C134.836 137.888 136.204 126.292 140.589 115.702C140.589 115.479 140.277 115.301 140.188 115.546C123.998 152.297 150.49 180.395 150.602 180.618C149.981 186.452 148.846 192.22 147.212 197.856C141.124 219.62 135.482 218.26 125.18 226.11C123.702 227.039 122.525 228.375 121.789 229.957C121.053 231.54 120.79 233.301 121.032 235.03C91.7968 246.18 97.684 271.423 97.684 271.423L105.511 320.216C82.4085 329.314 59.5956 339.104 37.1618 349.763C37.0057 349.763 37.0503 350.165 37.2733 350.142C53.9314 348.76 69.8759 353.064 84.5493 360.423C80.4519 361.479 76.4471 362.866 72.5742 364.57C68.7163 366.087 64.903 367.759 61.1566 369.543C53.17 373.397 45.4976 377.871 38.2099 382.923C37.8977 382.923 38.0315 383.436 38.2099 383.369C50.9209 381.139 60.3092 379.534 72.5073 380.783C60.5322 387.227 36.2475 400.696 36.0468 400.696L37.4963 406.249H132.182C132.182 406.249 133.966 399.425 138.984 407.141C138.984 407.141 178.388 412.872 222.274 444.761V438.317C222.274 438.317 191.054 410.865 136.196 400.964C152.364 400.161 169.356 397.664 185.256 402.458C209.675 409.862 227.091 422.528 227.827 421.948C255.657 396.281 246.001 406.472 272.917 382.477C276.551 384.099 280.274 385.513 284.067 386.714C280.945 388.766 255.613 405.759 223.077 438.004L223.434 444.806C223.434 444.806 257.932 407.097 284.38 390.84C284.38 390.84 284.38 386.38 284.246 386.38C280.611 384.975 276.909 383.414 273.096 382.321C280.856 375.453 283.8 374.806 282.596 374.293C277.641 371.79 272.513 369.644 267.253 367.871C274.3 362.14 289.308 350.655 288.951 350.521C274.278 345.259 273.14 345.303 251.844 342.873ZM165.431 65.0814C165.137 65.5006 164.955 65.9879 164.901 66.4973C164.848 67.0066 164.925 67.5212 165.126 67.9923C165.327 68.4633 165.645 68.8754 166.05 69.1894C166.454 69.5034 166.932 69.709 167.438 69.7867C171.608 69.7867 166.881 72.2397 166.702 72.7526C166.641 73.0217 166.674 73.3036 166.796 73.5513C166.918 73.7989 167.121 73.9972 167.371 74.1129C168.643 74.715 169.735 73.4662 170.806 73.2209C171.475 73.0648 172.322 73.377 172.389 74.046C172.456 74.715 171.497 75.2948 171.162 76.0307C171.028 76.3789 171.019 76.763 171.137 77.1171C171.255 77.4711 171.493 77.773 171.809 77.9708C172.197 78.2122 172.646 78.3361 173.103 78.3276C172.269 79.4527 171.076 80.2587 169.721 80.6116C168.366 80.9646 166.931 80.8432 165.654 80.2677C165.421 79.4442 164.919 78.7225 164.228 78.2174C163.537 77.7122 162.697 77.4528 161.841 77.4802C159.99 75.6739 158.674 67.3783 165.431 65.0814ZM141.771 99.4234C142.02 99.5035 142.273 99.5705 142.529 99.6241C143.644 100.226 143.555 102.055 143.488 102.679C142.752 102.679 142.507 103.527 142.418 104.106C141.37 103.817 140.946 103.928 140.188 102.813C140.033 102.619 139.899 102.41 139.786 102.189C138.783 100.449 139.586 98.6652 141.771 99.4234ZM137.11 102.189C137.883 102.054 138.679 102.213 139.34 102.635C139.597 103.203 140.015 103.683 140.543 104.016C141.07 104.349 141.683 104.52 142.306 104.508C142.277 104.857 142.33 105.209 142.462 105.534C142.26 105.931 141.931 106.25 141.527 106.44C141.123 106.63 140.668 106.68 140.232 106.582C139.503 106.654 138.766 106.564 138.076 106.317C137.386 106.07 136.759 105.673 136.241 105.155C136.048 104.919 135.916 104.64 135.855 104.341C135.795 104.043 135.808 103.734 135.894 103.442C135.979 103.15 136.135 102.883 136.347 102.665C136.559 102.447 136.821 102.283 137.11 102.189ZM135.326 108.633C134.966 108.215 134.754 107.69 134.724 107.139C134.724 106.403 134.992 105.311 135.951 105.601C136.473 106.11 137.096 106.506 137.779 106.763C138.462 107.02 139.191 107.133 139.92 107.095C139.774 107.54 139.526 107.944 139.197 108.277C138.867 108.609 138.464 108.86 138.02 109.01C137.576 109.159 137.104 109.203 136.64 109.137C136.176 109.072 135.734 108.899 135.349 108.633H135.326ZM152.252 114.922L143.02 115.167C142.363 114.911 141.79 114.477 141.364 113.914C140.939 113.351 140.679 112.681 140.611 111.978L144.581 108.321C145.451 110.551 148.506 110.551 147.569 110.127C146.632 109.704 145.205 109.458 144.893 107.764C144.861 107.377 144.981 106.993 145.228 106.693C144.473 106.431 143.76 106.064 143.109 105.601C142.811 105.189 142.683 104.678 142.754 104.175C142.825 103.672 143.088 103.215 143.488 102.902H147.77C152.52 105.601 152.72 109.927 152.274 114.922H152.252ZM216.186 353.041C216.693 354.745 217.311 356.414 218.037 358.037C215.862 360.117 213.312 361.767 210.522 362.898C207.623 359.508 208.292 360.244 207.623 359.441C210.71 357.639 213.583 355.491 216.186 353.041ZM217.457 368.406C215.696 370.012 208.537 376.077 206.307 377.326C205.415 376.679 206.307 374.539 206.597 373.825C208.381 370.748 209.675 370.993 209.831 363.366C212.529 363.166 217.725 359.196 218.751 357.88C220.108 360.316 221.185 362.896 221.962 365.574C221.583 365.819 221.092 366.131 220.78 366.377C220.422 365.44 219.893 364.578 219.219 363.835C218.884 363.433 218.416 362.809 217.814 363.099C217.212 363.389 217.011 364.526 216.944 365.061C216.854 366.195 217.006 367.335 217.39 368.406H217.457ZM220.78 270.152C218.55 275.214 211.146 275.103 206.33 274.389C207.779 267.342 208.448 262.392 208.56 261.009C213.711 261.589 221.36 264.533 220.78 270.152ZM252 171.341C254.765 167.974 261.188 166.591 263.707 170.94C263.725 170.98 263.753 171.016 263.788 171.043C263.823 171.07 263.864 171.088 263.908 171.096C263.925 171.128 263.951 171.156 263.982 171.175C264.014 171.194 264.05 171.204 264.087 171.204C264.123 171.204 264.16 171.194 264.191 171.175C264.222 171.156 264.248 171.128 264.265 171.096C272.293 154.794 296.199 152.408 295.886 181.064C295.886 189.984 289.999 197.008 284.223 203.208C261.923 227.069 243.058 203.832 251.041 187.062C251.074 186.976 251.074 186.881 251.041 186.795C252.264 186.112 253.602 185.659 254.988 185.457C253.985 190.296 262.592 190.564 263.284 184.899C263.394 183.774 263.116 182.644 262.495 181.699C261.874 180.754 260.949 180.05 259.872 179.703C258.896 179.468 257.867 179.63 257.01 180.152C256.153 180.675 255.538 181.516 255.3 182.491C253.936 181.563 252.267 181.196 250.64 181.465C250.261 177.964 249.703 174.285 252.111 171.341H252ZM255.456 182.781C255.72 181.891 256.326 181.142 257.141 180.699C257.957 180.256 258.915 180.154 259.805 180.417C260.595 180.69 261.287 181.192 261.791 181.859C262.296 182.526 262.59 183.328 262.637 184.163C262.793 188.623 254.944 190.474 255.189 185.479H255.412C255.59 185.479 255.836 185.189 255.858 185.122C256.033 184.744 256.099 184.324 256.048 183.91C255.997 183.496 255.83 183.105 255.568 182.781H255.456ZM243.816 187.397C245.25 185.262 247.198 183.521 249.48 182.335C251.197 181.577 256.17 181.644 255.3 184.922C253.674 184.993 252.113 185.579 250.84 186.594C250.082 186.594 248.454 192.236 248.61 196.473C246.804 197.7 244.819 198.703 243.013 199.907C236.301 187.219 236.992 196.072 243.927 187.397H243.816ZM201.446 143.667C204.278 165.342 200.532 165.654 194.444 168.643C194.395 168.668 194.354 168.706 194.327 168.754C194.299 168.801 194.286 168.855 194.288 168.91C194.264 171.413 194.39 173.915 194.667 176.403C192.353 179.092 189.849 181.611 187.174 183.94C182.644 180.644 179.334 175.938 177.763 170.56C178.07 168.673 178.13 166.754 177.942 164.852C179.324 164.852 180.774 164.651 181.978 164.584C182.223 164.584 182.335 164.071 182.312 164.027C181.484 161.692 180.415 159.45 179.124 157.337C179.124 157.56 178.678 158.117 178.566 158.34C178.546 158.328 178.523 158.322 178.499 158.322C178.476 158.322 178.453 158.328 178.432 158.34C174.441 158.34 173.749 152.542 177.34 152.341C179.57 152.208 179.57 154.683 181.197 155.352C181.218 155.362 181.241 155.367 181.264 155.367C181.288 155.367 181.31 155.362 181.331 155.352C182.424 155.619 183.338 154.638 183.561 153.479C183.851 151.539 181.889 149.019 183.94 145.406C191.455 146.856 196.83 144.826 201.468 143.667H201.446ZM175.132 141.281C177.576 143.167 180.41 144.485 183.427 145.138C181.666 147.658 183.227 150.936 183.227 152.453C183.197 153.015 182.985 153.552 182.623 153.982C182.261 154.413 181.768 154.714 181.22 154.839C180.216 153.88 179.926 152.453 178.499 151.918C177.881 151.699 177.209 151.685 176.583 151.878C175.957 152.071 175.409 152.46 175.02 152.988C174.698 153.568 174.536 154.224 174.552 154.888C174.568 155.552 174.761 156.199 175.111 156.763C175.461 157.327 175.956 157.787 176.544 158.096C177.132 158.405 177.791 158.551 178.455 158.518C177.919 159.522 177.317 160.459 176.715 161.417C174.032 158.836 172.39 155.361 172.098 151.65C171.806 147.939 172.886 144.249 175.132 141.281ZM175.489 164.116C176.862 162.31 178.106 160.41 179.213 158.429C179.525 159.232 181.175 162.889 181.71 163.848C180.573 163.87 176.403 163.982 175.489 164.116ZM177.496 165.454C177.496 165.989 176.96 170.315 177.496 170.627C178.062 173.467 179.19 176.165 180.813 178.562C182.437 180.959 184.524 183.008 186.951 184.587C190.078 182.366 192.826 179.655 195.09 176.559C195.13 176.536 195.163 176.504 195.186 176.465C195.21 176.426 195.223 176.382 195.224 176.336C195.224 175.935 195.224 175.11 195.09 174.106C205.661 183.584 209.496 187.731 218.595 205.705C218.751 205.995 219.107 205.839 219.152 205.571C225.351 201.111 230.926 195.782 237.55 191.835C239.78 195.715 242.01 199.417 244.24 203.319C238.977 212.93 227.938 226.935 220.2 229.343C214.804 231.016 208.693 226.511 206.954 224.883L206.82 225.017C208.476 226.908 210.512 228.428 212.797 229.477C210.946 237.973 214.001 247.54 217.034 255.345C218.55 259.225 221.962 264.265 221.248 268.725C220.668 262.526 212.841 258.311 184.208 256.728L186.17 241.92C187.553 234.762 184.699 225.552 185.39 208.805C186.393 185.055 193.061 182.87 197.9 177.139C197.918 177.123 197.932 177.103 197.942 177.082C197.952 177.06 197.958 177.037 197.959 177.013C197.96 176.989 197.956 176.965 197.948 176.943C197.94 176.921 197.927 176.9 197.911 176.882C197.895 176.865 197.876 176.851 197.854 176.841C197.833 176.831 197.809 176.825 197.785 176.824C197.762 176.823 197.738 176.826 197.715 176.835C197.693 176.843 197.672 176.855 197.655 176.871C190.407 183.405 186.505 187.085 185.011 204.791C183.695 219.955 186.393 231.774 185.791 239.869L159.879 226.065C161.64 199.417 162.22 172.255 177.496 165.454ZM122.771 229.455C125.893 226.712 128.859 229.455 131.491 232.042C128.142 232.721 124.848 233.645 121.634 234.807C121.402 233.887 121.383 232.926 121.58 231.998C121.778 231.071 122.185 230.2 122.771 229.455ZM128.993 275.75C139.006 274.813 157.203 267.878 157.203 267.878C157.203 267.878 157.872 248.544 158.674 247.139C159.477 245.734 159.343 247.139 159.343 247.139C155.329 305.966 170.895 322.758 170.895 322.758L192.86 348.96C191.286 349.477 189.745 350.088 188.244 350.789C182.576 340.528 175.287 331.25 166.658 323.315C162.564 319.515 158.079 316.159 153.278 313.303C148.483 310.515 142.998 307.884 137.333 308.308C137.177 308.04 137.757 307.884 126.429 312.121L128.993 275.75ZM38.812 382.79C45.9597 378.13 53.4095 373.95 61.112 370.279C65.2375 368.317 69.4522 366.511 73.7115 364.883C77.5248 363.411 81.5834 362.385 85.3075 360.757C103.681 370.387 120.099 383.356 133.721 399.002C121.367 390.082 105.489 386.804 90.9047 383.392C71.7045 378.865 60.9559 378.307 38.812 382.879V382.79ZM37.7416 400.63C37.9646 400.518 73.5554 381.117 73.7338 380.894C85.9319 382.299 119.516 389.368 134.59 400.674C132.65 400.674 94.7404 398.734 37.7416 400.741V400.63ZM38.2545 349.54C60.3761 339.134 82.8173 329.47 105.578 320.55L106.827 328.266L109.86 328.378C110.207 330.372 110.767 332.323 111.532 334.198C110.417 334.198 109.704 336.428 107.719 338.658C106.353 339.893 104.858 340.977 103.259 341.891C101.297 343.319 101.832 344.857 103.973 345.549C107.697 346.73 112.625 344.523 116.037 343.319C116.431 342.088 116.915 340.888 117.486 339.728C118.757 338.524 118.98 342.27 118.936 342.828C119.929 343.006 120.941 343.051 121.946 342.962C122.48 339.885 122.351 336.73 121.567 333.707H121.099C121.359 332.115 121.493 330.504 121.5 328.89L125.158 329.024L126.317 312.745C137.11 308.82 137.11 309.021 137.311 308.82C148.773 309.066 159.611 317.74 167.461 325.233C175.364 332.909 182.164 341.645 187.664 351.19C178.744 355.65 171.497 363.121 164.205 369.633C153.52 378.785 143.839 389.049 135.326 400.25C112.58 373.49 73.2432 345.348 38.2545 349.652V349.54ZM115.992 342.85C113.004 343.845 109.938 344.591 106.827 345.08C105.846 345.08 101.007 345.08 103.437 342.137C106.903 340.588 109.686 337.829 111.265 334.376C114.649 334.879 118.099 334.697 121.411 333.841C121.411 335.848 121.656 334.354 121.59 342.516C120.934 342.508 120.278 342.545 119.627 342.627C119.872 338.1 116.907 337.565 115.992 343.029V342.85ZM120.72 333.64C117.825 334.052 114.902 334.231 111.978 334.176C111.978 334.176 110.997 330.273 110.44 328.378L121.144 328.757C120.898 330.518 120.698 333.774 120.72 333.819V333.64ZM281.815 374.516C272.248 380.649 264.644 389.457 255.724 396.415C245.685 403.943 236.28 412.282 227.604 421.346C214.085 413.293 199.738 406.721 184.81 401.745C172.367 397.931 148.372 398.489 136.397 400.473C152.252 393.783 163.268 392.847 179.057 394.519C194.845 396.192 205.661 398.689 219.71 407.899C220.646 408.524 235.989 393.025 266.874 367.915C271.958 370.101 276.864 372.465 281.815 374.695V374.516ZM287.948 350.655C264.644 368.718 241.898 387.383 220.312 407.453C220.3 407.405 220.278 407.36 220.247 407.322C220.217 407.283 220.178 407.252 220.133 407.23C207.668 398.935 193.797 395.456 179.057 393.85C163.447 392.2 151.516 393.092 135.795 400.161C144.253 389.684 153.497 379.866 163.447 370.792C179.302 356.297 184.319 352.261 193.284 349.317L203.007 360.958C204.438 360.679 205.815 360.174 207.088 359.464L210.165 362.831C210.054 362.831 209.496 362.965 209.496 363.166C208.916 370.547 209.095 368.629 206.151 373.803C205.714 374.427 205.506 375.183 205.563 375.943C205.619 376.704 205.938 377.421 206.463 377.973C206.597 377.973 218.082 368.518 218.037 368.451C217.992 368.384 216.677 363.723 218.215 363.634C219.353 363.634 220.78 366.667 220.891 366.622C221.411 366.411 221.893 366.117 222.319 365.752C221.696 362.736 220.516 359.862 218.84 357.278C218.84 357.278 218.416 357.457 218.349 357.524C217.792 355.829 217.212 354.134 216.565 352.462C218.059 351.079 218.996 350.098 218.996 350.098L216.008 343.408C227.885 341.668 239.948 341.601 251.844 343.207C272.226 345.816 274.077 345.794 287.948 350.834V350.655Z" fill="#3D3834"/>
<path d="M376.389 248.477V248.343H376.233C376.18 248.335 376.126 248.347 376.081 248.375C376.036 248.404 376.003 248.448 375.987 248.499L349.517 263.306C348.313 269.461 349.74 269.082 347.644 292.162C345.726 294.526 344.522 297.916 337.698 300.458C333.875 301.59 330.147 303.021 326.548 304.739C321.865 307.393 320.639 312.299 325.344 315.889C325.245 315.959 325.155 316.042 325.077 316.135L324.408 316.514C324.318 316.577 324.249 316.666 324.21 316.768C324.17 316.871 324.162 316.982 324.186 317.09C324.209 317.197 324.264 317.295 324.344 317.371C324.423 317.447 324.523 317.498 324.631 317.517C324.92 317.785 325.166 317.651 325.433 317.517C325.444 317.673 325.444 317.83 325.433 317.986C325.433 318.116 325.485 318.241 325.577 318.333C325.669 318.425 325.794 318.476 325.924 318.476C326.054 318.476 326.179 318.425 326.271 318.333C326.363 318.241 326.415 318.116 326.415 317.986V317.049L326.816 316.826C330.139 318.744 334.911 319.658 335.914 323.984C336.65 327.196 334.153 331.12 330.986 333.373C330.986 333.373 330.607 330.228 330.585 330.184C330.429 329.738 329.693 329.738 329.715 330.295V331.343L328.89 329.961C328.811 329.869 328.703 329.809 328.585 329.789C328.466 329.77 328.344 329.792 328.24 329.853C328.137 329.915 328.058 330.01 328.018 330.123C327.977 330.237 327.978 330.361 328.02 330.474C328.6 331.722 329.157 332.971 329.76 334.22C321.687 338.68 318.788 328.757 313.726 324.564C314.373 321.13 314.529 321.197 314.395 320.885C314.414 320.816 314.419 320.744 314.41 320.673C314.402 320.602 314.379 320.534 314.344 320.472C314.309 320.409 314.262 320.355 314.205 320.311C314.149 320.267 314.085 320.235 314.016 320.216C313.947 320.197 313.875 320.191 313.804 320.2C313.733 320.209 313.665 320.231 313.603 320.267C313.541 320.302 313.486 320.349 313.442 320.405C313.398 320.462 313.366 320.526 313.347 320.595C313.191 320.974 313.079 321.375 312.945 321.777C312.812 322.178 312.789 322 312.678 322.423L312.432 321.687C312.403 321.578 312.331 321.485 312.233 321.428C312.135 321.372 312.018 321.357 311.908 321.386C311.799 321.416 311.706 321.488 311.649 321.586C311.593 321.684 311.578 321.801 311.607 321.91C311.496 322.133 311.607 322.49 311.808 323.226C310.734 322.546 309.581 321.999 308.374 321.598C305.237 320.679 301.873 320.916 298.896 322.267C298.718 321.42 298.584 320.55 298.473 319.703C298.361 318.855 297.67 319.301 297.558 319.703C297.419 319.764 297.307 319.875 297.246 320.015C297.09 319.792 296.912 319.435 296.488 319.614C296.418 319.59 296.343 319.587 296.272 319.605C296.2 319.624 296.136 319.662 296.086 319.717C296.036 319.771 296.004 319.839 295.992 319.912C295.98 319.984 295.99 320.059 296.02 320.126C296.577 321.018 297.112 321.91 297.648 322.802C293.899 324.778 290.549 327.432 287.769 330.63C287.742 330.676 287.732 330.731 287.739 330.784C287.746 330.837 287.77 330.886 287.808 330.924C287.846 330.962 287.896 330.987 287.949 330.994C288.002 331.001 288.056 330.991 288.103 330.964C291.111 328.287 294.358 325.891 297.804 323.806C297.982 324.876 298.205 326.036 298.428 326.995C298.428 327.597 299.565 327.463 299.476 326.861C299.487 326.727 299.487 326.593 299.476 326.46C299.56 326.381 299.622 326.281 299.655 326.17L299.855 326.482C299.913 326.59 300.005 326.676 300.117 326.726C300.229 326.776 300.354 326.788 300.473 326.761C300.593 326.733 300.699 326.666 300.777 326.571C300.855 326.477 300.899 326.359 300.903 326.237V326.125C300.904 326.064 300.891 326.004 300.863 325.95C300.836 325.896 300.796 325.849 300.747 325.813C300.301 324.914 299.802 324.043 299.253 323.204C301.323 322.239 303.616 321.856 305.887 322.096C308.157 322.335 310.32 323.189 312.143 324.564V324.743C312.143 325.233 311.964 325.724 311.853 326.214C311.741 326.705 311.674 327.062 311.607 327.485C311.54 327.909 312.589 328.534 312.7 327.798V327.485C312.791 327.417 312.861 327.324 312.901 327.218L313.57 328.957C313.815 329.582 314.819 329.336 314.596 328.667C314.373 327.998 313.993 326.839 313.681 325.947C317.963 330.184 321.531 339.594 329.871 335.335C330.027 336.829 330.049 337.275 330.25 339.126C330.276 339.252 330.344 339.365 330.444 339.447C330.543 339.528 330.668 339.573 330.797 339.573C330.925 339.573 331.05 339.528 331.149 339.447C331.249 339.365 331.317 339.252 331.343 339.126C331.343 338.658 331.343 338.189 331.231 337.721C331.254 337.626 331.254 337.527 331.231 337.431C331.289 337.454 331.352 337.454 331.41 337.431C331.789 337.677 332.436 337.431 332.257 336.829C331.948 336.024 331.599 335.235 331.209 334.465C335.156 331.745 338.234 326.571 335.981 322.334C334.309 319.212 330.629 318.209 327.373 316.558C328.422 315.845 330.072 315.555 329.091 314.774C328.801 313.637 327.842 314.774 326.303 315.555V314.618C326.303 314.547 326.275 314.479 326.225 314.429C326.175 314.379 326.106 314.351 326.035 314.351C325.964 314.351 325.896 314.379 325.846 314.429C325.796 314.479 325.768 314.547 325.768 314.618C325.768 314.931 325.656 315.22 325.589 315.533C321.464 312.5 322.49 308.062 326.727 305.587C330.964 303.112 336.115 302.197 340.642 300.324C342.316 299.57 343.824 298.492 345.079 297.152C346.334 295.813 347.312 294.238 347.956 292.519L378.931 277.177C378.99 277.191 379.053 277.183 379.106 277.154C379.16 277.126 379.201 277.078 379.221 277.021C378.775 274.991 376.612 248.61 376.389 248.477ZM363.812 270.509L348.202 292.051C348.648 287.992 350.432 268.368 349.807 263.484L363.856 270.509L376.077 249.079C376.585 258.354 377.56 267.598 378.998 276.775L363.812 270.509ZM51.9239 294.749L49.4932 290.713L48.6012 295.106L44.5872 295.998L47.7538 298.25L46.8172 302.532L50.5636 299.454L54.9567 301.461L52.9274 297.425L55.6034 294.125L51.9239 294.749ZM284.58 290.936L281.146 285.472L279.874 291.426L274.121 292.631L278.626 295.686L277.31 301.506L282.64 297.314L288.906 300.056L286.007 294.593L289.798 290.088L284.58 290.936ZM127.499 56.0722C129.907 56.4736 132.984 55.9384 134.345 58.4137L133.676 58.882C133.54 59.5014 133.627 60.1488 133.921 60.7106C134.332 61.5876 134.914 62.3732 135.634 63.0207C136.355 63.6681 137.198 64.1641 138.113 64.4793L138.626 64.3455C139.897 65.1706 141.637 65.7504 142.841 64.457C144.045 63.1636 143.242 61.112 143.265 61.0674C145.829 57.5217 140.499 54.1321 140.499 54.1321L139.875 54.5781C137.511 50.1181 143.889 45.8365 138.314 38.143C131.825 29.223 114.542 33.3485 119.493 48.4902C119.993 50.3718 121.007 52.0773 122.421 53.4162C123.834 54.755 125.593 55.6746 127.499 56.0722ZM136.24 57.1203C133.308 54.196 130.146 51.5114 126.785 49.0923C127.722 49.3153 128.279 49.8059 129.015 48.9808V48.6686C129.885 46.4386 130.42 48.7801 131.557 47.0853V46.617C132.182 45.725 132.092 46.4609 132.694 46.394C132.981 46.4118 133.269 46.3739 133.542 46.2825C134.233 45.9703 134.099 44.8553 135.304 44.9891C135.847 48.6922 136.812 52.3209 138.18 55.8046L136.24 57.1203ZM142.685 61.781C142.865 62.2032 142.922 62.6673 142.851 63.1207C142.78 63.574 142.584 63.9983 142.283 64.3455C141.347 65.2152 140.053 64.7246 139.161 64.1448C140.496 63.6265 141.699 62.8192 142.685 61.781ZM139.697 42.8929C140.678 47.3529 137.11 51.8129 139.362 54.9349L138.626 55.4478C136.664 48.9585 134.456 38.9458 135.147 44.4316C133.051 44.2978 133.564 45.1452 133.185 45.4574C132.806 45.7696 131.78 45.4574 131.089 45.7919C130.888 45.7919 131.089 46.2602 130.888 46.3494C129.528 47.7766 129.952 46.7285 128.814 47.1076C128.391 47.2637 128.368 47.3752 128.168 47.732C127.967 48.0888 128.703 48.5125 127.967 48.9139C127.967 48.9139 126.74 48.7355 126.272 48.7132C121.812 45.2344 131.267 53.7976 135.616 57.6332L134.724 58.2576C132.115 53.0394 120.586 59.7071 119.359 44.2309C118.378 31.3861 137.11 30.784 139.697 42.8929ZM299.209 395.456C299.157 395.975 299.29 396.497 299.583 396.929C299.876 397.361 300.312 397.676 300.814 397.82C303.356 398.02 303.579 396.192 303.579 396.192L304.717 391.955L300.257 391.486L299.209 395.456ZM126.963 21.3734C126.963 21.0389 126.317 21.0835 126.361 21.3734C126.614 23.7968 127.016 26.2024 127.565 28.5763C127.833 29.3568 129.327 29.5352 126.963 21.3734ZM139.117 33.9952C140.104 32.244 140.854 30.3692 141.347 28.4202C141.339 28.3619 141.317 28.3065 141.281 28.2598C141.245 28.2131 141.198 28.1765 141.144 28.1539C141.089 28.1313 141.03 28.1234 140.972 28.131C140.914 28.1386 140.858 28.1614 140.812 28.1972C139.724 29.8954 138.89 31.7435 138.336 33.683C138.203 34.1067 138.916 34.5304 139.117 33.9952ZM114.386 34.8426C114.435 34.8614 114.488 34.8676 114.54 34.8606C114.592 34.8536 114.641 34.8337 114.684 34.8026C114.726 34.7714 114.759 34.7302 114.782 34.6826C114.804 34.6351 114.813 34.5827 114.81 34.5304C113.318 32.232 111.592 30.0946 109.659 28.1526C109.413 27.9519 108.99 28.1526 109.19 28.5094C109.993 29.5129 113.383 33.8391 114.386 34.8426ZM104.641 50.4749C112.067 49.4491 111.331 48.2449 110.818 48.2449C108.588 48.5125 106.581 49.4045 104.463 49.8282C104.017 49.8951 104.217 50.5418 104.641 50.4749ZM119.716 59.2834C119.917 59.0158 119.582 58.6144 119.27 58.7259C117.5 59.832 115.815 61.0694 114.23 62.4277C113.873 62.7176 114.23 63.2974 114.698 63.0521C116.46 61.9189 118.137 60.6593 119.716 59.2834ZM127.499 61.4019C127.119 63.2751 127.186 65.2598 126.919 67.1553C126.919 67.6236 127.565 67.8466 127.655 67.356C128.155 65.4134 128.336 63.4025 128.19 61.4019C128.19 61.3102 128.153 61.2223 128.089 61.1575C128.024 61.0926 127.936 61.0562 127.844 61.0562C127.753 61.0562 127.665 61.0926 127.6 61.1575C127.535 61.2223 127.499 61.3102 127.499 61.4019ZM119.136 87.5375C119.673 87.5824 120.213 87.5123 120.721 87.332C121.229 87.1517 121.692 86.8652 122.08 86.4918C122.468 86.1183 122.773 85.6663 122.973 85.166C123.172 84.6657 123.263 84.1286 123.239 83.5904C122.838 78.0823 114.988 78.7959 114.788 83.3005C114.844 84.4252 115.323 85.4872 116.13 86.2731C116.936 87.059 118.01 87.5107 119.136 87.5375ZM122.303 83.0775C122.414 83.5385 122.414 84.0195 122.303 84.4807C122.192 84.9419 121.973 85.3699 121.663 85.7295C121.354 86.0891 120.963 86.3698 120.524 86.5484C120.084 86.7271 119.609 86.7986 119.136 86.757C118.238 86.776 117.364 86.4637 116.681 85.8797C115.998 85.2957 115.555 84.4807 115.434 83.5904C115.483 82.7523 115.832 81.96 116.419 81.3594C117.005 80.7589 117.789 80.3908 118.626 80.3229C119.463 80.255 120.296 80.4919 120.971 80.9899C121.647 81.488 122.12 82.2136 122.303 83.0329V83.0775ZM222.474 133.096C222.653 133.632 245.912 134.635 251.041 134.524C250.373 135.148 249.898 135.949 249.669 136.833C249.44 137.718 249.467 138.649 249.747 139.519C250.416 141.191 252.512 141.526 254.073 141.749C262.436 142.864 270.754 144.536 280.008 142.663C292.63 140.121 285.94 127.588 278.336 133.364C278.62 131.727 278.408 130.042 277.728 128.526C277.049 127.01 275.931 125.732 274.52 124.855C273.109 123.978 271.468 123.542 269.808 123.604C268.147 123.666 266.543 124.223 265.201 125.202C265.201 119.516 256.772 114.766 253.204 119.872C254.118 111.755 246.915 106.649 239.132 108.165C230.77 109.748 229.276 119.27 233 125.693C231.869 124.777 230.471 124.256 229.017 124.207C227.562 124.158 226.132 124.584 224.942 125.421C223.752 126.258 222.867 127.46 222.422 128.845C221.977 130.23 221.995 131.723 222.474 133.096ZM265.647 125.737C271.668 122.147 278.157 125.737 277.578 134.011C277.578 134.011 278.135 134.234 278.18 134.189C285.293 128.48 291.091 139.43 280.744 141.793C272.337 143.711 262.235 142.462 253.605 140.946C246.915 139.764 251.955 130.889 257.017 134.367C257.396 134.635 257.53 131.58 260.05 131.558C261.276 131.558 262.949 131.981 263.35 133.275C263.35 133.275 263.796 132.695 263.752 132.561C263.172 130.064 263.149 127.231 265.647 125.737ZM252.267 120.675C252.267 121.121 252.958 120.809 252.981 120.675C257.017 115.435 264.131 120.029 264.354 125.604C263.467 126.259 262.829 127.197 262.546 128.262C262.262 129.328 262.349 130.459 262.793 131.468C260.563 129.974 256.972 130.621 256.727 133.698C256.341 133.362 255.892 133.106 255.406 132.945C254.919 132.784 254.406 132.721 253.895 132.76C253.385 132.8 252.887 132.941 252.431 133.174C251.976 133.408 251.571 133.73 251.241 134.122C242.321 132.873 224.035 132.985 223.076 132.561C222.117 132.137 223.076 128.547 223.745 127.477C224.298 126.748 225.003 126.15 225.813 125.725C226.623 125.3 227.516 125.059 228.429 125.018C229.343 124.978 230.254 125.139 231.098 125.491C231.942 125.843 232.698 126.376 233.312 127.053C233.669 127.365 233.78 126.473 233.758 126.451C223.411 102.858 255.501 104.151 252.379 120.675H252.267ZM276.619 81.851C276.209 78.9493 275.005 76.2173 273.14 73.9568C264.621 66.1964 246.826 74.7596 255.724 91.7968C256.714 93.356 257.809 94.8461 259.002 96.2568C261.009 99.1558 261.923 105.645 262.347 109.146C262.347 109.235 262.382 109.32 262.445 109.383C262.507 109.445 262.592 109.481 262.681 109.481H269.081C270.129 109.481 268.747 101.497 270.062 97.8624C271.98 92.2874 278.113 88.4741 276.619 81.851ZM263.016 71.9721C264.486 71.6629 266.005 71.6629 267.476 71.9721C269.008 76.1076 269.683 80.5116 269.461 84.9163C269.239 89.321 268.123 93.6345 266.182 97.5948H264.376C262.437 93.6352 261.317 89.3249 261.083 84.9221C260.849 80.5194 261.506 76.1147 263.016 71.9721ZM255.679 89.9905C253.025 83.3005 252.981 77.4802 258.979 73.6446C255.322 78.3945 256.192 90.9717 263.439 97.6171C262.414 97.6171 261.41 97.3049 260.384 97.1934C258.663 94.8957 257.092 92.4897 255.679 89.9905ZM268.546 108.901C267.119 109.057 265.736 108.901 264.309 108.901C262.882 108.901 263.172 109.681 262.436 105.043C264.6 105.388 266.805 105.388 268.97 105.043C269.005 106.342 268.862 107.64 268.546 108.901ZM268.97 104.441C266.74 104.731 264.51 104.441 262.28 104.664C261.79 102.225 261.15 99.8199 260.362 97.461C263.312 98.4642 266.504 98.511 269.483 97.5948C268.931 99.8398 268.758 102.161 268.97 104.463V104.441ZM269.795 96.9704C269.045 97.0473 268.301 97.1665 267.565 97.3272C274.745 90.2804 275.08 77.9708 271.601 73.5554C275.147 76.0307 277.421 83.8357 275.281 88.1173C273.72 91.1947 271.222 93.7592 269.884 97.0373L269.795 96.9704ZM287.992 113.45C288.46 114.565 288.884 107.496 293.7 106.894C293.879 106.894 294.035 106.715 293.879 106.559C292.898 105.6 290.155 105.556 289.82 99.6241C289.82 99.3788 289.352 99.2896 289.352 99.6241C289.218 106.314 281.012 106.515 282.662 107.005C286.721 108.12 287.412 112.09 287.992 113.45ZM289.575 101.43C289.638 102.461 289.949 103.461 290.48 104.346C291.012 105.231 291.75 105.975 292.63 106.515C291.536 107.117 290.577 107.936 289.81 108.921C289.043 109.906 288.485 111.038 288.17 112.246C287.802 111.083 287.203 110.006 286.41 109.079C285.617 108.152 284.646 107.393 283.554 106.849C284.942 106.548 286.228 105.89 287.284 104.939C288.34 103.989 289.13 102.78 289.575 101.43ZM317.361 138.203C317.182 138.203 317.227 138.56 317.361 138.604C318.614 138.881 319.737 139.574 320.547 140.57C321.357 141.566 321.806 142.807 321.821 144.09C321.821 144.246 322.155 144.291 322.2 144.09C322.244 143.89 322.2 139.63 324.965 137.98C325.143 137.98 325.233 137.489 324.965 137.512C321.932 137.958 320.171 131.914 320.148 131.825C320.126 131.736 319.702 131.691 319.769 131.825C320.023 133.007 319.931 134.238 319.504 135.369C319.077 136.5 318.333 137.484 317.361 138.203ZM320.572 133.743C321.286 135.527 322.445 137.757 324.185 138.047C323.109 139.083 322.391 140.434 322.133 141.905C321.402 140.295 320.075 139.032 318.431 138.381C319.701 137.131 320.463 135.455 320.572 133.676V133.743ZM168.776 104.196V104.396C169.884 104.599 170.904 105.135 171.701 105.932C172.497 106.728 173.033 107.748 173.236 108.856C173.251 108.901 173.279 108.94 173.317 108.967C173.355 108.995 173.401 109.01 173.448 109.01C173.495 109.01 173.54 108.995 173.578 108.967C173.617 108.94 173.645 108.901 173.66 108.856C174.284 106.827 174.708 104.642 178.12 104.151C178.253 104.151 178.298 103.861 178.12 103.861C174.083 103.46 173.303 98.4645 173.147 98.1077C172.991 97.7509 172.768 98.1077 172.79 98.1077C173.392 101.899 169.98 103.504 168.776 104.196ZM173.414 100.092C173.687 100.928 174.134 101.696 174.726 102.346C175.318 102.996 176.042 103.512 176.848 103.861C176.066 104.202 175.37 104.713 174.811 105.357C174.251 106.002 173.843 106.763 173.615 107.585C173.236 106.732 172.657 105.983 171.927 105.401C171.197 104.819 170.338 104.421 169.423 104.24C170.379 103.933 171.245 103.394 171.942 102.67C172.639 101.946 173.145 101.06 173.414 100.092ZM376.79 185.301C374.56 177.629 374.248 170.493 373.356 171.385C370.546 174.173 364.436 179.703 364.436 179.726C364.436 179.748 372.576 183.65 376.21 185.702C376.3 185.769 376.857 185.501 376.79 185.301ZM365.306 179.592C368.283 177.289 371.024 174.697 373.49 171.854C373.749 176.273 374.596 180.638 376.01 184.832C372.353 182.892 368.874 181.71 365.306 179.592ZM355.65 184.364C355.04 186.562 354.571 188.797 354.245 191.054C354.245 191.522 354.869 191.723 354.959 191.255C355.542 188.985 355.886 186.661 355.984 184.319C355.968 184.286 355.941 184.259 355.908 184.242C355.875 184.224 355.838 184.217 355.801 184.222C355.764 184.227 355.73 184.244 355.703 184.269C355.676 184.294 355.657 184.328 355.65 184.364ZM352.483 200.821C353.205 198.64 353.742 196.403 354.089 194.131C354.089 193.842 353.687 193.819 353.598 194.131C352.882 196.269 352.345 198.462 351.993 200.688C351.996 200.744 352.016 200.798 352.051 200.842C352.087 200.886 352.135 200.917 352.19 200.932C352.244 200.947 352.302 200.944 352.354 200.924C352.407 200.905 352.452 200.869 352.483 200.821ZM360.534 195.269C360.617 195.295 360.707 195.29 360.787 195.254C360.866 195.218 360.93 195.154 360.966 195.074C361.002 194.995 361.007 194.904 360.981 194.821C360.954 194.738 360.899 194.667 360.823 194.622C359.06 193.726 357.162 193.123 355.204 192.838C353.576 192.86 359.419 195.09 360.534 195.269ZM352.126 191.589C350.186 191.054 348.269 190.363 346.328 189.85C345.905 189.85 344.388 190.274 351.903 192.414C352.013 192.444 352.13 192.429 352.228 192.372C352.326 192.316 352.398 192.223 352.428 192.113C352.457 192.004 352.442 191.887 352.386 191.789C352.329 191.691 352.236 191.619 352.126 191.589ZM295.641 220.379C292.452 222.006 289.776 227.336 290.98 230.793C290.98 230.793 291.158 230.949 291.203 230.971C296.555 231.506 329.113 231.462 339.861 231.239C339.938 231.237 340.013 231.214 340.078 231.173C340.143 231.131 340.195 231.073 340.23 231.005C340.264 230.936 340.279 230.859 340.273 230.782C340.267 230.706 340.24 230.632 340.196 230.57C340.542 229.074 340.399 227.507 339.789 226.098C339.179 224.689 338.134 223.513 336.806 222.742C335.319 222.176 333.727 221.935 332.139 222.035C330.55 222.135 329.001 222.574 327.596 223.322C329.135 220.579 327.596 217.546 325.723 215.183C323.493 212.284 321.04 209.496 317.182 209.229C313.771 208.771 310.31 209.563 307.437 211.459C304.605 213.822 304.85 217.301 305.341 220.579C303.2 217.658 298.517 218.907 295.641 220.379ZM307.526 212.574C308.691 211.511 310.068 210.707 311.567 210.216C313.065 209.725 314.65 209.557 316.218 209.723C317.786 209.89 319.301 210.387 320.663 211.182C322.024 211.977 323.202 213.052 324.118 214.335C326.169 216.877 328.979 220.445 326.504 223.657C326.214 224.036 327.195 223.969 327.217 223.947C336.918 220.891 339.393 224.214 339.549 230.414C328.89 231.016 293.7 230.213 291.27 230.57C290.578 219.977 302.42 217.19 305.698 221.962C305.832 222.163 306.122 221.962 305.921 221.583C305.609 218.595 305.252 214.893 307.526 212.574ZM330.741 250.261C330.986 250.104 330.741 249.725 330.629 249.792C326.838 251.13 324.631 245.734 324.474 245.511C324.318 245.288 324.073 245.511 324.14 245.644C325.188 248.276 324.876 251.376 321.91 252.491C321.871 252.504 321.836 252.53 321.812 252.564C321.788 252.598 321.775 252.638 321.775 252.68C321.775 252.722 321.788 252.762 321.812 252.796C321.836 252.83 321.871 252.856 321.91 252.87C323.162 252.683 324.44 252.942 325.521 253.603C326.601 254.263 327.415 255.282 327.819 256.482C327.819 256.75 328.355 256.705 328.332 256.482C328.31 256.259 327.686 252.045 330.741 250.261ZM327.73 254.944C327.231 254.212 326.568 253.608 325.793 253.178C325.019 252.748 324.155 252.505 323.27 252.468C323.974 251.912 324.517 251.18 324.846 250.345C325.175 249.511 325.278 248.605 325.143 247.718C325.595 248.518 326.24 249.192 327.019 249.679C327.798 250.166 328.687 250.45 329.603 250.506C329.015 251.086 328.547 251.777 328.225 252.538C327.904 253.3 327.736 254.117 327.73 254.944ZM243.392 337.052C248.498 321.576 260.853 308.062 274.255 299.142C274.679 298.852 274.255 298.183 273.853 298.451C246.068 316.938 241.719 342.27 243.392 337.052ZM234.918 321.286C242.522 309.668 249.859 305.007 262.012 298.518C262.48 298.272 262.012 297.581 261.611 297.826C251.286 302.978 239.891 310.448 234.695 321.152C234.686 321.181 234.687 321.212 234.697 321.24C234.708 321.268 234.728 321.291 234.754 321.307C234.779 321.322 234.809 321.329 234.839 321.325C234.869 321.321 234.897 321.307 234.918 321.286ZM269.527 289.196C270.575 289.063 269.683 287.524 260.206 289.687C239.98 294.147 235.297 303.468 236.389 302.264C246.135 291.605 260.496 290.356 269.527 289.196ZM65.0363 247.495C61.8697 249.168 59.3944 246.648 58.547 243.794C58.547 243.571 58.0787 243.593 58.101 243.794C58.6808 250.796 69.3848 250.617 67.8238 241.564C66.7236 237.006 64.8532 232.669 62.2934 228.741C56.6515 219.13 51.6563 215.629 52.6598 216.877C58.4578 224.08 72.9305 243.348 65.0363 247.495ZM91.0827 259.894C92.4207 259.069 91.6848 256.973 91.8186 255.702C91.8186 255.39 91.3503 255.345 91.2834 255.702C91.1981 256.353 91.146 257.008 91.1273 257.664C90.6813 259.894 88.5405 259.292 87.0464 258.578C84.7363 257.225 82.7859 255.336 81.3599 253.07C78.4832 249.079 75.9856 244.775 73.488 240.56C57.878 214.536 56.763 216.164 57.0752 216.543C64.7464 226.511 70.6782 237.46 77.3013 248.12C79.7766 252.134 82.4749 257.174 87.0018 259.27C88.0499 259.76 89.9677 260.563 91.0827 259.894ZM66.8872 223.523C66.7311 223.322 66.3966 223.523 66.5304 223.79C77.2567 239.133 75.5396 233.937 66.8872 223.523ZM42.8032 208.114C38.031 215.316 46.3712 218.661 46.3712 218.661C45.7596 217.767 45.5179 216.671 45.6967 215.603C45.8754 214.534 46.4608 213.577 47.3301 212.93C47.9711 213.37 48.6417 213.765 49.3371 214.112C51.4266 213.388 53.2933 212.136 54.756 210.477C54.5165 209.652 54.1953 208.853 53.7971 208.091C54.7292 207.47 55.8676 207.239 56.9682 207.447C58.0688 207.656 59.0439 208.287 59.6843 209.206C59.6843 209.206 59.6843 199.929 50.7643 202.137C40.8185 184.676 25.2754 178.834 41.2199 205.482C41.6436 206.374 42.2011 207.244 42.8032 208.114ZM40.707 190.474C43.2269 193.284 48.4005 196.094 54.2431 210.165C52.7579 211.535 51.1278 212.739 49.3817 213.755C39.3913 203.096 40.0157 201.022 35.7564 194.02L40.707 190.474ZM93.1566 151.338C88.6966 152.007 81.6944 156.868 83.3892 162.153C81.9789 161.014 80.2388 160.359 78.427 160.287C76.6153 160.214 74.8285 160.728 73.3319 161.752C71.5096 163.15 70.1855 165.097 69.555 167.306C68.9245 169.515 69.0212 171.867 69.8308 174.017H109.77C113.583 174.017 114.854 156.667 101.564 161.93C102.083 160.656 102.254 159.266 102.059 157.904C101.865 156.541 101.311 155.255 100.456 154.177C99.6001 153.099 98.4732 152.268 97.1906 151.769C95.9079 151.27 94.5157 151.121 93.1566 151.338ZM101.14 162.8C108.187 158.34 115.011 165.855 109.859 173.571C109.859 173.571 72.4845 173.036 70.4552 173.437C66.9764 162.287 78.9961 156.89 83.9913 163.58C84.1474 163.803 83.9913 162.845 83.8129 162.599C81.739 155.196 94.3385 148.06 99.7128 154.014C103.281 157.939 100.092 163.491 101.14 162.8ZM57.0752 102.545C56.9424 102.773 56.8615 103.026 56.8384 103.289C56.8153 103.551 56.8504 103.815 56.9414 104.062C56.1163 104.976 57.5435 107.607 59.6843 106.158C63.4198 107.716 67.3647 108.716 71.3918 109.124C70.2545 112.736 67.6454 122.214 70.9012 124.132C74.157 126.05 78.6839 115.212 80.0219 111.978C80.9679 111.652 81.8451 111.153 82.6087 110.506C88.2952 110.975 100.716 111.376 96.903 105.823C95.3643 103.593 86.5558 101.921 83.8798 101.497C85.3739 96.9258 89.3879 83.2336 82.7202 85.8873C79.8881 86.98 77.1898 93.6254 75.3166 98.2861C74.106 98.5665 73.0001 99.1852 72.1277 100.07C68.4928 99.7133 58.5693 99.2004 57.0752 102.545ZM84.0582 102.01C86.645 102.412 95.4981 104.24 96.4347 106.091C98.9769 110.952 88.4736 110.06 83.3 109.771C84.3263 108.777 84.9661 107.451 85.105 106.03C85.2438 104.608 84.8728 103.183 84.0582 102.01ZM82.854 86.4002C88.2952 84.8169 84.7718 96.0338 83.1885 101.096C82.2766 100.085 81.1453 99.2956 79.8813 98.7893C78.6173 98.2829 77.2542 98.0726 75.8964 98.1746C76.8999 95.6993 80.3787 87.0692 82.854 86.3556V86.4002ZM79.2637 112.268C73.042 129.305 66.6642 126.362 71.9047 109.436C72.6619 110.637 73.7897 111.559 75.1175 112.062C76.4453 112.565 77.9008 112.622 79.2637 112.224V112.268ZM71.7932 100.605C71.0071 101.746 70.5443 103.077 70.454 104.459C70.3637 105.841 70.6492 107.222 71.2803 108.455C71.2803 108.455 62.0035 107.005 60.1303 105.734C60.8662 105.043 60.3533 103.125 57.655 103.504C57.209 102.278 58.993 101.586 59.7735 101.274C63.6922 100.236 67.7792 99.9934 71.7932 100.561V100.605ZM55.202 74.3136C56.2667 74.7694 57.2013 75.4829 57.9215 76.39C58.6417 77.2971 59.1249 78.3691 59.3275 79.5095C59.9296 80.7806 59.3275 74.492 62.8732 74.2244C63.0293 74.2244 63.1185 73.9568 62.8732 73.8676C61.3122 73.0648 59.1491 72.8195 57.7665 66.6647C57.7665 66.3079 57.0529 66.4863 57.2313 66.8208C58.6139 69.4968 55.1574 74.0014 55.1351 74.0014C55.0937 74.0102 55.0575 74.0352 55.0345 74.0707C55.0115 74.1063 55.0036 74.1495 55.0124 74.1909C55.0213 74.2323 55.0463 74.2685 55.0818 74.2915C55.1173 74.3145 55.1606 74.3224 55.202 74.3136ZM57.9672 69.2738C58.2123 70.2919 58.6765 71.2442 59.3274 72.0646C59.9783 72.8849 60.8002 73.5535 61.7359 74.0237C61.0551 74.3926 60.4754 74.9231 60.0477 75.5686C59.62 76.2141 59.3573 76.9547 59.2829 77.7255C59.0289 76.8239 58.5399 76.006 57.866 75.3556C57.192 74.7051 56.3573 74.2455 55.4473 74.0237C56.8312 72.795 57.7258 71.1086 57.9672 69.2738ZM54.8898 50.1404C58.8887 49.2296 62.8223 48.0525 66.6642 46.617C69.0503 47.8212 59.7066 37.697 56.1609 35.244C56.0048 35.1325 55.8264 35.3778 55.9379 35.5116C55.2465 40.2427 54.7999 45.0064 54.5999 49.7836C54.5999 49.7836 54.8006 50.1404 54.8898 50.1404ZM56.1832 35.7346C63.7206 43.2943 63.2746 43.6511 66.129 46.1487C62.4718 47.3306 58.8592 48.8693 55.1351 49.7613C55.4027 45.056 55.7372 40.373 56.1832 35.7123V35.7346ZM54.1316 167.438C54.17 167.486 54.2257 167.516 54.2863 167.522C54.347 167.528 54.4076 167.51 54.4549 167.472C54.5022 167.433 54.5323 167.378 54.5386 167.317C54.5449 167.256 54.5268 167.196 54.4884 167.148C54.2948 166.041 54.3833 164.903 54.7458 163.839C55.1082 162.775 55.733 161.819 56.5623 161.061C56.8299 160.815 56.5623 160.302 56.317 160.481C52.6598 162.51 50.0953 158.407 50.0507 158.251C50.0061 158.095 49.5824 158.251 49.6716 158.407C51.3887 162.867 48.7796 164.539 47.6423 165.097C47.5308 165.097 47.6423 165.364 47.6423 165.32C48.7925 164.794 50.0981 164.721 51.3002 165.113C52.5023 165.506 53.5129 166.336 54.1316 167.438ZM50.5413 159.767C51.1639 160.466 51.9596 160.988 52.8482 161.282C53.7368 161.575 54.6871 161.63 55.6034 161.44C54.4244 162.748 53.7797 164.451 53.7971 166.212C53.264 165.627 52.6002 165.177 51.86 164.898C51.1198 164.619 50.324 164.519 49.5378 164.606C50.1046 163.953 50.4945 163.165 50.6702 162.317C50.8459 161.47 50.8015 160.592 50.5413 159.767ZM81.8282 210.165C81.7167 210.165 81.8282 210.388 81.8282 210.388C82.9396 209.826 84.2252 209.713 85.4173 210.075C86.6094 210.436 87.6163 211.243 88.2283 212.328C88.3844 212.551 88.6966 212.328 88.5851 212.038C88.421 210.932 88.5236 209.802 88.8844 208.743C89.2451 207.684 89.8535 206.727 90.659 205.95C90.9043 205.705 90.659 205.237 90.4137 205.371C89.8574 205.645 89.2518 205.804 88.6327 205.84C88.0136 205.876 87.3937 205.787 86.8095 205.579C86.2253 205.371 85.6887 205.048 85.2314 204.63C84.7742 204.211 84.4056 203.704 84.1474 203.141C84.1474 202.94 83.6791 203.141 83.7683 203.297C85.6415 207.757 82.9878 209.496 81.8282 210.165ZM84.7272 204.657C85.3498 205.356 86.1455 205.878 87.0341 206.172C87.9227 206.465 88.8729 206.52 89.7893 206.33C88.7248 207.699 88.1164 209.368 88.0499 211.102C87.5261 210.505 86.8636 210.047 86.1208 209.767C85.378 209.487 84.5778 209.394 83.7906 209.496C84.3461 208.836 84.7237 208.045 84.8876 207.198C85.0515 206.351 84.9963 205.477 84.7272 204.657ZM41.7997 236.122C41.8381 236.17 41.8938 236.2 41.9544 236.206C42.0151 236.212 42.0757 236.194 42.123 236.156C42.1703 236.117 42.2004 236.062 42.2067 236.001C42.213 235.94 42.1949 235.88 42.1565 235.832C41.6882 233.446 42.1565 232.465 44.275 229.789C44.498 229.522 44.275 229.076 44.0297 229.209C43.4729 229.49 42.865 229.655 42.2427 229.694C41.6204 229.734 40.9966 229.646 40.4089 229.438C39.8212 229.23 39.2818 228.904 38.8233 228.482C38.3648 228.059 37.9966 227.548 37.7411 226.979C37.7411 226.779 37.2951 226.979 37.3843 227.135C37.723 227.709 37.9397 228.347 38.0205 229.008C38.1014 229.67 38.0448 230.341 37.8543 230.979C37.6638 231.618 37.3435 232.21 36.9134 232.719C36.4833 233.228 35.9528 233.643 35.355 233.937V234.16C36.4776 233.608 37.7682 233.504 38.965 233.868C40.1618 234.232 41.1752 235.038 41.7997 236.122ZM38.2317 228.54C38.8509 229.237 39.6427 229.759 40.5274 230.052C41.4121 230.346 42.3585 230.401 43.2715 230.213C42.6701 230.854 42.2011 231.608 41.8912 232.43C41.5812 233.253 41.4365 234.129 41.4652 235.007C40.9366 234.422 40.2774 233.97 39.5413 233.687C38.8051 233.404 38.0127 233.299 37.2282 233.379C37.7913 232.724 38.1788 231.936 38.3543 231.089C38.5298 230.243 38.4876 229.366 38.2317 228.54ZM58.3909 298.072C64.016 299.874 69.1615 302.923 73.4434 306.992C77.3281 311.031 80.9694 315.298 84.3481 319.77C84.5711 320.037 84.9725 319.77 84.7941 319.435C79.1745 309.645 69.4963 300.703 58.4355 297.893C58.324 297.871 58.3017 298.049 58.3909 298.072ZM84.1474 303.357C84.3927 303.491 84.6826 303.134 84.4596 302.955C80.4088 299.126 75.148 296.831 69.5855 296.466C69.3402 296.466 69.3402 296.845 69.5855 296.868C75.2497 297.269 79.5536 300.413 84.1474 303.357ZM85.0394 294.125C81.0698 291.34 76.4574 289.611 71.6357 289.1C66.814 288.589 61.9416 289.313 57.4766 291.203C57.3205 291.203 57.4766 291.538 57.4766 291.493C61.9611 289.969 66.7253 289.447 71.4335 289.963C76.1417 290.48 80.6794 292.022 84.7272 294.481C84.7745 294.523 84.8363 294.544 84.899 294.54C84.9618 294.535 85.0203 294.506 85.0617 294.459C85.1031 294.412 85.124 294.35 85.1198 294.287C85.1156 294.225 85.0867 294.166 85.0394 294.125ZM311.496 349.585C310.202 352.662 307.415 358.705 307.393 358.75C304.6 368.605 302.41 378.622 300.836 388.744C300.836 388.744 305.296 389.569 305.296 389.524C308.374 379.578 310.069 369.142 312.834 359.151C312.834 359.151 311.853 349.741 311.875 349.696C311.897 349.652 311.563 349.384 311.496 349.585ZM311.697 350.165C311.652 350.818 311.652 351.474 311.697 352.127H310.983C311.295 351.391 311.496 350.767 311.697 350.165ZM301.104 388.387C302.397 382.945 307.08 363.322 307.794 358.973C307.794 358.973 309.177 358.817 309.868 358.817C307.125 368.584 302.955 388.587 302.955 388.61C302.349 388.464 301.728 388.389 301.104 388.387ZM305.118 388.967L303.356 388.677C305.586 378.753 310.202 358.817 310.202 358.795C310.964 358.887 311.712 359.066 312.432 359.33C310.537 363.834 306.345 383.838 305.118 388.967ZM307.772 358.527C308.953 356.63 309.975 354.639 310.827 352.573C311.151 352.682 311.489 352.75 311.83 352.774C311.83 353.108 312.187 357.234 312.366 358.839C310.85 358.568 309.31 358.464 307.772 358.527ZM304.717 389.769C303.383 389.499 302.035 389.298 300.68 389.167C300.524 389.167 300.435 389.39 300.68 389.479C301.961 389.937 303.295 390.229 304.65 390.349C304.94 390.438 305.096 389.836 304.717 389.769ZM300.413 390.639C301.461 391.553 303.067 391.13 304.271 391.643C304.311 391.67 304.357 391.688 304.405 391.695C304.454 391.703 304.503 391.7 304.55 391.686C304.597 391.673 304.64 391.649 304.677 391.617C304.714 391.585 304.743 391.545 304.763 391.501C304.783 391.456 304.793 391.408 304.792 391.359C304.791 391.31 304.779 391.262 304.758 391.218C304.737 391.174 304.706 391.136 304.668 391.105C304.63 391.074 304.586 391.052 304.538 391.04C303.869 390.817 299.9 390.104 300.413 390.639ZM338.167 371.729C336.925 371.461 335.629 371.65 334.515 372.26C333.401 372.87 332.544 373.861 332.101 375.051C330.25 381.741 340.575 384.373 342.002 377.75C342.282 376.443 342.037 375.079 341.319 373.953C340.601 372.826 339.469 372.027 338.167 371.729ZM332.948 374.315C333.974 372.085 337.408 371.952 338.055 372.085C339.098 372.415 339.999 373.088 340.611 373.995C341.222 374.902 341.509 375.99 341.422 377.081C340.999 384.061 329.871 380.849 332.948 374.315ZM358.616 386.491C358.861 382.5 357.858 379.333 357.679 380.626C357.449 382.619 357.531 384.636 357.924 386.603C358.014 386.982 358.593 386.87 358.616 386.491ZM358.549 396.682C358.549 397.106 359.285 396.995 359.285 396.571C359.298 394.737 359.127 392.907 358.772 391.107C358.125 389.502 358.281 394.921 358.549 396.682ZM364.793 387.272C355.873 388.721 358.973 389.145 365.016 388.074C365.551 387.985 365.306 387.182 364.793 387.272ZM357.01 388.654C355.239 388.679 353.473 388.836 351.725 389.123C351.686 389.136 351.652 389.162 351.627 389.196C351.603 389.23 351.59 389.27 351.59 389.312C351.59 389.354 351.603 389.394 351.627 389.428C351.652 389.462 351.686 389.488 351.725 389.502C353.518 389.749 355.34 389.658 357.099 389.234C357.137 389.228 357.174 389.215 357.207 389.195C357.24 389.175 357.269 389.149 357.291 389.118C357.314 389.087 357.33 389.051 357.34 389.014C357.349 388.977 357.351 388.938 357.345 388.9C357.339 388.862 357.326 388.825 357.306 388.792C357.286 388.759 357.259 388.73 357.228 388.708C357.197 388.685 357.162 388.668 357.125 388.659C357.087 388.65 357.048 388.648 357.01 388.654Z" fill="#3D3834"/>
<path d="M45.9923 205.884C46.0382 206.269 46.2236 206.623 46.5133 206.88C46.8031 207.137 47.1771 207.28 47.5645 207.28C47.9519 207.28 48.3259 207.137 48.6156 206.88C48.9054 206.623 49.0907 206.269 49.1366 205.884C49.1366 205.014 45.9923 203.788 45.9923 205.884ZM42.5581 200.532C42.6044 200.922 42.7923 201.282 43.0861 201.543C43.38 201.804 43.7595 201.949 44.1526 201.949C44.5457 201.949 44.9252 201.804 45.2191 201.543C45.5129 201.282 45.7008 200.922 45.747 200.532C45.7008 200.141 45.5129 199.782 45.2191 199.52C44.9252 199.259 44.5457 199.115 44.1526 199.115C43.7595 199.115 43.38 199.259 43.0861 199.52C42.7923 199.782 42.6044 200.141 42.5581 200.532ZM38.5887 195.559C38.5887 195.979 38.7556 196.382 39.0525 196.678C39.3494 196.975 39.7521 197.142 40.172 197.142C40.592 197.142 40.9947 196.975 41.2916 196.678C41.5885 196.382 41.7553 195.979 41.7553 195.559C41.7553 194.689 38.5887 193.463 38.5887 195.559ZM149.152 165.521C149.537 165.521 149.905 165.368 150.177 165.096C150.449 164.824 150.602 164.456 150.602 164.071C150.602 163.687 150.449 163.318 150.177 163.046C149.905 162.775 149.537 162.622 149.152 162.622C148.26 162.622 147.234 165.521 149.152 165.521ZM160.882 170.94C160.907 170.745 160.89 170.547 160.832 170.359C160.775 170.172 160.678 169.998 160.548 169.851C160.418 169.704 160.259 169.585 160.08 169.505C159.901 169.424 159.707 169.382 159.51 169.382C159.314 169.382 159.12 169.424 158.941 169.505C158.762 169.585 158.602 169.704 158.473 169.851C158.343 169.998 158.246 170.172 158.189 170.359C158.131 170.547 158.114 170.745 158.139 170.94C158.139 171.765 160.882 172.791 160.882 170.94Z" fill="#3D3834"/>
</svg>
