<svg width="193" height="193" viewBox="0 0 193 193" fill="none" xmlns="http://www.w3.org/2000/svg">
<path d="M92.7893 91.3136C93.1423 91.4213 93.5228 91.3921 93.8551 91.2317C94.1875 91.0712 94.4471 90.7915 94.5822 90.4481C94.7174 90.1047 94.7181 89.723 94.5843 89.3791C94.4505 89.0353 94.192 88.7544 93.8603 88.5927C93.5617 88.4753 93.2392 88.4315 92.9201 88.4651C92.601 88.4986 92.2947 88.6086 92.0271 88.7857C91.8242 88.9722 91.678 89.2122 91.6053 89.478C91.5325 89.7438 91.5361 90.0248 91.6157 90.2886C91.6952 90.5525 91.8475 90.7886 92.0551 90.9699C92.2627 91.1512 92.5172 91.2703 92.7893 91.3136ZM92.2394 89.8277C92.2394 89.0173 93.8507 88.9208 94.0051 89.8277C94.3042 91.0917 92.1911 91.0145 92.2394 89.8277ZM91.6605 29.5632C90.1746 31.3096 90.5316 33.5577 92.8665 34.6576C93.3949 34.5214 93.934 34.431 94.4778 34.3874C95.0978 34.4281 95.7138 34.5152 96.3207 34.648C96.9644 34.2611 97.4649 33.6754 97.7469 32.9793C98.0288 32.2832 98.0768 31.5143 97.8837 30.7886C97.704 30.1574 97.3534 29.5881 96.8705 29.1437C96.3876 28.6993 95.7913 28.397 95.1473 28.2702C94.5034 28.1434 93.837 28.1971 93.2217 28.4252C92.6063 28.6534 92.066 29.0472 91.6605 29.5632ZM91.1202 46.313C91.1088 46.2561 91.0781 46.2048 91.0333 46.168C90.9884 46.1312 90.9321 46.1111 90.8741 46.1111C90.8161 46.1111 90.7598 46.1312 90.715 46.168C90.6701 46.2048 90.6394 46.2561 90.6281 46.313C90.5564 46.8506 90.5145 47.3917 90.5027 47.9339C90.528 48.0112 90.5771 48.0784 90.643 48.126C90.7088 48.1737 90.788 48.1994 90.8693 48.1994C90.9506 48.1994 91.0298 48.1737 91.0956 48.126C91.1614 48.0784 91.2106 48.0112 91.2359 47.9339C91.2842 47.7699 91.1202 46.477 91.1202 46.313ZM98.7328 46.4867C98.7215 46.4297 98.6908 46.3785 98.6459 46.3417C98.6011 46.3049 98.5448 46.2848 98.4868 46.2848C98.4287 46.2848 98.3725 46.3049 98.3276 46.3417C98.2828 46.3785 98.2521 46.4297 98.2407 46.4867C98.2407 46.6217 98.0767 47.9243 98.125 48.1076C98.1503 48.1848 98.1995 48.2521 98.2653 48.2997C98.3311 48.3474 98.4103 48.373 98.4916 48.373C98.5729 48.373 98.6521 48.3474 98.7179 48.2997C98.7838 48.2521 98.8329 48.1848 98.8582 48.1076C98.9065 47.9243 98.7328 46.6314 98.7328 46.4867ZM91.1877 43.1386C90.0299 43.0421 89.4992 44.8368 89.4799 44.914C89.4633 44.969 89.4692 45.0283 89.4963 45.079C89.5235 45.1297 89.5696 45.1675 89.6246 45.1841C89.6797 45.2008 89.739 45.1948 89.7897 45.1677C89.8404 45.1406 89.8782 45.0944 89.8948 45.0394C89.9527 44.8947 90.5702 43.843 91.2938 43.8816C91.6605 43.9105 91.8438 43.1869 91.1877 43.1386ZM99.0223 45.1745C99.0044 44.8345 98.883 44.508 98.6743 44.239C98.4657 43.97 98.1797 43.7712 97.8548 43.6693C97.7576 43.6437 97.6541 43.6578 97.5673 43.7085C97.4804 43.7591 97.4173 43.8422 97.3917 43.9395C97.3661 44.0367 97.3802 44.1401 97.4308 44.227C97.4815 44.3138 97.5646 44.377 97.6618 44.4026C97.899 44.4869 98.1114 44.629 98.2798 44.816C98.4483 45.0029 98.5675 45.229 98.6267 45.4736C98.642 45.526 98.6776 45.5702 98.7256 45.5965C98.7735 45.6227 98.8299 45.6288 98.8824 45.6135C98.9348 45.5981 98.979 45.5626 99.0053 45.5146C99.0315 45.4667 99.0376 45.4102 99.0223 45.3578C99.0223 45.3578 99.0416 45.2517 99.0223 45.1745ZM94.555 50.2978C94.5936 50.2851 94.6272 50.2606 94.6511 50.2277C94.6749 50.1947 94.6877 50.1551 94.6877 50.1145C94.6877 50.0739 94.6749 50.0343 94.6511 50.0013C94.6272 49.9684 94.5936 49.9439 94.555 49.9312C94.1112 49.8443 93.5902 49.8154 93.5902 49.3812C93.6411 48.8395 93.7249 48.3014 93.841 47.7699C93.8464 47.722 93.8345 47.6737 93.8074 47.6337C93.7804 47.5938 93.7399 47.5648 93.6934 47.552C93.6469 47.5392 93.5973 47.5434 93.5536 47.5639C93.5099 47.5844 93.475 47.6198 93.4551 47.6638C93.2151 48.2859 93.0468 48.9333 92.9534 49.5935C92.9727 50.1724 93.5902 50.6066 94.555 50.2978ZM95.7611 51.5618C95.5487 51.7916 95.288 51.9715 94.9976 52.0883C94.7073 52.2051 94.3946 52.2559 94.0822 52.2372C93.8681 52.2013 93.6639 52.1209 93.4828 52.0013C93.3016 51.8816 93.1476 51.7253 93.0306 51.5425C93.0037 51.4926 92.9581 51.4554 92.9038 51.4391C92.8495 51.4228 92.791 51.4288 92.7411 51.4556C92.6912 51.4825 92.654 51.5281 92.6377 51.5824C92.6215 51.6367 92.6274 51.6952 92.6543 51.7451C92.8086 52.0796 93.0504 52.3663 93.3541 52.5747C93.6579 52.7832 94.0123 52.9058 94.3799 52.9295C94.7476 52.9532 95.1148 52.8772 95.4428 52.7095C95.7708 52.5418 96.0475 52.2886 96.2435 51.9767C96.3689 51.6583 96.0216 51.3302 95.7611 51.5618ZM95.6549 108.893C95.6791 108.91 95.7077 108.919 95.737 108.919C95.7662 108.919 95.7948 108.91 95.819 108.893C96.8514 108.247 104.618 102.072 105.255 101.522C105.276 101.502 105.291 101.476 105.298 101.448C105.304 101.42 105.302 101.391 105.292 101.364C105.282 101.337 105.263 101.313 105.24 101.297C105.216 101.28 105.188 101.271 105.159 101.271C105.159 101.271 89.2387 100.962 86.431 100.866C86.267 100.866 86.238 101.039 86.3249 101.116C86.8362 101.618 93.0016 106.857 95.6549 108.893ZM129.193 183.216C129.917 181.739 128.566 179.26 127.958 178.256C127.946 178.232 127.928 178.211 127.905 178.197C127.882 178.182 127.855 178.175 127.828 178.175C127.801 178.175 127.774 178.182 127.751 178.197C127.728 178.211 127.709 178.232 127.698 178.256C127.206 179.221 126.173 181.749 127.157 183.206C127.823 184.287 128.672 184.364 129.193 183.216ZM70.4338 172.843C70.3373 172.901 63.2746 176.963 63.0044 177.378C62.7343 177.793 62.7439 178.102 63.1106 178.131C66.0051 178.314 67.1147 178.555 67.2305 178.69C67.4138 179.337 67.6164 181.961 68.0023 182.482C68.0435 182.547 68.1023 182.598 68.1717 182.629C68.2412 182.661 68.3182 182.672 68.3937 182.66C68.4691 182.649 68.5397 182.616 68.597 182.566C68.6542 182.515 68.6957 182.45 68.7163 182.376C69.1216 180.852 70.3952 176.105 70.646 175.323C70.8969 174.542 71.3214 172.525 70.4338 172.843ZM70.2987 173.75C70.2022 174.387 69.7391 176.23 68.369 180.939C68.2557 179.956 68.0489 178.987 67.7515 178.044C66.5968 177.699 65.4046 177.495 64.2008 177.436C66.1884 176.201 68.2725 175.014 70.2697 173.75H70.2987ZM75.422 176.828C75.5014 176.821 75.5758 176.786 75.6327 176.731C75.6896 176.675 75.7256 176.601 75.7346 176.522C75.7437 176.443 75.7252 176.363 75.6824 176.296C75.6395 176.228 75.5748 176.178 75.4992 176.153C75.1423 176.049 74.7708 176.003 74.3993 176.018V174.619C74.3993 174.552 74.3729 174.488 74.3258 174.441C74.2788 174.394 74.215 174.368 74.1484 174.368C74.0819 174.368 74.0181 174.394 73.9711 174.441C73.924 174.488 73.8976 174.552 73.8976 174.619C73.8976 175.12 73.8107 175.584 73.7721 176.056C73.3187 176.056 72.8652 176.143 72.3924 176.211C71.9196 176.278 72.1223 176.819 72.4696 176.79C72.8777 176.766 73.2869 176.766 73.695 176.79C73.695 177.214 73.6081 177.668 73.5888 178.102C73.6041 178.202 73.6548 178.294 73.7318 178.36C73.8088 178.426 73.907 178.463 74.0085 178.463C74.1101 178.463 74.2082 178.426 74.2852 178.36C74.3623 178.294 74.413 178.202 74.4282 178.102V176.819C74.759 176.843 75.0909 176.846 75.422 176.828ZM98.6653 171.551C98.5827 171.308 98.4291 171.095 98.2244 170.94C98.0198 170.785 97.7734 170.696 97.5171 170.682C96.6294 170.682 95.7997 171.772 95.0953 172.786H95.0278C94.3427 172.303 94.1305 172.303 93.4937 172.979C92.6446 173.895 93.0016 174.059 94.1015 174.908C93.3586 175.941 91.4868 178.604 91.207 179.086C90.9272 179.568 90.1071 180.929 91.014 181.681C91.2002 181.815 91.4254 181.882 91.6542 181.874C91.8831 181.865 92.1025 181.78 92.278 181.633C93.6794 179.934 94.9686 178.145 96.1374 176.278C97.1022 176.857 97.1794 176.973 97.932 176.355C98.0412 176.284 98.1327 176.189 98.1996 176.077C98.2665 175.965 98.3069 175.839 98.3179 175.709C98.3179 175.236 97.7487 174.908 97.3531 174.59C97.6908 174.098 97.9899 173.625 98.26 173.133C98.4392 172.915 98.5683 172.66 98.6383 172.387C98.7084 172.113 98.7176 171.828 98.6653 171.551ZM95.6164 173.143C95.9358 172.71 96.2772 172.295 96.6391 171.898C97.1119 171.387 97.4592 171.261 97.7776 171.483C98.3179 171.84 98.0188 172.158 96.9093 174.175L95.6164 173.143ZM91.5157 181.189C90.9658 181.064 91.3228 180.225 91.5833 179.723C91.8438 179.221 93.8024 176.384 94.555 175.236C94.8541 175.449 95.3558 175.777 95.5971 175.921C94.941 177.041 93.0788 179.781 92.7025 180.205C92.3262 180.63 91.9789 181.296 91.5157 181.189ZM94.2656 173.007L94.4199 173.065C94.5743 173.123 97.7197 175.69 97.7197 175.748C97.5794 175.956 97.3949 176.13 97.1794 176.259C96.8128 175.97 94.5357 174.426 93.6867 173.76C93.8635 173.497 94.0569 173.246 94.2656 173.007ZM115.55 177.822C115.55 177.822 119.931 182.521 120.317 182.646C120.963 182.82 124.456 178.787 124.919 178.247C125.372 178.633 125.604 178.7 126.115 178.189C126.432 177.858 126.695 177.48 126.897 177.069C126.931 177.006 126.943 176.933 126.933 176.862C126.922 176.791 126.889 176.725 126.839 176.674C121.928 171.695 121.05 170.769 120.847 170.692C120.21 170.422 119.882 171.203 119.506 171.483C118.985 171.985 118.705 172.139 119.564 173.104C115.647 177.349 115.338 177.32 115.55 177.822ZM119.68 172.158C119.937 171.862 120.225 171.593 120.538 171.358C120.538 171.358 123.433 174.252 126.173 176.954C125.998 177.28 125.784 177.585 125.536 177.861C125.43 177.755 119.834 172.322 119.641 172.158H119.68ZM124.504 177.803C120.297 182.26 120.722 182.087 120.278 181.662C120.017 181.44 116.785 178.112 116.293 177.542C116.64 177.156 119.844 173.683 120.056 173.49C120.008 173.528 123.809 177.205 124.465 177.803H124.504Z" fill="black"/>
<path d="M119.41 175.767C118.445 176.79 117.692 177.089 117.799 177.639C118.27 178.337 118.813 178.984 119.419 179.569C119.456 179.599 119.503 179.616 119.55 179.617C119.598 179.617 119.645 179.602 119.683 179.573C119.72 179.544 119.748 179.503 119.759 179.457C119.771 179.41 119.767 179.362 119.748 179.318C119.748 179.318 118.985 178.015 118.657 177.581C118.734 177.485 119.555 176.385 119.776 176.134C119.825 176.085 119.852 176.019 119.852 175.951C119.852 175.882 119.825 175.816 119.776 175.767C119.728 175.719 119.662 175.691 119.593 175.691C119.524 175.691 119.458 175.719 119.41 175.767Z" fill="black"/>
<path d="M133.651 187.605L109.993 187.451C109.993 185.801 109.462 172.1 109.424 170.933C109.424 170.576 108.855 170.576 108.874 170.933C108.874 171.897 109.221 186.544 109.27 187.441H83.5176C83.5176 185.878 83.2668 173.615 83.2475 172.775C83.2475 172.706 83.22 172.64 83.1712 172.591C83.1223 172.542 83.0561 172.515 82.987 172.515C82.9179 172.515 82.8516 172.542 82.8028 172.591C82.7539 172.64 82.7265 172.706 82.7265 172.775V187.441C80.7196 187.441 59.5701 187.441 56.6755 187.653C56.6138 187.665 56.5582 187.698 56.5181 187.747C56.4781 187.795 56.4562 187.856 56.4562 187.919C56.4562 187.982 56.4781 188.042 56.5181 188.091C56.5582 188.139 56.6138 188.172 56.6755 188.184C59.2517 188.3 131.336 188.435 133.7 187.885C133.731 187.873 133.757 187.85 133.773 187.821C133.79 187.792 133.796 187.758 133.79 187.725C133.785 187.692 133.768 187.662 133.742 187.64C133.717 187.618 133.685 187.606 133.651 187.605ZM64.2592 13.5076C64.4812 13.8936 66.7389 14.019 66.9415 13.9418C67.0747 13.8951 67.1896 13.8072 67.2696 13.6909C68.0349 14.3293 68.8371 14.9221 69.6721 15.4663C69.7912 15.5625 69.9291 15.6328 70.077 15.6727C70.2248 15.7126 70.3794 15.7211 70.5308 15.6978C70.936 15.582 78.5487 11.0472 78.6645 10.9701C79.1662 10.6613 79.1758 10.3526 79.1083 10.1499C78.9636 9.75435 71.1869 6.10721 69.9422 4.74678C69.9061 4.72067 69.8653 4.70195 69.822 4.6917C69.7786 4.68144 69.7337 4.67986 69.6898 4.68703C69.6458 4.6942 69.6037 4.70999 69.5659 4.7335C69.5281 4.757 69.4953 4.78774 69.4694 4.82396C68.5046 5.93354 67.6459 7.07206 66.7678 8.20094C65.8838 8.1737 65.0003 8.27114 64.1435 8.49039C64.0489 10.1632 64.0876 11.8409 64.2592 13.5076ZM70.8878 10.6131C70.7894 10.8825 70.6022 11.1105 70.3571 11.2595C69.8747 11.4235 69.3922 10.9701 69.2282 10.7674C68.6976 10.1499 69.9036 8.83774 70.7044 9.87013C70.8045 9.97461 70.8743 10.1042 70.9066 10.2452C70.9389 10.3862 70.9324 10.5334 70.8878 10.671V10.6131ZM70.1931 8.82809C69.9043 8.77736 69.6071 8.80784 69.3347 8.91616C69.0622 9.02447 68.8252 9.20634 68.6501 9.44149C68.475 9.67663 68.3687 9.95581 68.343 10.2479C68.3173 10.5399 68.3732 10.8334 68.5046 11.0955C68.7015 11.4195 68.9896 11.6784 69.3328 11.8397C69.676 12.001 70.0591 12.0576 70.4343 12.0024C70.6933 11.9079 70.9236 11.7481 71.1028 11.5385C71.2819 11.3289 71.404 11.0766 71.457 10.806C72.5184 10.806 76.1655 10.806 77.6224 10.7385L70.4343 14.9259C70.029 14.7523 67.6555 12.9962 67.3661 12.7647C67.3661 12.234 67.3661 9.05965 67.2985 8.54828C68.109 7.58343 68.9388 6.55104 69.7299 5.51866C70.9071 6.48351 76.3392 9.37806 77.9312 10.2175H71.486C71.444 9.88537 71.2951 9.57591 71.0619 9.33575C70.8287 9.09559 70.5238 8.93773 70.1931 8.88598V8.82809ZM64.7899 9.00176L66.5749 8.93422C66.5749 9.23333 66.6907 12.7936 66.6424 13.2953C66.0332 13.3355 65.4215 13.3064 64.8189 13.2085C64.8767 12.5428 64.8285 9.81224 64.7899 9.05966V9.00176ZM34.5805 59.7239C34.6817 59.7824 34.7965 59.8131 34.9133 59.8131C35.0302 59.8131 35.145 59.7824 35.2462 59.7239C36.0084 59.3476 37.5233 58.0258 41.9423 55.1023C42.072 55.0319 42.1838 54.9326 42.2691 54.8122C42.3544 54.6917 42.4109 54.5533 42.4343 54.4076C42.4343 54.4076 42.5984 50.2877 42.3668 50.1526C41.6239 49.6895 39.4722 48.2229 38.8547 48.3194C38.7776 48.3194 30.6342 53.3945 30.6149 53.6357C30.5343 54.6887 30.5182 55.7455 30.5667 56.8004C31.8395 57.8614 33.1802 58.8379 34.5805 59.7239ZM31.1552 54.3015C31.8982 54.8032 33.9726 56.2312 34.5419 56.5206V58.7205C30.9333 56.3084 31.1649 56.7136 31.1938 55.9996C31.2035 55.604 31.1745 54.6778 31.1552 54.3015ZM34.9375 55.7198C34.876 55.7652 34.8016 55.7898 34.7252 55.7898C34.6488 55.7898 34.5744 55.7652 34.5129 55.7198C34.3585 55.6233 32.1973 54.0796 31.6184 53.6647C39.2021 48.8404 38.9319 48.7825 39.3372 48.9273C39.5301 49.0044 40.4371 49.5834 41.6625 50.3938C40.2152 51.6288 35.0822 55.6233 34.9375 55.7198ZM41.6914 54.4366C41.4888 54.6295 36.2689 58.0933 35.1111 58.8459V56.4338C35.7962 55.9128 40.3213 52.3621 41.73 51.1561C41.7686 54.3401 41.8265 54.3401 41.7396 54.4366H41.6914ZM141.524 60.3125C143.326 60.2704 145.079 59.7184 146.58 58.7205C147.329 58.2488 147.893 57.5341 148.177 56.6963C148.462 55.8584 148.45 54.9482 148.143 54.1182C148.78 53.6357 150.816 51.9086 151.212 51.5324C152.032 51.5806 152.987 50.1237 153.498 49.3325C153.71 49.0044 153.99 48.6667 153.846 48.2905C152.543 46.9119 151.164 45.6073 149.716 44.3828C149.619 44.2804 149.493 44.2099 149.356 44.1806C149.218 44.1513 149.074 44.1646 148.944 44.2188C147.983 45.1504 147.117 46.1749 146.358 47.2774C146.325 47.4202 146.342 47.5702 146.407 47.7019C146.407 47.7694 145.065 51.6578 144.901 52.1306C144.179 52.2034 143.509 52.5381 143.017 53.0713C142.524 53.6045 142.244 54.2995 142.229 55.0251C142.113 57.8425 144.342 58.7494 141.438 59.7915C141.397 59.8261 141.367 59.8705 141.349 59.9204C141.33 59.9703 141.325 60.0241 141.334 60.0764C141.343 60.1288 141.365 60.1781 141.398 60.2194C141.432 60.2608 141.475 60.2928 141.524 60.3125ZM147.101 47.451C147.728 46.5302 148.467 45.6907 149.301 44.9521C149.822 45.367 152.832 48.1457 153.161 48.5992C152.919 49.0141 151.569 50.7701 151.231 50.8087C151.202 50.7798 147.227 47.5668 147.101 47.451ZM147.796 53.491C147.304 52.77 146.549 52.2711 145.693 52.1016C145.886 51.4552 146.59 49.0913 146.831 48.1361C147.564 48.7632 149.378 50.2877 150.488 51.1657C150.054 51.5999 148.413 52.9989 147.796 53.491ZM143.068 59.5503C143.821 58.8652 143.637 57.9679 143.29 57.1092C142.673 55.1795 142.856 53.9348 143.888 53.2498C144.155 53.0808 144.452 52.9666 144.763 52.9139C145.075 52.8612 145.393 52.8711 145.7 52.943C146.008 53.0149 146.297 53.1473 146.553 53.3325C146.808 53.5177 147.024 53.752 147.188 54.0217C148.713 56.4241 145.857 59.0003 143.068 59.5503ZM81.202 10.6131C81.5976 10.6131 83.9132 10.314 86.0263 10.092C86.1005 10.092 86.1716 10.0626 86.2241 10.0101C86.2766 9.95762 86.3061 9.88645 86.3061 9.81224C86.3061 9.73803 86.2766 9.66686 86.2241 9.61438C86.1716 9.56191 86.1005 9.53243 86.0263 9.53243C85.2351 9.60962 81.5204 9.83153 81.1152 9.91837C81.0369 9.94448 80.9701 9.9969 80.9261 10.0667C80.8821 10.1365 80.8637 10.2194 80.8739 10.3013C80.8841 10.3832 80.9224 10.459 80.9822 10.5158C81.042 10.5727 81.1197 10.607 81.202 10.6131ZM88.7664 9.99556C89.0269 9.99556 94.1503 9.57102 95.2792 9.62892C95.6555 9.62892 95.6844 9.07895 95.2792 9.05001C93.074 8.94247 90.8637 9.01346 88.6699 9.26227C88.5866 9.2896 88.5154 9.3452 88.4687 9.41945C88.422 9.49371 88.4027 9.58195 88.4141 9.66893C88.4255 9.75591 88.467 9.83615 88.5314 9.89579C88.5957 9.95544 88.6788 9.99072 88.7664 9.99556ZM98.1834 9.44559L102.342 9.32981C102.411 9.31728 102.473 9.28096 102.518 9.22718C102.563 9.17341 102.587 9.10558 102.587 9.03553C102.587 8.96549 102.563 8.89766 102.518 8.84388C102.473 8.7901 102.411 8.75378 102.342 8.74125L98.2027 8.62547C98.1042 8.63807 98.0136 8.68553 97.9472 8.75924C97.8807 8.83296 97.8429 8.92804 97.8406 9.02724C97.8382 9.12644 97.8715 9.2232 97.9344 9.29995C97.9973 9.37671 98.0856 9.42838 98.1834 9.44559ZM105.651 9.58067C107.427 9.58067 113.833 9.87978 115.396 10.1499C115.782 10.2271 115.917 9.62892 115.531 9.56138C112.258 9.06364 108.952 8.81207 105.642 8.80879C105.539 8.81007 105.442 8.85196 105.37 8.92524C105.299 8.99853 105.259 9.0972 105.261 9.19956C105.262 9.30192 105.304 9.39957 105.377 9.47105C105.45 9.54252 105.549 9.58195 105.651 9.58067ZM118.513 11.2499C121.067 12.0054 123.427 13.3056 125.431 15.061C125.739 15.3408 126.174 14.8873 125.875 14.6075C123.851 12.6688 121.388 11.2487 118.696 10.4683C118.599 10.4593 118.501 10.4859 118.422 10.543C118.343 10.6002 118.287 10.6841 118.264 10.7793C118.242 10.8745 118.255 10.9746 118.3 11.0611C118.346 11.1476 118.422 11.2146 118.513 11.2499ZM127.071 24.121C126.991 24.1405 126.921 24.1886 126.874 24.2561C126.827 24.3237 126.806 24.4061 126.816 24.4879C126.825 24.5697 126.864 24.6452 126.925 24.7002C126.987 24.7552 127.066 24.786 127.148 24.7867C128.422 24.7867 129.917 23.3008 130.043 21.2457C130.168 19.1906 128.759 17.5407 127.409 16.161C127.351 16.1021 127.272 16.0685 127.19 16.0676C127.108 16.0667 127.029 16.0986 126.97 16.1561C126.911 16.2137 126.877 16.2923 126.876 16.3746C126.875 16.457 126.907 16.5363 126.965 16.5951C128.489 18.1775 129.232 19.6248 129.242 21.0334C129.268 21.7147 129.069 22.3855 128.677 22.9432C128.285 23.5009 127.721 23.9146 127.071 24.121ZM116.544 27.2567C117.509 27.2567 123.868 25.7998 124.919 25.5489C124.993 25.5246 125.055 25.4735 125.092 25.4058C125.13 25.338 125.141 25.2585 125.123 25.1831C125.104 25.1078 125.059 25.042 124.994 24.9989C124.93 24.9559 124.851 24.9387 124.775 24.9507C123.337 25.2788 118.262 26.1664 116.477 26.4752C116.383 26.4958 116.3 26.5499 116.243 26.6272C116.186 26.7046 116.16 26.7999 116.168 26.8956C116.176 26.9912 116.219 27.0806 116.288 27.147C116.357 27.2135 116.449 27.2525 116.544 27.2567ZM113.93 26.6199C111.875 26.8418 109.723 27.0348 107.649 27.3436C107.561 27.3697 107.486 27.4251 107.435 27.5004C107.384 27.5757 107.36 27.6663 107.368 27.757C107.376 27.8477 107.415 27.9329 107.478 27.9982C107.542 28.0634 107.626 28.1049 107.716 28.1154C108.305 28.1154 113.013 27.4979 113.959 27.3822C114.451 27.3146 114.422 26.5524 113.93 26.6199ZM99.3798 29.0899C99.9394 29.0899 103.799 28.4628 104.696 28.3374C104.771 28.3184 104.837 28.2726 104.881 28.2086C104.925 28.1446 104.944 28.0667 104.934 27.9897C104.925 27.9127 104.888 27.8418 104.829 27.7903C104.771 27.7388 104.697 27.7104 104.619 27.7102C103.442 27.8453 100.46 28.1058 99.3026 28.3084C99.2083 28.3295 99.125 28.3844 99.0684 28.4626C99.0118 28.5409 98.9858 28.6372 98.9953 28.7333C99.0048 28.8295 99.0491 28.9188 99.12 28.9845C99.1908 29.0502 99.2832 29.0877 99.3798 29.0899ZM83.2764 30.4793C85.3412 30.4793 87.4542 30.1127 89.4997 29.9197C89.9243 29.9197 89.9243 29.2154 89.4997 29.254C87.4446 29.418 85.293 29.5048 83.2185 29.7943C82.8037 29.8425 82.8519 30.4793 83.2764 30.4793ZM73.1069 31.367C73.0222 31.3871 72.9477 31.4374 72.8975 31.5085C72.8473 31.5797 72.8248 31.6667 72.8343 31.7533C72.8438 31.8398 72.8846 31.9199 72.949 31.9785C73.0134 32.0371 73.097 32.0701 73.1841 32.0713C73.8402 32.0713 79.1372 31.2898 79.9381 31.1837C80.0224 31.1638 80.0963 31.1132 80.1452 31.0416C80.1941 30.9701 80.2145 30.8829 80.2024 30.7971C80.1904 30.7113 80.1466 30.6331 80.0799 30.5779C80.0131 30.5227 79.9281 30.4944 79.8416 30.4986C78.5776 30.653 74.1779 31.1451 73.1069 31.367ZM58.4123 34.1265C62.1567 33.3407 65.9413 32.7609 69.7492 32.3897C70.251 32.3897 70.2317 31.5696 69.7492 31.6178C65.8938 31.8475 62.0688 32.442 58.3254 33.3932C58.2425 33.42 58.1714 33.4747 58.1243 33.5481C58.0772 33.6215 58.0571 33.7089 58.0673 33.7955C58.0776 33.8821 58.1176 33.9624 58.1805 34.0228C58.2434 34.0832 58.3253 34.1198 58.4123 34.1265ZM45.5026 39.1051C48.0755 37.5635 50.8858 36.4583 53.8196 35.8342C54.3309 35.7281 54.1283 34.9562 53.6266 35.0624C50.6054 35.6622 47.7102 36.7785 45.0684 38.3621C44.9856 38.4269 44.9291 38.5194 44.9094 38.6226C44.8896 38.7257 44.9079 38.8326 44.9609 38.9233C45.0139 39.014 45.098 39.0824 45.1976 39.1158C45.2972 39.1493 45.4056 39.1454 45.5026 39.1051ZM37.3496 46.8625C38.4145 43.9943 40.4671 41.5996 43.1387 40.1085C43.4957 39.9156 43.1966 39.3849 42.8299 39.5682C39.9211 41.0142 37.6867 43.5322 36.597 46.5923C36.4137 47.1326 37.1663 47.3449 37.3496 46.8625ZM39.453 58.4021C39.1635 58.074 38.7004 58.5275 38.9705 58.8459C39.6459 59.6274 43.2062 62.3676 43.9299 62.3676C44.0058 62.367 44.0794 62.3415 44.1395 62.295C44.1995 62.2486 44.2427 62.1837 44.2624 62.1104C44.2821 62.0371 44.2772 61.9593 44.2485 61.889C44.2198 61.8187 44.1689 61.7598 44.1035 61.7212C42.4669 60.7412 40.9117 59.6313 39.453 58.4021ZM52.903 64.5868C50.725 64.3715 48.5934 63.8215 46.5832 62.9562C46.1394 62.7632 45.7727 63.4193 46.2262 63.6316C48.3152 64.6211 50.5689 65.2164 52.874 65.3876C53.4047 65.4165 53.4047 64.6447 52.903 64.5868ZM54.9967 65.9086C56.1159 66.0726 60.6796 66.8156 61.8375 66.8735C61.9334 66.8763 62.0269 66.8433 62.0998 66.781C62.1727 66.7186 62.2198 66.6313 62.2318 66.5362C62.2439 66.441 62.22 66.3447 62.165 66.2662C62.1099 66.1876 62.0275 66.1324 61.934 66.1112C60.8244 65.8797 56.2992 65.3394 55.18 65.1464C54.7265 65.1367 54.5432 65.8314 54.9967 65.9086ZM69.865 67.0857C67.9933 67.2519 66.1069 67.0953 64.2882 66.6226C64.2125 66.614 64.1362 66.6328 64.0733 66.6757C64.0103 66.7185 63.9647 66.7825 63.9449 66.856C63.925 66.9296 63.9322 67.0078 63.9651 67.0765C63.998 67.1452 64.0544 67.1998 64.1242 67.2305C66.0019 67.7776 67.9638 67.9771 69.9133 67.819C70.3474 67.7708 70.3378 67.0568 69.865 67.0857ZM133.989 62.3483C136 62.128 137.982 61.6979 139.903 61.0651C140.309 60.93 140.135 60.2932 139.72 60.4186C137.846 60.9634 135.923 61.3253 133.979 61.4993C133.42 61.5571 133.429 62.3966 133.989 62.3483ZM125.035 63.0816C124.957 63.1064 124.891 63.1572 124.846 63.2253C124.801 63.2935 124.781 63.375 124.788 63.4562C124.796 63.5375 124.832 63.6135 124.889 63.6718C124.946 63.73 125.022 63.7669 125.103 63.7763C125.807 63.7763 130.622 62.9272 131.442 62.8114C131.915 62.7246 131.731 62.0396 131.278 62.1071C128.788 62.4641 126.936 62.715 125.035 63.0816ZM122.536 63.3807C120.134 63.8052 117.712 64.0561 115.416 64.278C114.914 64.3359 114.933 65.1078 115.416 65.0692C117.846 64.8734 120.265 64.5514 122.662 64.1044C122.709 64.0961 122.755 64.0786 122.795 64.0528C122.836 64.027 122.871 63.9935 122.899 63.954C122.927 63.9146 122.947 63.8701 122.957 63.823C122.968 63.776 122.969 63.7273 122.961 63.6798C122.952 63.6323 122.935 63.5869 122.909 63.5461C122.883 63.5054 122.85 63.4701 122.81 63.4423C122.771 63.4146 122.726 63.3948 122.679 63.3843C122.632 63.3737 122.584 63.3725 122.536 63.3807ZM52.0442 97.768C52.4688 97.768 52.4881 97.1698 52.0442 97.1119C50.0867 96.8203 48.0969 96.8203 46.1394 97.1119C46.0467 97.1323 45.9651 97.187 45.911 97.265C45.8569 97.343 45.8343 97.4386 45.8478 97.5326C45.8612 97.6265 45.9096 97.712 45.9834 97.7717C46.0572 97.8315 46.1508 97.8612 46.2455 97.8548C48.172 97.6538 50.1126 97.6247 52.0442 97.768ZM137.713 97.2566C137.633 97.2818 137.564 97.3336 137.518 97.4036C137.471 97.4735 137.45 97.5573 137.458 97.6409C137.466 97.7245 137.502 97.8029 137.561 97.8629C137.62 97.9229 137.697 97.9609 137.781 97.9706C137.877 97.9706 142.962 97.8259 144.187 97.9706C144.515 98.0188 144.622 97.5171 144.294 97.4689C142.11 97.2139 139.909 97.1429 137.713 97.2566ZM135.079 98.0188C135.156 98.0188 135.23 97.9883 135.284 97.934C135.338 97.8798 135.369 97.8061 135.369 97.7294C135.369 97.6526 135.338 97.579 135.284 97.5247C135.23 97.4704 135.156 97.4399 135.079 97.4399C133.657 97.3476 132.229 97.4482 130.834 97.739C130.419 97.8259 130.535 98.4337 130.93 98.4337C132.291 98.127 133.685 97.9876 135.079 98.0188ZM157.039 109.993C156.962 110.379 157.522 110.62 157.686 110.243C158.515 108.372 158.93 105.506 157.888 103.49C157.686 103.104 157.107 103.432 157.3 103.818C158.467 106.133 157.348 108.497 157.039 109.993ZM40.5239 138.938C39.1664 140.066 38.031 141.437 37.1759 142.981C37.1569 143.013 37.1443 143.048 37.1389 143.084C37.1334 143.121 37.1353 143.158 37.1442 143.194C37.1623 143.266 37.2084 143.328 37.2724 143.367C37.3364 143.405 37.413 143.417 37.4853 143.398C37.5577 143.38 37.6199 143.334 37.6583 143.27C38.5411 141.816 39.6708 140.526 40.9967 139.459C41.3827 139.179 40.9099 138.678 40.5239 138.938ZM46.9691 133.274C45.6471 134.263 44.3902 135.337 43.2062 136.487C43.1486 136.546 43.1168 136.626 43.1177 136.708C43.1186 136.79 43.1522 136.869 43.211 136.926C43.2699 136.984 43.3492 137.016 43.4315 137.015C43.5139 137.014 43.5925 136.98 43.6501 136.922C44.1904 136.352 47.0946 134.085 47.384 133.844C47.6735 133.602 47.3261 133.149 46.9691 133.274ZM49.8637 131.518C50.0663 131.518 49.4681 131.711 53.067 129.338C53.1421 129.286 53.1951 129.208 53.2156 129.119C53.2362 129.03 53.2229 128.937 53.1782 128.857C53.1336 128.777 53.0609 128.717 52.9743 128.688C52.8877 128.66 52.7935 128.664 52.71 128.701C51.6467 129.426 50.6315 130.219 49.6707 131.075C49.6383 131.113 49.6173 131.16 49.61 131.21C49.6028 131.259 49.6095 131.31 49.6296 131.356C49.6497 131.402 49.6822 131.442 49.7236 131.471C49.7649 131.499 49.8134 131.516 49.8637 131.518Z" fill="black"/>
<path d="M54.7936 127.698C55.0444 127.804 54.8804 127.698 57.9197 125.768C57.724 128.191 57.7596 130.627 58.0258 133.043C56.5204 132.225 55.0758 131.299 53.7033 130.274C53.4428 130.071 53.0954 130.438 53.3656 130.66C54.865 131.944 56.48 133.088 58.1898 134.075C59.4544 143.68 64.3547 152.434 71.8811 158.534C68.4269 159.345 66.2463 159.798 65.3973 159.885C65.0306 159.885 65.0306 160.483 65.3973 160.483C66.2367 160.483 71.582 159.441 72.7108 159.21C86.5661 170.238 104.782 169.157 118.059 158.997C120.717 159.7 123.418 160.229 126.144 160.58C126.229 160.573 126.309 160.538 126.37 160.479C126.431 160.421 126.47 160.343 126.481 160.258C126.491 160.174 126.472 160.089 126.426 160.017C126.381 159.946 126.312 159.892 126.231 159.866C125.035 159.663 121.677 159.026 118.782 158.428C126.041 152.679 130.879 144.416 132.339 135.272C132.705 135.04 133.062 134.789 133.41 134.529C133.757 134.268 133.41 133.66 133.033 133.902L132.483 134.239C133.66 123.993 130.052 113.784 123.674 106.114C125.488 104.117 126.752 101.753 126.009 99.1284C126.923 98.8497 127.855 98.6306 128.798 98.4723C129.222 98.4144 129.068 97.7873 128.662 97.8452C127.685 97.9701 126.718 98.1635 125.768 98.4241C125.063 96.6768 123.853 95.1796 122.292 94.1243C120.731 93.0689 118.891 92.5033 117.007 92.4999C118.548 90.8795 119.679 88.9137 120.305 86.7668C120.932 84.6199 121.035 82.3543 120.606 80.1595C118.821 71.9582 112.443 64.1623 104.416 59.6757C104.612 58.5899 104.553 57.4733 104.242 56.4145C104.03 55.4497 103.393 55.1216 102.65 54.6392C102.264 54.3883 101.898 54.1568 101.492 53.9252C102.557 52.2686 103.114 50.3368 103.094 48.3677C105.265 48.1554 105.342 44.9907 102.959 44.5083C105.381 33.1423 84.3566 31.2126 85.5916 44.8749C85.1633 44.9971 84.7796 45.2408 84.4868 45.5764C84.1941 45.9119 84.0047 46.3251 83.9417 46.766C83.8845 47.0682 83.9028 47.3799 83.9947 47.6734C84.0867 47.9669 84.2496 48.2333 84.469 48.4489C84.6884 48.6644 84.9576 48.8226 85.2526 48.9094C85.5477 48.9963 85.8597 49.009 86.1608 48.9466C86.0723 50.1959 86.3328 51.4453 86.9134 52.5551C86.4307 52.6661 85.9813 52.8902 85.6022 53.2089C85.2231 53.5276 84.9251 53.9319 84.7329 54.3883C84.3051 55.606 84.2217 56.9181 84.4917 58.1802C76.8211 61.6796 70.6881 67.8537 67.2401 75.5475C64.5096 81.7708 65.8411 86.3249 70.6653 91.0719C68.5048 90.3752 66.1699 90.4468 64.0561 91.2745C62.7305 91.8447 61.5449 92.6968 60.5818 93.7715C59.6187 94.8462 58.9013 96.1178 58.4793 97.4978C57.5512 97.3494 56.6088 97.3106 55.6716 97.382C55.6075 97.3941 55.5496 97.4282 55.5079 97.4784C55.4663 97.5286 55.4435 97.5918 55.4435 97.657C55.4435 97.7223 55.4663 97.7854 55.5079 97.8357C55.5496 97.8859 55.6075 97.9199 55.6716 97.932C56.5604 97.8942 57.4496 97.9984 58.3056 98.2408C57.6399 102.303 61.0844 105.738 64.4324 108.15C60.8392 113.032 58.6263 118.791 58.0258 124.822C56.8936 125.512 55.8016 126.266 54.755 127.08C54.6999 127.113 54.6549 127.16 54.6249 127.216C54.595 127.273 54.5813 127.337 54.5852 127.401C54.5892 127.465 54.6108 127.526 54.6476 127.579C54.6843 127.631 54.7349 127.672 54.7936 127.698ZM97.4496 56.5399L97.8548 56.4145C98.0767 56.6461 98.6749 57.1671 99.0416 57.4758C96.176 58.981 92.6253 58.8556 88.9203 57.0513C89.3352 56.675 90.0106 55.99 90.2615 55.7005C90.9249 55.9546 91.6012 56.1736 92.2876 56.3566C92.5693 56.7742 92.9457 57.1192 93.3862 57.3635C93.8266 57.6078 94.3186 57.7445 94.8219 57.7624C95.3253 57.7803 95.8257 57.6788 96.2824 57.4664C96.7391 57.2539 97.139 56.9365 97.4496 56.5399ZM89.7308 55.4304C89.4027 55.797 88.6695 56.5785 88.4282 56.7812C88.1581 56.6332 87.8879 56.4788 87.6178 56.318C87.5653 56.286 87.5023 56.2762 87.4426 56.2907C87.3829 56.3052 87.3314 56.3428 87.2994 56.3952C87.2674 56.4477 87.2575 56.5107 87.272 56.5704C87.2865 56.6301 87.3241 56.6816 87.3765 56.7136C89.7211 58.2188 92.0078 59.3573 94.777 59.3573C95.8988 59.4105 97.0183 59.212 98.0534 58.7762C99.0885 58.3405 100.013 57.6786 100.759 56.839C100.799 56.7981 100.82 56.7431 100.82 56.6861C100.819 56.6291 100.795 56.5748 100.754 56.5351C100.713 56.4955 100.658 56.4737 100.601 56.4746C100.544 56.4755 100.49 56.499 100.45 56.5399C100.189 56.7555 99.9152 56.9553 99.6301 57.1381C99.3696 56.9162 98.7714 56.4338 98.482 56.1733C99.4637 55.8027 100.355 55.2271 101.097 54.4848C102.062 54.894 102.927 55.5061 103.634 56.2794C103.989 57.3305 104.046 58.4592 103.798 59.5406C102.911 62.2808 95.7322 64.992 88.3607 61.1423C85.7653 59.8397 84.675 58.7687 85.1381 55.5268C85.1726 54.9537 85.3927 54.4074 85.7653 53.9705C86.1378 53.5335 86.6424 53.2298 87.2029 53.1051C87.8385 54.0787 88.7075 54.8781 89.7308 55.4304ZM97.5847 63.6798C99.1574 63.4869 102.891 62.7729 104.213 60.3318C111.884 64.5771 119.882 74.0713 120.066 82.726C120.132 84.6282 119.752 86.5195 118.956 88.2485C118.16 89.9775 116.971 91.4963 115.483 92.6832C114.118 92.9342 112.81 93.4312 111.623 94.1498C112.472 81.0375 112.501 81.8287 112.405 81.7322C112.308 81.6357 110.842 81.626 108.449 81.5681C108.748 81.1919 109.549 80.1305 109.732 79.9183C109.777 79.8709 109.801 79.8077 109.799 79.7426C109.797 79.6774 109.77 79.6157 109.722 79.5709C109.675 79.5261 109.612 79.502 109.547 79.5038C109.482 79.5056 109.42 79.5332 109.375 79.5806C108.766 80.2569 108.122 80.901 107.445 81.5103H107.243C107.489 78.5839 107.553 75.6451 107.436 72.7108C107.436 72.4793 107.031 72.4793 107.05 72.7108C107.146 74.0906 106.5 80.2752 106.423 81.462C99.2346 81.3173 87.2511 81.1919 80.0147 81.1243C79.1279 78.1242 78.7528 74.9961 78.9052 71.8714C78.9052 71.5434 78.442 71.5434 78.4131 71.8714C78.1011 74.9796 78.3595 78.1186 79.1753 81.134H78.9727C78.0059 80.1674 77.0881 79.1531 76.2229 78.0947C76.1878 78.0464 76.136 78.0128 76.0775 78.0005C76.0191 77.9882 75.9582 77.998 75.9066 78.028C75.8549 78.058 75.8163 78.1061 75.7981 78.163C75.7799 78.2199 75.7834 78.2815 75.808 78.3359C75.9141 78.5385 77.072 80.2656 77.8342 81.1726H74.0906C73.8108 81.1726 73.8976 81.1726 73.8783 81.3945C73.7818 82.4848 74.1292 88.5054 74.3993 92.7893C73.8175 92.4265 73.2114 92.1042 72.5854 91.8245C67.6164 86.9424 64.9727 83.1409 67.6743 76.6185C70.8996 68.763 76.976 62.4177 84.6846 58.8556C85.7653 61.1616 91.2552 64.4324 97.5847 63.6798ZM74.4958 81.8576C75.5957 81.8576 109.443 82.1567 111.807 82.369C111.353 86.1705 110.514 97.4013 110.224 101.174H108.111C106.915 102.206 98.0381 109.578 97.4013 110.118C97.1794 110.292 97.5847 110.436 98.5399 111.295C99.1407 111.736 99.6444 112.296 100.02 112.94C100.395 113.584 100.633 114.299 100.72 115.039C100.723 115.073 100.738 115.105 100.763 115.128C100.788 115.151 100.821 115.164 100.856 115.164C104.29 115.309 107.195 118.368 104.811 120.259C102.621 121.995 99.2346 120.259 97.5557 118.657C99.0705 116.679 99.9582 114.952 98.2601 113.167C98.0574 112.955 95.8769 111.179 93.1078 108.922C82.6198 100.363 83.4593 100.846 83.3242 100.846C82.7839 100.846 77.0527 100.45 76.0203 100.392C75.258 94.2173 74.6984 85.196 74.4958 81.8576ZM84.5881 119.911C83.1698 120.017 80.7866 120.201 79.7639 118.763C79.0981 117.798 80.0919 116.669 81.1629 116.361C83.5075 117.21 87.1932 118.396 88.3896 118.773C87.1993 119.373 85.9124 119.758 84.5881 119.911ZM79.5709 119.718C80.5358 120.683 82.176 120.799 83.4882 120.78C85.6292 120.769 87.7294 120.193 89.5764 119.11C91.6894 119.728 93.7832 120.259 95.9637 120.722C95.9898 120.731 96.0181 120.731 96.0443 120.722C96.0704 120.713 96.093 120.696 96.1084 120.674C96.4751 120.22 96.8321 119.709 97.1601 119.274C99.3793 121.339 103.084 122.7 105.361 120.944C107.04 119.641 106.78 117.412 105.101 116.033C113.09 113.688 119.448 110.321 123.018 106.78C126.35 110.6 128.816 115.096 130.246 119.959C131.677 124.822 132.039 129.937 131.306 134.953C129.268 136.287 127.158 137.508 124.986 138.61C124.934 138.637 124.892 138.681 124.868 138.735C124.844 138.789 124.839 138.849 124.853 138.906C124.868 138.963 124.901 139.014 124.948 139.049C124.995 139.085 125.053 139.104 125.112 139.102C125.237 139.102 129.097 137.24 131.132 136.034C129.466 144.753 124.787 152.608 117.914 158.225C116.361 157.897 115.02 157.589 114.383 157.396C114.035 157.28 113.881 157.801 114.219 157.926C114.807 158.139 115.907 158.438 117.219 158.775C110.996 163.518 103.394 166.099 95.5699 166.127C87.7455 166.155 80.1258 163.628 73.8686 158.93C75.0251 158.688 76.1632 158.366 77.2746 157.965C77.6991 157.782 77.4386 157.154 77.0044 157.251L72.9906 158.216C65.6371 152.314 60.7094 143.914 59.145 134.616L59.338 134.702C59.7818 134.895 60.1292 134.288 59.7143 134.046L59.0003 133.631C57.7245 124.825 59.8722 115.865 65.0017 108.594C69.8066 111.668 74.9555 114.168 80.3428 116.042C78.8183 116.814 78.307 118.474 79.5709 119.718ZM102.592 48.1168C102.39 50.0465 102.1 51.9762 100.904 53.4621C100.248 54.2822 98.8486 55.4979 97.7005 55.5268C96.9382 55.5268 96.6681 55.083 96.176 54.562C95.5295 53.8094 95.2111 53.4138 94.8638 53.4717C94.0919 53.5682 94.227 55.0251 92.992 55.7488C92.6157 55.961 91.3035 55.5847 90.3 55.1023C89.1238 54.5189 88.1542 53.5897 87.5212 52.4394C86.8883 51.289 86.6223 49.9726 86.759 48.6668C86.759 48.4352 86.4214 48.2905 86.2863 48.358C86.0766 48.4305 85.8518 48.4483 85.6333 48.4096C85.4149 48.3709 85.2099 48.277 85.0378 48.1369C84.8658 47.9968 84.7324 47.815 84.6504 47.6089C84.5683 47.4027 84.5402 47.179 84.5688 46.959C84.9355 45.0293 87.0967 45.5117 87.666 46.6309C87.685 46.6592 87.7134 46.6798 87.7461 46.6892C87.7788 46.6986 87.8138 46.6962 87.8449 46.6824C87.876 46.6686 87.9012 46.6442 87.9161 46.6136C87.9311 46.583 87.9347 46.5482 87.9265 46.5151C87.5378 45.5008 87.4894 44.3875 87.7888 43.3432C88.0881 42.299 88.7189 41.3804 89.5861 40.726C90.9643 41.683 92.6021 42.1959 94.2801 42.1959C95.958 42.1959 97.5958 41.683 98.9741 40.726C100.836 42.1733 100.904 45.1837 100.769 46.2353C100.767 46.2608 100.772 46.2863 100.782 46.3097C100.792 46.3332 100.807 46.354 100.827 46.3704C100.991 46.4959 101.261 46.1678 101.396 46.0134C101.569 45.744 101.818 45.5318 102.112 45.4031C102.405 45.2744 102.73 45.235 103.046 45.2898C103.361 45.3359 103.649 45.4959 103.854 45.7397C104.059 45.9835 104.168 46.2941 104.16 46.6127C104.151 46.9312 104.026 47.2357 103.809 47.4684C103.591 47.7012 103.295 47.846 102.978 47.8756C102.911 47.8177 102.612 47.9142 102.592 48.1168Z" fill="black"/>
<path d="M88.7662 153.942C88.7662 154.068 88.8627 154.174 88.7662 153.942C86.0406 155.045 83.2216 155.901 80.343 156.499C79.9957 156.567 80.1115 157.078 80.4588 157.039C83.4392 156.704 86.3438 155.879 89.0556 154.598C89.4512 154.376 89.1907 153.788 88.7662 153.942ZM102.274 149.842C102.506 149.842 110.321 146.773 111.083 146.281C111.459 146.031 111.199 145.384 110.755 145.548C109.974 145.838 103.76 148.771 102.207 149.321C102.15 149.342 102.102 149.382 102.071 149.434C102.04 149.487 102.027 149.548 102.035 149.608C102.043 149.668 102.071 149.724 102.114 149.766C102.157 149.809 102.214 149.835 102.274 149.842ZM114.219 144.728C114.47 144.728 120.973 141.766 121.581 141.303C121.88 141.071 121.677 140.521 121.282 140.676C120.693 140.898 115.357 143.57 114.132 144.082C114.064 144.11 114.006 144.161 113.969 144.225C113.932 144.29 113.918 144.364 113.928 144.438C113.938 144.512 113.971 144.58 114.024 144.632C114.077 144.685 114.145 144.718 114.219 144.728ZM133.149 125.334C133.69 125.682 135.696 127.264 136.237 127.612C136.319 127.659 136.417 127.676 136.51 127.658C136.604 127.639 136.688 127.588 136.747 127.513C136.806 127.437 136.835 127.344 136.83 127.248C136.825 127.153 136.786 127.063 136.719 126.994C136.208 126.56 133.998 125.18 133.448 124.852C133.384 124.812 133.307 124.8 133.234 124.817C133.161 124.834 133.097 124.88 133.058 124.944C133.018 125.008 133.005 125.085 133.023 125.158C133.04 125.231 133.085 125.295 133.149 125.334ZM145.258 133.343C144.959 133.102 144.554 133.536 144.863 133.787C145.548 134.356 148.268 136.768 149.021 137.279C149.101 137.319 149.192 137.329 149.279 137.309C149.366 137.289 149.443 137.24 149.497 137.17C149.552 137.099 149.58 137.012 149.578 136.923C149.576 136.834 149.542 136.749 149.484 136.681C148.867 136.044 146.059 133.98 145.258 133.343ZM151.481 138.881C151.424 138.825 151.346 138.794 151.266 138.794C151.185 138.795 151.108 138.828 151.052 138.886C150.996 138.943 150.965 139.021 150.966 139.101C150.966 139.182 150.999 139.259 151.057 139.315C152.268 140.541 153.357 141.882 154.308 143.319C154.617 143.753 155.322 143.319 155.022 142.875C154.015 141.4 152.825 140.058 151.481 138.881ZM137.974 161.13C136.681 161.13 131.113 160.764 129.743 160.484C129.681 160.469 129.614 160.479 129.559 160.512C129.504 160.546 129.464 160.6 129.449 160.662C129.434 160.725 129.444 160.791 129.477 160.847C129.511 160.902 129.565 160.941 129.628 160.957C132.383 161.475 135.172 161.797 137.974 161.922C138.078 161.922 138.179 161.88 138.253 161.806C138.327 161.732 138.369 161.631 138.369 161.526C138.369 161.421 138.327 161.32 138.253 161.246C138.179 161.172 138.078 161.13 137.974 161.13ZM103.49 154.193C103.152 154.029 102.872 154.531 103.22 154.705C105.65 155.932 108.253 156.784 110.938 157.232C111.459 157.329 111.662 156.528 111.131 156.441C108.492 156.052 105.92 155.295 103.49 154.193ZM92.1817 153.527C93.3878 153.267 95.8482 152.563 96.2341 152.505C96.6008 152.649 98.955 153.537 100.209 153.836C100.303 153.857 100.402 153.841 100.484 153.792C100.567 153.742 100.627 153.663 100.653 153.57C100.679 153.478 100.669 153.378 100.624 153.293C100.579 153.208 100.503 153.143 100.412 153.113C99.4471 152.765 98.4822 152.476 97.4112 152.148C98.1892 151.889 98.9444 151.566 99.669 151.183C99.7217 151.126 99.7567 151.056 99.7698 150.98C99.783 150.904 99.7736 150.826 99.7428 150.755C99.712 150.684 99.6613 150.624 99.5967 150.582C99.5322 150.539 99.4567 150.517 99.3795 150.517C98.2989 150.884 97.2376 151.347 96.1859 151.752C94.9895 151.328 93.8895 150.893 92.8378 150.43C92.4905 150.276 92.2107 150.787 92.5677 150.951C93.4457 151.366 94.3237 151.762 95.1921 152.119C94.1664 152.475 93.123 152.778 92.066 153.026C92.0216 153.058 91.9877 153.103 91.9685 153.154C91.9493 153.205 91.9457 153.261 91.958 153.315C91.9703 153.368 91.9981 153.417 92.0379 153.455C92.0777 153.493 92.1277 153.518 92.1817 153.527ZM48.9951 126.627C48.0302 125.875 44.412 122.768 43.6112 121.919C43.3507 121.639 42.9165 122.054 43.177 122.334C44.7518 124.186 46.5505 125.836 48.5319 127.245C48.9179 127.505 49.3617 126.917 48.9951 126.627ZM37.5326 172.284C36.9305 166.958 35.8454 161.697 34.2907 156.567C35.1709 157.898 36.5281 158.84 38.0826 159.201C38.1491 159.229 38.2241 159.229 38.2911 159.202C38.358 159.175 38.4114 159.123 38.4396 159.056C38.4677 158.989 38.4683 158.914 38.4412 158.848C38.414 158.781 38.3614 158.727 38.2949 158.699C37.0599 157.956 35.1591 157.203 34.5706 155.399C34.8925 154.811 34.9719 154.121 34.7916 153.476C34.6113 152.83 34.1857 152.281 33.6057 151.945C33.9528 149.896 34.6863 147.931 35.767 146.156C35.8924 145.915 35.5643 145.664 35.381 145.876C34.0041 147.593 33.162 149.676 32.9593 151.868C32.7081 151.886 32.4609 151.941 32.226 152.032C29.6697 145.425 26.0378 139.286 21.4775 133.864C21.6531 133.564 21.7213 133.214 21.6709 132.871C21.6205 132.528 21.4545 132.212 21.2003 131.976C20.9461 131.739 20.619 131.597 20.2729 131.572C19.9269 131.547 19.5826 131.641 19.297 131.838C18.9711 132.059 18.7342 132.389 18.6282 132.769C18.5222 133.149 18.5541 133.554 18.7181 133.912C18.8273 134.103 18.9742 134.27 19.1498 134.403C19.3254 134.536 19.5261 134.632 19.7398 134.685C19.9535 134.738 20.1757 134.748 20.3931 134.713C20.6105 134.678 20.8186 134.599 21.0048 134.481C25.4759 139.842 29.0591 145.885 31.6181 152.379C30.0454 153.769 31.4155 156.374 33.3934 156.161C35.0242 161.471 36.1612 166.92 36.7897 172.438C36.5003 172.592 36.2759 172.845 36.1579 173.15C36.0399 173.456 36.0361 173.794 36.1472 174.102C36.2584 174.41 36.4771 174.668 36.763 174.828C37.0489 174.988 37.383 175.039 37.7037 174.972C38.0245 174.906 38.3104 174.726 38.509 174.465C38.7076 174.204 38.8055 173.881 38.7847 173.554C38.7638 173.227 38.6258 172.919 38.3957 172.685C38.1657 172.452 37.8593 172.31 37.5326 172.284ZM20.9565 133.15C20.9904 133.277 20.9946 133.41 20.9688 133.539C20.943 133.668 20.8878 133.79 20.8076 133.894C20.7274 133.998 20.6243 134.083 20.5063 134.141C20.3882 134.199 20.2584 134.23 20.1267 134.23C19.9951 134.23 19.8653 134.199 19.7472 134.141C19.6292 134.083 19.526 133.998 19.4459 133.894C19.3657 133.79 19.3105 133.668 19.2847 133.539C19.2589 133.41 19.2631 133.277 19.297 133.15C19.2631 133.023 19.2589 132.889 19.2847 132.76C19.3105 132.631 19.3657 132.51 19.4459 132.405C19.526 132.301 19.6292 132.217 19.7472 132.158C19.8653 132.1 19.9951 132.07 20.1267 132.07C20.2584 132.07 20.3882 132.1 20.5063 132.158C20.6243 132.217 20.7274 132.301 20.8076 132.405C20.8878 132.51 20.943 132.631 20.9688 132.76C20.9946 132.889 20.9904 133.023 20.9565 133.15ZM38.3238 173.587C38.3238 174.551 36.7318 174.551 36.7318 173.587C36.7318 172.622 38.2852 172.709 38.2852 173.673L38.3238 173.587ZM34.0978 154.676C33.5768 156.287 31.6374 155.158 31.6664 153.846C31.6664 152.688 33.2777 151.916 33.8855 153.026C34.0412 153.275 34.1379 153.557 34.168 153.85C34.1981 154.142 34.1609 154.438 34.0592 154.714L34.0978 154.676ZM174.426 115.869C174.421 115.591 174.339 115.319 174.188 115.084C174.038 114.849 173.825 114.661 173.574 114.54C173.323 114.419 173.043 114.37 172.766 114.398C172.489 114.427 172.225 114.532 172.004 114.702C166.574 111.523 161.905 107.196 158.322 102.024C158.584 101.723 158.764 101.36 158.845 100.97C158.926 100.58 158.906 100.175 158.785 99.7949C158.693 99.5 158.526 99.2341 158.3 99.0231C158.074 98.8122 157.798 98.6634 157.497 98.5915C157.197 98.5195 156.883 98.5268 156.586 98.6126C156.289 98.6984 156.02 98.8598 155.804 99.0809C151.161 92.7996 147.842 85.6403 146.049 78.0375C146.23 77.8324 146.341 77.5748 146.365 77.3023C146.39 77.0298 146.326 76.7566 146.184 76.5227C146.078 76.2812 145.895 76.0809 145.665 75.9521C145.434 75.8234 145.168 75.7732 144.907 75.8092C144.645 75.8452 144.402 75.9653 144.215 76.1515C144.028 76.3377 143.906 76.5797 143.869 76.8411C143.807 77.0608 143.807 77.2929 143.867 77.5129C143.927 77.7328 144.045 77.9325 144.209 78.0908C144.373 78.249 144.577 78.3599 144.799 78.4117C145.021 78.4634 145.253 78.4542 145.47 78.3849C147.248 86.0753 150.621 93.3069 155.37 99.6116C155.268 99.7757 155.193 99.9548 155.148 100.142C153.923 99.5537 147.834 97.624 147.197 97.7977C146.927 97.8749 147.053 98.2029 147.197 98.2415C149.862 98.9777 152.478 99.8767 155.032 100.933C155.086 101.229 155.207 101.508 155.385 101.75C155.562 101.992 155.793 102.19 156.059 102.33C156.325 102.469 156.619 102.546 156.919 102.555C157.22 102.564 157.518 102.504 157.792 102.381C162.191 108.633 166.697 112.849 171.56 115.271C171.456 115.505 171.412 115.762 171.431 116.017C171.451 116.273 171.534 116.519 171.673 116.735C171.812 116.95 172.002 117.127 172.227 117.251C172.451 117.374 172.703 117.44 172.959 117.442C173.163 117.452 173.368 117.417 173.557 117.34C173.747 117.263 173.917 117.145 174.057 116.996C174.196 116.846 174.302 116.668 174.365 116.473C174.429 116.279 174.45 116.073 174.426 115.869ZM172.284 116.352C172.201 116.229 172.151 116.088 172.14 115.94C172.129 115.793 172.156 115.645 172.219 115.512C172.283 115.378 172.38 115.263 172.501 115.179C172.622 115.094 172.764 115.043 172.911 115.03C173.142 115.037 173.361 115.134 173.523 115.299C173.685 115.465 173.777 115.686 173.779 115.918C173.779 116.093 173.722 116.264 173.617 116.405C173.512 116.545 173.363 116.648 173.195 116.697C173.026 116.746 172.846 116.739 172.681 116.677C172.517 116.614 172.377 116.5 172.284 116.352ZM157.502 101.821C157.204 101.917 156.882 101.911 156.588 101.802C156.294 101.694 156.045 101.49 155.881 101.223C155.791 101.008 155.754 100.775 155.773 100.543C155.792 100.311 155.866 100.087 155.99 99.8903C156.115 99.6933 156.284 99.5292 156.485 99.4118C156.686 99.2944 156.913 99.2273 157.145 99.216C158.38 99.216 158.592 101.368 157.502 101.821ZM145.741 77.1885C145.752 77.2793 145.743 77.3715 145.716 77.459C145.689 77.5464 145.644 77.6271 145.583 77.6956C145.522 77.7642 145.448 77.8191 145.364 77.8567C145.281 77.8943 145.19 77.9138 145.099 77.9138C145.007 77.9138 144.917 77.8943 144.833 77.8567C144.75 77.8191 144.675 77.7642 144.615 77.6956C144.554 77.6271 144.509 77.5464 144.482 77.459C144.454 77.3715 144.446 77.2793 144.457 77.1885C144.446 77.0976 144.454 77.0054 144.482 76.918C144.509 76.8305 144.554 76.7499 144.615 76.6813C144.675 76.6127 144.75 76.5578 144.833 76.5202C144.917 76.4826 145.007 76.4632 145.099 76.4632C145.19 76.4632 145.281 76.4826 145.364 76.5202C145.448 76.5578 145.522 76.6127 145.583 76.6813C145.644 76.7499 145.689 76.8305 145.716 76.918C145.743 77.0054 145.752 77.0976 145.741 77.1885ZM161.13 155.698C161.157 155.631 161.159 155.556 161.136 155.487C161.113 155.419 161.066 155.36 161.004 155.322C160.522 155.023 159.731 155.525 159.596 156.094C159.924 156.123 160.927 156.084 161.13 155.698Z" fill="black"/>
<path d="M158.834 149.321C158.207 147.993 157.501 146.704 156.721 145.461C156.678 145.398 156.612 145.353 156.537 145.337C156.463 145.321 156.384 145.334 156.319 145.373C156.253 145.413 156.206 145.476 156.185 145.55C156.165 145.624 156.174 145.702 156.21 145.77C156.86 146.913 157.424 148.103 157.898 149.33C156.822 149.447 155.798 149.859 154.94 150.519C154.082 151.18 153.422 152.064 153.033 153.075C152.645 154.085 152.542 155.184 152.736 156.249C152.931 157.314 153.415 158.305 154.135 159.114C150.796 160.413 147.265 161.15 143.686 161.294C143.622 161.306 143.564 161.34 143.522 161.391C143.481 161.441 143.458 161.504 143.458 161.569C143.458 161.635 143.481 161.698 143.522 161.748C143.564 161.798 143.622 161.832 143.686 161.844C147.503 161.925 151.295 161.223 154.83 159.779C155.553 160.353 156.401 160.748 157.305 160.933C158.209 161.118 159.144 161.087 160.034 160.843C160.925 160.599 161.745 160.149 162.428 159.53C163.112 158.91 163.64 158.137 163.97 157.275C164.3 156.413 164.422 155.486 164.326 154.568C164.231 153.65 163.92 152.767 163.42 151.992C162.92 151.216 162.244 150.569 161.447 150.103C160.65 149.638 159.755 149.366 158.834 149.311V149.321ZM157.609 158.236C157.512 157.589 157.474 156.933 157.358 156.306H155.939C155.853 156.875 155.853 157.445 155.766 158.014C155.761 158.054 155.748 158.094 155.727 158.129C155.707 158.165 155.68 158.196 155.648 158.221C155.616 158.246 155.579 158.264 155.54 158.275C155.5 158.286 155.459 158.289 155.418 158.284C155.378 158.279 155.339 158.266 155.303 158.246C155.268 158.225 155.236 158.199 155.211 158.166C155.186 158.134 155.168 158.097 155.157 158.058C155.146 158.018 155.143 157.977 155.148 157.937C155.148 157.3 155.679 153.247 155.785 152.678C155.92 151.877 156.345 151.81 156.586 151.839C157.088 151.897 157.223 152.418 157.329 152.804C157.609 153.836 158.294 156.981 158.467 158.023C158.545 158.544 157.695 158.757 157.609 158.236ZM161.941 157.493C160.387 158.573 158.429 157.281 159.046 155.785C159.442 154.82 160.976 154.164 161.622 155.168C161.7 155.33 161.738 155.508 161.734 155.688C161.729 155.868 161.683 156.044 161.597 156.202C161.511 156.36 161.389 156.496 161.241 156.598C161.093 156.7 160.923 156.765 160.744 156.788C160.424 156.831 160.1 156.831 159.78 156.788C159.902 156.923 160.045 157.037 160.204 157.126C161.169 157.531 161.815 156.808 162.008 157.213C162.023 157.254 162.025 157.298 162.013 157.34C162.001 157.382 161.975 157.418 161.941 157.445V157.493Z" fill="black"/>
<path d="M156.442 152.862C156.297 153.596 156.133 154.908 156.056 155.516H157.204C157.098 155.024 156.818 153.644 156.625 152.891C156.596 152.766 156.461 152.737 156.442 152.862ZM72.8471 138.418C72.2682 138.071 70.9946 138.033 70.9174 138.795C70.8595 139.219 70.9174 140.917 70.9174 141.371C71.3576 141.358 71.7904 141.255 72.1888 141.067C72.5873 140.88 72.9427 140.612 73.233 140.281C73.3416 140.137 73.4182 139.972 73.4578 139.796C73.4973 139.62 73.4989 139.438 73.4623 139.262C73.4258 139.086 73.352 138.919 73.2459 138.774C73.1398 138.628 73.0038 138.507 72.8471 138.418Z" fill="black"/>
<path d="M89.3351 148.906C86.6682 147.929 84.0589 146.801 81.5198 145.529C82.0266 144.493 82.3245 143.367 82.3963 142.217C82.4682 141.066 82.3126 139.912 81.9386 138.821C81.5645 137.73 80.9793 136.724 80.2163 135.859C79.4532 134.994 78.5274 134.289 77.4916 133.782C76.4557 133.275 75.3302 132.977 74.1793 132.905C73.0284 132.833 71.8746 132.989 70.7838 133.363C69.6929 133.737 68.6865 134.322 67.8219 135.085C66.9572 135.848 66.2513 136.774 65.7445 137.81C64.5771 137.189 63.4435 136.506 62.3482 135.765C62.0491 135.572 61.7693 136.025 62.0491 136.228C63.3517 137.193 64.442 137.868 65.4551 138.485C61.9912 148.597 75.4509 155.071 81.1821 146.117C83.6973 147.546 86.39 148.636 89.1904 149.359C89.2469 149.368 89.3046 149.356 89.3531 149.325C89.4016 149.295 89.4378 149.248 89.4552 149.194C89.4726 149.139 89.47 149.081 89.448 149.028C89.426 148.975 89.386 148.932 89.3351 148.906ZM73.8975 141.187C73.116 141.936 72.0849 142.369 71.0029 142.403V145.104C71.0029 145.214 70.9592 145.32 70.8814 145.398C70.8036 145.475 70.6981 145.519 70.5881 145.519C70.478 145.519 70.3725 145.475 70.2947 145.398C70.2169 145.32 70.1732 145.214 70.1732 145.104C70.1732 144.641 70.0092 140.811 69.9995 140.502C69.9995 139.537 69.6329 137.887 70.9644 137.357C73.4151 136.324 75.7307 139.035 73.8493 141.177L73.8975 141.187ZM78.3358 144.082C78.2007 145.625 76.1263 146.291 74.8913 145.374C74.8033 145.305 74.7441 145.205 74.7252 145.095C74.7064 144.984 74.7291 144.871 74.7891 144.776C74.849 144.681 74.942 144.612 75.0499 144.582C75.1579 144.552 75.2733 144.562 75.3737 144.612C75.653 144.799 75.9887 144.883 76.3233 144.85C76.6578 144.816 76.9702 144.668 77.2069 144.429C77.4964 144.13 77.3806 143.532 76.9078 143.599C76.5413 143.704 76.1591 143.743 75.779 143.715C75.5863 143.67 75.4077 143.578 75.2592 143.448C75.1107 143.317 74.997 143.151 74.9282 142.966C74.8593 142.78 74.8376 142.581 74.8648 142.385C74.892 142.189 74.9674 142.003 75.0843 141.843C75.2471 141.613 75.4619 141.424 75.7112 141.293C75.9606 141.161 76.2374 141.09 76.5193 141.085C76.8012 141.081 77.0803 141.142 77.3338 141.266C77.5874 141.389 77.8084 141.57 77.9788 141.795C78.2683 142.171 77.6701 142.625 77.3806 142.258C77.2457 142.101 77.0673 141.988 76.868 141.933C76.6687 141.878 76.4575 141.884 76.2614 141.949C75.422 142.258 75.9526 143.088 76.5122 142.914C76.6377 142.875 78.413 142.596 78.2876 144.043L78.3358 144.082ZM156.46 111.991C156.147 112.704 155.789 113.397 155.389 114.065C154.633 113.014 153.654 112.144 152.522 111.516C151.391 110.888 150.134 110.518 148.843 110.432C147.551 110.347 146.257 110.548 145.052 111.021C143.847 111.494 142.762 112.228 141.874 113.169C140.986 114.111 140.317 115.237 139.916 116.467C139.514 117.698 139.389 119.002 139.55 120.286C139.711 121.57 140.154 122.803 140.847 123.896C141.54 124.989 142.467 125.915 143.56 126.608C142.595 127.467 140.598 128.991 140.192 129.31L139.478 128.982C139.16 128.837 138.899 129.31 139.227 129.464C139.376 129.533 139.521 129.611 139.662 129.696C138.447 130.577 137.188 131.395 135.889 132.146C135.821 132.185 135.772 132.248 135.751 132.324C135.73 132.399 135.74 132.479 135.778 132.547C135.817 132.615 135.88 132.664 135.955 132.685C136.03 132.706 136.111 132.696 136.179 132.658C137.771 131.77 139.141 130.931 140.347 130.111C141.227 130.723 142.048 131.418 142.797 132.185C142.873 132.244 142.968 132.274 143.064 132.269C143.16 132.263 143.25 132.223 143.319 132.156C143.387 132.088 143.429 131.998 143.436 131.903C143.443 131.807 143.415 131.712 143.357 131.635C142.605 130.926 141.795 130.28 140.935 129.705C141.524 129.281 143.405 127.882 144.351 127.052C146.038 127.882 147.947 128.15 149.797 127.815C151.648 127.48 153.342 126.56 154.631 125.191C155.92 123.822 156.736 122.076 156.96 120.209C157.183 118.341 156.801 116.452 155.871 114.818C156.368 113.989 156.781 113.113 157.106 112.203C157.27 111.788 156.624 111.585 156.46 111.991ZM148.345 122.739C148.152 122.087 148 121.423 147.892 120.751L145.856 120.954C145.74 121.562 145.624 122.17 145.528 122.778C145.431 123.385 144.64 123.135 144.717 122.614C144.891 121.33 145.924 115.86 146.126 115.339C146.695 114.219 147.554 114.991 148.056 116.255C148.543 118.348 148.923 120.463 149.194 122.594C149.214 122.707 149.187 122.823 149.121 122.916C149.055 123.009 148.955 123.072 148.842 123.091C148.73 123.11 148.614 123.084 148.521 123.018C148.428 122.952 148.365 122.852 148.345 122.739ZM149.995 116.477C150.044 116.363 150.116 116.261 150.208 116.177C150.299 116.093 150.407 116.03 150.524 115.99C150.642 115.951 150.767 115.937 150.89 115.95C151.013 115.962 151.132 116 151.24 116.062C151.336 116.127 151.416 116.211 151.477 116.309C151.537 116.407 151.575 116.518 151.589 116.632C151.603 116.747 151.592 116.863 151.556 116.973C151.521 117.082 151.462 117.183 151.385 117.268C151.264 117.417 151.094 117.518 150.905 117.554C150.717 117.589 150.522 117.556 150.355 117.461C150.188 117.366 150.061 117.215 149.995 117.035C149.929 116.855 149.929 116.657 149.995 116.477ZM151.674 122.643C151.672 122.753 151.631 122.86 151.558 122.943C151.485 123.026 151.384 123.079 151.274 123.095C151.165 123.11 151.053 123.085 150.96 123.025C150.867 122.965 150.799 122.874 150.767 122.768C150.69 122.556 150.545 119.584 150.545 119.237C150.545 119.137 150.585 119.041 150.655 118.971C150.726 118.9 150.822 118.86 150.921 118.86C151.021 118.86 151.117 118.9 151.188 118.971C151.258 119.041 151.298 119.137 151.298 119.237C151.327 119.787 151.684 122.479 151.674 122.643Z" fill="black"/>
<path d="M146.049 120L147.728 119.816C147.56 118.64 147.275 117.483 146.879 116.362C146.657 117.327 146.251 119.045 146.049 120ZM53.0663 161.556C52.2558 162.038 52.9215 163.35 54.0311 162.858C54.0311 162.222 53.9732 161.749 53.9539 161.527C53.8145 161.46 53.661 161.428 53.5066 161.433C53.3521 161.438 53.2011 161.48 53.0663 161.556Z" fill="black"/>
<path d="M62.3878 160.33C60.7907 160.58 59.1794 160.728 57.5635 160.774C57.1294 153.18 46.2651 153.171 45.8213 160.774C44.1451 160.612 42.4954 160.242 40.9102 159.674C40.8805 159.658 40.848 159.649 40.8146 159.647C40.7813 159.644 40.7478 159.648 40.716 159.658C40.6842 159.668 40.6547 159.685 40.6293 159.707C40.6038 159.728 40.5829 159.755 40.5677 159.785C40.5525 159.814 40.5433 159.847 40.5407 159.88C40.538 159.914 40.5419 159.947 40.5522 159.979C40.5625 160.011 40.579 160.04 40.6007 160.066C40.6224 160.091 40.6489 160.112 40.6787 160.127C42.2864 160.978 44.0479 161.5 45.8599 161.661C46.0425 163.078 46.7349 164.379 47.8074 165.322C48.88 166.266 50.2593 166.786 51.6876 166.786C53.1159 166.786 54.4952 166.266 55.5678 165.322C56.6403 164.379 57.3326 163.078 57.5153 161.661C59.1952 161.49 60.8639 161.223 62.5132 160.86C62.5699 160.832 62.6155 160.786 62.6424 160.729C62.6694 160.671 62.6761 160.607 62.6616 160.545C62.647 160.484 62.612 160.429 62.5623 160.39C62.5126 160.351 62.4511 160.329 62.3878 160.33ZM50.8096 163.408C50.7965 163.473 50.7697 163.535 50.7311 163.589C50.6925 163.643 50.6429 163.688 50.5855 163.722C50.5281 163.756 50.4643 163.777 50.3982 163.784C50.332 163.792 50.2651 163.785 50.2017 163.765C49.9123 163.678 49.9605 163.514 49.4974 162.858C49.3527 163.099 49.2079 163.35 49.0729 163.601C49.02 163.687 48.9359 163.75 48.8381 163.776C48.7403 163.802 48.6362 163.79 48.5471 163.742C48.4581 163.694 48.3909 163.613 48.3595 163.517C48.328 163.42 48.3347 163.316 48.3782 163.224C48.5615 162.877 48.7448 162.52 48.9474 162.173C48.7094 161.925 48.444 161.705 48.1562 161.517C48.0619 161.45 47.9963 161.35 47.9729 161.237C47.9495 161.125 47.97 161.007 48.0303 160.909C48.0905 160.81 48.186 160.739 48.2972 160.708C48.4084 160.678 48.5271 160.691 48.629 160.745C49.8351 161.488 49.0922 161.574 50.0088 160.436C50.3851 159.973 51.099 160.542 50.7903 161.015C50.578 161.343 50.3079 161.681 50.0763 161.98C50.5491 162.587 50.8578 163.06 50.7999 163.408H50.8096ZM54.9198 163.523C54.7145 163.709 54.4717 163.848 54.2079 163.931C53.9441 164.014 53.6656 164.04 53.3911 164.006C53.1166 163.972 52.8525 163.879 52.6169 163.735C52.3813 163.59 52.1795 163.396 52.0253 163.166C51.8288 162.876 51.7247 162.534 51.7264 162.184C51.7281 161.833 51.8357 161.492 52.035 161.204C52.2343 160.916 52.516 160.695 52.8431 160.57C53.1703 160.445 53.5276 160.422 53.8682 160.503C53.7847 159.46 53.7557 158.414 53.7813 157.368C53.7828 157.256 53.8254 157.149 53.901 157.067C53.9767 156.984 54.0799 156.933 54.1911 156.922C54.3022 156.912 54.4134 156.942 54.5034 157.008C54.5934 157.074 54.6558 157.172 54.6786 157.281C54.8813 158.545 55.0356 162.25 55.0549 162.674C55.0742 162.896 55.1707 163.263 54.9102 163.523H54.9198ZM36.8868 106.481C37.0605 106.481 37.1087 106.481 37.1184 106.424C37.1184 106.26 36.7903 104.089 36.7517 103.828C34.0115 104.204 34.3589 106.732 36.8868 106.481Z" fill="black"/>
<path d="M43.7071 97.3355C42.5632 97.4923 41.4292 97.7146 40.3108 98.0012C39.4114 97.1277 38.3149 96.4837 37.1139 96.1237C35.9129 95.7636 34.6429 95.6982 33.4113 95.9329C32.1797 96.1676 31.0227 96.6955 30.0383 97.472C29.0539 98.2485 28.2711 99.2507 27.756 100.394C27.2409 101.537 27.0087 102.787 27.0792 104.039C27.1496 105.291 27.5205 106.507 28.1606 107.585C28.8006 108.663 29.6909 109.571 30.7562 110.233C31.8215 110.894 33.0303 111.289 34.2805 111.384C35.3692 114.449 37.2661 117.162 39.7705 119.238C39.7933 119.26 39.8203 119.277 39.8498 119.289C39.8794 119.301 39.911 119.307 39.9428 119.306C39.9746 119.306 40.006 119.299 40.0352 119.286C40.0644 119.274 40.0909 119.256 40.113 119.233C40.1352 119.21 40.1527 119.183 40.1644 119.153C40.1762 119.124 40.182 119.092 40.1816 119.061C40.1811 119.029 40.1744 118.997 40.1618 118.968C40.1492 118.939 40.131 118.912 40.1082 118.89C38.0194 116.704 36.3281 114.17 35.1103 111.403C36.5645 111.348 37.9747 110.889 39.1828 110.078C40.391 109.267 41.3493 108.135 41.9503 106.81C42.5514 105.485 42.7714 104.018 42.5858 102.575C42.4002 101.131 41.8162 99.7682 40.8994 98.6381C41.9221 98.3679 42.8291 98.1267 43.7939 97.9434C44.2571 97.8662 44.093 97.2583 43.7071 97.3355ZM31.6658 107.1V99.9213C31.6806 99.8258 31.7292 99.7387 31.8026 99.6758C31.876 99.613 31.9695 99.5784 32.0662 99.5784C32.1629 99.5784 32.2563 99.613 32.3298 99.6758C32.4032 99.7387 32.4517 99.8258 32.4666 99.9213C32.4666 101.349 32.6306 106.135 32.6596 107.1C32.6262 107.205 32.5601 107.298 32.4707 107.363C32.3814 107.429 32.2735 107.464 32.1627 107.464C32.0519 107.464 31.9439 107.429 31.8546 107.363C31.7652 107.298 31.6991 107.205 31.6658 107.1ZM37.5706 107.196C35.6409 108.229 33.0648 106.386 34.2805 104.234C34.5471 103.851 34.9041 103.54 35.3198 103.328C35.7355 103.116 36.1971 103.009 36.6637 103.018C36.5025 101.967 36.4058 100.907 36.3742 99.8441C36.3793 99.7396 36.4212 99.6402 36.4925 99.5635C36.5637 99.4868 36.6598 99.4378 36.7637 99.4251C36.8676 99.4124 36.9726 99.4369 37.0603 99.4941C37.1479 99.5514 37.2125 99.6377 37.2426 99.738C37.4066 100.433 37.8698 105.054 37.918 105.662C37.9373 106.135 38.1496 106.839 37.5706 107.148V107.196Z" fill="black"/>
</svg>
