<svg width="185" height="185" viewBox="0 0 185 185" fill="none" xmlns="http://www.w3.org/2000/svg">
<path d="M40.5242 68.043L40.8942 67.821C40.5863 67.7866 40.2766 67.868 40.0253 68.0492C39.774 68.2304 39.599 68.4985 39.5344 68.8015C39.5067 68.5517 40.3392 68.1632 40.5242 68.043ZM44.2519 70.5405C44.8254 71.4655 44.5017 71.7153 43.6322 71.9928C44.4739 72.1038 44.8994 71.6875 44.8902 71.2527C44.8902 70.5683 43.7154 69.1253 43.0402 68.5795C43.4079 69.2549 43.8124 69.9095 44.2519 70.5405ZM40.6999 69.5138C40.5057 69.6248 40.6259 69.782 40.8942 70.3925C40.9039 70.4212 40.92 70.4473 40.9411 70.469C40.9623 70.4907 40.988 70.5074 41.0164 70.5179C41.0448 70.5284 41.0753 70.5324 41.1054 70.5296C41.1356 70.5268 41.1648 70.5174 41.1908 70.5019C41.2169 70.4864 41.2391 70.4653 41.256 70.4401C41.2728 70.4149 41.2838 70.3863 41.2882 70.3563C41.2926 70.3263 41.2902 70.2957 41.2812 70.2668C41.2723 70.2379 41.2569 70.2113 41.2364 70.189L40.9682 69.5878C40.9556 69.565 40.9387 69.545 40.9184 69.529C40.898 69.5129 40.8746 69.5011 40.8496 69.4942C40.8246 69.4873 40.7985 69.4855 40.7728 69.4888C40.7471 69.4922 40.7223 69.5007 40.6999 69.5138ZM44.4832 68.9218C44.6034 69.153 44.9457 68.9218 44.8347 68.7275C44.7237 68.5333 44.6589 68.3298 44.5571 68.1447C44.4554 67.9597 44.0947 68.1447 44.2149 68.3483C44.3352 68.5518 44.3999 68.7368 44.4832 68.9218ZM44.6034 73.075C43.9533 73.3937 43.2071 73.4565 42.5129 73.2508C42.636 73.4227 42.8016 73.5598 42.9936 73.6485C43.1856 73.7372 43.3973 73.7745 43.6081 73.7568C43.8188 73.7391 44.0214 73.667 44.1958 73.5474C44.3703 73.4279 44.5108 73.2651 44.6034 73.075ZM172.716 63.122L179.339 9.88825L158.415 7.289L156.325 24.494L155.511 24.3923L157.648 7.18725L137.02 4.625C134.06 25.5208 134.708 19.5452 125.92 93.7395L146.788 96.3388C146.788 96.6255 146.659 97.495 146.64 97.5598L125.8 94.9605C125.8 94.9605 121.175 129.824 121.073 130.573C121.008 131.082 119.306 130.388 163.688 136.613L172.605 64.01L151.7 61.42L151.811 60.495L172.716 63.122ZM128.445 75.85C129.084 70.744 130.508 59.274 130.591 58.6357L151.173 61.198C150.534 66.341 149.101 77.848 149.027 78.4122L128.445 75.85ZM142.256 132.848L121.674 130.286L123.83 112.961L144.411 115.523C144.402 115.625 142.237 132.987 142.256 132.876V132.848ZM165.048 117.78C158.952 117.022 145.808 115.32 145.04 115.218L147.195 97.8928C174.538 101.297 164.409 100.094 167.305 100.455C166.666 105.626 165.122 117.179 165.048 117.808V117.78ZM169.571 82.14C168.933 87.283 167.517 98.79 167.443 99.4652C161.348 98.716 148.083 97.0047 147.315 96.9122C147.954 91.7692 149.387 80.2623 149.471 79.587C155.557 80.3733 168.803 82.0753 169.571 82.1678V82.14ZM151.237 60.643L130.656 58.09C131.304 52.947 132.737 41.44 132.811 40.7648L153.393 43.3178C151.996 54.575 151.385 59.5238 151.237 60.643ZM153.55 42.3372L132.941 39.775L135.05 22.57L155.677 24.975C155.317 27.9165 153.55 42.4668 153.55 42.3372ZM174.122 44.9735C168.035 44.215 154.891 42.5037 154.123 42.4112L156.269 25.197L176.36 27.75C175.75 32.8652 174.177 44.3353 174.094 44.9735H174.122ZM19.0734 70.004C19.4024 69.4184 19.8535 68.9105 20.3962 68.5148C19.7413 70.1486 19.6544 71.955 20.1492 73.6442C20.644 75.3333 21.692 76.8073 23.1249 77.8295C23.3747 78.0145 23.6522 77.6722 23.5227 77.4317C22.7795 75.8259 22.5501 74.0298 22.8659 72.2887C23.6872 73.7801 24.7079 75.1525 25.8999 76.368C26.1589 76.6455 26.5844 76.22 26.3162 75.9518C25.1877 74.6753 25.3912 72.0945 25.5114 70.5128C25.7797 67.0903 27.7222 65.8877 28.2864 63.8898C28.3064 63.8149 28.2963 63.7353 28.2583 63.6679C28.2202 63.6004 28.1573 63.5506 28.0829 63.529C26.0422 63.3003 23.9872 63.8124 22.2924 64.972C20.4424 66.1097 19.5729 67.8765 18.5924 69.708C18.577 69.7691 18.5815 69.8335 18.6052 69.8919C18.6289 69.9502 18.6706 69.9995 18.7243 70.0325C18.7779 70.0656 18.8407 70.0806 18.9035 70.0755C18.9663 70.0703 19.0258 70.0453 19.0734 70.004Z" fill="#3D3834"/>
<path d="M123.645 23.8649C123.108 22.1721 121.554 18.0189 119.427 17.6581C117.9 17.3991 117.78 19.3139 117.577 20.3406C115.727 28.7951 107.901 32.7264 101.907 37.9156C97.6892 41.6156 95.7282 46.2869 93.9245 51.4021C92.9995 51.3004 92.0745 52.1514 91.4455 52.7989C88.1432 55.9809 85.285 59.5236 82.2325 62.8999C79.328 66.1189 75.0545 68.9494 75.406 73.6761C70.6422 78.1994 65.9432 82.8521 61.05 87.8749C57.9975 83.7771 55.0745 81.2981 49.4597 80.1974C47.6956 79.8369 45.8898 79.7249 44.0947 79.8644C43.6877 79.6701 43.29 78.8839 43.0957 78.4861C42.9401 78.0649 42.7578 77.654 42.55 77.2559C43.3803 77.2032 44.1644 76.8554 44.7607 76.2754C46.6853 76.6531 48.5331 77.3503 50.2275 78.3381C48.729 72.7326 46.6107 58.4876 37.555 59.3849C36.4727 59.4866 35.4737 60.1341 34.4192 60.1526C34.1914 60.15 33.9643 60.178 33.744 60.2359C27.269 62.0119 26.8712 69.7264 29.489 74.7491C29.6253 75.0525 29.8202 75.326 30.0625 75.5539C30.821 76.1829 36.3802 76.8859 36.5375 77.5704C37.2035 81.0021 36.2137 82.0844 33.9197 83.3239C30.0162 85.3866 26.825 87.3199 23.7355 90.6499C17.6027 97.4024 17.0847 105.385 21.1917 113.636C22.3387 115.921 24.8917 121.036 27.5372 121.286C28.4516 121.289 29.3509 121.053 30.1457 120.601C30.229 120.601 30.7747 120.204 30.784 120.213C31.3667 120.537 33.0225 121.434 32.634 121.98C32.3842 122.331 31.783 121.98 31.5332 121.748C31.5011 121.724 31.4621 121.71 31.4218 121.709C31.3815 121.708 31.3419 121.719 31.3083 121.742C31.2748 121.764 31.249 121.796 31.2346 121.834C31.2202 121.872 31.2179 121.913 31.228 121.952L31.5332 123.191C31.6072 123.506 31.9217 124.061 31.7275 124.375C31.5332 124.69 30.6822 123.247 30.5897 123.053C30.5591 122.999 30.5116 122.957 30.4546 122.934C30.3977 122.911 30.3346 122.907 30.2752 122.923C29.8682 123.043 30.2752 123.848 30.3862 124.089C30.3862 124.2 30.747 125.014 30.599 125.097C30.451 125.18 30.2567 124.893 30.2012 124.829C29.859 124.394 29.7757 123.349 29.3687 123.349C28.7952 123.349 29.5722 124.949 28.9895 124.662C28.7767 124.56 28.6472 124.163 28.564 123.959C28.3159 123.11 28.228 122.222 28.305 121.341C28.1862 121.982 28.1397 122.633 28.1662 123.284C28.0166 123.412 27.8803 123.554 27.7592 123.709C19.7025 132.673 14.3097 138.315 9.61997 144.716C8.61172 146.094 5.12447 149.656 5.73497 151.524C6.50272 153.892 10.4895 151.524 11.6365 150.858C16.2615 148.287 20.313 144.901 24.42 141.608C37.37 131.285 52.4475 118.391 66.8405 104.895C71.1658 103.717 75.1856 101.619 78.625 98.7436C80.5781 97.0634 82.3711 95.2054 83.9807 93.1936C84.2319 92.9514 84.4095 92.6431 84.493 92.3043C84.5765 91.9655 84.5624 91.61 84.4525 91.2789H85.3775C85.8091 91.2922 86.2378 91.2047 86.6296 91.0233C87.0215 90.8418 87.3655 90.5714 87.6345 90.2336C87.7455 89.9839 87.6345 89.6879 87.1812 89.6509C87.357 89.6509 87.7085 89.2624 87.801 89.1421C88.2635 88.5501 87.9212 87.7916 87.1627 88.0969C86.8112 88.2449 87.0147 88.2356 87.1627 87.7824C87.1939 87.6893 87.2007 87.5897 87.1823 87.4933C87.164 87.3968 87.1213 87.3067 87.0581 87.2315C86.995 87.1563 86.9137 87.0986 86.8218 87.0639C86.73 87.0291 86.6308 87.0185 86.5337 87.0331C85.8468 87.1695 85.1769 87.3804 84.5357 87.6621C85.4012 86.8674 86.2081 86.011 86.95 85.0999C87.5512 84.3321 88.689 84.5726 89.5955 84.1749C92.2595 83.0834 94.2205 80.2344 96.1907 78.2549C99.456 74.9434 103.276 71.9834 106.273 68.4406C106.819 67.8116 108.123 66.5351 108.123 65.4991C108.123 65.4991 111.092 64.2596 111.324 64.1579C124.375 58.1454 128.251 38.2394 123.645 23.8649ZM35.7697 74.2404C35.5661 74.3636 35.3325 74.4288 35.0945 74.4288C34.8564 74.4288 34.6229 74.3636 34.4192 74.2404C32.9947 73.5281 33.0225 71.5764 34.4192 72.0759C34.7152 72.1776 35.0575 72.5939 35.3442 72.3626C35.631 72.1314 35.5292 71.5949 35.6865 71.3174C36.334 70.1611 38.961 67.7931 38.6002 64.6481C39.9893 64.3938 41.4197 64.4892 42.7627 64.9256C43.4402 65.3027 43.976 65.8905 44.289 66.5999C44.0794 66.4842 43.8332 66.4543 43.6021 66.5164C43.3709 66.5785 43.1729 66.7278 43.0495 66.9329C43.142 66.9329 44.289 66.5906 44.3445 66.7109C45.1549 68.1123 45.7298 69.6372 46.0465 71.2249C46.435 74.4901 44.0855 76.9229 42.2077 76.9044C42.1729 76.9018 42.138 76.9086 42.1067 76.9242C42.0755 76.9397 42.049 76.9634 42.03 76.9928C42.0111 77.0221 42.0004 77.056 41.9991 77.0909C41.9978 77.1258 42.006 77.1604 42.0227 77.1911L42.328 77.7739C41.181 79.4296 38.0267 79.6239 37.037 79.1336C36.8982 77.2466 35.9547 74.0739 35.7327 74.2404H35.7697ZM32.2825 84.4154C34.0492 83.3701 36.3525 82.7319 36.9075 80.5951C37.9725 80.8552 39.0766 80.9148 40.1635 80.7709C40.7394 80.7298 41.2995 80.5647 41.8057 80.2869C42.3118 80.0091 42.7518 79.6251 43.0957 79.1614C43.1002 79.1152 43.1002 79.0688 43.0957 79.0226C43.2849 79.2997 43.5087 79.5515 43.7617 79.7719C43.8319 79.8295 43.9061 79.882 43.9837 79.9291C44.1054 79.9797 44.2358 80.0058 44.3676 80.0058C44.4994 80.0058 44.6298 79.9797 44.7515 79.9291C44.5654 79.9721 44.3704 79.9526 44.1965 79.8736C45.55 79.8182 46.9055 79.9113 48.2387 80.1511C48.5997 84.434 47.4043 88.7034 44.8717 92.1761C41.2707 88.9756 37.025 86.5846 32.4212 85.1646C31.9683 85.0837 31.5113 85.0281 31.0522 84.9981C31.45 84.8224 31.8755 84.6651 32.2455 84.4431L32.2825 84.4154ZM33.633 117.244C33.2815 117.632 30.858 119.898 30.9782 120.268L30.8025 120.25C31.2899 119.647 31.609 118.926 31.7275 118.159L37.3977 111.925L38.3227 112.045C37.1387 113.368 36.9167 113.599 33.596 117.271L33.633 117.244ZM57.35 91.6674C56.5915 89.3919 54.2605 85.0721 54.0662 85.3589C53.872 85.6456 56.3695 89.3826 57.1372 91.8339C52.1422 97.0231 39.8767 110.334 38.6372 111.675C36.4877 111.516 34.3608 111.132 32.2917 110.528C32.0348 108.162 31.4912 105.835 30.673 103.6C32.412 102.277 35.298 99.4374 35.1592 99.3171C35.0205 99.1969 32.2362 102.259 30.5342 103.489C30.523 103.503 30.5169 103.521 30.5169 103.54C30.5169 103.558 30.523 103.576 30.5342 103.591C31.4751 106.357 32.0049 109.246 32.1067 112.165C32.153 114.191 32.1067 118.178 30.6545 119.815C30.2136 120.202 29.6977 120.493 29.1391 120.672C28.5805 120.85 27.9911 120.911 27.4077 120.851C25.9647 120.509 24.975 118.77 24.198 117.641C21.3985 113.719 19.6965 109.121 19.2677 104.321C18.685 96.1999 23.791 89.7249 30.6822 85.3034C31.9943 85.3999 33.2726 85.7652 34.4377 86.3764C38.3312 87.9467 41.9026 90.2199 44.9735 93.0826C46.4082 91.2766 47.4577 89.1958 48.0575 86.9686C48.6572 84.7413 48.7945 82.4149 48.4607 80.1326C54.4085 81.0576 57.461 83.5366 60.7725 88.1154C59.6347 89.3086 58.4877 90.4834 57.35 91.6674ZM93.7025 51.9756C93.2212 53.3364 93.0229 54.7812 93.1197 56.2214C92.8422 54.9449 92.3982 52.0866 93.7117 51.9756H93.7025ZM84.0362 92.3056C83.9252 92.5276 82.5655 94.1094 82.6395 94.0169C80.1301 97.181 76.9772 99.7758 73.3895 101.63C71.6663 102.665 69.8444 103.527 67.9505 104.201C67.1642 104.46 81.9827 90.4279 83.361 88.9571C84.175 92.0929 84.175 92.0096 84.0362 92.3056ZM86.8112 87.5419C86.7897 87.6515 86.7456 87.7555 86.6817 87.8471C86.3827 88.2282 86.0079 88.5431 85.581 88.7721C85.5336 88.8118 85.5013 88.8666 85.4897 88.9273C85.478 88.988 85.4877 89.0509 85.5171 89.1053C85.5465 89.1597 85.5937 89.2023 85.6509 89.2258C85.708 89.2494 85.7716 89.2525 85.8307 89.2346C87.4402 88.5501 87.542 88.4946 87.6345 88.4761C87.6345 89.1884 85.9695 89.5954 86.0065 89.9469C86.0435 90.2984 86.4597 90.0949 86.9315 90.0116C87.0147 90.0116 87.4125 89.9469 87.431 90.0116C87.4495 90.0764 87.1442 90.3909 87.2275 90.2984C86.4597 90.9829 85.4977 90.8811 84.4525 90.9921L83.842 88.6149C83.7865 88.3929 83.62 88.6149 84.1565 88.0969C84.1626 88.1241 84.1745 88.1496 84.1914 88.1718C84.2082 88.194 84.2297 88.2123 84.2543 88.2254C84.2788 88.2386 84.3059 88.2463 84.3338 88.2481C84.3616 88.2498 84.3895 88.2456 84.4155 88.2356C86.2377 87.6159 86.5522 87.4309 86.7835 87.5419H86.8112ZM105.644 68.3389C103.415 70.8271 100.298 73.5096 98.0407 75.5631C94.646 78.6249 91.7877 83.3331 88.134 84.0361C86.7324 84.1612 85.3201 83.9912 83.9882 83.5372C82.6563 83.0831 81.4343 82.355 80.401 81.3999C76.516 77.4686 73.26 72.7696 80.882 65.2309C83.4812 62.6594 85.8677 59.8659 88.3375 57.1649C89.4475 55.9624 91.4177 53.3076 92.4167 52.5399C92.2742 53.1738 92.2336 53.8264 92.2965 54.4731C92.8607 62.7149 103.498 69.1344 106.939 66.8311C106.53 67.3609 106.088 67.8644 105.616 68.3389H105.644ZM102.111 65.9801C103.452 66.4056 104.173 66.1004 105.542 65.9801C106.114 65.9291 106.682 65.8489 107.244 65.7396C106.31 67.3491 104.173 66.9421 102.083 65.9801H102.111ZM123.774 39.4419C123.201 39.4419 123.09 38.5816 122.627 38.2209C122.437 38.1091 122.217 38.0581 121.998 38.0746C121.778 38.0912 121.568 38.1745 121.397 38.3134C120.712 38.8129 120.204 40.3299 118.03 41.6804C117.151 42.2261 116.374 42.3464 115.717 41.5046C114.441 39.8859 115.597 37.7214 115.542 35.8529C115.56 35.3673 115.446 34.8859 115.213 34.4593C114.981 34.0328 114.637 33.677 114.219 33.4294C113.109 32.9114 111.444 33.5311 110.796 32.4026C110.149 31.2741 111.916 30.4601 112.535 29.9144C115.384 27.4076 117.845 24.1424 118.28 20.3684C118.261 20.0939 118.303 19.8186 118.404 19.5625C118.505 19.3065 118.661 19.0762 118.862 18.8884C119.649 18.3796 120.564 19.3324 120.981 20.1834C122.554 23.4626 123.59 26.9728 124.052 30.5804C124.172 31.6071 125.347 39.3864 123.746 39.4419H123.774Z" fill="#3D3834"/>
<path d="M91.3158 162.68C90.4145 162.242 89.4643 161.913 88.4853 161.699C87.8933 161.551 86.8758 161.523 86.5798 160.904C86.1728 160.053 86.4503 158.711 86.4226 157.786C86.2006 149.221 83.0741 141.275 78.5971 134.069C78.6254 133.485 78.6965 132.904 78.8098 132.33C78.7173 129.084 75.8498 127.428 73.8056 125.365C70.8737 122.29 68.157 119.017 65.6748 115.569C65.3048 115.07 61.5123 111.111 61.6418 110.584C60.7168 111.509 44.7328 126.003 31.4221 136.798C31.4221 143.671 27.5741 148.684 29.7756 151.903C32.3841 155.724 37.6196 152.828 41.6248 151.654C42.6608 166.75 41.6248 166.195 41.1531 171.893C40.9033 174.769 40.2281 177.591 42.0226 180.162C42.0712 180.244 42.1416 180.312 42.2261 180.356C42.7953 180.33 43.3556 180.205 43.8818 179.986C43.7061 179.367 43.5026 178.747 43.3731 178.136C43.4841 178.59 46.5458 178.784 46.9343 178.821C47.7298 178.895 52.9561 178.719 51.6611 176.906C51.0691 176.083 47.7853 175.056 47.5448 174.945C51.3373 168.276 54.1123 159.544 55.5553 152.162C57.6319 152.037 59.6118 151.242 61.1978 149.896C61.6233 149.498 66.0448 144.161 66.1188 144.217C71.8908 148.102 78.0143 153.18 80.5581 159.655C82.1398 163.688 80.6783 164.502 84.1656 167.277C84.4986 167.536 85.9508 167.101 85.6733 166.565L85.2293 165.704C85.4698 166.148 88.4668 165.223 88.8646 165.085C89.6937 164.812 90.4813 164.426 91.2048 163.938C92.0373 163.336 91.8246 162.957 91.3158 162.68ZM51.8183 163.605C51.2513 164.37 50.4538 164.935 49.5428 165.214C47.6466 165.852 44.0483 165.936 42.6516 164.132C42.7089 159.926 42.5297 155.719 42.1151 151.533C46.6291 150.294 49.7648 152.643 55.1206 152.218C54.3205 156.087 53.21 159.886 51.7998 163.577L51.8183 163.605ZM64.4723 134.005C58.9223 135.392 61.2348 138.805 55.3703 142.33C53.5203 143.44 51.8923 144.235 49.7186 143.736C47.2581 143.171 45.2046 141.969 42.6238 142.764C40.3761 143.458 38.4336 145.003 36.0563 145.29C33.4293 145.595 31.8106 144.05 31.0613 141.858C31.1353 141.497 31.2093 141.136 31.2741 140.776C31.3575 141.478 31.5884 142.156 31.9519 142.763C32.3154 143.37 32.8031 143.894 33.3831 144.3C35.5291 145.697 38.1561 144.235 40.3206 143.208C43.8171 141.534 45.1398 141.765 47.9426 142.727C50.9858 143.763 51.9756 143.773 54.5378 142.274C55.5018 141.742 56.4152 141.123 57.2666 140.424C58.7281 139.138 59.2738 137.288 60.4856 135.799C62.5668 133.2 66.1373 133.366 69.0233 132.673C72.5106 131.831 74.6658 129.435 73.9998 125.8L74.5733 126.355C74.6984 127.795 74.3193 129.233 73.501 130.424C72.6826 131.616 71.4759 132.485 70.0871 132.885C68.2648 133.431 66.3316 133.505 64.4723 133.968V134.005ZM82.7041 154.475C81.4939 155.205 80.0747 155.511 78.6711 155.344C75.2991 150.839 71.1331 146.986 66.3778 143.976C67.2901 142.979 68.3702 142.149 69.5691 141.525C72.8436 139.915 76.8488 139.185 78.4583 134.541C81.3813 139.425 84.3876 145.401 85.3311 151.034C84.8761 152.448 83.9486 153.663 82.7041 154.475ZM84.6281 29.831C87.9673 26.982 92.6848 22.7178 97.3561 22.7548C92.6326 21.2694 87.5489 21.3996 82.9076 23.1248C80.1326 24.2718 72.8436 28.8598 74.9803 32.8465C76.9413 37.1848 82.7966 31.4498 84.6281 29.831ZM82.6856 23.726C87.1071 22.061 91.2881 22.5513 95.6356 22.7178C91.2696 22.949 87.6343 26.3623 84.4708 29.0448C82.8336 30.4323 77.4223 36.3523 75.3318 32.7448C73.1581 28.9153 80.0401 24.725 82.6856 23.726ZM87.2458 39.2568V39.2013C84.0453 40.6258 80.7708 43.0123 80.1788 46.6938C79.9753 47.961 80.1233 50.477 82.0288 50.0608C83.4626 49.7463 84.1193 47.887 84.6836 46.6938C85.7566 44.4183 86.7463 42.0688 87.5973 39.71H87.5326C83.3608 46.8603 83.4533 49.219 81.8531 49.6168C80.4748 49.9498 80.2158 48.0998 80.2806 47.1748C80.7986 43.4748 84.5541 41.264 87.2458 39.2568Z" fill="#3D3834"/>
</svg>
