<svg width="466" height="466" viewBox="0 0 466 466" fill="none" xmlns="http://www.w3.org/2000/svg">
<path d="M145.695 67.6459C145.572 67.6822 145.467 67.7657 145.405 67.8784C145.342 67.991 145.326 68.1238 145.361 68.248C145.361 68.694 145.562 68.5602 148.305 68.7163C150.668 68.8501 152.765 68.9616 153.79 68.9616H154.415C154.506 68.9373 154.589 68.8895 154.655 68.8229C154.722 68.7564 154.77 68.6734 154.794 68.5825C154.818 68.4927 154.818 68.3982 154.795 68.3083C154.771 68.2184 154.725 68.1361 154.66 68.0696C153.969 67.3783 145.762 67.6236 145.695 67.6459ZM142.618 54.3551C142.451 56.9913 142.451 59.6354 142.618 62.2716C142.618 62.5392 142.462 63.5204 143.176 63.5204C143.32 63.5205 143.458 63.4648 143.562 63.3651C143.666 63.2653 143.727 63.1291 143.733 62.9852C143.91 60.1112 143.91 57.2291 143.733 54.3551C143.733 54.2072 143.674 54.0654 143.57 53.9609C143.465 53.8563 143.323 53.7976 143.176 53.7976C143.028 53.7976 142.886 53.8563 142.781 53.9609C142.677 54.0654 142.618 54.2072 142.618 54.3551ZM132.65 66.5755C132.533 66.6301 132.437 66.7194 132.373 66.8312C132.309 66.9429 132.281 67.0717 132.293 67.1999C132.293 68.0696 133.274 67.9804 134.635 68.1365C135.885 68.2496 137.128 68.4282 138.359 68.6717C138.476 68.6646 138.588 68.6206 138.679 68.546C138.77 68.4713 138.835 68.3697 138.865 68.2559C138.895 68.1421 138.887 68.0218 138.845 67.9122C138.802 67.8026 138.725 67.7094 138.626 67.6459C136.711 66.945 134.689 66.5828 132.65 66.5755ZM141.57 71.2585C140.321 77.0119 140.12 78.06 140.99 78.06C141.86 78.06 141.771 77.7032 142.774 71.5707C142.774 70.7902 141.57 70.478 141.57 71.2585ZM160.28 31.9882C157.894 35.8015 161.038 41.8894 165.788 40.9082C167.139 40.737 168.387 40.0957 169.312 39.0968C170.238 38.0978 170.782 36.8049 170.85 35.4447C171.363 30.0704 163.357 27.0822 160.28 31.9882ZM161.64 37.7639C161.206 37.1156 160.925 36.3777 160.817 35.6054C160.709 34.8331 160.777 34.0463 161.016 33.3039C162.443 28.8439 169.044 30.0258 169.735 34.3297C170.203 36.9388 164.65 42.4023 161.64 37.7639ZM52.0578 89.9013C51.9331 89.9055 51.8123 89.9457 51.71 90.017C51.6076 90.0883 51.5281 90.1877 51.481 90.3032C51.4338 90.4187 51.4211 90.5454 51.4443 90.6679C51.4675 90.7905 51.5257 90.9037 51.6118 90.994C52.7714 92.2428 56.8523 99.5572 59.1938 101.72C60.2642 100.851 66.8873 89.9459 66.4859 89.3438C61.7086 90.0265 56.8735 90.2133 52.0578 89.9013ZM65.081 90.2804C63.5142 93.8016 61.4897 97.1007 59.06 100.092L53.3958 91.1724C57.3118 91.309 61.231 91.0098 65.081 90.2804ZM33.8164 284.848C33.9648 284.847 34.1078 284.792 34.2178 284.692C34.2812 284.631 34.3317 284.559 34.3662 284.478C34.4007 284.398 34.4185 284.311 34.4185 284.223C34.4185 284.136 34.4007 284.049 34.3662 283.969C34.3317 283.888 34.2812 283.816 34.2178 283.755C32.7047 282.517 30.983 281.558 29.1334 280.923C28.9548 280.936 28.7877 281.016 28.6651 281.146C28.6008 281.242 28.5665 281.354 28.5665 281.469C28.5665 281.585 28.6008 281.697 28.6651 281.793C28.6651 281.927 28.9104 282.038 30.3376 282.796C31.4377 283.307 32.4836 283.927 33.4596 284.647C33.5487 284.757 33.6763 284.829 33.8164 284.848ZM34.53 290.066C32.9029 292.312 31.5969 294.774 30.6498 297.38C30.6379 297.494 30.6643 297.609 30.7249 297.706C30.7856 297.803 30.8768 297.877 30.9843 297.916H31.185C31.265 297.914 31.3434 297.893 31.4134 297.854C31.4833 297.815 31.5427 297.76 31.5864 297.693L32.6122 295.797C33.5934 294.013 34.8422 291.56 35.4889 290.869C35.6049 290.745 35.6694 290.582 35.6694 290.412C35.6694 290.242 35.6049 290.079 35.4889 289.955C35.4419 289.86 35.3669 289.782 35.2741 289.732C35.1812 289.681 35.0751 289.661 34.9702 289.673C34.8653 289.685 34.7667 289.73 34.6879 289.8C34.6091 289.87 34.554 289.963 34.53 290.066ZM44.2305 275.839C44.3264 275.735 44.3885 275.605 44.4084 275.466C44.4283 275.326 44.4051 275.184 44.342 275.058C44.2545 274.921 44.1203 274.821 43.9644 274.776C43.8085 274.731 43.6415 274.744 43.4946 274.813C41.9591 276.468 40.7487 278.397 39.9266 280.499C39.9173 280.571 39.9228 280.645 39.9427 280.715C39.9626 280.784 39.9966 280.85 40.0425 280.906C40.0884 280.962 40.1453 281.009 40.2097 281.042C40.2741 281.076 40.3447 281.096 40.4172 281.101C40.5513 281.11 40.6839 281.069 40.7904 280.987C40.897 280.905 40.9703 280.787 40.997 280.655C41.7 279.219 42.5601 277.866 43.5615 276.619C44.0521 276.106 44.1859 275.928 44.2305 275.839ZM43.6953 287.234C43.6235 287.215 43.5487 287.21 43.4752 287.22C43.4016 287.23 43.3307 287.254 43.2665 287.292C43.2023 287.329 43.1461 287.378 43.101 287.437C43.056 287.496 43.023 287.564 43.004 287.635C42.9849 287.707 42.9802 287.782 42.9901 287.855C43 287.929 43.0242 288 43.0615 288.064C43.0988 288.128 43.1483 288.185 43.2073 288.23C43.2663 288.275 43.3336 288.308 43.4054 288.327C43.8737 288.46 50.6083 290.401 51.1212 290.401C51.2216 290.389 51.3168 290.35 51.3957 290.287C51.4747 290.224 51.5341 290.139 51.5672 290.044C51.5955 289.942 51.5914 289.833 51.5555 289.733C51.5195 289.633 51.4535 289.547 51.3665 289.486C51.032 289.241 43.7845 287.256 43.6953 287.234ZM418.893 165.164C418.829 165.083 418.748 165.019 418.655 164.977C418.562 164.934 418.46 164.914 418.358 164.918C418.269 164.918 418.182 164.943 418.107 164.991C418.032 165.038 417.972 165.106 417.934 165.186C415.704 168.709 410.976 176.782 410.486 177.629C410.372 177.705 410.287 177.816 410.243 177.945C410.199 178.074 410.198 178.214 410.24 178.343C410.266 178.459 410.331 178.562 410.425 178.636C410.518 178.709 410.635 178.747 410.753 178.744C427.768 177.161 427.211 177.34 427.411 176.849C427.612 176.358 427.88 177.429 418.893 165.164ZM425.761 176.158L411.868 177.429C413.652 174.552 416.707 169.445 418.045 167.193C418.224 166.903 418.358 166.658 418.469 166.502C422.171 171.519 424.624 174.775 425.761 176.158ZM433.544 140.946C432.465 140.116 431.155 139.643 429.795 139.594C428.435 139.545 427.094 139.922 425.958 140.671C424.823 141.421 423.95 142.507 423.461 143.777C422.972 145.047 422.892 146.438 423.232 147.755C423.572 149.073 424.314 150.252 425.356 151.127C426.398 152.002 427.687 152.53 429.044 152.637C430.401 152.745 431.757 152.426 432.923 151.725C434.09 151.024 435.008 149.977 435.551 148.729C436.01 147.377 436.064 145.92 435.708 144.538C435.351 143.156 434.599 141.907 433.544 140.946ZM425.159 149.264C424.435 148.278 424.065 147.076 424.108 145.854C424.151 144.631 424.605 143.459 425.396 142.526C426.187 141.593 427.27 140.954 428.469 140.712C429.668 140.469 430.914 140.638 432.005 141.191C433.164 141.948 434.054 143.053 434.547 144.347C435.04 145.641 435.11 147.058 434.748 148.394C434.33 149.271 433.691 150.024 432.894 150.579C432.097 151.134 431.169 151.472 430.201 151.56C429.234 151.647 428.26 151.482 427.376 151.079C426.492 150.677 425.728 150.051 425.159 149.264ZM351.591 174.753C348.179 178.298 351.814 186.17 357.545 184.565C358.685 184.217 359.69 183.53 360.428 182.595C361.165 181.66 361.6 180.522 361.672 179.333C361.745 178.145 361.453 176.962 360.835 175.944C360.217 174.926 359.303 174.122 358.214 173.638C357.126 173.136 355.912 172.973 354.731 173.172C353.549 173.371 352.455 173.922 351.591 174.753ZM360.801 178.521C360.878 179.539 360.655 180.556 360.159 181.448C359.664 182.34 358.918 183.067 358.014 183.539C352.929 186.126 349.473 179.079 351.614 175.801C352.217 174.926 353.082 174.263 354.084 173.909C355.086 173.555 356.175 173.527 357.194 173.828C358.214 174.13 359.111 174.747 359.759 175.59C360.407 176.433 360.772 177.459 360.801 178.521ZM346.864 166.613C346.752 166.792 346.864 167.059 347.109 166.992C357.144 163.826 356.765 164.004 356.743 163.692C354.959 143.131 343.697 126.295 343.207 126.473C334.688 129.261 334.576 128.993 334.777 129.417C340.392 141.243 344.454 153.746 346.864 166.613ZM343.452 127.7C354 145.54 355.182 159.455 355.472 162.755C352.617 163.67 350.588 164.316 347.778 165.364C345.336 153.086 341.295 141.181 335.758 129.952C343.697 127.209 343.207 127.276 343.452 127.7ZM241.63 186.393C252.468 187.308 299.476 188.311 304.07 188.356C311.964 188.356 320.104 186.126 321.33 178.254C321.821 175.043 323.56 151.092 323.27 147.034C322.311 132.717 317.004 122.638 292.05 119.315C277.444 117.375 238.909 116.304 226.957 124.801C220.802 129.261 221.515 138.315 221.337 145.116C221.23 153.129 221.684 161.139 222.697 169.089C224.08 181.175 227.626 185.211 241.63 186.393ZM285.427 163.357C285.402 163.426 285.356 163.485 285.296 163.526C285.237 163.568 285.166 163.59 285.093 163.59C285.02 163.59 284.949 163.568 284.889 163.526C284.829 163.485 284.784 163.426 284.758 163.357C284.702 159.863 284.881 156.369 285.293 152.899C285.293 152.631 285.829 152.587 285.896 152.899C285.975 156.392 285.819 159.886 285.427 163.357ZM282.06 139.117C283.71 139.229 290.98 139.876 291.85 140.165C292.162 140.277 292.273 140.857 291.85 140.924C291.002 140.924 283.621 140.076 281.971 139.831C281.48 139.764 281.592 139.095 282.06 139.117ZM247.584 167.282C247.609 167.214 247.655 167.155 247.715 167.114C247.775 167.072 247.846 167.05 247.919 167.05C247.991 167.05 248.063 167.072 248.122 167.114C248.182 167.155 248.228 167.214 248.253 167.282C248.496 169.504 248.556 171.741 248.432 173.972C257.82 173.972 267.141 175.689 276.53 175.556C276.663 174.039 276.797 172.567 277.02 171.096C277.02 170.605 277.89 170.739 277.868 171.096C277.868 172.723 277.622 174.329 277.444 175.935C277.444 176.059 277.395 176.178 277.307 176.266C277.219 176.354 277.1 176.403 276.976 176.403C272.114 176.403 252.802 174.797 247.986 174.887C247.857 174.881 247.736 174.828 247.645 174.737C247.554 174.646 247.5 174.524 247.495 174.396C247.346 172.026 247.376 169.648 247.584 167.282ZM238.664 159.745C238.641 159.803 238.601 159.853 238.549 159.888C238.498 159.923 238.437 159.941 238.374 159.941C238.312 159.941 238.251 159.923 238.199 159.888C238.148 159.853 238.108 159.803 238.084 159.745C237.589 156.461 237.47 153.132 237.728 149.821C237.728 149.509 238.285 149.598 238.307 149.821C238.285 151.605 238.887 158.987 238.642 159.745H238.664ZM245.354 135.906C245.421 135.936 245.477 135.985 245.517 136.046C245.556 136.107 245.578 136.179 245.578 136.252C245.578 136.325 245.556 136.396 245.517 136.458C245.477 136.519 245.421 136.567 245.354 136.597C241.8 137.695 238.18 138.566 234.516 139.207C232.376 138.381 244.841 135.817 245.31 135.906H245.354ZM394.653 418.826C394.653 419.005 395.121 419.183 395.166 419.005C396.592 414.365 399.024 410.096 402.289 406.504C405.553 402.911 409.571 400.083 414.054 398.221C416.571 397.254 419.168 396.508 421.814 395.991C426.14 395.211 400.25 395.144 394.653 418.826ZM387.427 409.304C388.963 403.68 392.508 398.815 397.39 395.63C402.273 392.445 408.154 391.161 413.92 392.022C414.121 392.022 414.165 391.687 413.92 391.643C405.223 389.702 390.416 392.646 386.959 409.148C386.87 409.304 387.383 409.46 387.427 409.304Z" fill="#3D3834"/>
<path d="M438.16 409.304C440.145 408.858 442.13 408.479 444.137 408.189C444.761 408.189 444.449 407.654 438.294 400.295C441.706 399.358 442.263 399.47 441.884 399.046C427.189 383.57 398.689 364.214 397.931 364.258C380.805 365.016 360.601 374.717 357.211 391.62C352.046 388.702 346.394 386.746 340.531 385.845C343.692 375.61 343.598 364.647 340.263 354.469C361.404 336.629 364.57 318.387 364.927 317.696C402.837 307.326 409.639 290.2 403.684 264.176C399.397 245.706 389.919 228.846 376.367 215.584C376.211 200.889 378.151 171.876 368.116 141.637C349.139 84.371 304.985 75.9193 303.78 75.7186C302.584 75.5518 301.376 75.4846 300.168 75.5179C325.545 38.0539 277.667 28.2419 264.153 43.6958C256.438 52.6158 261.544 65.3268 267.521 75.9639C260.362 77.0343 238.531 81.7619 221.694 105.222C204.01 129.975 201.892 164.116 203.252 197.633C193.641 190.764 192.548 190.14 192.704 190.943C193.128 192.794 194.733 200.086 195.246 201.825L186.862 196.585C186.661 196.451 186.46 196.585 186.482 196.875C187.218 200.666 188.066 204.412 188.869 208.181C185.531 206.904 182.13 205.802 178.677 204.88C181.264 210.344 193.039 234.584 201.713 252.401C184.855 251.487 181.487 230.102 171.787 219.241C168.4 215.395 163.942 212.646 158.985 211.347C154.027 210.048 148.794 210.258 143.956 211.949C140.188 205.906 133.542 207.891 133.096 211.949C129.394 206.486 124.176 204.613 117.642 204.189C111.787 195.533 106.477 186.522 101.742 177.206C101.716 177.159 101.677 177.122 101.629 177.098C101.581 177.074 101.528 177.065 101.475 177.072C91.373 178.945 62.3383 184.186 62.3829 184.253C63.4979 186.728 64.2561 188.557 62.762 190.943C60.8219 194.042 57.9229 190.943 57.633 190.385C51.612 180.64 91.3283 253.494 91.5513 253.472C104.931 253.115 134.992 248.365 136.285 248.053C137.131 247.904 137.925 247.543 138.594 247.004C139.262 246.465 139.784 245.765 140.109 244.97C140.434 244.175 140.552 243.311 140.453 242.458C140.354 241.605 140.04 240.791 139.541 240.092L133.453 230.035C133.818 229.43 134.132 228.796 134.39 228.139C135.638 231.93 142.284 233.558 145.384 227.671C152.074 227.671 157.225 232.889 160.124 238.62C166.123 250.551 171.787 287.546 206.106 284.803C209.004 284.662 211.862 284.075 214.58 283.064C217.546 302.13 225.151 337.877 241.831 347.734C239.021 354.647 238.731 364.704 239.601 372.108C244.886 422.952 296.042 428.215 319.658 412.248C335.112 422.796 341.334 433.767 342.226 433.433C343.965 432.719 345.66 431.916 347.422 431.203C366.711 423.621 380.872 426.921 386.513 428.705C389.073 429.641 391.562 430.759 393.962 432.05C393.981 433.057 394.32 434.031 394.929 434.833C395.538 435.635 396.387 436.222 397.351 436.51C401.811 437.737 404.777 432.764 403.283 430.244C410.129 425.784 426.542 421.324 444.694 422.662C445.564 422.55 444.85 422.038 438.16 409.304ZM443.468 407.676C428.504 409.706 405.089 418.068 398.868 431.76C403.328 416.15 422.082 405 437.714 400.54C437.714 400.496 441.595 405.29 443.535 407.676H443.468ZM386.09 367.046C389.992 366.02 393.337 365.641 397.24 364.816C424.357 384.061 422.216 382.254 440.769 398.779C433.046 400.493 425.671 403.51 418.96 407.699C408.457 413.943 400.585 420.722 397.842 432.563C387.071 415.682 370.324 402.793 357.969 392.267C361.537 379.935 369.543 371.394 386.157 367.046H386.09ZM361.56 317.361C347.265 315.667 334.042 295.463 341.289 290.601C345.472 289.722 349.563 288.453 353.509 286.81C351.815 295.552 367.179 313.704 377.192 312.255C372.116 314.304 366.909 316.01 361.604 317.361H361.56ZM276.82 297.291C273.765 298.942 269.639 295.753 273.386 288.929C276.708 282.863 286.609 275.906 288.26 283.934C287.909 283.796 287.542 283.706 287.167 283.666C286.448 283.896 285.76 284.21 285.115 284.603C274.389 290.066 277.422 296.935 276.954 297.202L276.82 297.291ZM271.825 280.789C266.963 281.481 265.402 283.778 260.675 282.217C258.516 281.481 256.628 280.114 255.256 278.292C250.194 272.873 250.216 265.425 249.502 260.318C254.264 260.423 259.027 260.282 263.774 259.894C263.371 264.269 264.238 268.667 266.272 272.561C269.238 277.69 277.89 281.637 281.101 278.626C281.12 279.217 281.248 279.8 281.48 280.343C280.278 280.914 279.122 281.577 278.024 282.328C274.91 284.76 272.582 288.057 271.334 291.806C269.076 289.074 267.019 286.182 265.179 283.153C265.647 283.153 270.732 281.458 271.869 281.102C271.922 281.113 271.978 281.104 272.024 281.074C272.07 281.045 272.103 280.999 272.114 280.945C272.126 280.892 272.116 280.837 272.087 280.791C272.058 280.745 272.012 280.712 271.958 280.7L271.825 280.789ZM302.911 204.635C302.911 206.218 303.178 207.355 303.134 208.939C295.953 211.035 243.95 227.426 242.299 228.005C261.617 217.961 281.99 210.093 303.045 204.546L302.911 204.635ZM242.946 226.756C258.709 214.035 276.818 204.534 296.243 198.792C296.243 201.022 296.711 202.918 296.756 205.192C278.254 210.72 260.289 217.908 243.08 226.667L242.946 226.756ZM254.096 259.671C254.096 259.448 245.288 229.031 244.886 228.184L308.82 211.838C309.088 219.576 310.56 266.963 310.671 271.401C310.448 271.401 280.923 278.091 280.901 278.314C279.868 278.792 278.738 279.021 277.6 278.983C274.051 278.492 270.765 276.837 268.257 274.278C266.635 272.198 265.463 269.804 264.815 267.247C264.166 264.691 264.055 262.028 264.488 259.426C264.599 259.002 264.912 259.292 254.163 259.582L254.096 259.671ZM248.789 226.645C250.26 226.132 306.434 209.05 307.973 208.627C307.973 209.563 308.307 210.098 308.263 211.035C290.2 216.008 249.636 226.422 248.856 226.556L248.789 226.645ZM243.08 228.563C242.522 229.004 241.881 229.33 241.196 229.521C240.51 229.712 239.794 229.765 239.088 229.675C238.382 229.586 237.7 229.357 237.084 229.001C236.468 228.646 235.928 228.17 235.498 227.604C235.541 227.569 235.576 227.525 235.599 227.475C235.622 227.424 235.633 227.369 235.632 227.314C235.877 227.47 238.464 228.92 239.534 229.544C240.759 229.289 241.966 228.954 243.147 228.54L243.08 228.563ZM244.329 228.295C244.596 230.525 253.382 259.515 253.449 259.694C251.796 259.563 250.133 259.638 248.499 259.917C248.9 269.149 251.309 279.34 259.916 282.685C260.92 285.718 255.568 287.792 253.026 282.685C252.067 280.678 237.193 233.045 235.609 228.34C236.161 228.967 236.842 229.467 237.606 229.805C238.37 230.143 239.198 230.312 240.033 230.299C240.869 230.287 241.691 230.093 242.444 229.731C243.197 229.37 243.863 228.85 244.396 228.206L244.329 228.295ZM287.189 283.911C287.189 283.911 295.507 287.368 296.355 287.658C292.898 287.925 283.577 299.075 290.044 307.036C288.973 306.367 278.381 299.588 277.623 297.804C275.236 291.962 284.067 285.272 287.256 283.822L287.189 283.911ZM300.748 289.063C302.08 289.537 303.454 289.888 304.851 290.111C298.339 291.984 293.701 307.148 301.729 313.147C297.788 311.455 293.979 309.473 290.334 307.215C286.186 300.391 291.872 285.026 300.815 288.973L300.748 289.063ZM306.055 290.401C309.526 291.174 313.041 291.732 316.581 292.073C309.199 294.548 307.906 311.786 316.246 317.941C311.763 316.885 307.372 315.476 303.111 313.726C295.44 307.17 298.562 290.98 306.122 290.311L306.055 290.401ZM317.071 292.118C320.317 292.43 323.579 292.542 326.839 292.452C320.416 300.569 327.686 315.287 334.822 320.372C329.053 320.21 323.312 319.508 317.673 318.276C309.824 313.058 309.043 294.259 317.138 292.029L317.071 292.118ZM327.329 292.452C331.789 292.305 336.228 291.775 340.598 290.869C333.908 296.199 345.771 315.845 360.556 317.629C352.38 319.594 343.987 320.508 335.58 320.35C320.483 305.565 326.526 293.679 327.396 292.363L327.329 292.452ZM379.132 311.474C367.871 314.329 354.803 294.794 354.022 291.114C353.77 289.686 353.717 288.23 353.866 286.788C357.74 285.27 361.273 282.996 364.258 280.098C365.418 294.66 389.524 304.048 396.102 300.748C391.799 306.97 379.266 311.363 379.199 311.385L379.132 311.474ZM397.663 298.986C396.874 299.776 395.912 300.371 394.854 300.726C389.412 302.353 367.335 294.036 364.593 279.697C367.167 276.573 368.723 272.737 369.053 268.703C374.248 280.455 399.247 284.603 404.131 274.835C405.045 286.186 402.257 293.478 397.73 298.897L397.663 298.986ZM398.533 251.866C396.303 257.865 382.923 263.663 369.543 258.133C369.142 257.954 369.053 258.489 369.231 258.579C381.786 264.377 396.147 259.627 398.778 252.736C401.307 259.427 403.021 266.397 403.885 273.497C401.544 283.019 377.326 280.99 368.963 268.413C369.452 262.754 368.331 257.072 365.73 252.022C366.867 250.751 377.014 239.869 391.799 237.683C394.416 242.204 396.69 246.915 398.6 251.777L398.533 251.866ZM391.62 237.238C386.544 237.809 381.635 239.395 377.184 241.9C372.732 244.405 368.83 247.779 365.708 251.822C364.16 248.718 362.211 245.831 359.91 243.236C360.066 242.21 360.155 241.185 360.356 240.159C362.586 229.009 373.936 219.219 380.894 221.85C384.948 226.612 388.56 231.732 391.687 237.148L391.62 237.238ZM380.225 221.07C371.305 217.569 359.664 232.555 359.664 242.969C357.695 240.81 355.571 238.798 353.309 236.948C348.403 220.044 360.155 210.344 366.689 208.181C371.623 212.002 376.178 216.288 380.292 220.981L380.225 221.07ZM345.192 231.885C345.192 232.019 350.521 235.677 352.818 237.483C350.454 244.173 334.777 244.173 335.491 225.062C336.405 200.688 355.204 194.711 361.047 197.856C362.345 198.494 363.363 199.588 363.906 200.929C364.448 202.27 364.479 203.764 363.99 205.126C363.678 204.925 359.687 202.227 357.925 201.223C354.008 203.567 350.712 206.817 348.314 210.701C346.336 213.815 345.036 217.311 344.498 220.961C343.96 224.611 344.196 228.333 345.192 231.885ZM346.195 231.573C345.972 231.439 340.442 215.517 358.237 201.959C361.158 203.899 363.544 205.616 366.31 207.757C353.554 211.86 348.314 227.024 352.818 236.39C350.715 234.645 348.503 233.036 346.195 231.573ZM261.99 58.6591C257.396 32.5012 308.976 31.4754 306.412 59.0159C305.564 68.1589 298.897 75.3395 294.236 82.7877C289.954 89.6338 288.594 90.169 285.628 90.7711C287.301 86.0658 292.452 66.977 293.879 62.1379C293.933 62.0315 293.941 61.9082 293.904 61.7953C293.866 61.6824 293.785 61.589 293.679 61.5358C293.572 61.4826 293.449 61.4738 293.336 61.5115C293.223 61.5491 293.13 61.6301 293.076 61.7365C292.653 63.1191 292.251 64.5017 291.872 65.9066C289.152 62.071 291.181 64.2118 286.877 67.5122C283.755 64.7247 283.309 63.2529 282.707 64.1003C281.773 65.4667 280.689 66.7234 279.473 67.8467C276.731 68.2927 275.37 64.5686 275.214 64.1226C275.058 63.6766 274.411 63.9888 274.501 64.2564C274.59 64.524 281.547 90.169 281.882 91.0164C275.816 90.7711 263.529 67.6014 261.99 58.6591ZM284.781 91.73C291.471 91.1056 295.485 82.6316 296.332 81.3605C300.458 83.1222 300.123 94.0938 289.263 96.9705C274.278 100.873 265.268 88.6303 272.605 83.7466C277.31 90.0129 277.957 92.3544 284.759 91.73H284.781ZM282.662 91.1056C282.662 90.1244 277.377 70.8349 276.173 67.4899C279.362 70.1659 280.767 68.4488 283.175 65.0369C283.978 65.8843 286.609 68.761 287.078 68.4042C288.367 67.4403 289.457 66.2363 290.289 64.8585L291.672 66.7094C290.802 69.8983 284.982 90.9049 284.982 90.9272C284.205 91.0291 283.423 91.0887 282.64 91.1056H282.662ZM221.85 109.057C241.251 79.0413 268.279 78.35 268.68 77.9932C269.77 79.8712 270.984 81.6741 272.315 83.3898C265.424 86.2219 269.082 102.702 289.285 98.3977C301.93 95.6994 301.35 82.2525 296.845 80.5577C297.893 78.9967 299.075 77.458 300.034 75.9193C322.646 80.1117 352.194 101.676 365.663 138.493C374.472 162.577 375.698 188.847 375.297 214.558C371.819 211.196 368.092 208.102 364.147 205.304C366.042 205.861 365.841 194.555 354.959 196.072C349.068 197.213 343.852 200.605 340.419 205.527C336.675 210.853 334.482 217.114 334.086 223.612C332.391 243.927 350.231 245.912 353.309 237.929C368.317 250.015 371.149 264.956 366.399 275.014C359.709 289.219 326.816 298.496 288.884 283.934C289.002 283.414 288.999 282.875 288.875 282.357C288.751 281.838 288.51 281.356 288.17 280.945C286.565 278.715 284.201 279.05 281.748 280.053C281.531 279.531 281.425 278.969 281.436 278.403C286.877 277.556 311.095 272.248 311.474 272.115C311.853 271.981 311.697 271.847 311.697 271.758C311.496 263.841 309.98 215.406 309.935 210.99C310.047 210.723 309.935 210.299 309.467 210.433L309.066 210.567C309.066 206.107 309.98 206.753 303.914 208.515C303.914 203.654 304.249 202.94 303.58 203.118C301.573 203.631 299.588 204.167 297.603 204.746C297.603 202.516 297.247 200.13 297.157 197.811C297.155 197.771 297.144 197.733 297.126 197.698C297.107 197.663 297.08 197.633 297.048 197.609C297.016 197.586 296.98 197.569 296.941 197.562C296.901 197.555 296.861 197.556 296.823 197.566C276.031 203.354 256.799 213.725 240.538 227.916C240.315 228.05 220.624 210.344 204.412 198.436C205.437 168.13 204.479 135.996 221.85 109.057ZM193.418 191.946C206.463 200.376 234.851 224.772 237.46 227.113L196.071 201.981C195.782 200.108 193.797 193.619 193.418 191.946ZM187.531 197.789C201.959 206.53 233.781 226.043 233.892 226.132C227.202 222.921 190.764 208.805 190.095 208.56C189.337 204.88 188.4 201.446 187.531 197.789ZM179.859 205.728C187.107 208.671 234.896 227.782 234.963 227.782C237.817 237.527 251.71 283.019 253.048 284.58C252.178 284.313 213.822 271.535 212.328 271.2C212.239 270.91 179.993 205.951 179.859 205.728ZM59.0602 192.66C61.5578 193.663 64.4568 191.077 64.1669 187.754C67.9803 195.09 92.265 241.474 93.9152 246.046C94.0713 246.447 94.1381 246.336 97.3939 245.734C97.605 246.545 97.6157 247.396 97.4251 248.212C97.2345 249.029 96.8483 249.787 96.2997 250.421C95.7512 251.055 95.0567 251.546 94.2762 251.852C93.4956 252.159 92.6523 252.271 91.8189 252.178C88.0502 243.927 61.4463 196.384 59.0602 192.66ZM136.107 247.027C134.434 247.473 101.408 252.268 94.5173 252.602C95.2224 252.402 95.8775 252.056 96.4398 251.586C97.0022 251.116 97.4592 250.532 97.7811 249.874C98.1029 249.215 98.2825 248.496 98.308 247.764C98.3335 247.031 98.2044 246.302 97.9292 245.622C98.3975 245.622 133.743 239.111 137.088 239.512C140.032 239.847 141.213 245.667 136.151 247.027H136.107ZM137.579 238.397C136.33 237.862 97.0595 244.641 94.6957 245.087C91.7298 237.126 63.8101 185.145 63.4756 184.654C73.5998 183.004 98.3306 178.232 101.118 177.741C105.701 186.824 110.87 195.6 116.594 204.011C113.026 203.832 108.41 204.144 104.173 203.676C104.09 203.676 104.011 203.709 103.952 203.767C103.894 203.826 103.861 203.905 103.861 203.988C104.262 207.913 104.262 211.882 104.686 215.807C104.686 216.075 105.244 216.119 105.288 216.119C111.621 216.276 118.178 214.135 124.422 216.298C125.826 218.996 137.222 237.795 137.623 238.397H137.579ZM125.537 216.9C126.028 217.172 126.444 217.565 126.744 218.04C127.044 218.516 127.219 219.059 127.254 219.62C126.339 218.126 125.715 217.101 125.581 216.9H125.537ZM133.029 229.276L127.521 220.156C129.751 212.819 113.049 214.915 105.578 215.205C105.199 211.436 105.11 208.515 104.731 204.68C111.242 205.304 117.888 204.189 124.176 206.263C133.542 209.363 137.891 218.751 133.074 229.276H133.029ZM145.25 224.995C143.756 231.685 137.043 232.777 134.523 227.492C135.47 225.081 135.866 222.488 135.685 219.904C135.504 217.319 134.749 214.808 133.475 212.551C133.475 212.328 135.705 207.578 139.474 208.939C144.715 210.7 146.342 220.312 145.294 224.995H145.25ZM146.454 227.069C146.127 227.046 145.799 227.046 145.473 227.069C147.257 223.122 146.097 215.919 144.046 212.172C151.405 209.898 152.23 223.523 146.499 227.069H146.454ZM147.301 227.069C151.315 225.017 152.72 213.912 146.922 211.459C151.628 210.544 155.396 210.232 156.623 214.224C158.251 219.42 155.597 227.069 150.334 227.961C149.379 227.555 148.374 227.277 147.346 227.136L147.301 227.069ZM155.708 231.529C154.369 230.183 152.817 229.068 151.115 228.228C157.47 228.228 160.035 214.536 154.794 211.102C157.974 211.464 161.056 212.433 163.87 213.956C170.293 219.799 160.994 233.714 155.753 231.529H155.708ZM156.088 231.997C160.391 234.227 170.538 222.23 165.141 214.67C168.949 217.075 172.135 220.345 174.44 224.214C174.566 224.952 174.648 225.697 174.686 226.444C174.686 234.049 166.925 238.553 159.678 236.68C158.683 234.986 157.493 233.414 156.132 231.997H156.088ZM159.834 237.015C161.64 237.749 163.608 237.996 165.54 237.732C167.472 237.468 169.301 236.702 170.844 235.511C172.388 234.319 173.592 232.744 174.336 230.942C175.081 229.14 175.34 227.174 175.087 225.24C177.116 228.563 178.811 232.086 180.662 235.52C180.602 236.487 180.475 237.448 180.283 238.397C178.611 244.864 170.56 248.811 163.09 244.396C162.25 241.841 161.175 239.37 159.879 237.015H159.834ZM163.224 244.753C170.538 250.551 180.907 244.753 181.064 236.457C182.518 239.226 184.228 241.854 186.17 244.307C186.17 258.021 172.01 259.404 165.966 252.714C164.651 248.878 164.227 247.429 163.268 244.753H163.224ZM166.279 253.249C173.861 262.816 187.843 255.278 186.772 244.909C188.444 246.931 190.397 248.703 192.57 250.171C195.67 262.637 180.417 269.751 171.095 263.418C169.24 260.159 167.644 256.759 166.323 253.249H166.279ZM171.631 264.399C182.022 271.691 196.161 261.723 193.128 250.662C195.075 251.884 197.268 252.661 199.55 252.937C203.029 269.795 189.225 278.76 181.71 276.441C177.707 272.955 174.316 268.825 171.675 264.22L171.631 264.399ZM182.357 277.088C194.667 280.187 204.077 263.105 199.996 253.115C200.657 253.171 201.321 253.171 201.981 253.115C204.746 258.779 207.155 263.708 208.849 267.142C208.84 270.533 207.942 273.862 206.244 276.797C204.545 279.732 202.107 282.169 199.171 283.867C192.962 283.537 187.049 281.107 182.402 276.976L182.357 277.088ZM199.862 283.778C202.815 282.282 205.267 279.959 206.918 277.091C208.57 274.223 209.35 270.936 209.162 267.632C211.704 272.806 210.879 271.869 213.131 272.605C213.51 275.772 213.934 278.916 214.402 282.06C209.709 283.48 204.802 284.061 199.907 283.778H199.862ZM247.361 337.81C246.411 332.598 246.548 327.246 247.763 322.089C251.13 310.448 262.592 302.844 269.795 314.708C270.553 315.979 271.289 317.294 272.025 318.632C258.511 321.264 247.562 337.521 247.361 337.81ZM274.278 337.275C250.037 360.779 264.354 389.19 270.687 395.924C267.008 392.156 245.288 361.783 274.144 336.941C274.233 336.852 274.434 337.119 274.278 337.253V337.275ZM270.91 314.329C269.451 311.394 266.933 309.122 263.863 307.973C255.612 305.743 242.991 315.488 246.469 339.193C245.8 340.197 243.013 344.969 242.389 346.351C221.092 332.659 218.015 289.576 215.183 273.274C224.103 276.24 257.263 286.788 258.222 286.654C259.078 286.527 259.852 286.072 260.38 285.386C260.908 284.7 261.15 283.835 261.054 282.975C262.24 283.325 263.476 283.476 264.711 283.421C266.782 286.589 269.015 289.648 271.401 292.586C271.096 293.694 271.201 294.874 271.697 295.911C272.193 296.947 273.046 297.77 274.099 298.228C274.643 298.461 275.243 298.534 275.827 298.439C276.411 298.345 276.957 298.086 277.4 297.693C279.094 302.153 298.272 312.299 302.978 314.306C322.038 322.329 343.239 323.727 363.188 318.276C354.914 348.314 322.825 369.075 306.947 370.391C283.688 372.286 283.666 353.019 282.662 347.02C280.786 335.494 276.802 324.412 270.91 314.329ZM288.572 380.002C285.16 375.542 283.8 369.878 287.635 365.708C291.805 370.814 297.826 372.398 304.36 371.751C308.451 371.571 312.497 370.821 316.38 369.521C316.856 372.443 316.689 375.434 315.889 378.285C310.381 390.818 295.44 388.721 288.55 380.002H288.572ZM348.782 429.218C346.551 430.057 344.414 431.126 342.404 432.407C338.613 426.921 333.64 422.885 328.823 417.957C323.471 412.515 312.5 406.45 306.523 403.707L303.624 402.101C306.568 400.919 315.622 397.307 317.941 396.236C335.781 407.699 341.244 418.068 342.203 417.957C364.682 416.083 382.945 422.171 393.917 430.556C376.88 421.681 357.546 425.583 348.693 429.24L348.782 429.218ZM389.1 426.52C368.317 412.761 343.073 417.31 342.716 416.886C335.908 408.581 327.779 401.454 318.655 395.79C318.67 395.759 318.678 395.725 318.678 395.69C318.678 395.655 318.67 395.621 318.655 395.59C315.311 393.297 311.701 391.418 307.906 389.992C314.956 387.043 322.526 385.539 330.168 385.57C337.81 385.6 345.368 387.165 352.394 390.171C354.089 390.884 355.16 391.643 356.854 392.222C356.854 392.222 368.718 402.257 374.159 407.119C382.666 414.638 390.317 423.074 396.972 432.273C394.537 430.11 391.901 428.183 389.1 426.52ZM394.631 432.095L398.399 434.191C399.649 432.931 400.967 431.74 402.346 430.623C402.443 431.131 402.439 431.653 402.334 432.16C402.228 432.666 402.025 433.147 401.734 433.574C401.443 434.002 401.07 434.368 400.638 434.652C400.206 434.936 399.721 435.131 399.213 435.228C398.705 435.325 398.183 435.32 397.677 435.215C397.17 435.11 396.69 434.906 396.262 434.615C395.834 434.324 395.468 433.952 395.185 433.519C394.901 433.087 394.705 432.603 394.608 432.095H394.631ZM398.734 433.121C399.95 430.501 401.576 428.092 403.551 425.985C410.91 418.269 426.988 411.891 437.714 409.438C439.944 413.497 441.974 417.578 444.025 421.681C429.24 419.941 406.093 423.955 398.712 433.121H398.734ZM71.682 351.19C71.6471 351.174 71.609 351.166 71.5705 351.166C71.5321 351.166 71.494 351.174 71.459 351.19C71.4434 351.222 71.4352 351.256 71.4352 351.291C71.4352 351.326 71.4434 351.36 71.459 351.391C71.4526 351.436 71.4559 351.481 71.4687 351.524C71.4815 351.568 71.5034 351.607 71.5331 351.641C71.5627 351.675 71.5994 351.702 71.6405 351.721C71.6816 351.739 71.7262 351.748 71.7713 351.748L79.041 352.016C90.191 352.462 109.101 353.175 111.51 353.175C111.57 353.158 111.624 353.121 111.662 353.071C111.7 353.021 111.72 352.959 111.72 352.896C111.72 352.833 111.7 352.772 111.662 352.722C111.624 352.672 111.57 352.635 111.51 352.618C108.432 352.395 95.8999 351.904 73.8897 351.146L71.682 351.19ZM99.2003 346.73L107.897 346.976C107.937 346.979 107.977 346.974 108.015 346.96C108.053 346.947 108.087 346.926 108.117 346.899C108.146 346.872 108.17 346.839 108.185 346.802C108.201 346.766 108.21 346.726 108.209 346.686C108.212 346.645 108.207 346.604 108.194 346.565C108.181 346.526 108.161 346.489 108.134 346.458C108.107 346.427 108.074 346.402 108.037 346.383C108.001 346.365 107.961 346.354 107.92 346.351C98.9996 345.638 80.1783 345.214 68.8722 344.946H67.9802C63.5202 344.946 60.1752 344.768 59.0602 344.701C59.0049 344.699 58.9498 344.711 58.8995 344.734C58.8492 344.757 58.805 344.792 58.7703 344.835C58.743 344.886 58.7287 344.944 58.7287 345.002C58.7287 345.061 58.743 345.118 58.7703 345.169C58.7964 345.219 58.8345 345.262 58.8813 345.293C58.9281 345.324 58.9819 345.343 59.0379 345.348C68.2032 345.838 87.5374 346.329 99.2003 346.73Z" fill="#3D3834"/>
<path d="M205.437 368.562C216.386 359.999 213.331 350.008 206.842 348.135C210.098 345.905 210.499 345.727 210.142 345.192C210.083 345.103 209.993 345.041 209.89 345.016C209.787 344.991 209.678 345.006 209.585 345.058C200.464 345.972 197.654 334.265 206.441 327.106C206.466 327.081 206.485 327.052 206.499 327.019C206.512 326.987 206.519 326.952 206.519 326.917C206.519 326.882 206.512 326.847 206.499 326.814C206.485 326.782 206.466 326.752 206.441 326.727C206.468 326.655 206.468 326.576 206.441 326.504C206.395 326.45 206.335 326.411 206.268 326.391C206.201 326.371 206.129 326.372 206.062 326.393L186.46 325.166C188.043 324.23 188.489 324.163 188.556 323.449C188.623 322.735 185.412 321.108 187.017 316.135C187.616 314.024 188.486 312.001 189.604 310.114C195.67 307.036 195.491 306.969 195.402 306.635C195.355 306.468 195.267 306.316 195.146 306.191C195.026 306.066 194.876 305.974 194.711 305.921C178.945 304.806 125.782 302.286 125.581 302.442C89.9009 317.183 53.7972 334.8 51.9909 336.316C47.8431 339.706 47.0626 346.44 47.1072 348.826C23.38 367.068 23.2016 367.335 22.1535 369.365C21.3675 370.933 21.1446 372.724 21.5221 374.438C21.8997 376.151 22.8548 377.683 24.2274 378.775C29.8024 382.901 36.0018 378.575 41.3538 384.663C42.3095 385.708 43.0085 386.962 43.3956 388.324C43.7827 389.687 43.8471 391.12 43.5838 392.512C34.4408 397.128 28.2414 398.199 29.6686 399.202C39.7482 403.015 36.8938 413.831 28.1745 416.306C28.0869 416.327 28.0089 416.377 27.9531 416.448C27.8974 416.519 27.867 416.606 27.867 416.697C27.867 416.787 27.8974 416.874 27.9531 416.945C28.0089 417.016 28.0869 417.066 28.1745 417.087C28.5313 417.087 130.754 425.07 138.805 425.806C141.66 426.165 144.56 425.829 147.256 424.825C148.84 424.156 198.658 391.375 201.468 389.457C205.928 386.447 210.388 382.589 211.213 376.924C211.614 373.646 209.853 370.301 205.437 368.562ZM31.8986 399.291C32.1216 399.291 145.205 408.211 145.629 408.39C146.459 408.554 147.245 408.892 147.936 409.38C148.628 409.867 149.209 410.495 149.643 411.222C152.096 416.373 149.085 423.375 140.723 424.914C138.336 424.78 44.4312 417.444 30.07 416.395C37.7635 412.805 39.6813 403.774 31.8986 399.291ZM38.3656 381.295C125.715 387.472 138.292 387.985 138.716 387.985C140.648 388.495 142.39 389.557 143.727 391.043C145.064 392.529 145.938 394.373 146.241 396.348C146.544 398.324 146.263 400.345 145.434 402.163C144.604 403.982 143.261 405.518 141.57 406.583C138.493 406.36 52.2139 399.893 39.9935 398.935C45.9699 395.5 46.3936 385.555 38.3656 381.295ZM187.285 323.315C185.389 324.43 130.42 357.011 128.725 357.88C125.068 358.081 121.232 354.045 122.503 347.979C124.31 339.349 126.963 340.219 188.489 310.448C186.036 314.641 183.427 320.439 187.285 323.248V323.315ZM129.907 337.61H129.773C61.4684 337.61 55.9157 335.669 51.032 338.546C53.262 335.491 52.9052 336.316 94.0933 317.696C110.618 310.203 123.418 304.316 125.313 303.535C142.462 304.985 185.679 306.479 193.395 306.88C187.129 309.935 132.851 335.959 129.907 337.543V337.61ZM80.1112 338.412C94.6285 338.814 112.669 339.304 128.413 338.725C121.522 342.315 117.954 353.688 125.559 358.326C62.8287 356.832 52.9052 360.779 48.9804 353.576C48.0156 351.701 47.613 349.587 47.8208 347.488C49.471 336.584 51.0989 337.587 80.1112 338.345V338.412ZM56.4509 358.482C56.9861 358.75 125.581 359.419 128.413 359.419C128.703 359.419 163.446 338.702 184.921 325.969C186.638 326.17 201.022 326.928 204.835 327.062C198.39 331.276 144.848 365.306 140.343 369.276C121.857 367.96 31.6087 366.064 31.3634 366.064C28.8378 365.897 26.3131 366.405 24.049 367.536C25.5877 365.997 40.3949 354.714 46.9065 349.696C47.4863 355.65 52.37 359.174 56.4509 358.505V358.482ZM207.868 346.173C200.91 350.633 146.03 385.711 143.465 387.316C139.831 385.911 137.221 384.261 136.775 379.355C135.839 369.253 143.309 369.03 204.01 328.422C197.119 335.58 200.553 345.883 207.868 346.195V346.173ZM145.026 404.71C148.795 399.47 147.636 391.018 141.414 387.985C143.644 387.985 140.21 390.929 173.615 369.209C187.196 360.623 203.765 350.142 205.905 348.67C207.182 348.969 208.359 349.595 209.321 350.487C210.283 351.378 210.996 352.504 211.391 353.755C214.201 362.296 204.144 368.629 196.673 373.713C184.408 382.12 153.523 400.094 145.026 404.71ZM140.41 387.071C78.3941 382.968 29.624 379.935 27.6393 379.444C26.5295 379.277 25.4773 378.841 24.5735 378.176C23.6698 377.51 22.9416 376.635 22.452 375.625C21.9624 374.615 21.7261 373.501 21.7634 372.379C21.8008 371.257 22.1107 370.162 22.6664 369.186C23.4915 369.432 22.6664 366.956 31.3634 366.823C35.5335 366.823 128.435 369.409 139.652 369.833C133.832 375.988 135.214 383.994 140.41 387.16V387.071ZM38.0311 398.734C35.5781 398.578 33.5711 398.489 31.6756 398.399C34.5746 397.351 40.5956 394.831 43.004 393.583C42.0437 395.879 40.2743 397.744 38.0311 398.823V398.734ZM143.532 406.717C164.462 395.274 184.789 382.762 204.434 369.231C205.749 369.967 209.763 372.398 210.12 374.851C210.633 378.352 208.002 381.987 206.842 383.391C205.214 385.376 151.806 420.833 148.572 422.885C147.395 423.626 146.097 424.154 144.737 424.446C152.921 421.123 155.061 408.568 143.532 406.806V406.717Z" fill="#3D3834"/>
</svg>
