<svg width="466" height="466" viewBox="0 0 466 466" fill="none" xmlns="http://www.w3.org/2000/svg">
<path d="M249.792 280.075C249.209 273.119 248.993 266.137 249.146 259.158C249.146 258.578 248.298 258.422 248.231 259.158C247.503 266.153 247.577 273.209 248.454 280.187C248.469 280.364 248.554 280.529 248.69 280.644C248.826 280.759 249.002 280.815 249.179 280.8C249.357 280.785 249.521 280.701 249.636 280.565C249.751 280.429 249.807 280.253 249.792 280.075ZM239.69 277.466C239.731 277.557 239.797 277.634 239.88 277.688C239.963 277.741 240.06 277.77 240.159 277.77C240.258 277.77 240.355 277.741 240.438 277.688C240.521 277.634 240.587 277.557 240.627 277.466C240.315 270.442 240.025 263.395 239.713 256.348C239.713 256.23 239.666 256.117 239.582 256.033C239.498 255.949 239.385 255.902 239.267 255.902C239.148 255.902 239.035 255.949 238.951 256.033C238.868 256.117 238.821 256.23 238.821 256.348C238.523 261.669 238.583 267.003 238.999 272.315C239.014 274.054 239.246 275.785 239.69 277.466ZM298.139 278.358C298.357 281.803 297.972 285.26 297.001 288.572C297.001 289.085 298.496 291.917 299.432 283.777C300.019 278.28 298.873 272.736 296.154 267.922C295.864 267.387 295.106 267.922 295.351 268.39C296.895 271.51 297.84 274.891 298.139 278.358ZM271.111 117.152C271.096 118.83 271.663 120.461 272.717 121.768C274.055 122.972 276.129 118.289 282.35 117.553V111.532C278.009 111.85 273.97 113.87 271.111 117.152ZM329.738 278.225C329.738 273.631 329.336 269.059 329.247 264.465C329.247 263.841 328.288 263.975 328.288 264.599C328.288 269.349 328.288 274.144 328.489 278.916C328.578 282.06 329.805 280.901 329.738 278.225ZM286.52 111.421L286.654 117.442C294.348 117.709 296.578 123.507 297.403 121.701C297.76 120.876 299.209 116.75 298.429 116.037C295.155 113.097 290.92 111.456 286.52 111.421ZM126.473 75.2277C125.314 75.8521 126.473 78.595 127.388 77.9929C128.302 77.3908 127.744 74.4918 126.473 75.2277ZM125.002 68.5154C123.441 68.6715 123.396 70.2771 125.002 70.4778C126.165 70.568 127.293 70.9186 128.302 71.5036C128.904 71.905 129.551 71.1022 129.194 70.5447C128.735 69.8685 128.105 69.325 127.369 68.9688C126.634 68.6126 125.817 68.4562 125.002 68.5154ZM121.01 76.365C121.607 77.9303 122.076 79.5411 122.415 81.1818C122.794 83.0996 122.772 83.6125 122.682 83.724C122.322 83.7356 121.964 83.7804 121.612 83.8578C120.965 84.0808 120.965 84.9059 121.969 85.3742C122.241 85.5117 122.548 85.564 122.851 85.5243C123.153 85.4845 123.436 85.3545 123.664 85.1512C124.823 84.0362 124.333 80.8919 122.236 75.8075C122.162 75.6449 122.027 75.5182 121.86 75.4555C121.692 75.3928 121.507 75.3991 121.344 75.473C121.182 75.5469 121.055 75.6824 120.992 75.8497C120.93 76.017 120.936 76.2024 121.01 76.365Z" fill="#3D3834"/>
<path d="M444.226 344.991H412.582C415.503 329.381 398.154 318.387 387.361 324.14C386.253 318.731 383.207 313.913 378.797 310.591C374.387 307.269 368.915 305.672 363.411 306.1C362.823 302.268 361.374 298.619 359.173 295.429C356.971 292.238 354.074 289.588 350.7 287.68C349.652 275.192 350.12 262.481 350.142 250.149C352.038 250.283 356.587 250.706 355.851 248.9C353.621 243.37 349.808 234.137 346.931 228.83C348.091 228.83 349.406 228.83 349.406 227.648C349.763 206.24 350.454 161.328 350.454 161.328C350.811 134.746 351.703 104.195 333.038 82.3191C332.458 81.6278 331.655 81.3825 331.143 82.0961C323.549 92.8463 318.557 105.213 316.558 118.222C315.8 105.511 314.797 91.1499 312.834 76.9448C309.489 52.8385 301.417 36.6487 288.304 27.0374C287.055 26.1231 285.227 24.6513 284.402 25.2311C263.93 39.7261 257.909 65.0143 256.482 83.6794C255.969 91.6182 255.813 99.6685 256.014 107.652C253.271 97.4162 243.86 77.4354 240.404 82.2522C224.303 105.31 225.664 135.103 227.024 161.395C229.254 211.481 229.923 224.392 230.213 227.76C230.213 228.852 230.213 229.588 233.29 229.254C226.801 246.447 225.463 249.324 226.043 249.814C226.622 250.305 228.919 250.149 230.034 250.082C229.878 257.597 231.662 294.124 231.417 296.065C229.798 298.036 228.496 300.248 227.559 302.621C223.758 303.655 220.23 305.511 217.224 308.058C214.219 310.605 211.809 313.781 210.165 317.361C207.198 317.071 204.208 317.563 201.49 318.788C198.814 289.107 193.329 244.239 186.616 214.357C198.101 215.851 203.587 210.7 206.24 206.24C212.93 194.577 208.47 175.199 200.175 164.472C193.153 149.535 182.856 136.371 170.047 125.96C171.408 123.373 167.817 111.621 158.697 106.782C154.794 104.708 149.598 104.552 147.212 102.322C142.105 97.327 145.54 84.0362 134.903 80.5574C134.215 75.0611 133.073 69.6312 131.491 64.323C144.871 58.5696 144.179 43.0042 136.285 38.5888C128.926 34.4856 124.868 40.3059 120.028 41.9338C113.338 44.1638 107.652 39.347 98.8658 39.347C82.2969 39.347 78.3721 56.0274 77.5024 56.8525C76.6327 57.6776 76.2982 62.3829 68.9169 65.2819C61.0673 68.337 51.0769 68.5154 46.8176 77.7476C43.205 85.8202 50.1403 95.6768 45.3681 103.147C42.5806 107.607 32.5679 107.875 25.2981 119.538C17.5154 131.959 20.1245 148.818 30.8508 155.82C21.6186 176.559 22.0423 198.614 31.9435 213.465C40.9973 227.001 55.7599 232.086 71.7936 231.662C70.9908 269.438 71.3253 307.103 69.3183 345.125C62.0708 345.125 54.801 345.281 47.6873 345.414C47.4862 345.414 47.2933 345.494 47.1512 345.637C47.009 345.779 46.9291 345.972 46.9291 346.173C46.9291 346.374 47.009 346.567 47.1512 346.709C47.2933 346.851 47.4862 346.931 47.6873 346.931C54.0428 347.065 61.5579 347.199 69.1845 347.199C67.958 369.342 66.3078 391.798 64.2785 413.809C64.0778 416.039 69.296 415.905 71.5037 416.039C70.8939 419.136 70.6618 422.296 70.8124 425.449C69.1176 426.943 66.6423 437.157 66.7761 439.052C66.7761 439.454 66.9545 439.699 67.2221 439.744C69.6751 440.145 106.738 441.973 108.455 439.944C108.498 439.866 108.52 439.777 108.52 439.688C108.52 439.598 108.498 439.51 108.455 439.431C105.979 432.741 97.3048 427.099 90.2134 425.271L92.1312 416.73C93.603 416.73 96.5912 416.953 97.0149 416.172C106.983 393.694 116.059 370.48 123.976 347.221H156.4C162.577 367.048 168.029 387.094 172.746 407.319C174.641 415.481 173.325 415.035 178.588 415.28C178.564 418.46 178.946 421.63 179.726 424.713C178.015 428.738 176.983 433.018 176.67 437.38C176.627 437.454 176.605 437.539 176.605 437.625C176.605 437.711 176.627 437.796 176.67 437.87C178.075 439.654 218.104 441.148 220.847 439.52C223.077 438.093 210.856 426.252 200.019 424.067C200.175 421.219 200.108 418.363 199.818 415.526C201.713 415.526 206.084 416.039 206.084 414.165C206.084 393.114 205.371 370.569 203.854 347.265H444.293C444.594 347.257 444.88 347.128 445.087 346.909C445.294 346.689 445.406 346.396 445.397 346.095C445.388 345.793 445.259 345.507 445.04 345.3C444.82 345.093 444.528 344.982 444.226 344.991ZM142.172 305.208C147.725 320.483 150.691 329.983 155.708 345.191H124.645C130.063 329.158 137.556 305.051 142.485 284.781C144.157 278.091 147.524 280.923 146.298 286.364C144.871 293.076 142.105 305.051 142.172 305.208ZM198.435 424.29C194.622 426.029 185.055 425.917 181.331 424.847C181.086 421.658 180.439 418.469 180.395 415.28L197.922 415.481C198.078 418.425 198.257 421.346 198.435 424.29ZM73.5553 231.64C92.2873 230.703 114.565 222.14 133.208 208.693C133.609 208.403 133.966 208.336 134.077 207.957C134.189 207.578 134.077 207.266 133.408 206.307C138.645 203.855 144.144 202.007 149.799 200.799C152.029 200.398 158.563 199.149 159.745 195.603L164.606 195.469C169.289 205.17 176.737 211.904 185.078 214.001L189.538 240.515C152.698 253.204 119.07 255.902 73.6891 249.725C73.8452 243.726 73.8675 237.639 73.6222 231.64H73.5553ZM132.004 95.7214C128.882 103.816 122.37 104.151 123.418 106.069V106.76C123.842 110.306 124.667 117.598 118.958 122.749C109.324 118.913 103.348 114.498 98.8881 108.076C99.8247 106.448 98.8881 99.334 98.8881 99.2671C97.5055 91.9973 91.1723 90.5255 92.5995 83.947C92.8002 82.9881 93.0901 82.4306 93.4692 82.2522C94.718 81.6947 97.9292 85.9986 98.5982 81.0034C99.6463 73.8674 101.653 68.3593 108.722 66.3523C115.279 64.5014 121.612 67.668 130.086 64.7467C132.004 72.6855 135.304 87.0467 132.004 95.7214ZM119.293 124.711C123.15 123.752 126.451 114.275 125.648 108.968C131.666 109.818 137.594 111.221 143.354 113.16C164.316 120.63 182.513 136.597 194.8 158.273C186.416 150.245 175.444 145.718 165.52 146.342C162.357 141.157 158.721 136.275 154.66 131.758C154.6 131.691 154.526 131.638 154.443 131.601C154.361 131.564 154.271 131.545 154.181 131.545C154.091 131.545 154.001 131.564 153.919 131.601C153.836 131.638 153.762 131.691 153.701 131.758C153.637 131.821 153.587 131.895 153.552 131.977C153.517 132.06 153.499 132.148 153.499 132.238C153.499 132.327 153.517 132.416 153.552 132.498C153.587 132.58 153.637 132.655 153.701 132.717C157.264 137.148 160.549 141.795 163.536 146.632C160.58 147.078 157.731 148.061 155.129 149.531C154.707 149.573 154.29 149.647 153.88 149.754C152.655 150.031 151.409 150.203 150.156 150.267C144.938 150.267 144.737 148.037 142.864 148.282C139.14 148.662 140.232 156.021 148.795 157.582C147.257 161.885 146.565 171.363 149.442 175.422C146.008 175.422 143.8 174.708 143.666 178.209C143.622 178.84 143.622 179.474 143.666 180.105C142.561 179.393 141.309 178.939 140.005 178.777C138.7 178.615 137.375 178.749 136.129 179.168C133.788 180.06 129.328 184.721 127.075 186.661C127.075 185.724 127.075 184.297 126.25 184.208C112.09 183.026 90.5702 182.691 77.6808 183.048C76.9741 173.95 77.0935 164.807 78.0376 155.731C78.076 155.544 78.0389 155.35 77.9343 155.192C77.8298 155.033 77.6664 154.922 77.4801 154.883C77.2938 154.845 77.0998 154.882 76.9409 154.987C76.782 155.091 76.6711 155.254 76.6327 155.441C75.9191 159.455 74.5365 175.823 75.986 183.115L57.7223 184.319C57.5874 184.332 57.4596 184.385 57.3557 184.472C57.2519 184.559 57.1769 184.676 57.1406 184.806C57.1044 184.937 57.1086 185.075 57.1527 185.203C57.1968 185.331 57.2788 185.443 57.3878 185.523C57.4506 185.58 57.5254 185.621 57.6065 185.644C57.6877 185.667 57.773 185.672 57.8561 185.657C80.3707 184.278 102.953 184.427 125.447 186.103C125.551 193.638 127.819 200.984 131.981 207.266C102.233 228.696 53.2846 242.701 33.3038 212.328C18.9203 190.63 26.0563 152.72 52.7271 129.573C65.4663 118.65 80.9658 111.445 97.5278 108.745C101.564 116.438 116.371 125.38 119.27 124.667L119.293 124.711ZM152.341 151.739C151.205 152.939 150.251 154.299 149.509 155.775C145.339 155.151 142.975 152.965 142.574 151.159C142.262 149.91 142.997 149.397 144.536 150.446C146.957 151.627 149.669 152.076 152.341 151.739ZM163.179 164.026C163.066 164.156 162.999 164.32 162.989 164.492C162.978 164.664 163.025 164.834 163.122 164.977C163.219 165.119 163.36 165.226 163.523 165.28C163.687 165.334 163.864 165.332 164.026 165.275C165.833 164.561 166.68 164.718 166.814 165.052C166.948 165.387 166.234 167.037 164.785 167.75C163.848 168.219 162.042 168.642 160.659 166.122C159.522 164.071 161.462 161.819 160.659 161.35C159.856 160.882 157.582 164.338 159.522 167.371C159.121 167.665 158.642 167.833 158.145 167.852C157.648 167.872 157.157 167.744 156.734 167.483C155.753 166.725 155.084 164.606 156.221 160.793C156.645 159.321 154.147 158.942 153.835 165.253C153.701 166.122 152.743 171.474 152.453 173.281C152.163 175.087 151.761 175.221 151.717 175.243C151.672 175.265 151.471 175.243 151.293 174.998C149.71 173.214 147.814 164.138 150.847 157.158C151.79 154.804 153.401 152.777 155.481 151.327C157.561 149.877 160.02 149.067 162.555 148.996C164.045 148.968 165.521 149.3 166.856 149.964C168.19 150.628 169.345 151.606 170.221 152.812C171.097 154.019 171.668 155.419 171.887 156.894C172.105 158.369 171.963 159.875 171.475 161.283C171.234 162.033 170.826 162.718 170.281 163.286C169.737 163.854 169.069 164.29 168.33 164.561C168.076 164.126 167.722 163.757 167.298 163.484C166.874 163.21 166.392 163.041 165.89 162.989C165.389 162.937 164.882 163.003 164.411 163.184C163.94 163.364 163.518 163.653 163.179 164.026ZM146.766 182.914C146.493 182.146 145.966 181.493 145.272 181.063L145.54 177.451H156.11C156.11 178.655 156.444 182.201 156.444 182.201C153.206 182.215 149.972 182.453 146.766 182.914ZM153.679 175.444C154.268 173.007 154.693 170.534 154.95 168.04C155.675 168.83 156.66 169.332 157.725 169.455C158.789 169.578 159.863 169.313 160.748 168.709L161.105 168.955C160.151 173.308 160.03 177.802 160.748 182.201H158.518C158.579 180.09 158.346 177.981 157.827 175.934C157.18 175.355 154.66 175.444 153.679 175.444ZM136.508 180.84C138.003 180.467 139.57 180.495 141.05 180.922C142.53 181.349 143.871 182.159 144.938 183.271C145.339 183.94 145.272 184.163 145.25 184.23C145.227 184.297 143.912 184.475 143.02 184.431C141.702 184.218 140.351 184.404 139.14 184.966C137.301 186.441 136.096 188.563 135.772 190.898C135.438 196.584 151.873 195.871 157.492 195.692C153.345 199.929 140.99 198.97 132.628 204.813C129.706 199.772 127.846 194.187 127.164 188.4C128.636 187.731 134.144 181.866 136.508 180.84ZM206.24 202.048C201.423 216.119 186.326 212.506 185.702 212.35C175.176 209.697 169.088 199.885 166.792 195.335C169.289 194.756 168.576 192.303 168.33 189.939L187.776 189.493C189.337 192.459 193.039 191.478 192.86 188.512C192.883 187.866 192.679 187.233 192.285 186.722C191.89 186.211 191.328 185.855 190.698 185.715C190.068 185.574 189.408 185.659 188.834 185.954C188.259 186.249 187.806 186.736 187.553 187.33C184.765 187.084 171.051 187.464 168.174 187.776C167.84 181.799 168.174 182.223 162.666 182.245C162.153 178.054 162.153 173.815 162.666 169.624C163.834 169.841 165.042 169.641 166.078 169.058C167.113 168.475 167.911 167.547 168.33 166.435C172.032 165.966 175.756 159.544 172.478 152.676C171.864 151.523 171.019 150.509 169.994 149.699C168.969 148.89 167.788 148.301 166.524 147.97C183.539 147.524 198.948 161.239 205.103 177.562C205.616 177.339 205.415 177.562 205.103 177.562C208.271 185.354 208.673 193.996 206.24 202.048ZM90.2803 416.685C89.5712 419.494 89.0497 422.348 88.7193 425.226C83.2951 425.787 77.8308 425.847 72.3957 425.405C72.7525 422.305 73.087 419.227 73.4215 416.128L90.2803 416.685ZM387.539 325.456C392.401 321.464 413.898 326.549 410.687 345.058H203.72L201.78 320.349C213.086 316.424 221.382 322.401 224.303 329.671C224.816 331.031 227.693 329.871 223.211 324.274C220.362 320.754 216.34 318.379 211.882 317.584C222.675 296.8 253.226 300.123 259.158 322.468C259.47 323.65 261.232 323.07 260.92 321.888C259.131 315.298 254.923 309.626 249.137 306.001C243.35 302.376 236.41 301.066 229.7 302.331C231.591 298.53 234.389 295.253 237.847 292.79C241.304 290.327 245.316 288.753 249.526 288.209C253.737 287.664 258.016 288.166 261.987 289.668C265.958 291.17 269.497 293.628 272.293 296.823C274.344 299.053 281.213 312.121 283.443 313.659C281.61 316.803 280.462 320.299 280.076 323.917C277.319 324.927 274.812 326.52 272.726 328.587C270.64 330.653 269.025 333.145 267.989 335.892C267.915 336.061 267.911 336.252 267.978 336.423C268.045 336.595 268.177 336.733 268.346 336.807C268.514 336.881 268.705 336.885 268.877 336.818C269.048 336.751 269.186 336.618 269.26 336.45C270.609 333.325 272.75 330.605 275.471 328.559C278.192 326.514 281.399 325.213 284.776 324.785C288.153 324.357 291.583 324.817 294.728 326.12C297.873 327.423 300.624 329.523 302.71 332.213C302.858 332.42 303.082 332.56 303.333 332.601C303.584 332.643 303.841 332.584 304.048 332.436C304.255 332.288 304.395 332.064 304.437 331.813C304.479 331.562 304.419 331.305 304.271 331.098C301.702 327.696 298.172 325.143 294.138 323.768C290.103 322.392 285.748 322.258 281.637 323.382C282.292 319.831 283.659 316.45 285.656 313.441C287.653 310.433 290.237 307.86 293.255 305.877C296.903 303.538 301.086 302.164 305.411 301.885C309.736 301.605 314.061 302.43 317.98 304.28C321.899 306.13 325.283 308.946 327.816 312.463C330.349 315.979 331.946 320.082 332.458 324.386C332.507 324.608 332.634 324.805 332.817 324.94C333 325.075 333.226 325.139 333.452 325.12C333.679 325.101 333.891 325 334.048 324.836C334.206 324.672 334.299 324.457 334.309 324.229C333.718 319.321 331.819 314.661 328.81 310.738C325.801 306.815 321.793 303.773 317.205 301.929C318.693 298.003 321.164 294.524 324.381 291.826C327.599 289.128 331.455 287.301 335.58 286.52C348.603 284.513 359.776 294.526 361.426 306.323C358.014 306.887 354.775 308.218 351.951 310.215C349.128 312.212 346.794 314.823 345.125 317.852C344.723 318.61 345.95 319.279 346.373 318.543C348.809 314.427 352.528 311.225 356.959 309.429C361.391 307.632 366.29 307.34 370.903 308.597C375.343 310.011 379.205 312.823 381.914 316.613C384.623 320.403 386.033 324.968 385.934 329.626C385.934 330.228 386.737 330.986 387.339 330.563C387.584 330.407 388.297 329.894 387.562 325.456H387.539ZM258.534 84.8836C273.832 82.2076 289.754 81.7393 311.719 83.3672C315.243 113.673 315.756 142.217 316.313 172.701C312.031 163.246 307.683 149.442 307.75 139.92C307.729 128.843 305.036 117.935 299.9 108.12C293.79 96.4573 285.517 88.2063 276.508 97.8845C264.02 111.264 264.912 127.41 265.157 145.317C264.33 153.28 262.617 161.126 260.05 168.709C259.27 131.535 257.107 104.151 258.534 84.8836ZM347.912 227.024C346.272 226.767 344.602 226.767 342.962 227.024L343.185 209.451C343.25 209.053 343.224 208.646 343.108 208.259C342.992 207.873 342.789 207.518 342.516 207.221C337.409 202.94 323.115 189.158 318.387 176.871C318.387 163.937 318.186 150.825 317.673 137.891C328.979 137.556 339.55 137.69 348.447 137.891C349.339 159.633 347.667 197.632 347.912 227.024ZM258.846 286.676C254.331 285.673 249.636 285.825 245.196 287.119C240.756 288.414 236.715 290.808 233.446 294.08C233.29 289.285 232.309 259.493 231.974 250.127L257.307 249.636C257.24 254.163 258.422 282.305 258.846 286.676ZM308.218 155.307C312.299 172.188 319.613 190.229 341.244 208.582C341.244 214.603 340.553 229.834 340.955 235.632C340.509 235.632 307.683 235.855 305.275 236.055C307.769 209.216 308.752 182.257 308.218 155.307ZM265.647 155.641C267.142 182.959 269.884 210.143 273.832 236.546C268.368 236.412 242.745 235.632 239.021 235.81C239.021 232.153 238.107 211.102 238.018 209.05C252.221 194.31 261.822 175.751 265.647 155.641ZM258.957 249.591C260.563 249.591 264.109 249.97 263.908 248.387C262.906 244.9 261.538 241.529 259.827 238.33L274.055 238.531C274.389 240.582 274.701 242.634 275.013 244.685C272.917 246.915 268.68 259.849 268.1 262.191C268.056 262.347 268.049 262.511 268.08 262.669C268.111 262.828 268.179 262.978 268.279 263.105C268.814 263.774 270.219 263.863 271.713 263.863C265.224 274.144 268.747 286.855 271.222 293.121C268.136 290.415 264.522 288.38 260.608 287.145C261.121 283.064 259.247 253.338 258.98 249.591H258.957ZM270.375 273.765C270.847 270.322 271.967 267 273.675 263.975C283.962 264.387 294.263 264.276 304.539 263.64C305.765 268.479 316.937 281.168 303.067 300.235C299.303 300.745 295.688 302.041 292.457 304.039C289.226 306.036 286.451 308.691 284.313 311.831C276.418 299.9 268.368 288.126 270.397 273.765H270.375ZM306.256 179.614C305.921 202.092 304.539 221.783 302.888 243.325L276.641 244.016C271.691 209.741 269.572 185.211 267.721 157.046C267.208 149.063 266.696 140.79 266.874 132.695C267.164 118.802 269.996 108.901 275.794 101.475C284 91.0161 290.646 95.6768 297.157 107.25C300.897 113.931 303.469 121.201 304.762 128.748C306.769 140.121 306.367 173.125 306.278 179.614H306.256ZM315.622 301.35C312.414 300.31 309.045 299.857 305.676 300.012C309.428 294.71 311.518 288.413 311.681 281.921C311.844 275.428 310.072 269.034 306.59 263.551C308.04 263.551 311.898 263.551 311.452 262.191C310.693 259.649 308.553 254.364 306.836 250.104C305.721 247.294 304.606 244.864 304.606 244.217C304.739 243.035 305.275 237.772 305.275 237.772C307.348 238.107 317.272 237.772 320.639 237.772C317.807 246.692 318.186 245.577 317.584 247.116C317.138 248.298 316.915 248.878 317.205 249.346C317.495 249.814 318.677 249.792 321.665 249.859C321.665 262.726 322.758 277.6 323.315 290.423C319.702 293.196 317.025 297.009 315.644 301.35H315.622ZM323.092 249.837L348.492 250.082C347.683 262.224 347.728 274.407 348.626 286.542C344.798 284.864 340.6 284.205 336.442 284.631C332.284 285.057 328.307 286.553 324.899 288.973C324.43 275.928 324.074 262.525 323.115 249.837H323.092ZM258.645 83.2111C260.184 65.1704 266.116 41.0195 285.405 27.1489C303.959 39.8822 309.021 61.6247 311.474 81.3156C295.663 80.156 273.408 80.3121 258.668 83.2111H258.645ZM228.54 140.812C233.736 140.812 253.07 140.544 257.53 140.522C257.932 151.226 258.341 161.945 258.757 172.679C254.631 183.383 245.377 199.84 236.702 207.913C236.256 210.143 236.836 224.504 236.947 227.091C235.319 227.247 233.692 227.403 232.175 227.626C231.283 197.61 228.54 158.83 228.54 140.812Z" fill="#3D3834"/>
<path d="M120.586 90.3916C114.543 89.9233 113.004 85.5302 111.666 85.9316C111.309 85.9316 111.153 86.3999 111.064 86.6452C109.169 90.7707 111.577 95.8997 115.792 95.8997C117.088 95.7607 118.323 95.2725 119.363 94.487C120.404 93.7016 121.212 92.6483 121.701 91.4397C121.775 91.286 121.798 91.1128 121.766 90.9453C121.735 90.7777 121.651 90.6245 121.527 90.5077C121.403 90.391 121.245 90.3168 121.076 90.2959C120.906 90.275 120.735 90.3085 120.586 90.3916ZM119.516 91.9303C116.505 95.9443 111.733 94.1603 112.201 88.6522C113.126 89.6761 114.254 90.4963 115.514 91.0607C116.773 91.625 118.136 91.9212 119.516 91.9303ZM288.75 187.887C288.715 187.65 288.595 187.433 288.413 187.276C288.231 187.119 287.998 187.033 287.758 187.033C287.518 187.033 287.285 187.119 287.103 187.276C286.921 187.433 286.801 187.65 286.766 187.887C286.766 191.254 287.881 232.799 288.505 237.304C288.505 237.517 288.59 237.721 288.74 237.872C288.891 238.022 289.095 238.107 289.308 238.107C289.521 238.107 289.725 238.022 289.876 237.872C290.026 237.721 290.111 237.517 290.111 237.304C291.114 223.121 289.219 202.583 288.75 187.887ZM112.58 79.8883C113.294 79.8883 113.517 79.1301 113.361 78.3496C113.049 76.7886 111.8 76.6994 111.488 77.5914C111.176 78.4834 111.622 79.8883 112.58 79.8883ZM110.217 70.4554C109.213 70.6549 108.308 71.1938 107.654 71.9815C107 72.7693 106.637 73.7579 106.626 74.7816C106.805 75.9412 107.764 75.9412 107.92 75.0938C108.388 72.7077 109.392 72.8638 110.64 72.1056C110.82 72.0177 110.964 71.8705 111.048 71.6887C111.132 71.5069 111.151 71.3017 111.101 71.1078C111.051 70.9138 110.936 70.743 110.775 70.6241C110.614 70.5053 110.417 70.4457 110.217 70.4554ZM337.989 280.075C337.989 280.499 338.814 280.365 338.903 279.942C339.26 278.425 337.61 261.143 337.877 256.46C337.877 255.858 336.985 255.88 336.941 256.46C336.529 264.347 336.88 272.256 337.989 280.075ZM286.699 298.205C287.145 298.54 287.836 298.005 287.546 297.514C286.699 296.02 285.495 294.86 284.224 292.563C282.273 288.924 281.147 284.899 280.927 280.775C280.708 276.651 281.399 272.529 282.952 268.702C283.198 268.145 282.306 267.81 282.038 268.39C280.143 272.741 279.372 277.499 279.796 282.226C280.221 286.953 281.828 291.497 284.469 295.44C285.065 296.471 285.817 297.404 286.699 298.205Z" fill="#3D3834"/>
</svg>
