<svg width="230" height="230" viewBox="0 0 230 230" fill="none" xmlns="http://www.w3.org/2000/svg">
<path d="M175.555 97.2521C175.072 97.2521 175.072 98.149 175.555 98.149C176.705 98.149 192.722 97.8845 194.067 97.62C194.19 97.6016 194.301 97.5399 194.382 97.446C194.463 97.3521 194.508 97.2323 194.508 97.1084C194.508 96.9845 194.463 96.8647 194.382 96.7708C194.301 96.6769 194.19 96.6151 194.067 96.5967C189.847 96.0448 180.2 97.1601 175.555 97.2521ZM181.971 120.732C181.442 120.732 181.534 121.617 182.04 121.64C185.788 121.766 191.629 121.571 195.458 121.398C196.16 121.398 196.24 120.249 195.458 120.249C191.17 120.272 186.271 120.329 181.971 120.732ZM182.465 81.0741C182.354 81.0789 182.248 81.124 182.167 81.2011C182.087 81.2781 182.037 81.3819 182.027 81.493C182.017 81.6041 182.048 81.715 182.114 81.805C182.18 81.8951 182.276 81.9581 182.385 81.9824C184.443 82.2354 191.124 82.4999 193.136 81.649C193.239 81.5979 193.322 81.5147 193.374 81.412C193.425 81.3092 193.442 81.1925 193.421 81.0794C193.4 80.9664 193.343 80.8632 193.259 80.7855C193.174 80.7077 193.066 80.6597 192.952 80.6486C190.284 80.4877 186.007 81.3385 182.465 81.0741ZM169.334 103.289C179.039 103.151 190.031 102.472 199.828 101.575C200.437 101.575 200.38 100.426 199.747 100.426C190.112 100.667 178.855 101.299 169.277 102.288C169.144 102.296 169.02 102.356 168.932 102.455C168.843 102.554 168.798 102.685 168.805 102.817C168.813 102.95 168.873 103.074 168.972 103.163C169.071 103.251 169.202 103.296 169.334 103.289ZM183.247 52.0755C185.949 51.8685 188.651 51.7075 191.296 51.3856C192.055 51.3051 191.859 50.2358 191.112 50.2358C188.421 50.4427 185.731 50.7877 183.063 51.0981C182.442 51.1671 182.615 52.1215 183.247 52.0755ZM167.472 76.0608C166.897 76.0608 166.874 77.0382 167.472 77.0842C173.972 77.387 180.486 76.9316 186.881 75.7274C187.605 75.6009 187.49 74.4511 186.754 74.5776C180.386 75.6636 173.931 76.1601 167.472 76.0608ZM188.87 57.5831C189.87 57.8246 190.02 56.1919 189.1 56.3528C184.612 57.0804 180.063 57.3616 175.52 57.1922C174.911 57.1922 174.773 58.0776 175.394 58.1466C179.89 58.5979 184.427 58.4082 188.87 57.5831ZM163.965 102.748C163.068 102.403 158.928 102.978 157.767 103.105C157.204 103.105 157.181 104.013 157.767 104.002L162.47 103.852C164.643 103.772 164.632 103.013 163.965 102.748ZM168.713 152.501C167.748 152.271 160.883 152.789 159.756 152.858C159.158 152.858 159.273 153.777 159.871 153.766C161.09 153.766 167.771 153.766 168.828 153.433C169.3 153.272 169.139 152.593 168.713 152.501ZM159.745 147.637C162.976 147.787 170.979 147.925 174.21 147.155C174.285 147.154 174.36 147.138 174.428 147.106C174.497 147.075 174.559 147.03 174.609 146.974C174.659 146.917 174.697 146.851 174.72 146.779C174.743 146.707 174.751 146.631 174.743 146.556C174.735 146.481 174.711 146.409 174.673 146.343C174.635 146.278 174.584 146.221 174.523 146.177C174.462 146.133 174.392 146.101 174.319 146.086C174.245 146.07 174.169 146.07 174.095 146.085C169.369 146.085 164.988 146.879 159.883 146.672C159.273 146.649 159.112 147.603 159.745 147.637ZM170.898 127.194C171.588 127.067 171.531 126.044 170.806 126.044C165.701 126.561 164.632 126.688 159.4 126.895C158.894 126.895 158.836 127.768 159.4 127.803C163.243 128.058 167.103 127.854 170.898 127.194ZM177.981 119.961C171.726 120.191 165.229 121.249 158.698 121.479C158.582 121.497 158.475 121.556 158.398 121.646C158.322 121.735 158.279 121.849 158.279 121.968C158.279 122.086 158.322 122.2 158.398 122.29C158.475 122.379 158.582 122.438 158.698 122.456C164.114 122.456 172.83 122.203 178.108 121.03C178.218 120.982 178.309 120.899 178.369 120.794C178.429 120.69 178.453 120.569 178.439 120.449C178.425 120.33 178.373 120.218 178.29 120.13C178.208 120.042 178.099 119.983 177.981 119.961ZM199.287 149.684C199.195 149.684 192.883 150.202 191.802 150.167C191.7 150.185 191.606 150.236 191.535 150.312C191.464 150.388 191.419 150.485 191.407 150.588C191.396 150.692 191.418 150.796 191.47 150.886C191.523 150.976 191.603 151.046 191.698 151.087C192.986 151.328 198.413 151.42 199.529 150.477C199.585 150.416 199.624 150.34 199.642 150.259C199.661 150.177 199.658 150.092 199.633 150.012C199.609 149.932 199.564 149.86 199.504 149.803C199.443 149.745 199.368 149.704 199.287 149.684ZM201.322 124.606C193.354 125.124 184.455 125.423 176.521 126.101C175.9 126.101 176.015 127.033 176.613 127.067C180.902 127.194 196.16 126.412 201.426 125.745C201.501 125.739 201.574 125.718 201.641 125.684C201.708 125.649 201.768 125.602 201.816 125.544C201.864 125.486 201.9 125.419 201.922 125.347C201.944 125.275 201.951 125.199 201.943 125.124C201.929 124.973 201.855 124.834 201.739 124.738C201.623 124.641 201.473 124.594 201.322 124.606ZM171.393 98.4594C171.545 98.4594 171.691 98.3988 171.799 98.291C171.907 98.1832 171.967 98.037 171.967 97.8845C171.967 97.732 171.907 97.5858 171.799 97.478C171.691 97.3702 171.545 97.3096 171.393 97.3096C166.437 97.4361 161.435 97.4706 156.445 97.85C156.338 97.8738 156.242 97.9335 156.173 98.0193C156.104 98.105 156.067 98.2116 156.067 98.3214C156.067 98.4313 156.104 98.5379 156.173 98.6236C156.242 98.7093 156.338 98.769 156.445 98.7929C161.458 98.8849 166.437 98.6204 171.393 98.4594ZM190.997 144.878C189.249 144.878 182.948 145.326 181.453 145.591C180.971 145.671 180.902 146.465 181.453 146.488C183.075 146.568 189.341 146.166 191.158 146.005C191.859 146.028 191.71 144.878 190.997 144.878ZM187.64 151.328L173.186 152.248C172.531 152.248 172.692 153.249 173.336 153.214C176.141 153.088 185.167 152.731 187.697 152.386C188.26 152.317 188.272 151.328 187.64 151.328ZM177.291 51.3856C173.048 50.9027 159.733 51.7075 155.215 52.1675C154.594 52.225 154.548 53.1908 155.215 53.1333C162.642 52.6504 169.875 52.4894 177.303 52.5124C177.432 52.4847 177.549 52.413 177.631 52.3095C177.714 52.206 177.759 52.0769 177.758 51.9443C177.756 51.8117 177.709 51.6836 177.624 51.5818C177.539 51.4799 177.421 51.4106 177.291 51.3856ZM178.521 82.4194C179.246 82.3159 178.981 81.2695 178.257 81.2695C170.856 82.1127 163.41 82.4967 155.962 82.4194C155.854 82.4366 155.755 82.4918 155.684 82.5751C155.613 82.6583 155.574 82.7641 155.574 82.8735C155.574 82.983 155.613 83.0888 155.684 83.172C155.755 83.2553 155.854 83.3105 155.962 83.3277C163.494 83.6905 171.043 83.3865 178.521 82.4194ZM170.714 58.342C170.79 58.3349 170.863 58.3127 170.93 58.277C170.997 58.2412 171.057 58.1926 171.105 58.1337C171.153 58.0749 171.189 58.0072 171.211 57.9344C171.232 57.8616 171.239 57.7852 171.232 57.7096C171.224 57.634 171.202 57.5605 171.167 57.4935C171.131 57.4264 171.082 57.3671 171.023 57.319C170.964 57.2709 170.897 57.2349 170.824 57.2132C170.751 57.1914 170.675 57.1843 170.599 57.1922C165.528 57.8246 160.722 57.8476 155.72 58.2845C155.191 58.342 155.134 59.2044 155.72 59.2274C160.733 59.3084 165.745 59.0125 170.714 58.342ZM156.468 76.5438C155.893 76.5438 155.881 77.4521 156.537 77.4751C158.6 77.6695 160.675 77.7232 162.746 77.6361C162.839 77.5944 162.918 77.5267 162.974 77.441C163.029 77.3553 163.059 77.2553 163.059 77.1532C163.059 77.051 163.029 76.9511 162.974 76.8654C162.918 76.7797 162.839 76.7119 162.746 76.6702C162.539 76.5553 157.526 76.5438 156.468 76.5438ZM142.118 83.1668C142.785 83.1668 145.257 79.0734 146.648 77.6706C147.154 77.1647 146.326 76.3138 145.809 76.7967C144.342 78.1192 143.072 79.6447 142.038 81.327L139.128 78.6479C138.531 78.096 137.76 79.0389 138.312 79.6023C138.864 80.1657 141.267 83.1668 142.118 83.1668ZM134.253 64.3901C138.967 64.6661 143.866 64.5741 149.04 64.6086C149.408 64.6086 149.626 63.5852 149.04 51.3741C149.04 50.4887 148.959 49.8333 148.948 49.5919C148.951 49.5563 148.946 49.5204 148.934 49.4867C148.923 49.453 148.904 49.4223 148.879 49.3964C148.546 49.0399 146.372 49.0629 141.486 49.1894C133.264 49.3849 132.356 49.3274 132.356 49.7988C132.321 49.8908 132.839 64.2521 134.253 64.3901ZM134.575 63.5392C134 60.4692 133.586 53.9842 133.23 50.3507C136.576 50.5462 144.199 50.1668 148.04 50.0748C148.04 50.0748 148.247 60.2967 148.339 63.5967C143.831 63.4932 139.128 63.3208 134.529 63.4817L134.575 63.5392Z" fill="#3D3834"/>
<path d="M150.627 86.1682C151.593 85.7888 150.466 75.0724 150.305 72.2553C150.297 72.1974 150.268 72.1443 150.224 72.1058C149.534 71.5079 134.943 72.3013 134.207 72.3588C133.471 72.4163 134.207 76.4177 134.334 79.1428C134.598 85.9267 134.909 86.5132 135.254 86.5591C137.76 86.9156 148.327 87.0651 150.627 86.1682ZM134.909 73.3017C139.887 72.9797 144.935 72.9567 149.42 72.9337C149.534 75.6243 149.718 83.2017 149.948 85.2483C145.262 85.733 140.546 85.8675 135.84 85.6508C136.036 83.9375 135.081 75.2449 134.909 73.3017ZM144.268 102.335L146.936 99.9201C147.014 99.7887 147.048 99.636 147.034 99.4839C147.019 99.3319 146.958 99.1882 146.857 99.0734C146.756 98.9586 146.622 98.8786 146.473 98.8448C146.324 98.8111 146.168 98.8252 146.028 98.8853C144.935 99.558 143.944 100.383 143.084 101.334L140.692 99.1267C140.563 99.0063 140.391 98.9422 140.214 98.9487C140.037 98.9552 139.87 99.0316 139.749 99.1612C139.629 99.2908 139.565 99.463 139.571 99.6398C139.578 99.8166 139.654 99.9836 139.784 100.104L142.084 102.404C140.014 104.588 139.106 105.957 139.313 106.578C139.52 107.199 140.267 106.923 140.462 106.647C141.267 105.658 142.176 104.531 143.153 103.485C144.122 104.542 145.197 105.498 146.361 106.336C146.481 106.367 146.607 106.365 146.727 106.331C146.846 106.296 146.953 106.23 147.038 106.14C147.123 106.049 147.182 105.937 147.208 105.816C147.235 105.695 147.228 105.569 147.189 105.451C146.323 104.316 145.345 103.272 144.268 102.335ZM144.878 53.0418C143.041 54.648 141.54 56.6019 140.462 58.7909C139.596 57.754 138.599 56.8341 137.496 56.0543C136.817 55.5829 135.944 56.4797 136.61 56.9857C137.922 58.1449 139.148 59.3976 140.278 60.7341C140.577 61.0445 140.865 60.8836 141.118 60.5501C142.37 58.1106 143.914 55.8325 145.717 53.7661C146.269 53.1567 145.476 52.4783 144.878 53.0418ZM144.51 128.114C145.108 127.7 147.384 123.308 148.707 121.813C149.224 121.238 148.327 120.444 147.741 121.054C146.167 122.676 144.817 124.501 143.728 126.481L141.049 124.181C140.462 123.687 139.68 124.572 140.29 125.159C140.899 125.745 143.521 128.965 144.51 128.114ZM153.283 142.855C152.846 141.992 137.116 142.855 136.967 142.855C136.933 142.859 136.9 142.872 136.872 142.892C136.844 142.912 136.821 142.938 136.806 142.97C136.277 143.82 136.806 157.653 137.185 158.941C137.634 160.504 152.88 159.205 153.639 159.274C153.662 159.279 153.686 159.279 153.709 159.274C153.732 159.269 153.753 159.259 153.772 159.245C153.79 159.231 153.806 159.212 153.817 159.192C153.828 159.171 153.834 159.148 153.835 159.125C154.076 157.365 153.34 142.97 153.283 142.855ZM137.703 143.694C142.302 143.889 147.741 143.602 152.409 143.59C152.478 145.511 152.892 156.779 152.949 158.297C147.844 158.527 143.555 158.446 138.117 158.297C138.174 156.377 137.772 145.442 137.703 143.728V143.694Z" fill="#3D3834"/>
<path d="M143.256 151.145C144.073 151.145 148.247 151.432 148.58 151.248C148.668 151.198 148.743 151.129 148.8 151.045C148.856 150.961 148.892 150.865 148.906 150.765C148.919 150.665 148.909 150.563 148.877 150.467C148.844 150.372 148.79 150.285 148.718 150.214C148.109 149.57 144.257 149.708 143.613 149.834C142.739 149.995 142.578 150.329 142.601 150.581C142.632 150.735 142.713 150.874 142.831 150.976C142.95 151.078 143.1 151.138 143.256 151.145ZM144.809 117.398C141.037 117.467 137.07 117.604 136.415 117.65C136.162 117.65 135.897 117.869 135.863 120.261C135.863 123.124 136.357 132.196 137.507 132.276C139.807 132.449 151.696 132.495 153.225 132.38C153.467 132.38 153.662 132.38 153.225 126.401C152.984 123.319 152.443 117.719 152.443 117.719C152.397 117.49 152.374 117.283 144.809 117.398ZM151.581 118.409C151.857 122.698 152.006 127.091 152.466 131.402H137.841C137.392 127.252 137.093 122.974 136.771 118.582L151.581 118.409ZM139.128 110.924C143.797 110.924 151.604 110.292 151.673 110.257C152.409 109.878 151.673 99.4947 151.432 95.0564C151.432 94.263 147.373 94.2515 144.004 94.378C142.532 94.378 135.219 94.769 135.242 95.8153C135.633 111.211 135.541 110.464 135.828 110.625C136.904 110.906 138.019 111.007 139.128 110.924ZM136.702 109.774C136.438 105.244 136.346 100.438 136.162 95.9763C140.936 95.5522 145.731 95.391 150.523 95.4934C150.523 97.0686 150.834 107.544 151.029 109.291C149.327 109.406 138.484 109.487 136.737 109.786L136.702 109.774Z" fill="#3D3834"/>
<path d="M223.066 127.941C220.053 45.9931 221.318 46.683 220.766 46.2001C219.984 45.4642 213.948 45.9471 212.464 46.0276L211.844 33.46C211.873 33.3843 211.884 33.3024 211.875 33.2215C211.867 33.1406 211.838 33.063 211.793 32.9953C211.748 32.9276 211.687 32.8718 211.616 32.8326C211.545 32.7934 211.465 32.772 211.384 32.7702C187.237 32.4712 162.39 34.0695 137.473 35.7597C130.758 36.2311 123.778 36.6451 116.948 37.3695C116.885 37.3592 116.819 37.3632 116.757 37.3813C116.695 37.3994 116.638 37.431 116.589 37.4739C116.541 37.5168 116.503 37.5699 116.477 37.6294C116.452 37.6889 116.44 37.7533 116.443 37.8179C117.707 68.5182 121.387 118.145 127.745 173.095C127.814 173.727 133.058 173.175 137.772 172.865C137.834 174.217 138.077 175.556 138.496 176.843C139.186 177.717 224.48 172.428 224.377 168.794C224.009 155.146 223.514 141.325 223.066 127.941ZM216.604 163.793C186.363 168.392 159.17 169.68 128.803 172.301C122.79 120.203 120.317 84.4663 117.305 38.1743C126.642 37.6224 161.171 34.4489 211.05 33.7935C212.292 67.2189 216.914 160.113 216.569 163.793H216.604ZM72.2663 84.7422C71.4844 84.7422 71.4959 86.26 71.8639 86.8349C71.9063 86.9191 71.9725 86.989 72.0543 87.036C72.136 87.083 72.2297 87.105 72.3238 87.0994C73.0252 87.0189 72.9907 84.8227 72.2663 84.7422ZM68.1614 91.3882C68.6558 91.5147 69.9896 91.5952 70.3001 91.1353C70.737 90.4914 69.5527 84.6503 69.4032 84.2363C69.3725 84.1519 69.3127 84.081 69.2346 84.0365C69.1565 83.992 69.0651 83.9767 68.9768 83.9932C68.8884 84.0098 68.8088 84.0572 68.7521 84.127C68.6955 84.1968 68.6654 84.2844 68.6673 84.3743C68.6673 85.4206 69.1388 88.9736 69.3227 90.4569L68.1729 90.5259C68.0889 90.5617 68.017 90.6211 67.9661 90.697C67.9152 90.7729 67.8875 90.8619 67.8863 90.9533C67.8851 91.0447 67.9104 91.1344 67.9593 91.2116C68.0081 91.2888 68.0783 91.3502 68.1614 91.3882ZM71.2889 82.5921C71.6293 82.4989 71.9872 82.4899 72.3318 82.5661C72.6764 82.6422 72.9972 82.8011 73.2666 83.029C73.7151 83.4314 74.5774 82.6611 73.3471 81.8792C72.4618 81.2813 70.3921 81.0743 70.6105 82.1321C70.6462 82.2794 70.7354 82.4082 70.8609 82.4932C70.9863 82.5782 71.1389 82.6135 71.2889 82.5921Z" fill="#3D3834"/>
<path d="M105.002 124.388C97.6084 117.098 84.3049 108.532 72.3467 106.831C72.5447 106.147 72.5447 105.421 72.3467 104.738C73.257 103.977 74.1031 103.142 74.8763 102.243C76.5206 100.311 76.4861 98.4253 74.1404 99.3796C76.4401 94.2974 76.4401 83.2821 75.6122 77.096C79.4641 79.4992 85.9606 77.188 85.1673 72.4967C90.399 74.072 93.8024 63.6776 87.1565 61.8034C88.0878 53.9386 78.0153 52.8002 74.9338 57.388C73.1976 52.3173 65.2178 54.9849 65.7927 58.9633C62.1938 55.0999 54.4209 56.4452 53.3401 61.2629C50.0861 58.3079 44.7164 59.5612 45.1878 63.919C40.0366 61.5274 37.3115 67.6905 41.3129 69.6682C38.7488 71.048 38.8293 76.7281 42.7617 76.7281C42.7617 80.5225 45.0614 89.2152 50.753 93.9755C51.3624 99.2992 50.2701 102.024 48.3729 106.957C29.6077 109.809 15.3614 124.446 8.96835 142.602C1.67846 163.298 5.13943 182.845 26.7446 186.962C26.6997 189.724 26.3761 192.474 25.7788 195.172C25.768 195.273 25.7943 195.376 25.8528 195.46C25.9113 195.543 25.9981 195.604 26.0973 195.629C26.1965 195.654 26.3015 195.642 26.3929 195.596C26.4843 195.551 26.5562 195.473 26.5952 195.379C27.3648 192.7 27.7823 189.932 27.837 187.146C33.042 187.919 38.3593 187.108 43.0967 184.817C47.8341 182.526 51.7721 178.862 54.3979 174.302C57.7264 175.567 61.1238 176.642 64.5739 177.522C75.4282 180.592 89.5826 183.639 102.99 180.005C102.725 186.433 102.357 191.584 101.782 196.701C101.782 197.207 102.484 197.356 102.564 196.85C103.013 194.16 104.128 182.351 104.059 179.695C112.591 177.073 118.294 171.152 119.696 163.459C122.146 150.42 116.626 135.783 105.002 124.388ZM56.1687 74.8654C56.4676 78.2229 56.1687 80.6145 55.1453 82.1668C54.7659 82.7302 54.191 83.3166 53.6965 83.3166C53.3171 82.9026 50.8335 80.327 48.4878 81.8333C46.9586 82.8337 46.8896 84.7769 48.3384 87.3065C49.3738 88.8429 50.1146 90.5585 50.523 92.3657C46.1192 87.5824 44.7739 83.0981 43.7621 76.6706C44.9309 76.4598 45.9977 75.8698 46.7976 74.9919C48.8098 77.9814 53.731 77.3835 56.1687 74.8654ZM49.0398 82.5922C50.592 81.6378 52.0293 82.7877 53.3401 83.9375C54.1105 84.6159 55.3753 83.6615 55.9732 82.7877C57.537 80.626 57.399 77.0385 57.192 75.2448C58.3081 76.3077 59.7902 76.9006 61.3314 76.9006C62.8726 76.9006 64.3547 76.3077 65.4708 75.2448C65.7007 78.5563 72.6457 79.3152 74.4739 76.5671C75.3132 82.3162 75.7157 94.7458 72.9331 99.9545C70.6335 100.966 65.4018 103.278 62.8032 102.254C60.5725 101.369 59.4457 97.9654 56.8471 96.5051C55.0993 95.5392 53.6046 96.6316 54.8234 98.5863C57.9049 103.485 57.6289 105.347 55.1913 110.383C53.0549 109.801 51.0569 108.796 49.3157 107.428C51.8453 103.806 52.5352 97.3444 51.9028 93.0441C51.3394 89.2152 50.753 89.4452 49.2352 86.6166C48.5338 85.4553 47.9129 83.3051 49.0398 82.5922ZM68.4373 105.784C68.3456 105.827 68.2726 105.901 68.2321 105.994C68.1917 106.087 68.1865 106.191 68.2176 106.287C68.2488 106.383 68.314 106.465 68.4011 106.516C68.4881 106.568 68.591 106.585 68.6903 106.566C69.6763 106.39 70.6109 105.997 71.4268 105.416C71.4931 106.488 71.2107 107.553 70.622 108.452C70.415 108.739 70.7829 109.602 71.5303 108.532C71.4728 111.706 69.8516 115.627 66.7356 117.167C64.6237 116.786 62.6138 115.97 60.8327 114.773C59.0516 113.576 57.538 112.022 56.3871 110.211C59.8366 104.301 56.8011 99.8626 55.7892 98.0228C55.2258 96.965 55.5133 96.804 56.4331 97.4019C58.6063 98.7817 60.515 102.634 62.6192 103.151C66.5861 104.105 71.4728 101.714 73.8645 100.644C75.1063 100.081 75.8307 99.7016 74.3359 101.576C72.3352 104.048 71.1969 104.565 68.4373 105.784ZM19.7767 154.859C19.7351 154.952 19.7286 155.058 19.7584 155.155C19.7882 155.253 19.8523 155.337 19.9389 155.392C20.0255 155.446 20.1289 155.468 20.23 155.452C20.3312 155.437 20.4233 155.385 20.4896 155.307C30.5736 139.417 47.2575 128.39 55.8467 111.384C57.1805 114.35 62.8836 118.168 66.4021 118.168C66.4021 121.031 66.1147 124.434 65.8157 127.7C62.3662 126.906 53.0411 123.986 51.3624 120.168C51.1669 119.697 50.408 120.019 50.592 120.49C52.1673 124.756 61.8948 128.183 65.7122 128.907C64.9059 137.499 63.3085 145.997 60.9404 154.295C59.2042 160.504 56.9735 168.013 53.754 173.566C51.1873 178.132 47.26 181.784 42.5195 184.012C37.779 186.24 32.4615 186.934 27.3081 185.996C6.08229 182.271 2.88578 163.126 10.0952 142.901C16.8332 123.951 31.5854 110.613 48.6028 108.084C50.4527 109.448 52.4747 110.561 54.6164 111.395C45.9927 128.033 29.5502 138.957 19.7767 154.859ZM61.9293 154.778C73.1023 150.07 84.9736 147.23 97.0679 146.373C100.517 146.143 103.967 146.155 107.416 146.155C107.922 146.155 107.934 145.327 107.416 145.327C105.071 145.164 102.718 145.122 100.368 145.2C99.8045 140.601 91.5143 127.182 88.6972 123.468C88.6251 123.4 88.5309 123.36 88.4318 123.356C88.3326 123.351 88.2351 123.382 88.1571 123.444C88.0791 123.505 88.0257 123.592 88.0066 123.69C87.9876 123.787 88.0041 123.888 88.0533 123.974C93.699 131.885 98.2638 141.958 99.1721 145.246C89.0652 145.626 73.4735 148.017 62.2512 153.513C63.3091 149.638 67.4025 133.656 67.4944 117.869C70.6565 116.455 72.9101 111.338 72.6457 107.9C84.5676 110.615 95.5019 116.586 104.231 125.147C114.476 135.185 120.754 148.144 118.823 162.229C117.799 170.278 112.085 176.51 103.553 178.775C88.8467 182.799 73.715 179.304 59.1927 174.797C57.7868 174.324 56.3549 173.932 54.9039 173.624C57.8426 167.581 60.1951 161.27 61.9293 154.778Z" fill="#3D3834"/>
<path d="M61.366 80.7523C61.6631 80.3132 62.0594 79.9501 62.5228 79.6925C62.9862 79.4348 63.5037 79.2897 64.0336 79.269C64.8729 79.269 64.8269 78.0042 64.0336 78.1192C63.3506 78.191 62.6931 78.4179 62.1112 78.7826C61.5293 79.1472 61.0384 79.6401 60.6761 80.2234C60.3771 80.6948 61.044 81.2122 61.366 80.7523ZM64.0796 83.9373C63.6081 84.3168 63.6426 86.237 64.3555 86.237C64.5186 86.22 64.671 86.1482 64.788 86.0333C64.9049 85.9184 64.9795 85.7673 64.9994 85.6046C65.2639 84.6042 64.5855 83.5809 64.0796 83.9373ZM63.0677 93.4349C63.0462 93.345 62.9975 93.2639 62.9281 93.2028C62.8588 93.1416 62.7723 93.1034 62.6804 93.0933C62.5885 93.0833 62.4958 93.1018 62.4148 93.1465C62.3339 93.1912 62.2688 93.2598 62.2283 93.3429C62.1133 93.5039 61.8949 93.9983 62.3778 94.9986C62.7056 95.6796 63.2714 96.217 63.9684 96.5094C64.6653 96.8017 65.4452 96.8288 66.1607 96.5854C66.2576 96.5469 66.337 96.4742 66.3839 96.381C66.4307 96.2879 66.4417 96.1807 66.4147 96.08C66.3877 95.9793 66.3247 95.892 66.2376 95.8346C66.1506 95.7773 66.0454 95.754 65.9423 95.769C64.3095 96.091 63.3667 95.0561 63.0677 93.4349Z" fill="#3D3834"/>
</svg>
