<svg width="184" height="184" viewBox="0 0 184 184" fill="none" xmlns="http://www.w3.org/2000/svg">
<path d="M98.9096 111.402C98.669 108.532 98.58 105.652 98.6429 102.774C98.6429 102.535 98.2933 102.47 98.2658 102.774C97.9651 105.659 97.996 108.569 98.3577 111.448C98.3638 111.521 98.3988 111.589 98.4548 111.636C98.5109 111.684 98.5835 111.707 98.6567 111.701C98.7299 111.695 98.7976 111.66 98.8451 111.604C98.8925 111.548 98.9157 111.475 98.9096 111.402ZM94.7428 110.326C94.7594 110.363 94.7865 110.395 94.8208 110.417C94.8551 110.439 94.8951 110.451 94.9359 110.451C94.9768 110.451 95.0168 110.439 95.0511 110.417C95.0853 110.395 95.1124 110.363 95.1291 110.326C95.0003 107.428 94.8808 104.521 94.752 101.615C94.752 101.566 94.7326 101.519 94.6981 101.485C94.6636 101.45 94.6168 101.431 94.568 101.431C94.5192 101.431 94.4724 101.45 94.4379 101.485C94.4034 101.519 94.384 101.566 94.384 101.615C94.2614 103.809 94.286 106.01 94.4576 108.201C94.4637 108.918 94.5595 109.632 94.7428 110.326ZM118.852 110.694C118.942 112.114 118.783 113.54 118.383 114.906C118.383 115.118 118.999 116.286 119.385 112.929C119.627 110.661 119.155 108.374 118.033 106.389C117.913 106.168 117.601 106.389 117.702 106.582C118.338 107.869 118.728 109.263 118.852 110.694ZM107.703 44.1985C107.697 44.8907 107.931 45.5637 108.366 46.1026C108.917 46.5993 109.773 44.6676 112.339 44.3641V41.8805C110.549 42.0116 108.882 42.8447 107.703 44.1985ZM131.886 110.638C131.886 108.743 131.72 106.858 131.683 104.963C131.683 104.705 131.288 104.761 131.288 105.018C131.288 106.977 131.288 108.955 131.371 110.923C131.407 112.22 131.913 111.742 131.886 110.638ZM114.059 41.8345L114.115 44.3181C117.288 44.4285 118.208 46.82 118.548 46.075C118.695 45.7346 119.293 44.0329 118.971 43.7386C117.621 42.5262 115.874 41.849 114.059 41.8345ZM48.0427 26.9056C47.5644 27.1631 48.0427 28.2945 48.4198 28.0462C48.7969 27.7978 48.567 26.602 48.0427 26.9056ZM47.4356 24.1369C46.7917 24.2013 46.7733 24.8635 47.4356 24.9463C47.9153 24.9836 48.3806 25.1282 48.7969 25.3695C49.0453 25.535 49.312 25.2039 49.1649 24.9739C48.9754 24.695 48.7158 24.4708 48.4123 24.3239C48.1088 24.177 47.7719 24.1125 47.4356 24.1369ZM45.7891 27.3747C46.0352 28.0204 46.229 28.6848 46.3686 29.3615C46.5249 30.1526 46.5157 30.3642 46.4789 30.4102C46.3304 30.415 46.1826 30.4334 46.0374 30.4654C45.7707 30.5573 45.7707 30.8977 46.1846 31.0908C46.2969 31.1476 46.4236 31.1692 46.5483 31.1527C46.673 31.1363 46.7899 31.0827 46.8837 30.9989C47.362 30.5389 47.1596 29.242 46.295 27.1447C46.2645 27.0777 46.2086 27.0254 46.1396 26.9996C46.0706 26.9737 45.9941 26.9763 45.927 27.0068C45.86 27.0373 45.8077 27.0932 45.7819 27.1622C45.756 27.2312 45.7586 27.3076 45.7891 27.3747Z" fill="#3D3834"/>
<path d="M179.11 138.178H166.058C167.263 131.739 160.107 127.204 155.655 129.578C155.197 127.347 153.941 125.359 152.122 123.989C150.303 122.619 148.046 121.96 145.776 122.136C145.533 120.556 144.936 119.051 144.027 117.735C143.119 116.418 141.924 115.326 140.533 114.538C140.1 109.387 140.293 104.144 140.303 99.0575C141.084 99.1127 142.961 99.2874 142.657 98.5424C141.738 96.2612 140.165 92.4531 138.978 90.2638C139.456 90.2638 139.999 90.2638 139.999 89.7763C140.146 80.9459 140.431 62.4204 140.431 62.4204C140.579 51.4559 140.946 38.8542 133.247 29.8306C133.008 29.5454 132.677 29.4442 132.466 29.7386C129.334 34.1729 127.274 39.274 126.45 44.6399C126.137 39.3969 125.723 33.4731 124.914 27.6138C123.534 17.6703 120.204 10.9923 114.796 7.02781C114.28 6.65068 113.526 6.04359 113.186 6.28275C104.742 12.2617 102.258 22.6926 101.669 30.3917C101.458 33.6663 101.393 36.9869 101.476 40.2799C100.345 36.0579 96.4632 27.8161 95.0374 29.803C88.3962 39.3141 88.9573 51.6031 89.5184 62.448C90.4382 83.1075 90.7142 88.4334 90.8338 89.8223C90.8338 90.273 90.8338 90.5766 92.1031 90.4386C89.4264 97.5306 88.8745 98.7171 89.1137 98.9195C89.3528 99.1219 90.3002 99.0575 90.7602 99.0299C90.6958 102.13 91.4316 117.197 91.3305 117.997C90.6626 118.81 90.1257 119.723 89.7391 120.701C88.1712 121.128 86.7159 121.894 85.4762 122.944C84.2365 123.995 83.2425 125.305 82.5644 126.781C81.3408 126.662 80.1071 126.865 78.9863 127.37C77.8825 115.127 75.6197 96.6199 72.8509 84.2941C77.5881 84.9104 79.8509 82.7856 80.9455 80.9459C83.705 76.1352 81.8653 68.1418 78.4436 63.7174C75.5473 57.5558 71.2997 52.1261 66.0166 47.8318C66.5777 46.7648 65.0967 41.9172 61.3346 39.9212C59.7249 39.0657 57.5817 39.0013 56.5974 38.0815C54.491 36.0211 55.9076 30.5388 51.5199 29.1039C51.2361 26.8368 50.7654 24.597 50.1126 22.4075C55.6316 20.0343 55.3465 13.6138 52.0902 11.7926C49.0548 10.1001 47.3807 12.5008 45.3846 13.1723C42.6251 14.0922 40.2795 12.1053 36.6554 12.1053C29.821 12.1053 28.2021 18.9857 27.8433 19.326C27.4846 19.6664 27.3466 21.6072 24.302 22.803C21.0641 24.0632 16.9433 24.1368 15.1864 27.9449C13.6963 31.2747 16.5569 35.3404 14.5885 38.4218C13.4387 40.2615 9.30863 40.3719 6.30996 45.1826C3.09973 50.3061 4.17594 57.2601 8.60036 60.1484C4.79223 68.7029 4.967 77.8001 9.05108 83.9262C12.7856 89.5096 18.8749 91.6068 25.4886 91.432C25.1574 107.014 25.2954 122.55 24.4675 138.233C21.4781 138.233 18.4794 138.298 15.5451 138.353C15.4622 138.353 15.3826 138.386 15.324 138.445C15.2653 138.503 15.2324 138.583 15.2324 138.666C15.2324 138.749 15.2653 138.828 15.324 138.887C15.3826 138.945 15.4622 138.978 15.5451 138.978C18.1667 139.034 21.2665 139.089 24.4124 139.089C23.9064 148.223 23.2258 157.486 22.3887 166.564C22.3059 167.484 24.4583 167.429 25.369 167.484C25.1175 168.762 25.0217 170.065 25.0838 171.366C24.3848 171.982 23.3637 176.195 23.4189 176.977C23.4189 177.142 23.4925 177.244 23.6029 177.262C24.6147 177.428 39.9024 178.182 40.6107 177.345C40.6284 177.312 40.6377 177.276 40.6377 177.239C40.6377 177.202 40.6284 177.166 40.6107 177.133C39.5897 174.374 36.0115 172.047 33.0864 171.292L33.8775 167.769C34.4846 167.769 35.7171 167.861 35.8919 167.539C40.0036 158.267 43.7473 148.692 47.0127 139.098H60.3872C62.9352 147.276 65.1841 155.545 67.1296 163.888C67.9114 167.254 67.3687 167.07 69.5395 167.171C69.5293 168.483 69.687 169.791 70.0087 171.062C69.3032 172.722 68.8774 174.488 68.7485 176.287C68.7307 176.318 68.7214 176.353 68.7214 176.388C68.7214 176.424 68.7307 176.459 68.7485 176.489C69.328 177.225 85.839 177.842 86.9704 177.17C87.8903 176.581 82.8496 171.697 78.3792 170.796C78.4436 169.621 78.416 168.443 78.2964 167.273C79.0782 167.273 80.8811 167.484 80.8811 166.711C80.8811 158.028 80.5868 148.729 79.9613 139.116H179.138C179.262 139.113 179.38 139.06 179.466 138.969C179.551 138.879 179.597 138.758 179.593 138.633C179.59 138.509 179.537 138.391 179.446 138.306C179.356 138.22 179.235 138.174 179.11 138.178ZM54.5186 121.768C56.809 128.069 58.0324 131.988 60.102 138.261H47.2887C49.5239 131.647 52.6145 121.704 54.6474 113.343C55.3373 110.583 56.7262 111.751 56.2203 113.996C55.6316 116.764 54.491 121.704 54.5186 121.768ZM77.7261 170.888C76.1532 171.605 72.2071 171.559 70.6709 171.117C70.5698 169.802 70.303 168.487 70.2846 167.171L77.5145 167.254C77.5789 168.468 77.6525 169.673 77.7261 170.888ZM26.2152 91.4228C33.9419 91.0365 43.131 87.5043 50.8209 81.9577C50.9864 81.8381 51.1336 81.8105 51.1796 81.6542C51.2256 81.4978 51.1796 81.369 50.9036 80.9735C53.0638 79.9622 55.332 79.1999 57.6644 78.7015C58.5843 78.5359 61.2794 78.0208 61.7669 76.5583L63.7722 76.5031C65.7038 80.5044 68.7761 83.2823 72.2163 84.1469L74.0559 95.0838C58.8602 100.318 44.9891 101.431 26.2704 98.8827C26.3348 96.4084 26.344 93.8972 26.2428 91.4228H26.2152ZM50.3242 35.3588C49.0364 38.6978 46.3505 38.8358 46.7828 39.6268V39.912C46.9575 41.3745 47.2979 44.3824 44.9431 46.5072C40.9694 44.9251 38.5042 43.1038 36.6646 40.4547C37.0509 39.7832 36.6646 36.8489 36.6646 36.8213C36.0943 33.8227 33.4819 33.2156 34.0706 30.502C34.1534 30.1065 34.273 29.8766 34.4294 29.803C34.9445 29.573 36.269 31.3483 36.545 29.2879C36.9773 26.3444 37.8052 24.0724 40.7211 23.2445C43.4254 22.4811 46.0377 23.7872 49.5331 22.5823C50.3242 25.8569 51.6855 31.7806 50.3242 35.3588ZM45.0811 47.3167C46.6724 46.9211 48.0338 43.0118 47.7026 40.8226C50.1851 41.1733 52.63 41.7522 55.0061 42.5519C63.6526 45.6334 71.1584 52.2194 76.2268 61.1602C72.7682 57.8488 68.2426 55.9815 64.1493 56.2391C62.8442 54.1004 61.3447 52.0866 59.6697 50.2233C59.6447 50.1957 59.6142 50.1736 59.5801 50.1585C59.546 50.1434 59.5092 50.1356 59.4719 50.1356C59.4347 50.1356 59.3978 50.1434 59.3637 50.1585C59.3297 50.1736 59.2992 50.1957 59.2742 50.2233C59.2477 50.2491 59.2267 50.2798 59.2124 50.3138C59.1981 50.3477 59.1907 50.3842 59.1907 50.4211C59.1907 50.458 59.1981 50.4945 59.2124 50.5285C59.2267 50.5624 59.2477 50.5932 59.2742 50.6189C60.7438 52.4464 62.0985 54.3633 63.3306 56.3587C62.1115 56.5426 60.9363 56.9479 59.8629 57.5544C59.689 57.5715 59.5168 57.6023 59.3477 57.6464C58.8427 57.7606 58.3288 57.8314 57.8116 57.858C55.6592 57.858 55.5764 56.9382 54.8038 57.0393C53.2676 57.1957 53.7183 60.2312 57.2505 60.8751C56.6158 62.6503 56.3307 66.5597 57.5173 68.2338C56.1007 68.2338 55.1901 67.9394 55.1349 69.3835C55.1164 69.6438 55.1164 69.9051 55.1349 70.1654C54.6788 69.8719 54.1626 69.6848 53.6244 69.6179C53.0862 69.5511 52.5399 69.6061 52.0258 69.7791C51.06 70.147 49.2203 72.0695 48.2913 72.8697C48.2913 72.4834 48.2913 71.8947 47.951 71.8579C42.11 71.3704 33.2336 71.2324 27.9169 71.3796C27.6254 67.6269 27.6747 63.8554 28.0641 60.1116C28.08 60.0347 28.0646 59.9548 28.0215 59.8892C27.9784 59.8236 27.911 59.7779 27.8341 59.7621C27.7573 59.7462 27.6773 59.7615 27.6117 59.8046C27.5462 59.8478 27.5005 59.9152 27.4846 59.992C27.1903 61.6477 26.62 68.3993 27.2179 71.4072L19.6844 71.9039C19.6288 71.9092 19.576 71.9312 19.5332 71.967C19.4904 72.0029 19.4594 72.0509 19.4445 72.1048C19.4295 72.1586 19.4312 72.2157 19.4494 72.2685C19.4677 72.3214 19.5015 72.3674 19.5464 72.4006C19.5723 72.4238 19.6032 72.4409 19.6367 72.4504C19.6701 72.46 19.7053 72.4618 19.7396 72.4558C29.0265 71.887 38.3413 71.9484 47.6198 72.6398C47.6626 75.7478 48.5981 78.7779 50.315 81.369C38.0443 90.2086 17.8539 95.9852 9.61218 83.4571C3.67923 74.507 6.62271 58.8698 17.624 49.3219C22.8787 44.8166 29.272 41.8443 36.1035 40.7306C37.7684 43.9041 43.8761 47.5926 45.0719 47.2983L45.0811 47.3167ZM58.7131 58.4651C58.2444 58.96 57.8508 59.5209 57.5449 60.13C55.8248 59.8724 54.8497 58.971 54.6842 58.2259C54.5554 57.7108 54.8589 57.4993 55.4936 57.9316C56.4921 58.4187 57.6109 58.6041 58.7131 58.4651ZM63.1835 63.5334C63.1368 63.587 63.1092 63.6545 63.105 63.7254C63.1007 63.7964 63.12 63.8667 63.1599 63.9255C63.1998 63.9843 63.258 64.0283 63.3255 64.0505C63.393 64.0728 63.466 64.072 63.533 64.0485C64.2781 63.7541 64.6276 63.8185 64.6828 63.9565C64.738 64.0945 64.4436 64.7752 63.8457 65.0695C63.4594 65.2627 62.7143 65.4375 62.1441 64.398C61.6749 63.5518 62.4752 62.6228 62.1441 62.4296C61.8129 62.2364 60.8747 63.6622 61.6749 64.9131C61.5096 65.0343 61.3119 65.1034 61.1071 65.1116C60.9022 65.1198 60.6996 65.0667 60.5251 64.9591C60.1204 64.6464 59.8445 63.7725 60.3136 62.1996C60.4883 61.5925 59.4581 61.4362 59.3293 64.0393C59.2742 64.398 58.8786 66.6056 58.7591 67.3507C58.6395 68.0958 58.4739 68.151 58.4555 68.1602C58.4371 68.1694 58.3543 68.1602 58.2807 68.059C57.6277 67.3231 56.8458 63.5794 58.0968 60.7003C58.4857 59.7293 59.1501 58.8933 60.0081 58.2951C60.8661 57.6969 61.8804 57.3628 62.9259 57.3337C63.5408 57.3219 64.1495 57.4589 64.7 57.7329C65.2506 58.007 65.7268 58.41 66.0881 58.9077C66.4494 59.4054 66.6851 59.9831 66.7752 60.5914C66.8652 61.1998 66.8069 61.821 66.6053 62.402C66.5062 62.7112 66.3379 62.9937 66.1131 63.228C65.8883 63.4623 65.6131 63.6423 65.3083 63.7541C65.2033 63.5746 65.0574 63.4223 64.8825 63.3096C64.7077 63.1968 64.5087 63.1269 64.3018 63.1054C64.0949 63.0839 63.8858 63.1115 63.6915 63.1858C63.4972 63.2602 63.3232 63.3792 63.1835 63.5334ZM56.4135 71.3244C56.3008 71.0073 56.0834 70.738 55.7972 70.5609L55.9076 69.0708H60.2676C60.2676 69.5675 60.4056 71.0301 60.4056 71.0301C59.0697 71.0359 57.7358 71.1343 56.4135 71.3244ZM59.265 68.243C59.5079 67.2379 59.683 66.2176 59.7893 65.1891C60.0882 65.5148 60.4945 65.7219 60.9337 65.7726C61.3728 65.8233 61.8156 65.7141 62.1808 65.465L62.328 65.5662C61.9345 67.3619 61.8846 69.2158 62.1808 71.0301H61.261C61.286 70.1594 61.1901 69.2896 60.9759 68.4453C60.7091 68.2062 59.6697 68.243 59.265 68.243ZM52.1822 70.469C52.7987 70.3149 53.445 70.3264 54.0556 70.5025C54.6662 70.6786 55.2194 71.0129 55.6592 71.4716C55.8248 71.7475 55.7972 71.8395 55.788 71.8671C55.7788 71.8947 55.2361 71.9683 54.8681 71.9499C54.3246 71.8622 53.7672 71.939 53.2676 72.1707C52.5093 72.779 52.0124 73.6544 51.8787 74.6174C51.7407 76.963 58.5199 76.6687 60.8379 76.5951C59.127 78.3428 54.0311 77.9472 50.5817 80.3572C49.3763 78.278 48.6093 75.974 48.3281 73.5872C48.9352 73.3112 51.2072 70.8921 52.1822 70.469ZM80.9455 79.2166C78.9587 85.0208 72.7314 83.5306 72.4738 83.4662C68.1322 82.3716 65.621 78.3244 64.6736 76.4479C65.7038 76.2087 65.4095 75.1969 65.3083 74.2219L73.3293 74.0379C73.9732 75.2613 75.5001 74.8566 75.4265 73.6332C75.4359 73.367 75.3519 73.1059 75.189 72.8951C75.0261 72.6844 74.7945 72.5373 74.5345 72.4794C74.2745 72.4215 74.0025 72.4564 73.7655 72.5781C73.5286 72.6998 73.3417 72.9006 73.2373 73.1457C72.0875 73.0445 66.4305 73.2009 65.2439 73.3297C65.1059 70.8645 65.2439 71.0393 62.9719 71.0485C62.7603 69.3195 62.7603 67.5712 62.9719 65.8422C63.4538 65.9321 63.952 65.8495 64.3791 65.609C64.8063 65.3686 65.1352 64.9854 65.3083 64.5268C66.8352 64.3336 68.3713 61.6845 67.0192 58.8514C66.7661 58.3758 66.4172 57.9578 65.9945 57.6238C65.5718 57.2897 65.0844 57.0469 64.5632 56.9106C71.5816 56.7266 77.9376 62.3836 80.4764 69.1168C80.6052 69.1168 80.688 69.0248 80.4764 69.1168C81.7832 72.3307 81.9488 75.8954 80.9455 79.2166ZM33.114 167.751C32.8215 168.91 32.6064 170.087 32.4701 171.274C30.2328 171.505 27.9788 171.53 25.7369 171.347C25.8841 170.069 26.0221 168.799 26.16 167.521L33.114 167.751ZM155.728 130.12C157.733 128.474 166.601 130.571 165.276 138.206H79.9061L79.1058 128.014C83.7694 126.395 87.1912 128.86 88.3962 131.859C88.6077 132.42 89.7943 131.942 87.9455 129.633C86.7706 128.181 85.1115 127.201 83.2727 126.873C87.7247 118.3 100.326 119.671 102.773 128.888C102.902 129.375 103.629 129.136 103.5 128.649C102.762 125.931 101.026 123.591 98.6395 122.095C96.2526 120.6 93.3899 120.06 90.6222 120.582C91.4021 119.014 92.5562 117.662 93.9825 116.646C95.4089 115.63 97.0635 114.981 98.8002 114.757C100.537 114.532 102.302 114.739 103.94 115.358C105.578 115.978 107.038 116.992 108.191 118.31C109.037 119.229 111.87 124.62 112.79 125.254C112.034 126.551 111.561 127.993 111.401 129.486C110.264 129.902 109.23 130.559 108.37 131.412C107.509 132.264 106.843 133.292 106.416 134.425C106.385 134.495 106.384 134.574 106.411 134.644C106.439 134.715 106.493 134.772 106.563 134.802C106.632 134.833 106.711 134.834 106.782 134.807C106.853 134.779 106.91 134.725 106.94 134.655C107.497 133.366 108.38 132.244 109.502 131.4C110.624 130.557 111.947 130.02 113.34 129.844C114.733 129.667 116.148 129.857 117.445 130.394C118.743 130.932 119.877 131.798 120.738 132.907C120.799 132.993 120.891 133.051 120.995 133.068C121.098 133.085 121.204 133.06 121.29 132.999C121.375 132.938 121.433 132.846 121.45 132.743C121.467 132.639 121.443 132.533 121.382 132.448C120.322 131.044 118.866 129.991 117.202 129.424C115.537 128.857 113.741 128.801 112.045 129.265C112.316 127.8 112.879 126.406 113.703 125.165C114.527 123.924 115.593 122.862 116.838 122.044C118.342 121.079 120.068 120.513 121.852 120.398C123.636 120.282 125.42 120.622 127.036 121.386C128.653 122.149 130.049 123.31 131.093 124.761C132.138 126.211 132.797 127.904 133.008 129.679C133.028 129.771 133.081 129.852 133.156 129.908C133.232 129.963 133.325 129.99 133.418 129.982C133.512 129.974 133.599 129.932 133.664 129.865C133.729 129.797 133.767 129.708 133.772 129.614C133.528 127.59 132.745 125.668 131.503 124.049C130.262 122.431 128.609 121.176 126.717 120.416C127.33 118.797 128.35 117.362 129.677 116.249C131.004 115.136 132.594 114.382 134.296 114.06C139.668 113.232 144.276 117.362 144.957 122.228C143.55 122.461 142.213 123.01 141.049 123.834C139.884 124.657 138.921 125.734 138.233 126.984C138.067 127.296 138.573 127.572 138.748 127.269C139.753 125.571 141.287 124.25 143.115 123.509C144.942 122.768 146.963 122.648 148.866 123.166C150.697 123.75 152.29 124.91 153.408 126.473C154.525 128.036 155.107 129.919 155.066 131.84C155.066 132.089 155.397 132.402 155.645 132.227C155.747 132.162 156.041 131.951 155.737 130.12H155.728ZM102.516 30.8884C108.826 29.7846 115.393 29.5914 124.454 30.2629C125.907 42.7635 126.119 54.5374 126.349 67.1116C124.583 63.2114 122.789 57.5177 122.816 53.59C122.808 49.0209 121.697 44.5213 119.579 40.4731C117.058 35.6623 113.646 32.2589 109.93 36.251C104.778 41.7701 105.146 48.4297 105.248 55.816C104.906 59.1006 104.2 62.337 103.141 65.465C102.819 50.1314 101.927 38.8358 102.516 30.8884ZM139.383 89.5188C138.706 89.4129 138.017 89.4129 137.341 89.5188L137.433 82.2705C137.46 82.1063 137.449 81.9381 137.401 81.7787C137.353 81.6193 137.27 81.4729 137.157 81.3506C135.05 79.5845 129.154 73.8999 127.204 68.8316C127.204 63.4966 127.121 58.088 126.91 52.7529C131.573 52.6149 135.933 52.6701 139.604 52.7529C139.971 61.7213 139.282 77.3953 139.383 89.5188ZM102.644 114.124C100.782 113.71 98.8456 113.773 97.0142 114.307C95.1827 114.841 93.5157 115.829 92.1675 117.178C92.1031 115.201 91.6984 102.912 91.5604 99.0483L102.01 98.8459C101.982 100.713 102.47 112.322 102.644 114.124ZM123.01 59.9368C124.693 66.9 127.71 74.3415 136.632 81.9117C136.632 84.3953 136.347 90.6778 136.513 93.0693C136.329 93.0693 122.789 93.1613 121.795 93.2441C122.825 82.1732 123.23 71.0532 123.01 59.9368ZM105.45 60.0748C106.066 71.3428 107.198 82.5556 108.826 93.4465C106.572 93.3913 96.0032 93.0694 94.4671 93.1429C94.4671 91.6344 94.09 82.9511 94.0532 82.1049C99.9118 76.0247 103.872 68.3695 105.45 60.0748ZM102.69 98.8275C103.353 98.8275 104.815 98.9839 104.732 98.3308C104.319 96.8926 103.755 95.502 103.049 94.1824L108.918 94.2651C109.056 95.1114 109.184 95.9576 109.313 96.8039C108.449 97.7237 106.701 103.059 106.462 104.025C106.443 104.089 106.441 104.156 106.453 104.222C106.466 104.288 106.494 104.349 106.535 104.402C106.756 104.678 107.336 104.714 107.952 104.714C105.275 108.955 106.729 114.198 107.75 116.783C106.477 115.667 104.986 114.827 103.371 114.318C103.583 112.634 102.81 100.373 102.7 98.8275H102.69ZM107.4 108.799C107.595 107.379 108.057 106.008 108.761 104.76C113.004 104.931 117.253 104.885 121.492 104.622C121.998 106.619 126.606 111.852 120.885 119.717C119.332 119.927 117.841 120.462 116.508 121.286C115.176 122.11 114.031 123.205 113.149 124.5C109.893 119.579 106.572 114.722 107.409 108.799H107.4ZM122.2 69.963C122.062 79.235 121.492 87.3572 120.811 96.2428L109.985 96.5279C107.943 82.39 107.069 72.2718 106.305 60.6543C106.094 57.3613 105.882 53.9487 105.956 50.6097C106.075 44.8791 107.244 40.795 109.635 37.732C113.02 33.4179 115.761 35.3404 118.447 40.1143C119.99 42.8701 121.05 45.8689 121.584 48.9816C122.412 53.6727 122.246 67.2863 122.209 69.963H122.2ZM126.064 120.177C124.74 119.748 123.351 119.561 121.961 119.625C123.509 117.438 124.371 114.841 124.438 112.163C124.505 109.485 123.774 106.847 122.338 104.586C122.936 104.586 124.527 104.586 124.343 104.025C124.031 102.976 123.148 100.796 122.439 99.0391C121.979 97.8801 121.52 96.8775 121.52 96.6107C121.575 96.1232 121.795 93.9524 121.795 93.9524C122.651 94.0904 126.744 93.9524 128.133 93.9524C126.965 97.6317 127.121 97.1718 126.873 97.8065C126.689 98.294 126.597 98.5332 126.717 98.7263C126.836 98.9195 127.324 98.9103 128.556 98.9379C128.556 104.245 129.007 110.381 129.237 115.67C127.747 116.814 126.642 118.387 126.073 120.177H126.064ZM129.145 98.9287L139.622 99.0299C139.288 104.038 139.307 109.064 139.677 114.069C138.098 113.377 136.367 113.105 134.651 113.281C132.936 113.456 131.296 114.074 129.89 115.072C129.697 109.691 129.55 104.163 129.154 98.9287H129.145ZM102.562 30.1985C103.196 22.757 105.643 12.7952 113.6 7.07381C121.253 12.3261 123.341 21.2945 124.353 29.4166C117.831 28.9383 108.651 29.0027 102.571 30.1985H102.562ZM90.1439 53.9579C92.2871 53.9579 100.262 53.8475 102.102 53.8383C102.267 58.2535 102.436 62.6749 102.608 67.1024C100.906 71.5176 97.0886 78.306 93.5105 81.6358C93.3265 82.5556 93.5657 88.4794 93.6117 89.5464C92.9402 89.6108 92.2687 89.6751 91.6432 89.7671C91.2753 77.3861 90.1439 61.3902 90.1439 53.9579Z" fill="#3D3834"/>
<path d="M45.6144 33.1603C43.1216 32.9671 42.4869 31.155 41.935 31.3206C41.7879 31.3206 41.7235 31.5138 41.6867 31.615C40.9048 33.3167 41.8982 35.4323 43.6367 35.4323C44.1715 35.375 44.6807 35.1736 45.11 34.8496C45.5393 34.5256 45.8725 34.0912 46.0743 33.5926C46.1047 33.5292 46.1141 33.4578 46.1012 33.3887C46.0883 33.3196 46.0537 33.2564 46.0025 33.2082C45.9513 33.16 45.886 33.1295 45.8163 33.1208C45.7465 33.1122 45.6758 33.126 45.6144 33.1603ZM45.1729 33.795C43.9311 35.4507 41.9626 34.7148 42.1558 32.4428C42.5374 32.8652 43.0027 33.2035 43.5221 33.4363C44.0415 33.6691 44.6037 33.7912 45.1729 33.795ZM114.979 73.3755C114.965 73.2775 114.915 73.1881 114.84 73.1234C114.765 73.0587 114.669 73.0232 114.57 73.0232C114.471 73.0232 114.375 73.0587 114.3 73.1234C114.225 73.1881 114.175 73.2775 114.161 73.3755C114.161 74.7645 114.621 91.9011 114.878 93.7591C114.878 93.847 114.913 93.9312 114.975 93.9933C115.037 94.0554 115.121 94.0903 115.209 94.0903C115.297 94.0903 115.381 94.0554 115.443 93.9933C115.505 93.9312 115.54 93.847 115.54 93.7591C115.954 87.909 115.172 79.4373 114.979 73.3755ZM42.3122 28.8279C42.6065 28.8279 42.6985 28.5151 42.6341 28.1932C42.5053 27.5493 41.9902 27.5125 41.8614 27.8804C41.7327 28.2484 41.9166 28.8279 42.3122 28.8279ZM41.3371 24.9369C40.923 25.0193 40.5498 25.2415 40.2801 25.5665C40.0104 25.8914 39.8608 26.2992 39.8562 26.7214C39.9298 27.1997 40.3253 27.1997 40.3897 26.8502C40.5829 25.866 40.9968 25.9304 41.5119 25.6176C41.5861 25.5814 41.6456 25.5206 41.6802 25.4457C41.7148 25.3707 41.7225 25.286 41.702 25.206C41.6814 25.126 41.6339 25.0556 41.5675 25.0066C41.501 24.9575 41.4196 24.9329 41.3371 24.9369ZM135.289 111.402C135.289 111.576 135.63 111.521 135.666 111.346C135.814 110.721 135.133 103.592 135.243 101.661C135.243 101.412 134.875 101.421 134.857 101.661C134.687 104.914 134.832 108.176 135.289 111.402ZM114.133 118.88C114.317 119.018 114.602 118.797 114.483 118.595C114.133 117.978 113.636 117.5 113.112 116.553C112.307 115.051 111.843 113.391 111.752 111.69C111.662 109.989 111.947 108.289 112.588 106.71C112.689 106.48 112.321 106.342 112.211 106.582C111.429 108.376 111.111 110.339 111.286 112.289C111.461 114.238 112.124 116.113 113.213 117.739C113.459 118.165 113.769 118.549 114.133 118.88Z" fill="#3D3834"/>
</svg>
