<?xml version="1.0" encoding="UTF-8" standalone="no"?>
<!-- Created with Inkscape (http://www.inkscape.org/) -->

<svg
   version="1.1"
   id="svg1"
   width="1122.52"
   height="793.70667"
   viewBox="0 0 1122.52 793.70667"
   sodipodi:docname="FINAL-INSPACIO DESIGN-only logo brandname-01.eps"
   xmlns:inkscape="http://www.inkscape.org/namespaces/inkscape"
   xmlns:sodipodi="http://sodipodi.sourceforge.net/DTD/sodipodi-0.dtd"
   xmlns="http://www.w3.org/2000/svg"
   xmlns:svg="http://www.w3.org/2000/svg">
  <defs
     id="defs1" />
  <sodipodi:namedview
     id="namedview1"
     pagecolor="#ffffff"
     bordercolor="#000000"
     borderopacity="0.25"
     inkscape:showpageshadow="2"
     inkscape:pageopacity="0.0"
     inkscape:pagecheckerboard="0"
     inkscape:deskcolor="#d1d1d1">
    <inkscape:page
       x="0"
       y="0"
       inkscape:label="1"
       id="page1"
       width="1122.52"
       height="793.70667"
       margin="0"
       bleed="0" />
  </sodipodi:namedview>
  <g
     id="g1"
     inkscape:groupmode="layer"
     inkscape:label="1">
    <g
       id="group-R5">
      <path
         id="path2"
         d="m 3115.95,2679.38 v 555.22 h 84.51 v -555.22 h -84.51"
         style="fill:#231f20;fill-opacity:1;fill-rule:nonzero;stroke:none"
         transform="matrix(0.13333333,0,0,-0.13333333,0,793.70667)" />
      <path
         id="path3"
         d="m 3799.97,2667.19 -260.55,284.58 c -41.83,45.25 -89.74,100.95 -128.1,146.21 l -1.74,-0.88 c 1.74,-50.47 1.74,-97.46 1.74,-139.23 v -278.49 h -84.53 v 555.22 h 58.4 l 238.75,-261.07 c 32.24,-35.68 82.79,-91.37 116.77,-133.15 l 1.76,0.87 c -1.76,42.64 -1.76,90.51 -1.76,130.53 v 262.82 h 84.53 v -567.41 h -25.27"
         style="fill:#231f20;fill-opacity:1;fill-rule:nonzero;stroke:none"
         transform="matrix(0.13333333,0,0,-0.13333333,0,793.70667)" />
      <path
         id="path4"
         d="m 4071.83,2668.93 c -60.14,0 -115.04,18.28 -143.81,37.42 l -19.16,92.25 c 53.16,-37.41 107.18,-56.56 167.3,-56.56 61.88,0 102.83,34.81 102.83,86.16 0,47.86 -29.62,80.06 -96.73,101.81 -99.34,32.21 -151.63,87.91 -151.63,164.48 0,77.45 57.52,151.43 176.04,151.43 54.9,0 101.09,-17.41 121.13,-32.19 l -16.56,-69.63 c -19.18,13.92 -62.75,32.2 -108.05,32.2 -56.66,0 -91.5,-34.82 -91.5,-75.71 0,-36.55 31.37,-66.14 89.75,-86.16 96.73,-33.07 162.09,-84.42 162.09,-178.41 0,-99.21 -66.24,-167.09 -191.7,-167.09"
         style="fill:#231f20;fill-opacity:1;fill-rule:nonzero;stroke:none"
         transform="matrix(0.13333333,0,0,-0.13333333,0,793.70667)" />
      <path
         id="path5"
         d="m 4506.61,3163.24 h -68.83 v -168.82 h 68.83 c 49.67,0 95.86,26.1 95.86,84.41 0,57.44 -46.19,84.41 -95.86,84.41 z m 14.81,-240.19 h -83.64 v -243.67 h -83.67 v 555.22 h 167.31 c 78.43,0 167.32,-50.47 167.32,-155.77 0,-105.3 -88.89,-155.78 -167.32,-155.78"
         style="fill:#231f20;fill-opacity:1;fill-rule:nonzero;stroke:none"
         transform="matrix(0.13333333,0,0,-0.13333333,0,793.70667)" />
      <path
         id="path6"
         d="m 4937.06,3025.74 c -7.83,18.28 -16.54,44.38 -23.52,67.89 h -1.75 c -6.1,-23.51 -15.67,-49.61 -23.52,-67.89 l -54.88,-135.75 h 158.57 z m 143.79,-346.36 -60.12,143.6 h -216.11 l -60.14,-143.6 h -82.77 l 237.03,563.06 h 30.49 l 237.01,-563.06 h -85.39"
         style="fill:#231f20;fill-opacity:1;fill-rule:nonzero;stroke:none"
         transform="matrix(0.13333333,0,0,-0.13333333,0,793.70667)" />
      <path
         id="path7"
         d="m 5640.26,3136.27 c -27.01,17.39 -81.91,36.55 -139.43,36.55 -108.93,0 -223.96,-70.48 -223.96,-215.82 0,-143.59 112.42,-214.96 223.96,-214.96 66.23,0 118.52,13.92 153.38,34.81 l -17.44,-80.93 c -34.85,-18.28 -74.06,-26.99 -145.51,-26.99 -140.31,0 -299.79,98.34 -299.79,288.07 0,192.32 161.24,288.92 299.79,288.92 76.66,0 129.82,-17.41 163.81,-36.55 l -14.81,-73.1"
         style="fill:#231f20;fill-opacity:1;fill-rule:nonzero;stroke:none"
         transform="matrix(0.13333333,0,0,-0.13333333,0,793.70667)" />
      <path
         id="path8"
         d="m 5749.15,2679.38 v 555.22 h 84.51 v -555.22 h -84.51"
         style="fill:#231f20;fill-opacity:1;fill-rule:nonzero;stroke:none"
         transform="matrix(0.13333333,0,0,-0.13333333,0,793.70667)" />
      <path
         id="path9"
         d="m 3203.56,2571.57 -35.23,0.51 -2.91,-201.27 35.24,-0.51 c 61.15,-0.89 112.14,30.22 113.13,99.01 0.99,68.79 -49.08,101.37 -110.23,102.26 z m 3.81,-236.19 -83.22,1.2 3.91,270.9 83.22,-1.2 c 75.6,-1.1 145.81,-50.1 144.55,-137.57 -1.26,-87.47 -72.87,-134.43 -148.46,-133.33"
         style="fill:#231f20;fill-opacity:1;fill-rule:nonzero;stroke:none"
         transform="matrix(0.13333333,0,0,-0.13333333,0,793.70667)" />
      <path
         id="path10"
         d="m 3398.48,2332.61 3.92,270.9 146.07,-2.11 -0.51,-35.23 -104.88,1.51 -1.18,-81.95 87.89,-1.27 -0.51,-35.24 -87.9,1.27 -1.2,-83.23 119.75,-1.73 -0.51,-35.24 -160.94,2.32"
         style="fill:#231f20;fill-opacity:1;fill-rule:nonzero;stroke:none"
         transform="matrix(0.13333333,0,0,-0.13333333,0,793.70667)" />
      <path
         id="path11"
         d="m 3660.85,2323.73 c -29.3,0.42 -55.92,9.73 -69.8,19.27 l -8.7,45.14 c 25.64,-18.63 51.83,-28.35 81.13,-28.78 30.14,-0.43 50.35,16.27 50.71,41.32 0.34,23.35 -13.87,39.27 -46.41,50.36 -48.19,16.41 -73.27,43.95 -72.73,81.31 0.55,37.79 29.1,73.49 86.84,72.66 26.75,-0.39 49.13,-9.21 58.8,-16.58 l -8.56,-33.84 c -9.24,6.92 -30.35,16.15 -52.43,16.47 -27.59,0.39 -44.82,-16.35 -45.12,-36.31 -0.25,-17.83 14.83,-32.49 43.13,-42.66 46.9,-16.81 78.39,-42.33 77.72,-88.19 -0.69,-48.4 -33.44,-81.05 -94.58,-80.17"
         style="fill:#231f20;fill-opacity:1;fill-rule:nonzero;stroke:none"
         transform="matrix(0.13333333,0,0,-0.13333333,0,793.70667)" />
      <path
         id="path12"
         d="m 3804.89,2326.75 3.91,270.89 41.2,-0.59 -3.92,-270.9 -41.19,0.6"
         style="fill:#231f20;fill-opacity:1;fill-rule:nonzero;stroke:none"
         transform="matrix(0.13333333,0,0,-0.13333333,0,793.70667)" />
      <path
         id="path13"
         d="m 4045.57,2318.17 c -73.03,1.06 -147.91,50.98 -146.58,142.7 1.35,93.83 80.59,139.83 148.09,138.85 37.38,-0.53 67.4,-9.89 87.17,-22.92 l -8.16,-35.55 c -19.78,13.02 -46.4,22.33 -74.85,22.74 -53.07,0.77 -109.61,-33.24 -110.64,-104.15 -1.02,-70.07 52.83,-105.23 108.03,-106.03 25.05,-0.37 44.67,4.44 57.53,13.18 l 0.82,56.47 -62.42,0.9 0.47,33.12 101.49,-1.47 -1.59,-109.97 c -26.2,-20.43 -59.02,-28.45 -99.36,-27.87"
         style="fill:#231f20;fill-opacity:1;fill-rule:nonzero;stroke:none"
         transform="matrix(0.13333333,0,0,-0.13333333,0,793.70667)" />
      <path
         id="path14"
         d="m 4427.32,2311.81 -124.94,140.68 c -20.08,22.38 -43.02,49.89 -61.4,72.23 l -0.86,-0.41 c 0.49,-24.64 0.15,-47.56 -0.14,-67.95 l -1.95,-135.86 -41.19,0.59 3.92,270.9 28.46,-0.41 114.49,-129.07 c 15.47,-17.63 39.69,-45.16 55.96,-65.78 l 0.86,0.41 c -0.55,20.82 -0.22,44.17 0.08,63.7 l 1.85,128.23 41.17,-0.6 -4,-276.84 -12.31,0.18"
         style="fill:#231f20;fill-opacity:1;fill-rule:nonzero;stroke:none"
         transform="matrix(0.13333333,0,0,-0.13333333,0,793.70667)" />
      <path
         id="path15"
         d="m 2048,3556.6 c 18.18,11.66 36.33,33.26 54.63,33.47 240.5,2.23 481.03,2.17 721.54,-0.1 19.9,-0.15 39.65,-20.56 59.49,-31.59 -2.69,-6.19 -5.39,-12.36 -8.06,-18.55 -272.66,0 -545.3,0 -817.95,0 -3.21,5.63 -6.43,11.19 -9.65,16.77"
         style="fill:#231f20;fill-opacity:1;fill-rule:evenodd;stroke:none"
         transform="matrix(0.13333333,0,0,-0.13333333,0,793.70667)" />
      <path
         id="path16"
         d="m 2110.95,3152.93 c 19.41,42.55 43.57,82.91 72.18,120.34 16.45,21.46 34.22,41.79 53.17,60.98 -0.02,51.97 -0.02,109.36 -0.08,180.66 h -123.18 c 0.25,-172.05 3.14,-207 -2.09,-361.98"
         style="fill:#231f20;fill-opacity:1;fill-rule:evenodd;stroke:none"
         transform="matrix(0.13333333,0,0,-0.13333333,0,793.70667)" />
      <path
         id="path17"
         d="m 2355.28,3429.92 c 22.29,14.02 46.88,27.28 76.78,41.51 0,18.3 0,33.33 -0.06,43.48 h -125.21 c 0,-45.12 0.04,-83.7 0.08,-118.51 15.54,11.79 31.69,22.98 48.41,33.52"
         style="fill:#231f20;fill-opacity:1;fill-rule:evenodd;stroke:none"
         transform="matrix(0.13333333,0,0,-0.13333333,0,793.70667)" />
      <path
         id="path18"
         d="m 2623.82,3395.56 c -0.04,32.74 -0.12,70.58 -0.22,119.35 h -118.41 c 0,-15.81 0,-31.08 0,-45.92 42.57,-20.93 82.3,-45.49 118.63,-73.43"
         style="fill:#231f20;fill-opacity:1;fill-rule:evenodd;stroke:none"
         transform="matrix(0.13333333,0,0,-0.13333333,0,793.70667)" />
      <path
         id="path19"
         d="m 2785.63,3213.84 c 10.26,-17.15 19.59,-34.8 28.11,-52.76 0.2,123.65 0.55,189.72 -0.92,353.83 h -121.87 c -0.04,-31.7 -0.02,-102.83 0,-178.95 36.42,-36.95 68.2,-77.86 94.68,-122.12"
         style="fill:#231f20;fill-opacity:1;fill-rule:evenodd;stroke:none"
         transform="matrix(0.13333333,0,0,-0.13333333,0,793.70667)" />
      <path
         id="path20"
         d="m 2987.47,3622.13 c -6.03,-4.63 -13.77,-6.95 -22.07,-6.95 -17.25,0 -54.9,20.97 -23.22,33.56 5.78,2.29 13.36,5.8 17.75,-1.11 -12.07,2.97 -10.35,-13.12 -3.9,-18.12 19.6,-15.17 33.88,9.69 29.7,27.06 -3.53,14.69 -98.3,14.06 -133.96,13.79 -20.28,-0.14 -34.89,-0.24 -41.21,0.76 l -669.69,-0.08 c -5.37,-0.92 -20,-0.8 -40.25,-0.68 -35.69,0.21 -130.4,0.9 -133.95,-13.79 -3.5,-14.58 3.26,-31.29 20.72,-28.46 15.12,2.43 16.57,21.9 1.53,15.19 11.66,6.44 33.82,6.36 30.64,-12.72 -4,-24.26 -41.13,-18.82 -54.65,-8.45 -5.99,4.61 -15.31,15.62 -10.1,37.32 4.91,20.34 52.97,23.72 145.9,23.07 18.21,-0.14 33.91,-0.19 39.22,0.63 l 671.58,0.06 c 6.27,-0.88 21.98,-0.81 40.16,-0.69 92.99,0.63 141.02,-2.73 145.9,-23.07 5.21,-21.7 -4.08,-32.71 -10.1,-37.32 z m -33.96,112.45 c -1,0 -1.98,-0.12 -2.95,-0.16 0,0.16 0,0.31 0,0.47 -315.67,0 -631.25,0 -946.8,0 -4.82,0.88 -9.77,1.41 -14.84,1.41 -45.82,0 -82.97,-37.16 -82.97,-83.01 0,-45.8 37.15,-82.96 82.97,-82.96 31.11,0 58.14,17.14 72.38,42.45 10.55,-0.21 22.56,-0.08 36.31,0.08 247.11,3.33 494.29,3.24 741.4,0.56 15.78,-0.16 29.26,-0.29 40.88,-0.04 13.81,-26.59 41.55,-44.79 73.62,-44.79 45.82,0 82.96,37.16 82.96,83 0,45.81 -37.14,82.99 -82.96,82.99"
         style="fill:#231f20;fill-opacity:1;fill-rule:evenodd;stroke:none"
         transform="matrix(0.13333333,0,0,-0.13333333,0,793.70667)" />
      <path
         id="path21"
         d="m 2107.78,2633.66 h 137.93 c 0,93.08 0.02,226.98 0,259.86 0,20.15 -0.15,40.33 -0.25,60.49 -0.25,40.18 7.11,79.16 22.13,116.86 12.56,31.59 29.86,60.72 51.79,87.51 27.93,34.05 61.47,62.34 100.4,85.17 15.58,9.1 31.87,16.97 48.49,24.23 3.13,1.39 6.02,1.17 9.01,-0.16 36.09,-15.93 69.16,-36.06 98.73,-61.11 27.79,-23.52 51.44,-50.34 70.66,-80.37 21,-32.68 35.66,-67.75 43.93,-105.06 4.64,-20.83 7.18,-41.96 7.18,-63.3 -0.04,-50.79 -0.04,-215.29 -0.02,-324.12 H 2822 c 0,89.48 -0.04,178.93 0.04,268.39 0.02,36.18 -4.04,71.95 -11.35,107.27 -13.06,63.19 -36.27,122.63 -69.39,178 -30.43,50.9 -67.74,96.26 -111.66,136.13 -46.74,42.43 -99.01,76.54 -156,103.52 -4.74,2.25 -9.26,2.6 -14.24,0.32 -26.27,-12.36 -52.03,-25.62 -76.62,-41.13 -61.48,-38.67 -114.47,-86.53 -158.61,-144.25 -34.67,-45.36 -62.01,-94.74 -81.86,-148.24 -23.73,-63.88 -35.31,-129.9 -34.96,-198 0.18,-34.17 0.39,-68.32 0.41,-102.49 0.04,-53.19 0.04,-106.34 0.02,-159.52"
         style="fill:#a7a5a6;fill-opacity:1;fill-rule:evenodd;stroke:none"
         transform="matrix(0.13333333,0,0,-0.13333333,0,793.70667)" />
      <path
         id="path22"
         d="m 2589.93,2633.66 v 202.7 l -216.54,144.38 v -347.08 h 216.54"
         style="fill:#231f20;fill-opacity:1;fill-rule:evenodd;stroke:none"
         transform="matrix(0.13333333,0,0,-0.13333333,0,793.70667)" />
      <path
         id="path23"
         d="M 2829.81,2585.41 H 2443.1 v -99.47 h 480.27 l -93.56,99.47"
         style="fill:#231f20;fill-opacity:1;fill-rule:nonzero;stroke:none"
         transform="matrix(0.13333333,0,0,-0.13333333,0,793.70667)" />
      <path
         id="path24"
         d="m 2101.59,2585.41 h 386.72 v -99.47 h -480.29 l 93.57,99.47"
         style="fill:#231f20;fill-opacity:1;fill-rule:nonzero;stroke:none"
         transform="matrix(0.13333333,0,0,-0.13333333,0,793.70667)" />
      <path
         id="path25"
         d="M 2947.51,2440.68 H 2443.1 v -99.48 h 598 l -93.59,99.48"
         style="fill:#231f20;fill-opacity:1;fill-rule:nonzero;stroke:none"
         transform="matrix(0.13333333,0,0,-0.13333333,0,793.70667)" />
      <path
         id="path26"
         d="m 1983.88,2440.68 h 504.43 V 2341.2 H 1890.3 l 93.58,99.48"
         style="fill:#231f20;fill-opacity:1;fill-rule:nonzero;stroke:none"
         transform="matrix(0.13333333,0,0,-0.13333333,0,793.70667)" />
      <path
         id="path27"
         d="m 6005.13,2850.97 c 24.45,-18.06 49.92,-32.85 76.64,-44.49 -34.83,36.41 -57.74,87.44 -57.74,151.25 0,137.48 106.31,214.93 209.1,214.93 101.08,0 209.11,-77.45 209.11,-214.93 0,-72.93 -30.41,-129.2 -74.05,-165.97 39.94,12.46 77.09,31.46 112.02,57.3 l 36.48,27.01 c 7.07,25.24 10.96,52.5 10.96,81.66 0,178.38 -146.39,288.03 -294.52,288.03 -148.12,0 -294.5,-109.65 -294.5,-288.03 0,-21.76 2.19,-42.48 6.2,-62.11 l 60.3,-44.65"
         style="fill:#231f20;fill-opacity:1;fill-rule:nonzero;stroke:none"
         transform="matrix(0.13333333,0,0,-0.13333333,0,793.70667)" />
      <path
         id="path28"
         d="m 6503.78,2813.71 c -148.77,-204.9 -387.44,-188.6 -522.19,1.95 80.47,-59.59 168.19,-84.63 262.21,-84.92 93.91,-0.27 181.27,24.77 259.98,82.97"
         style="fill:#a7a5a6;fill-opacity:1;fill-rule:evenodd;stroke:none"
         transform="matrix(0.13333333,0,0,-0.13333333,0,793.70667)" />
    </g>
  </g>
</svg>
