<?xml version="1.0" encoding="UTF-8" standalone="no"?>
<!-- Created with Inkscape (http://www.inkscape.org/) -->

<svg
   version="1.1"
   id="svg1"
   width="1122.52"
   height="793.70667"
   viewBox="0 0 1122.52 793.70667"
   sodipodi:docname="FINAL-INSPACIO DESIGN-only logo brandname-02.eps"
   xmlns:inkscape="http://www.inkscape.org/namespaces/inkscape"
   xmlns:sodipodi="http://sodipodi.sourceforge.net/DTD/sodipodi-0.dtd"
   xmlns="http://www.w3.org/2000/svg"
   xmlns:svg="http://www.w3.org/2000/svg">
  <defs
     id="defs1" />
  <sodipodi:namedview
     id="namedview1"
     pagecolor="#ffffff"
     bordercolor="#000000"
     borderopacity="0.25"
     inkscape:showpageshadow="2"
     inkscape:pageopacity="0.0"
     inkscape:pagecheckerboard="0"
     inkscape:deskcolor="#d1d1d1">
    <inkscape:page
       x="0"
       y="0"
       inkscape:label="1"
       id="page1"
       width="1122.52"
       height="793.70667"
       margin="0"
       bleed="0" />
  </sodipodi:namedview>
  <g
     id="g1"
     inkscape:groupmode="layer"
     inkscape:label="1">
    <g
       id="group-R5">
      <path
         id="path2"
         d="m 3116.68,2679.27 v 555.16 h 84.49 v -555.16 h -84.49"
         style="fill:#231f20;fill-opacity:1;fill-rule:nonzero;stroke:none"
         transform="matrix(0.13333333,0,0,-0.13333333,0,793.70667)" />
      <path
         id="path3"
         d="m 3800.63,2667.09 -260.52,284.55 c -41.82,45.26 -89.75,100.93 -128.09,146.19 l -1.74,-0.88 c 1.74,-50.47 1.74,-97.44 1.74,-139.22 v -278.46 h -84.51 v 555.16 h 58.38 l 238.73,-261.02 c 32.25,-35.7 82.77,-91.36 116.76,-133.16 l 1.74,0.88 c -1.74,42.64 -1.74,90.49 -1.74,130.51 v 262.79 h 84.53 v -567.34 h -25.28"
         style="fill:#231f20;fill-opacity:1;fill-rule:nonzero;stroke:none"
         transform="matrix(0.13333333,0,0,-0.13333333,0,793.70667)" />
      <path
         id="path4"
         d="m 4072.45,2668.83 c -60.14,0 -115.02,18.28 -143.79,37.42 l -19.16,92.24 c 53.17,-37.42 107.19,-56.56 167.29,-56.56 61.88,0 102.82,34.81 102.82,86.15 0,47.85 -29.63,80.06 -96.71,101.8 -99.34,32.21 -151.62,87.91 -151.62,164.47 0,77.42 57.52,151.41 176.01,151.41 54.88,0 101.07,-17.42 121.13,-32.2 l -16.56,-69.62 c -19.18,13.92 -62.74,32.2 -108.04,32.2 -56.64,0 -91.51,-34.81 -91.51,-75.69 0,-36.55 31.37,-66.15 89.77,-86.16 96.69,-33.05 162.06,-84.41 162.06,-178.39 0,-99.2 -66.23,-167.07 -191.69,-167.07"
         style="fill:#231f20;fill-opacity:1;fill-rule:nonzero;stroke:none"
         transform="matrix(0.13333333,0,0,-0.13333333,0,793.70667)" />
      <path
         id="path5"
         d="m 4507.21,3163.1 h -68.85 v -168.82 h 68.85 c 49.67,0 95.82,26.1 95.82,84.39 0,57.44 -46.15,84.43 -95.82,84.43 z m 14.8,-240.17 h -83.65 v -243.66 h -83.65 v 555.16 h 167.3 c 78.42,0 167.29,-50.46 167.29,-155.76 0,-105.26 -88.87,-155.74 -167.29,-155.74"
         style="fill:#231f20;fill-opacity:1;fill-rule:nonzero;stroke:none"
         transform="matrix(0.13333333,0,0,-0.13333333,0,793.70667)" />
      <path
         id="path6"
         d="m 4937.62,3025.61 c -7.85,18.26 -16.55,44.38 -23.54,67.86 h -1.76 c -6.07,-23.48 -15.68,-49.6 -23.51,-67.86 l -54.88,-135.75 h 158.57 z m 143.75,-346.34 -60.12,143.6 h -216.09 l -60.12,-143.6 h -82.77 l 237.01,562.99 h 30.49 l 237,-562.99 h -85.4"
         style="fill:#231f20;fill-opacity:1;fill-rule:nonzero;stroke:none"
         transform="matrix(0.13333333,0,0,-0.13333333,0,793.70667)" />
      <path
         id="path7"
         d="m 5640.73,3136.11 c -27.01,17.39 -81.91,36.55 -139.43,36.55 -108.91,0 -223.93,-70.48 -223.93,-215.79 0,-143.57 112.41,-214.94 223.93,-214.94 66.23,0 118.51,13.93 153.36,34.81 l -17.44,-80.92 c -34.85,-18.28 -74.05,-26.99 -145.49,-26.99 -140.29,0 -299.75,98.34 -299.75,288.04 0,192.3 161.21,288.89 299.75,288.89 76.66,0 129.82,-17.42 163.79,-36.55 l -14.79,-73.1"
         style="fill:#231f20;fill-opacity:1;fill-rule:nonzero;stroke:none"
         transform="matrix(0.13333333,0,0,-0.13333333,0,793.70667)" />
      <path
         id="path8"
         d="m 5749.6,2679.27 v 555.16 h 84.51 v -555.16 h -84.51"
         style="fill:#231f20;fill-opacity:1;fill-rule:nonzero;stroke:none"
         transform="matrix(0.13333333,0,0,-0.13333333,0,793.70667)" />
      <path
         id="path9"
         d="m 3204.41,2571.33 -35.23,0.5 -2.9,-201.26 35.23,-0.5 c 61.15,-0.89 112.14,30.23 113.14,99.01 0.98,68.79 -49.09,101.37 -110.24,102.25 z m 3.81,-236.19 -83.22,1.2 3.92,270.9 83.22,-1.2 c 75.58,-1.09 145.8,-50.1 144.54,-137.57 -1.27,-87.47 -72.87,-134.42 -148.46,-133.33"
         style="fill:#231f20;fill-opacity:1;fill-rule:nonzero;stroke:none"
         transform="matrix(0.13333333,0,0,-0.13333333,0,793.70667)" />
      <path
         id="path10"
         d="m 3399.31,2332.39 3.91,270.89 146.07,-2.11 -0.51,-35.24 -104.88,1.52 -1.19,-81.95 87.91,-1.27 -0.52,-35.25 -87.9,1.27 -1.2,-83.22 119.74,-1.73 -0.51,-35.23 -160.92,2.32"
         style="fill:#231f20;fill-opacity:1;fill-rule:nonzero;stroke:none"
         transform="matrix(0.13333333,0,0,-0.13333333,0,793.70667)" />
      <path
         id="path11"
         d="m 3661.66,2323.5 c -29.31,0.42 -55.93,9.72 -69.79,19.27 l -8.71,45.14 c 25.64,-18.63 51.83,-28.35 81.13,-28.77 30.13,-0.44 50.35,16.25 50.71,41.31 0.33,23.35 -13.88,39.27 -46.42,50.36 -48.18,16.4 -73.26,43.95 -72.71,81.32 0.55,37.78 29.08,73.47 86.84,72.63 26.73,-0.38 49.12,-9.2 58.78,-16.56 l -8.55,-33.85 c -9.25,6.93 -30.35,16.16 -52.42,16.47 -27.6,0.4 -44.84,-16.34 -45.13,-36.29 -0.25,-17.84 14.82,-32.5 43.14,-42.67 46.89,-16.82 78.37,-42.33 77.71,-88.19 -0.69,-48.4 -33.45,-81.06 -94.58,-80.17"
         style="fill:#231f20;fill-opacity:1;fill-rule:nonzero;stroke:none"
         transform="matrix(0.13333333,0,0,-0.13333333,0,793.70667)" />
      <path
         id="path12"
         d="m 3805.66,2326.52 3.92,270.89 41.19,-0.6 -3.91,-270.89 -41.2,0.6"
         style="fill:#231f20;fill-opacity:1;fill-rule:nonzero;stroke:none"
         transform="matrix(0.13333333,0,0,-0.13333333,0,793.70667)" />
      <path
         id="path13"
         d="m 4046.35,2317.95 c -73.03,1.05 -147.91,50.97 -146.58,142.68 1.34,93.84 80.58,139.84 148.09,138.86 37.37,-0.54 67.38,-9.89 87.16,-22.91 l -8.16,-35.57 c -19.77,13.03 -46.39,22.34 -74.85,22.75 -53.06,0.76 -109.61,-33.25 -110.63,-104.15 -1.02,-70.06 52.83,-105.24 108.02,-106.04 25.05,-0.36 44.67,4.45 57.53,13.19 l 0.82,56.47 -62.42,0.9 0.48,33.11 101.48,-1.46 -1.59,-109.97 c -26.21,-20.43 -59.01,-28.45 -99.35,-27.86"
         style="fill:#231f20;fill-opacity:1;fill-rule:nonzero;stroke:none"
         transform="matrix(0.13333333,0,0,-0.13333333,0,793.70667)" />
      <path
         id="path14"
         d="m 4428.06,2311.58 -124.94,140.67 c -20.08,22.39 -43.02,49.9 -61.4,72.25 l -0.84,-0.42 c 0.48,-24.64 0.15,-47.57 -0.15,-67.95 l -1.96,-135.87 -41.19,0.6 3.91,270.9 28.46,-0.42 114.5,-129.07 c 15.47,-17.62 39.7,-45.15 55.96,-65.78 l 0.86,0.42 c -0.55,20.81 -0.22,44.17 0.07,63.7 l 1.85,128.23 41.19,-0.6 -4,-276.84 -12.32,0.18"
         style="fill:#231f20;fill-opacity:1;fill-rule:nonzero;stroke:none"
         transform="matrix(0.13333333,0,0,-0.13333333,0,793.70667)" />
      <path
         id="path15"
         d="m 6005.14,2850.97 c 24.45,-18.06 49.92,-32.85 76.64,-44.49 -34.83,36.41 -57.74,87.44 -57.74,151.25 0,137.48 106.31,214.93 209.1,214.93 101.08,0 209.11,-77.45 209.11,-214.93 0,-72.93 -30.41,-129.2 -74.05,-165.97 39.94,12.46 77.09,31.46 112.01,57.3 l 36.49,27.01 c 7.07,25.24 10.96,52.5 10.96,81.66 0,178.38 -146.39,288.03 -294.52,288.03 -148.12,0 -294.5,-109.65 -294.5,-288.03 0,-21.76 2.19,-42.48 6.2,-62.11 l 60.3,-44.65"
         style="fill:#231f20;fill-opacity:1;fill-rule:nonzero;stroke:none"
         transform="matrix(0.13333333,0,0,-0.13333333,0,793.70667)" />
      <path
         id="path16"
         d="m 6503.79,2813.71 c -148.77,-204.9 -387.44,-188.6 -522.19,1.95 80.47,-59.59 168.19,-84.63 262.21,-84.92 93.9,-0.27 181.27,24.77 259.98,82.97"
         style="fill:#231f20;fill-opacity:1;fill-rule:evenodd;stroke:none"
         transform="matrix(0.13333333,0,0,-0.13333333,0,793.70667)" />
      <path
         id="path17"
         d="m 2103.47,3589.87 c -18.28,-0.22 -36.45,-21.81 -54.61,-33.47 3.22,-5.58 6.44,-11.15 9.63,-16.77 272.63,0 545.24,0 817.88,0 2.67,6.19 5.37,12.35 8.04,18.54 -19.82,11.04 -39.57,31.44 -59.49,31.59 -240.47,2.26 -480.97,2.32 -721.45,0.11"
         style="fill:#231f20;fill-opacity:1;fill-rule:evenodd;stroke:none"
         transform="matrix(0.13333333,0,0,-0.13333333,0,793.70667)" />
      <path
         id="path18"
         d="m 2113.88,3514.71 c 0.25,-172.03 3.16,-206.98 -2.09,-361.94 19.41,42.53 43.57,82.89 72.17,120.32 16.44,21.46 34.23,41.78 53.16,60.98 0,51.97 0,109.35 -0.06,180.64 h -123.18"
         style="fill:#231f20;fill-opacity:1;fill-rule:evenodd;stroke:none"
         transform="matrix(0.13333333,0,0,-0.13333333,0,793.70667)" />
      <path
         id="path19"
         d="m 2307.63,3514.71 c 0,-45.11 0.02,-83.69 0.06,-118.51 15.54,11.81 31.71,23 48.4,33.54 22.31,14.02 46.86,27.27 76.76,41.5 0,18.3 0,33.32 -0.06,43.47 h -125.16"
         style="fill:#231f20;fill-opacity:1;fill-rule:evenodd;stroke:none"
         transform="matrix(0.13333333,0,0,-0.13333333,0,793.70667)" />
      <path
         id="path20"
         d="m 2505.98,3514.71 c 0,-15.8 0,-31.08 0,-45.91 42.57,-20.93 82.3,-45.49 118.61,-73.43 -0.04,32.74 -0.12,70.58 -0.21,119.34 h -118.4"
         style="fill:#231f20;fill-opacity:1;fill-rule:evenodd;stroke:none"
         transform="matrix(0.13333333,0,0,-0.13333333,0,793.70667)" />
      <path
         id="path21"
         d="m 2691.74,3514.71 c -0.06,-31.7 -0.04,-102.82 0,-178.93 36.39,-36.95 68.18,-77.86 94.65,-122.12 10.27,-17.14 19.61,-34.79 28.1,-52.75 0.22,123.65 0.55,189.71 -0.92,353.8 h -121.83"
         style="fill:#231f20;fill-opacity:1;fill-rule:evenodd;stroke:none"
         transform="matrix(0.13333333,0,0,-0.13333333,0,793.70667)" />
      <path
         id="path22"
         d="m 2988.2,3621.93 c -6.01,-4.64 -13.73,-6.96 -22.05,-6.96 -17.24,0 -54.88,20.97 -23.22,33.57 5.78,2.27 13.36,5.79 17.77,-1.12 -12.09,2.97 -10.37,-13.12 -3.92,-18.12 19.61,-15.17 33.88,9.68 29.68,27.06 -3.51,14.69 -98.28,14.06 -133.92,13.78 -20.29,-0.13 -34.88,-0.23 -41.23,0.77 l -669.6,-0.08 c -5.37,-0.92 -20.02,-0.8 -40.25,-0.69 -35.69,0.21 -130.4,0.91 -133.93,-13.78 -3.5,-14.58 3.24,-31.29 20.72,-28.47 15.12,2.44 16.56,21.92 1.53,15.19 11.64,6.44 33.8,6.38 30.62,-12.7 -3.98,-24.28 -41.11,-18.83 -54.63,-8.45 -5.99,4.61 -15.31,15.61 -10.12,37.3 4.93,20.35 52.97,23.73 145.9,23.08 18.21,-0.14 33.91,-0.2 39.22,0.62 l 671.5,0.06 c 6.27,-0.88 21.99,-0.8 40.15,-0.68 92.99,0.62 141,-2.73 145.9,-23.08 5.22,-21.69 -4.08,-32.69 -10.12,-37.3 z m -33.94,112.42 c -1,0 -1.97,-0.11 -2.95,-0.15 0,0.15 0,0.31 0,0.47 -315.63,0 -631.18,0 -946.69,0 -4.84,0.88 -9.79,1.41 -14.84,1.41 -45.82,0 -82.99,-37.15 -82.99,-83 0,-45.81 37.17,-82.96 82.99,-82.96 31.11,0 58.12,17.14 72.36,42.45 10.55,-0.21 22.56,-0.08 36.31,0.07 247.1,3.35 494.23,3.25 741.32,0.57 15.8,-0.16 29.27,-0.28 40.87,-0.03 13.81,-26.6 41.55,-44.79 73.62,-44.79 45.8,0 82.97,37.14 82.97,82.98 0,45.82 -37.17,82.98 -82.97,82.98"
         style="fill:#231f20;fill-opacity:1;fill-rule:evenodd;stroke:none"
         transform="matrix(0.13333333,0,0,-0.13333333,0,793.70667)" />
      <path
         id="path23"
         d="m 2811.46,3009.17 c -13.06,63.18 -36.26,122.61 -69.39,177.99 -30.41,50.89 -67.73,96.24 -111.66,136.11 -46.72,42.43 -98.98,76.54 -155.98,103.51 -4.74,2.25 -9.25,2.6 -14.22,0.32 -26.28,-12.36 -52.05,-25.62 -76.62,-41.13 -61.45,-38.67 -114.46,-86.52 -158.6,-144.23 -34.65,-45.37 -61.99,-94.73 -81.84,-148.22 -23.73,-63.88 -35.31,-129.91 -34.96,-197.98 0.18,-34.16 0.39,-68.32 0.43,-102.48 0.02,-53.18 0.02,-106.32 0,-159.51 h 137.93 c 0,93.09 0,226.97 0,259.85 0,20.13 -0.15,40.31 -0.27,60.46 -0.24,40.19 7.13,79.16 22.13,116.85 12.56,31.58 29.86,60.72 51.8,87.5 27.92,34.05 61.47,62.35 100.36,85.17 15.58,9.1 31.87,16.97 48.49,24.23 3.13,1.39 6.02,1.16 9.01,-0.17 36.09,-15.92 69.16,-36.05 98.73,-61.1 27.77,-23.53 51.42,-50.34 70.64,-80.37 21,-32.67 35.67,-67.74 43.93,-105.05 4.63,-20.83 7.18,-41.95 7.18,-63.29 -0.01,-50.78 -0.01,-215.25 -0.01,-324.08 h 124.23 c -0.02,89.47 -0.04,178.93 0.04,268.36 0,36.17 -4.04,71.94 -11.35,107.26"
         style="fill:#231f20;fill-opacity:1;fill-rule:evenodd;stroke:none"
         transform="matrix(0.13333333,0,0,-0.13333333,0,793.70667)" />
      <path
         id="path24"
         d="m 2374.2,2633.55 h 216.52 v 202.7 l -216.52,144.34 v -347.04"
         style="fill:#231f20;fill-opacity:1;fill-rule:evenodd;stroke:none"
         transform="matrix(0.13333333,0,0,-0.13333333,0,793.70667)" />
      <path
         id="path25"
         d="m 2489.1,2485.86 h 435.02 l -93.53,99.45 h -728.16 l -93.57,-99.45 h 435.03 45.21"
         style="fill:#231f20;fill-opacity:1;fill-rule:nonzero;stroke:none"
         transform="matrix(0.13333333,0,0,-0.13333333,0,793.70667)" />
      <path
         id="path26"
         d="m 2948.26,2440.6 h -963.52 l -93.58,-99.46 h 1150.68 l -93.58,99.46"
         style="fill:#231f20;fill-opacity:1;fill-rule:nonzero;stroke:none"
         transform="matrix(0.13333333,0,0,-0.13333333,0,793.70667)" />
    </g>
  </g>
</svg>
