<?xml version="1.0" encoding="UTF-8" standalone="no"?>
<!-- Created with Inkscape (http://www.inkscape.org/) -->

<svg
   version="1.1"
   id="svg1"
   width="1122.52"
   height="793.70667"
   viewBox="0 0 1122.52 793.70667"
   sodipodi:docname="FINAL-INSPACIO DESIGN-only logo brandname-05.eps"
   xmlns:inkscape="http://www.inkscape.org/namespaces/inkscape"
   xmlns:sodipodi="http://sodipodi.sourceforge.net/DTD/sodipodi-0.dtd"
   xmlns="http://www.w3.org/2000/svg"
   xmlns:svg="http://www.w3.org/2000/svg">
  <defs
     id="defs1" />
  <sodipodi:namedview
     id="namedview1"
     pagecolor="#ffffff"
     bordercolor="#000000"
     borderopacity="0.25"
     inkscape:showpageshadow="2"
     inkscape:pageopacity="0.0"
     inkscape:pagecheckerboard="0"
     inkscape:deskcolor="#d1d1d1">
    <inkscape:page
       x="0"
       y="0"
       inkscape:label="1"
       id="page1"
       width="1122.52"
       height="793.70667"
       margin="0"
       bleed="0" />
  </sodipodi:namedview>
  <g
     id="g1"
     inkscape:groupmode="layer"
     inkscape:label="1">
    <g
       id="group-R5">
      <path
         id="path2"
         d="M 8418.9,0 H 0 V 5952.8 H 8418.9 V 0"
         style="fill:#231f20;fill-opacity:1;fill-rule:evenodd;stroke:none"
         transform="matrix(0.13333333,0,0,-0.13333333,0,793.70667)" />
      <path
         id="path3"
         d="m 3116.7,2679.26 v 555.16 h 84.49 v -555.16 h -84.49"
         style="fill:#ffffff;fill-opacity:1;fill-rule:nonzero;stroke:none"
         transform="matrix(0.13333333,0,0,-0.13333333,0,793.70667)" />
      <path
         id="path4"
         d="m 3800.66,2667.08 -260.52,284.55 c -41.82,45.25 -89.75,100.93 -128.09,146.19 l -1.74,-0.88 c 1.74,-50.47 1.74,-97.44 1.74,-139.22 v -278.46 h -84.51 v 555.16 h 58.38 l 238.73,-261.02 c 32.24,-35.7 82.77,-91.36 116.76,-133.16 l 1.73,0.88 c -1.73,42.64 -1.73,90.49 -1.73,130.51 v 262.79 h 84.53 v -567.34 h -25.28"
         style="fill:#ffffff;fill-opacity:1;fill-rule:nonzero;stroke:none"
         transform="matrix(0.13333333,0,0,-0.13333333,0,793.70667)" />
      <path
         id="path5"
         d="m 4072.48,2668.82 c -60.14,0 -115.02,18.28 -143.79,37.42 l -19.16,92.24 c 53.17,-37.42 107.19,-56.56 167.29,-56.56 61.89,0 102.83,34.81 102.83,86.15 0,47.85 -29.63,80.06 -96.72,101.8 -99.34,32.21 -151.62,87.9 -151.62,164.47 0,77.42 57.52,151.42 176.01,151.42 54.89,0 101.08,-17.42 121.14,-32.21 l -16.57,-69.62 c -19.18,13.92 -62.73,32.2 -108.04,32.2 -56.64,0 -91.51,-34.81 -91.51,-75.69 0,-36.55 31.37,-66.16 89.77,-86.17 96.7,-33.04 162.07,-84.4 162.07,-178.38 0,-99.2 -66.23,-167.07 -191.7,-167.07"
         style="fill:#ffffff;fill-opacity:1;fill-rule:nonzero;stroke:none"
         transform="matrix(0.13333333,0,0,-0.13333333,0,793.70667)" />
      <path
         id="path6"
         d="m 4507.25,3163.09 h -68.85 v -168.83 h 68.85 c 49.66,0 95.82,26.11 95.82,84.4 0,57.44 -46.16,84.43 -95.82,84.43 z m 14.8,-240.17 h -83.65 v -243.66 h -83.65 v 555.16 h 167.3 c 78.42,0 167.29,-50.46 167.29,-155.76 0,-105.26 -88.87,-155.74 -167.29,-155.74"
         style="fill:#ffffff;fill-opacity:1;fill-rule:nonzero;stroke:none"
         transform="matrix(0.13333333,0,0,-0.13333333,0,793.70667)" />
      <path
         id="path7"
         d="m 4937.66,3025.59 c -7.86,18.27 -16.55,44.39 -23.54,67.87 h -1.76 c -6.07,-23.48 -15.68,-49.6 -23.51,-67.87 l -54.89,-135.74 h 158.58 z m 143.75,-346.33 -60.12,143.6 H 4805.2 l -60.12,-143.6 h -82.78 l 237.02,562.99 h 30.48 l 237.02,-562.99 h -85.41"
         style="fill:#ffffff;fill-opacity:1;fill-rule:nonzero;stroke:none"
         transform="matrix(0.13333333,0,0,-0.13333333,0,793.70667)" />
      <path
         id="path8"
         d="m 5640.78,3136.1 c -27.01,17.39 -81.91,36.55 -139.43,36.55 -108.91,0 -223.93,-70.48 -223.93,-215.79 0,-143.57 112.4,-214.94 223.93,-214.94 66.23,0 118.51,13.93 153.36,34.81 l -17.44,-80.92 c -34.85,-18.28 -74.05,-26.99 -145.49,-26.99 -140.3,0 -299.75,98.34 -299.75,288.04 0,192.3 161.21,288.9 299.75,288.9 76.66,0 129.82,-17.42 163.79,-36.55 l -14.79,-73.11"
         style="fill:#ffffff;fill-opacity:1;fill-rule:nonzero;stroke:none"
         transform="matrix(0.13333333,0,0,-0.13333333,0,793.70667)" />
      <path
         id="path9"
         d="m 5749.65,2679.26 v 555.16 h 84.51 v -555.16 h -84.51"
         style="fill:#ffffff;fill-opacity:1;fill-rule:nonzero;stroke:none"
         transform="matrix(0.13333333,0,0,-0.13333333,0,793.70667)" />
      <path
         id="path10"
         d="m 3204.44,2571.32 -35.24,0.5 -2.91,-201.27 35.24,-0.5 c 61.15,-0.89 112.15,30.23 113.14,99.02 0.99,68.78 -49.08,101.36 -110.23,102.25 z m 3.81,-236.2 -83.22,1.21 3.92,270.89 83.22,-1.2 c 75.58,-1.09 145.8,-50.1 144.53,-137.57 -1.26,-87.47 -72.86,-134.42 -148.45,-133.33"
         style="fill:#c1a539;fill-opacity:1;fill-rule:nonzero;stroke:none"
         transform="matrix(0.13333333,0,0,-0.13333333,0,793.70667)" />
      <path
         id="path11"
         d="m 3399.34,2332.36 3.91,270.9 146.07,-2.11 -0.52,-35.23 -104.87,1.51 -1.19,-81.94 87.9,-1.27 -0.5,-35.26 -87.9,1.27 -1.2,-83.22 119.73,-1.73 -0.51,-35.23 -160.92,2.31"
         style="fill:#c1a539;fill-opacity:1;fill-rule:nonzero;stroke:none"
         transform="matrix(0.13333333,0,0,-0.13333333,0,793.70667)" />
      <path
         id="path12"
         d="m 3661.68,2323.47 c -29.31,0.43 -55.91,9.74 -69.8,19.28 l -8.69,45.15 c 25.65,-18.64 51.83,-28.36 81.13,-28.78 30.14,-0.44 50.35,16.26 50.71,41.31 0.34,23.36 -13.87,39.27 -46.42,50.36 -48.17,16.4 -73.26,43.95 -72.72,81.32 0.55,37.79 29.1,73.47 86.84,72.64 26.75,-0.39 49.13,-9.21 58.78,-16.56 l -8.55,-33.86 c -9.24,6.94 -30.34,16.16 -52.42,16.48 -27.6,0.4 -44.84,-16.35 -45.12,-36.3 -0.26,-17.83 14.82,-32.49 43.13,-42.67 46.91,-16.81 78.38,-42.33 77.72,-88.19 -0.7,-48.4 -33.45,-81.06 -94.59,-80.18"
         style="fill:#c1a539;fill-opacity:1;fill-rule:nonzero;stroke:none"
         transform="matrix(0.13333333,0,0,-0.13333333,0,793.70667)" />
      <path
         id="path13"
         d="m 3805.7,2326.5 3.92,270.9 41.18,-0.6 -3.92,-270.89 -41.18,0.59"
         style="fill:#c1a539;fill-opacity:1;fill-rule:nonzero;stroke:none"
         transform="matrix(0.13333333,0,0,-0.13333333,0,793.70667)" />
      <path
         id="path14"
         d="m 4046.38,2317.93 c -73.03,1.05 -147.9,50.97 -146.59,142.68 1.36,93.84 80.6,139.85 148.11,138.87 37.37,-0.54 67.38,-9.9 87.16,-22.93 l -8.17,-35.55 c -19.77,13.03 -46.38,22.33 -74.84,22.74 -53.07,0.77 -109.63,-33.24 -110.64,-104.15 -1.02,-70.06 52.84,-105.24 108.03,-106.04 25.05,-0.36 44.67,4.46 57.52,13.19 l 0.81,56.48 -62.41,0.9 0.48,33.11 101.48,-1.46 -1.58,-109.98 c -26.21,-20.42 -59.02,-28.45 -99.36,-27.86"
         style="fill:#c1a539;fill-opacity:1;fill-rule:nonzero;stroke:none"
         transform="matrix(0.13333333,0,0,-0.13333333,0,793.70667)" />
      <path
         id="path15"
         d="m 4428.1,2311.56 -124.96,140.68 c -20.05,22.38 -43.01,49.89 -61.38,72.24 l -0.85,-0.42 c 0.49,-24.63 0.15,-47.57 -0.14,-67.94 l -1.96,-135.88 -41.19,0.6 3.91,270.9 28.46,-0.41 114.5,-129.07 c 15.46,-17.63 39.69,-45.16 55.96,-65.79 l 0.86,0.41 c -0.55,20.83 -0.22,44.18 0.07,63.71 l 1.85,128.24 41.19,-0.6 -4,-276.85 -12.32,0.18"
         style="fill:#c1a539;fill-opacity:1;fill-rule:nonzero;stroke:none"
         transform="matrix(0.13333333,0,0,-0.13333333,0,793.70667)" />
      <path
         id="path16"
         d="m 6005.2,2850.96 c 24.45,-18.06 49.92,-32.85 76.64,-44.49 -34.83,36.41 -57.74,87.44 -57.74,151.25 0,137.48 106.31,214.93 209.1,214.93 101.08,0 209.1,-77.45 209.1,-214.93 0,-72.93 -30.41,-129.2 -74.04,-165.97 39.94,12.46 77.09,31.46 112.01,57.3 l 36.49,27.01 c 7.07,25.24 10.95,52.5 10.95,81.66 0,178.38 -146.38,288.04 -294.51,288.04 -148.12,0 -294.51,-109.66 -294.51,-288.04 0,-21.76 2.19,-42.48 6.21,-62.11 l 60.3,-44.65"
         style="fill:#ffffff;fill-opacity:1;fill-rule:nonzero;stroke:none"
         transform="matrix(0.13333333,0,0,-0.13333333,0,793.70667)" />
      <path
         id="path17"
         d="m 6503.85,2813.7 c -148.77,-204.9 -387.44,-188.6 -522.19,1.95 80.47,-59.59 168.18,-84.63 262.21,-84.92 93.9,-0.27 181.27,24.77 259.98,82.97"
         style="fill:#c1a539;fill-opacity:1;fill-rule:evenodd;stroke:none"
         transform="matrix(0.13333333,0,0,-0.13333333,0,793.70667)" />
      <path
         id="path18"
         d="m 2103.48,3589.86 c -18.28,-0.21 -36.45,-21.81 -54.61,-33.46 3.22,-5.58 6.44,-11.15 9.63,-16.77 272.63,0 545.25,0 817.89,0 2.67,6.19 5.37,12.35 8.04,18.53 -19.82,11.05 -39.57,31.45 -59.49,31.6 -240.47,2.26 -480.98,2.32 -721.46,0.1"
         style="fill:#ffffff;fill-opacity:1;fill-rule:evenodd;stroke:none"
         transform="matrix(0.13333333,0,0,-0.13333333,0,793.70667)" />
      <path
         id="path19"
         d="m 2113.89,3514.71 c 0.25,-172.04 3.16,-206.99 -2.09,-361.95 19.41,42.53 43.57,82.89 72.16,120.32 16.45,21.46 34.24,41.78 53.17,60.98 0,51.97 0,109.35 -0.06,180.65 h -123.18"
         style="fill:#ffffff;fill-opacity:1;fill-rule:evenodd;stroke:none"
         transform="matrix(0.13333333,0,0,-0.13333333,0,793.70667)" />
      <path
         id="path20"
         d="m 2307.64,3514.71 c 0,-45.11 0.02,-83.7 0.06,-118.51 15.54,11.8 31.71,22.99 48.41,33.53 22.31,14.02 46.86,27.27 76.76,41.5 0,18.3 0,33.32 -0.06,43.48 h -125.17"
         style="fill:#ffffff;fill-opacity:1;fill-rule:evenodd;stroke:none"
         transform="matrix(0.13333333,0,0,-0.13333333,0,793.70667)" />
      <path
         id="path21"
         d="m 2506,3514.71 c 0,-15.81 0,-31.09 0,-45.92 42.57,-20.93 82.3,-45.49 118.61,-73.43 -0.04,32.74 -0.12,70.58 -0.22,119.35 H 2506"
         style="fill:#ffffff;fill-opacity:1;fill-rule:evenodd;stroke:none"
         transform="matrix(0.13333333,0,0,-0.13333333,0,793.70667)" />
      <path
         id="path22"
         d="m 2691.76,3514.71 c -0.06,-31.7 -0.04,-102.83 0,-178.94 36.38,-36.95 68.18,-77.86 94.65,-122.12 10.27,-17.14 19.61,-34.79 28.1,-52.75 0.22,123.65 0.55,189.71 -0.92,353.81 h -121.83"
         style="fill:#ffffff;fill-opacity:1;fill-rule:evenodd;stroke:none"
         transform="matrix(0.13333333,0,0,-0.13333333,0,793.70667)" />
      <path
         id="path23"
         d="m 2988.22,3621.92 c -6.01,-4.63 -13.73,-6.95 -22.05,-6.95 -17.24,0 -54.88,20.97 -23.22,33.56 5.78,2.28 13.36,5.79 17.77,-1.11 -12.09,2.97 -10.37,-13.12 -3.92,-18.12 19.61,-15.17 33.88,9.68 29.68,27.06 -3.51,14.68 -98.28,14.06 -133.92,13.78 -20.29,-0.13 -34.88,-0.23 -41.23,0.77 l -669.61,-0.08 c -5.37,-0.92 -20.02,-0.8 -40.26,-0.69 -35.68,0.21 -130.39,0.9 -133.92,-13.78 -3.5,-14.59 3.24,-31.29 20.72,-28.47 15.12,2.44 16.56,21.91 1.53,15.18 11.64,6.45 33.8,6.38 30.62,-12.69 -3.98,-24.28 -41.11,-18.83 -54.63,-8.46 -5.99,4.61 -15.31,15.62 -10.12,37.31 4.93,20.35 52.97,23.73 145.9,23.07 18.21,-0.13 33.91,-0.19 39.22,0.63 l 671.51,0.06 c 6.26,-0.88 21.99,-0.8 40.15,-0.69 92.99,0.63 141,-2.72 145.9,-23.07 5.21,-21.69 -4.08,-32.7 -10.12,-37.31 z m -33.94,112.43 c -1,0 -1.98,-0.11 -2.95,-0.15 0,0.15 0,0.31 0,0.47 -315.63,0 -631.19,0 -946.7,0 -4.84,0.88 -9.79,1.4 -14.84,1.4 -45.83,0 -82.99,-37.15 -82.99,-82.99 0,-45.81 37.16,-82.96 82.99,-82.96 31.11,0 58.12,17.14 72.36,42.45 10.55,-0.21 22.56,-0.08 36.31,0.07 247.11,3.35 494.24,3.25 741.33,0.57 15.8,-0.16 29.27,-0.28 40.87,-0.03 13.81,-26.6 41.55,-44.79 73.62,-44.79 45.8,0 82.97,37.14 82.97,82.98 0,45.81 -37.17,82.98 -82.97,82.98"
         style="fill:#ffffff;fill-opacity:1;fill-rule:evenodd;stroke:none"
         transform="matrix(0.13333333,0,0,-0.13333333,0,793.70667)" />
      <path
         id="path24"
         d="m 2811.48,3009.16 c -13.06,63.18 -36.27,122.61 -69.39,177.99 -30.41,50.89 -67.73,96.24 -111.66,136.12 -46.72,42.42 -98.98,76.53 -155.98,103.5 -4.74,2.25 -9.25,2.6 -14.22,0.32 -26.28,-12.36 -52.05,-25.62 -76.62,-41.13 -61.46,-38.67 -114.47,-86.52 -158.61,-144.22 -34.65,-45.38 -61.99,-94.74 -81.84,-148.23 -23.73,-63.88 -35.31,-129.91 -34.96,-197.98 0.18,-34.16 0.39,-68.32 0.43,-102.48 0.02,-53.18 0.02,-106.32 0,-159.51 h 137.93 c 0,93.09 0,226.97 0,259.85 0,20.13 -0.15,40.31 -0.27,60.46 -0.24,40.18 7.13,79.16 22.13,116.85 12.56,31.58 29.86,60.72 51.79,87.5 27.93,34.05 61.49,62.35 100.38,85.17 15.58,9.1 31.87,16.97 48.49,24.23 3.13,1.39 6.02,1.17 9.01,-0.16 36.09,-15.93 69.16,-36.06 98.73,-61.1 27.77,-23.54 51.42,-50.35 70.64,-80.38 21,-32.67 35.67,-67.74 43.93,-105.05 4.63,-20.83 7.18,-41.96 7.18,-63.29 -0.02,-50.78 -0.02,-215.25 -0.02,-324.08 h 124.24 c -0.02,89.47 -0.04,178.93 0.04,268.36 0,36.17 -4.04,71.94 -11.35,107.26"
         style="fill:#c8baa0;fill-opacity:1;fill-rule:evenodd;stroke:none"
         transform="matrix(0.13333333,0,0,-0.13333333,0,793.70667)" />
      <path
         id="path25"
         d="m 2374.22,2633.54 h 216.52 v 202.7 l -216.52,144.33 v -347.03"
         style="fill:#c1a539;fill-opacity:1;fill-rule:evenodd;stroke:none"
         transform="matrix(0.13333333,0,0,-0.13333333,0,793.70667)" />
      <path
         id="path26"
         d="m 2489.12,2485.85 h 435.02 l -93.53,99.45 h -728.17 l -93.57,-99.45 h 435.04 45.21"
         style="fill:#ffffff;fill-opacity:1;fill-rule:nonzero;stroke:none"
         transform="matrix(0.13333333,0,0,-0.13333333,0,793.70667)" />
      <path
         id="path27"
         d="m 2948.28,2440.59 h -963.53 l -93.58,-99.47 h 1150.69 l -93.58,99.47"
         style="fill:#ffffff;fill-opacity:1;fill-rule:nonzero;stroke:none"
         transform="matrix(0.13333333,0,0,-0.13333333,0,793.70667)" />
      <path
         id="path28"
         d="m 6943.15,979.602 -63.34,7.609 2.54,21.149 63.36,-7.61 -2.56,-21.148"
         style="fill:#231f20;fill-opacity:1;fill-rule:nonzero;stroke:none"
         transform="matrix(0.13333333,0,0,-0.13333333,0,793.70667)" />
      <path
         id="path29"
         d="m 6971.92,1103.19 -26.77,-11.54 c -2.33,-1.04 -4.67,-1.99 -7.03,-2.85 -2.37,-0.86 -4.56,-1.63 -6.53,-2.29 l 0.02,-0.21 c 1.56,-0.39 3.3,-0.87 5.22,-1.45 1.91,-0.58 3.67,-1.13 5.23,-1.66 l 20.76,-7 -6.79,-20.19 -60.47,20.39 5.9,17.45 21.67,9.24 c 1.66,0.72 3.5,1.46 5.57,2.24 2.05,0.78 3.87,1.41 5.43,1.87 l -0.04,0.22 c -1.37,0.31 -2.71,0.66 -4.06,1.05 -1.35,0.39 -2.81,0.84 -4.4,1.38 l -16.87,5.69 6.82,20.18 60.45,-20.39 -4.11,-12.13"
         style="fill:#231f20;fill-opacity:1;fill-rule:nonzero;stroke:none"
         transform="matrix(0.13333333,0,0,-0.13333333,0,793.70667)" />
      <path
         id="path30"
         d="m 7007.76,1215.53 c 5.84,-3.6 9.34,-8.26 10.47,-13.98 1.14,-5.7 -0.52,-12.2 -5.02,-19.45 -2.36,-3.83 -4.92,-7.03 -7.71,-9.65 -2.78,-2.61 -5.9,-4.54 -9.34,-5.8 l -16.66,9.57 c 4.03,1.2 7.5,2.93 10.39,5.22 2.91,2.29 5.33,5.01 7.29,8.2 1.13,1.81 1.76,3.22 1.91,4.22 0.16,1.01 -0.13,1.73 -0.88,2.2 -0.45,0.28 -0.88,0.43 -1.25,0.47 -0.37,0.03 -0.86,-0.14 -1.46,-0.51 -0.63,-0.36 -1.45,-0.93 -2.48,-1.7 -1.02,-0.78 -2.39,-1.82 -4.05,-3.14 -4.62,-3.58 -9.23,-5.59 -13.82,-6.04 -4.59,-0.46 -8.77,0.47 -12.5,2.78 -2.68,1.65 -4.83,3.65 -6.47,5.99 -1.66,2.37 -2.71,4.91 -3.22,7.66 -0.49,2.74 -0.41,5.64 0.25,8.69 0.69,3.06 1.96,6.11 3.85,9.19 1.27,2.04 2.46,3.77 3.61,5.18 1.14,1.4 2.21,2.6 3.23,3.59 0.99,0.99 1.97,1.81 2.91,2.43 0.93,0.65 1.83,1.15 2.71,1.56 l 14.83,-9.86 c -2,-0.96 -3.99,-2.28 -5.98,-4 -1.99,-1.7 -3.65,-3.62 -4.94,-5.71 -1.19,-1.93 -1.82,-3.3 -1.9,-4.12 -0.07,-0.82 0.24,-1.43 0.9,-1.85 0.35,-0.22 0.69,-0.33 1.04,-0.33 0.33,-0.02 0.82,0.15 1.44,0.51 0.61,0.36 1.43,0.95 2.44,1.78 1.02,0.82 2.39,1.92 4.09,3.29 1.91,1.56 4,2.87 6.25,3.91 2.24,1.04 4.53,1.74 6.87,2.11 2.34,0.35 4.65,0.34 6.91,-0.04 2.27,-0.38 4.38,-1.17 6.29,-2.37"
         style="fill:#231f20;fill-opacity:1;fill-rule:nonzero;stroke:none"
         transform="matrix(0.13333333,0,0,-0.13333333,0,793.70667)" />
      <path
         id="path31"
         d="m 7046.87,1297.59 c -1.14,1.05 -2.33,1.46 -3.62,1.22 -1.29,-0.25 -2.32,-0.78 -3.1,-1.6 l -3.19,-3.33 6.66,-6.35 3.19,3.33 c 0.78,0.82 1.25,1.88 1.44,3.18 0.18,1.3 -0.27,2.48 -1.38,3.55 z m 13.73,14.39 c 2.16,-2.07 3.8,-4.38 4.9,-6.89 1.09,-2.52 1.62,-5.12 1.6,-7.82 -0.04,-2.68 -0.61,-5.37 -1.7,-8.06 -1.09,-2.7 -2.73,-5.2 -4.94,-7.5 l -5.12,-5.37 16.06,-15.32 -14.01,-14.68 -46.15,44.04 19.12,20.04 c 2.21,2.31 4.63,4.08 7.27,5.3 2.63,1.21 5.29,1.9 7.97,2.06 2.69,0.16 5.31,-0.25 7.89,-1.23 2.55,-0.98 4.94,-2.5 7.11,-4.57"
         style="fill:#231f20;fill-opacity:1;fill-rule:nonzero;stroke:none"
         transform="matrix(0.13333333,0,0,-0.13333333,0,793.70667)" />
      <path
         id="path32"
         d="m 7129.29,1357.42 c -0.65,0.46 -1.29,0.97 -1.98,1.55 -0.68,0.59 -1.36,1.21 -1.99,1.92 l -0.17,-0.12 c 0.43,-0.84 0.78,-1.69 1.09,-2.54 0.29,-0.84 0.57,-1.62 0.82,-2.34 l 3.2,-9.8 7.02,4.82 z m 28.67,-23.72 -8.13,6.54 -14.1,-9.69 3.21,-9.94 -16.23,-11.16 -17.19,65.61 14.74,10.14 55.08,-39.55 -17.38,-11.95"
         style="fill:#231f20;fill-opacity:1;fill-rule:nonzero;stroke:none"
         transform="matrix(0.13333333,0,0,-0.13333333,0,793.70667)" />
      <path
         id="path33"
         d="m 7248.82,1426.8 c -2.03,0.4 -4.14,0.53 -6.35,0.36 -2.19,-0.17 -4.96,-0.92 -8.3,-2.27 -2.48,-1 -4.47,-2.28 -6,-3.83 -1.54,-1.55 -2.65,-3.24 -3.36,-5.07 -0.7,-1.82 -1.03,-3.7 -0.97,-5.61 0.06,-1.92 0.43,-3.75 1.13,-5.48 0.7,-1.73 1.72,-3.3 3.03,-4.72 1.33,-1.39 2.93,-2.5 4.78,-3.3 1.88,-0.79 3.95,-1.19 6.25,-1.19 2.31,-0.01 4.79,0.53 7.44,1.6 2.86,1.14 5.2,2.45 7.06,3.92 1.85,1.45 3.28,3.01 4.27,4.64 l 6.41,-17.48 c -1.02,-1.62 -2.79,-3.31 -5.35,-5.07 -2.58,-1.75 -5.53,-3.29 -8.87,-4.65 -4,-1.61 -8.24,-2.55 -12.68,-2.78 -4.43,-0.25 -8.69,0.33 -12.81,1.72 -4.12,1.4 -7.91,3.67 -11.37,6.79 -3.45,3.15 -6.23,7.28 -8.28,12.4 -2.05,5.08 -2.91,9.95 -2.59,14.59 0.31,4.66 1.48,8.92 3.47,12.78 1.99,3.86 4.67,7.26 8.03,10.19 3.34,2.93 7.01,5.21 11.03,6.82 3.34,1.36 6.57,2.28 9.65,2.81 3.11,0.53 5.77,0.63 7.97,0.3 l 6.41,-17.47"
         style="fill:#231f20;fill-opacity:1;fill-rule:nonzero;stroke:none"
         transform="matrix(0.13333333,0,0,-0.13333333,0,793.70667)" />
      <path
         id="path34"
         d="m 7318.68,1400.94 -12.03,62.66 20.92,4.01 12.03,-62.64 -20.92,-4.03"
         style="fill:#231f20;fill-opacity:1;fill-rule:nonzero;stroke:none"
         transform="matrix(0.13333333,0,0,-0.13333333,0,793.70667)" />
      <path
         id="path35"
         d="m 7442.51,1443.17 c 0.04,1.99 -0.27,3.9 -0.9,5.71 -0.64,1.81 -1.54,3.39 -2.71,4.75 -1.19,1.36 -2.56,2.44 -4.16,3.27 -1.59,0.83 -3.3,1.26 -5.18,1.29 -1.85,0.04 -3.59,-0.33 -5.21,-1.1 -1.63,-0.77 -3.03,-1.82 -4.26,-3.14 -1.21,-1.31 -2.17,-2.85 -2.87,-4.65 -0.71,-1.77 -1.08,-3.67 -1.12,-5.67 -0.02,-2 0.28,-3.9 0.9,-5.67 0.65,-1.78 1.56,-3.34 2.74,-4.69 1.17,-1.37 2.55,-2.43 4.14,-3.22 1.58,-0.8 3.3,-1.21 5.17,-1.25 1.88,-0.03 3.62,0.32 5.22,1.05 1.62,0.74 3.04,1.77 4.26,3.09 1.23,1.31 2.18,2.84 2.89,4.59 0.68,1.75 1.05,3.63 1.09,5.64 z m 21.7,-0.39 c -0.1,-5.06 -1.13,-9.67 -3.15,-13.79 -2.01,-4.14 -4.62,-7.64 -7.89,-10.52 -3.24,-2.88 -6.99,-5.07 -11.21,-6.61 -4.24,-1.52 -8.65,-2.24 -13.24,-2.17 -4.61,0.09 -8.98,0.97 -13.16,2.64 -4.16,1.68 -7.84,4.01 -10.98,6.99 -3.14,2.99 -5.64,6.6 -7.5,10.78 -1.87,4.2 -2.75,8.84 -2.66,13.91 0.08,5.14 1.14,9.75 3.13,13.85 2.01,4.1 4.65,7.58 7.89,10.46 3.26,2.88 6.99,5.08 11.23,6.61 4.22,1.52 8.63,2.24 13.24,2.17 4.59,-0.09 8.99,-0.96 13.15,-2.64 4.18,-1.67 7.83,-4 10.97,-6.99 3.15,-2.99 5.67,-6.57 7.52,-10.73 1.86,-4.17 2.74,-8.82 2.66,-13.96"
         style="fill:#231f20;fill-opacity:1;fill-rule:nonzero;stroke:none"
         transform="matrix(0.13333333,0,0,-0.13333333,0,793.70667)" />
      <path
         id="path36"
         d="m 7629.66,1398.76 c 0.84,1.95 1.23,3.87 1.17,5.75 -0.06,1.88 -0.49,3.6 -1.25,5.16 -0.78,1.58 -1.86,2.98 -3.2,4.22 -1.35,1.23 -2.91,2.24 -4.69,3 l -1.19,0.52 -10.71,-24.81 1.2,-0.5 c 1.77,-0.76 3.59,-1.21 5.43,-1.35 1.81,-0.14 3.57,0.07 5.25,0.6 1.7,0.55 3.24,1.43 4.63,2.64 1.39,1.22 2.52,2.8 3.36,4.77 z m 19.57,-8.43 c -1.92,-4.41 -4.44,-8.06 -7.62,-10.94 -3.16,-2.88 -6.68,-5.01 -10.57,-6.38 -3.9,-1.36 -8.04,-1.95 -12.46,-1.71 -4.39,0.22 -8.77,1.28 -13.1,3.14 l -21.6,9.3 25.25,58.6 21.58,-9.31 c 4.34,-1.86 8.11,-4.32 11.29,-7.36 3.21,-3.05 5.65,-6.45 7.31,-10.23 1.68,-3.77 2.56,-7.8 2.63,-12.07 0.08,-4.28 -0.82,-8.64 -2.71,-13.04"
         style="fill:#231f20;fill-opacity:1;fill-rule:nonzero;stroke:none"
         transform="matrix(0.13333333,0,0,-0.13333333,0,793.70667)" />
      <path
         id="path37"
         d="m 7683.21,1333.44 37.23,51.82 32.56,-23.38 -9.96,-13.89 -15.28,10.96 -3.49,-4.86 12,-8.64 -10.26,-14.29 -12.02,8.62 -3.49,-4.87 16.89,-12.13 -9.98,-13.89 -34.2,24.55"
         style="fill:#231f20;fill-opacity:1;fill-rule:nonzero;stroke:none"
         transform="matrix(0.13333333,0,0,-0.13333333,0,793.70667)" />
      <path
         id="path38"
         d="m 7803.96,1253.11 c -5.02,-4.67 -10.45,-6.77 -16.25,-6.33 -5.83,0.44 -11.61,3.79 -17.42,10.06 -3.03,3.3 -5.44,6.64 -7.19,10.02 -1.79,3.38 -2.81,6.91 -3.09,10.56 l 13.69,13.47 c 0.06,-4.2 0.8,-8.01 2.25,-11.41 1.4,-3.41 3.4,-6.48 5.92,-9.22 1.44,-1.57 2.63,-2.56 3.57,-2.98 0.92,-0.41 1.7,-0.32 2.33,0.27 0.4,0.36 0.66,0.72 0.79,1.06 0.14,0.34 0.1,0.87 -0.07,1.55 -0.2,0.71 -0.51,1.64 -1,2.85 -0.47,1.2 -1.11,2.78 -1.91,4.74 -2.21,5.42 -2.91,10.4 -2.11,14.94 0.8,4.54 2.8,8.31 6.03,11.3 2.3,2.13 4.81,3.67 7.52,4.61 2.72,0.96 5.45,1.31 8.22,1.05 2.8,-0.27 5.57,-1.13 8.32,-2.59 2.75,-1.47 5.36,-3.52 7.82,-6.17 1.62,-1.76 2.97,-3.38 4.02,-4.87 1.04,-1.48 1.91,-2.83 2.58,-4.06 0.68,-1.23 1.21,-2.38 1.56,-3.46 0.37,-1.08 0.63,-2.09 0.75,-3.04 l -13.46,-11.64 c -0.38,2.18 -1.14,4.47 -2.23,6.85 -1.13,2.38 -2.52,4.47 -4.18,6.29 -1.54,1.66 -2.7,2.64 -3.46,2.93 -0.78,0.29 -1.44,0.16 -2.03,-0.38 -0.3,-0.26 -0.51,-0.58 -0.6,-0.89 -0.12,-0.33 -0.08,-0.84 0.11,-1.53 0.18,-0.7 0.53,-1.63 1.06,-2.84 0.51,-1.2 1.21,-2.81 2.07,-4.83 0.99,-2.25 1.7,-4.61 2.09,-7.05 0.39,-2.44 0.45,-4.84 0.17,-7.19 -0.27,-2.34 -0.91,-4.56 -1.89,-6.64 -0.98,-2.09 -2.31,-3.89 -3.98,-5.43"
         style="fill:#231f20;fill-opacity:1;fill-rule:nonzero;stroke:none"
         transform="matrix(0.13333333,0,0,-0.13333333,0,793.70667)" />
      <path
         id="path39"
         d="m 7820.47,1196.01 54.03,33.94 11.33,-18.03 -54.03,-33.94 -11.33,18.03"
         style="fill:#231f20;fill-opacity:1;fill-rule:nonzero;stroke:none"
         transform="matrix(0.13333333,0,0,-0.13333333,0,793.70667)" />
      <path
         id="path40"
         d="m 7883.17,1075.63 c -2.57,1.53 -5.11,3.95 -7.61,7.28 -2.5,3.33 -4.75,7.64 -6.77,12.95 -1.57,4.18 -2.43,8.53 -2.61,13.05 -0.19,4.53 0.45,8.87 1.94,12.98 1.48,4.11 3.8,7.88 7.03,11.26 3.2,3.38 7.4,6.06 12.57,8.01 5.12,1.92 10,2.67 14.67,2.21 4.67,-0.44 8.91,-1.72 12.73,-3.85 3.84,-2.11 7.17,-4.91 10.05,-8.39 2.89,-3.47 5.11,-7.29 6.7,-11.47 1.56,-4.18 2.5,-8.02 2.73,-11.53 0.25,-3.49 0.06,-6.48 -0.59,-8.92 l -17.89,-6.12 c 0.9,2.54 1.31,5.32 1.23,8.34 -0.07,3.03 -0.74,6.25 -2.03,9.68 -0.95,2.49 -2.19,4.56 -3.75,6.21 -1.54,1.65 -3.26,2.88 -5.13,3.7 -1.88,0.82 -3.85,1.24 -5.92,1.23 -2.08,0.01 -4.1,-0.37 -6.1,-1.12 -1.68,-0.63 -3.24,-1.57 -4.7,-2.83 -1.45,-1.26 -2.58,-2.75 -3.45,-4.49 -0.81,-1.73 -1.3,-3.66 -1.44,-5.76 -0.13,-2.11 0.24,-4.31 1.1,-6.61 0.25,-0.67 0.52,-1.29 0.8,-1.82 0.27,-0.54 0.62,-1.08 1.03,-1.62 l 4.32,1.62 -2.97,7.86 15.06,5.68 9.79,-25.92 -30.79,-11.61"
         style="fill:#231f20;fill-opacity:1;fill-rule:nonzero;stroke:none"
         transform="matrix(0.13333333,0,0,-0.13333333,0,793.70667)" />
      <path
         id="path41"
         d="m 7898.06,971.469 19.23,21.941 c 1.65,1.93 3.36,3.801 5.14,5.582 1.76,1.798 3.4,3.418 4.9,4.868 l -0.13,0.19 c -1.57,-0.32 -3.34,-0.63 -5.32,-0.94 -1.97,-0.3 -3.78,-0.55 -5.44,-0.75 l -21.76,-2.598 -2.52,21.158 63.36,7.55 2.17,-18.27 -15.61,-17.669 c -1.19,-1.351 -2.54,-2.82 -4.06,-4.422 -1.53,-1.578 -2.9,-2.918 -4.1,-4 l 0.11,-0.199 c 1.39,0.309 2.76,0.57 4.14,0.801 1.39,0.238 2.91,0.449 4.55,0.648 l 17.68,2.11 2.54,-21.149 -63.36,-7.558 -1.52,12.707"
         style="fill:#231f20;fill-opacity:1;fill-rule:nonzero;stroke:none"
         transform="matrix(0.13333333,0,0,-0.13333333,0,793.70667)" />
    </g>
  </g>
</svg>
