<svg width="157" height="48" viewBox="0 0 157 48" fill="none" xmlns="http://www.w3.org/2000/svg">
<path d="M41.2902 35.6055V16.9013H44.1368V35.6055H41.2902Z" fill="white"/>
<path d="M64.3337 36.0159L55.5563 26.4293C54.1474 24.9044 52.5325 23.0284 51.2415 21.5035L51.1822 21.5332C51.2415 23.2336 51.2415 24.8161 51.2415 26.2241V35.6055H48.3935V16.9013H50.3604L58.4036 25.6955C59.4898 26.8983 61.1923 28.7739 62.3368 30.1818L62.3957 30.1522C62.3368 28.7159 62.3368 27.1034 62.3368 25.7551V16.9013H65.1847V36.0159H64.3337Z" fill="white"/>
<path d="M73.492 35.9574C71.4658 35.9574 69.6168 35.3418 68.6475 34.6973L68.0019 31.5889C69.7933 32.85 71.6133 33.4945 73.6389 33.4945C75.7234 33.4945 77.1027 32.3217 77.1027 30.5923C77.1027 28.9799 76.1051 27.895 73.8447 27.1622C70.4971 26.0773 68.7357 24.2007 68.7357 21.6209C68.7357 19.0125 70.6737 16.5194 74.6658 16.5194C76.5151 16.5194 78.0713 17.1063 78.7472 17.6046L78.1889 19.9502C77.543 19.4812 76.0754 18.8653 74.5489 18.8653C72.6413 18.8653 71.4658 20.0381 71.4658 21.4154C71.4658 22.6469 72.5227 23.6445 74.4903 24.3186C77.7482 25.4318 79.9506 27.1622 79.9506 30.3285C79.9506 33.6707 77.7199 35.9574 73.492 35.9574Z" fill="white"/>
<path d="M88.1401 19.3045H85.8204V24.9926H88.1401C89.8132 24.9926 91.3684 24.113 91.3684 22.1491C91.3684 20.2138 89.8132 19.3045 88.1401 19.3045ZM88.6387 27.3965H85.8204V35.6055H83.0027V16.9013H88.6387C91.2808 16.9013 94.275 18.6014 94.275 22.1491C94.275 25.6955 91.2808 27.3965 88.6387 27.3965Z" fill="white"/>
<path d="M102.641 23.9371C102.376 23.3215 102.083 22.4415 101.848 21.6504H101.789C101.584 22.4415 101.261 23.3215 100.997 23.9371L99.1477 28.5104H104.491L102.641 23.9371ZM107.484 35.6055L105.459 30.7677H98.1784L96.1536 35.6055H93.3639L101.349 16.6375H102.376L110.362 35.6055H107.484Z" fill="white"/>
<path d="M126.331 20.214C125.42 19.6281 123.571 18.9826 121.633 18.9826C117.964 18.9826 114.088 21.3571 114.088 26.2532C114.088 31.0903 117.875 33.4945 121.633 33.4945C123.865 33.4945 125.626 33.0255 126.801 32.3217L126.213 35.0484C125.039 35.6639 123.718 35.9574 121.311 35.9574C116.584 35.9574 111.211 32.6445 111.211 26.2532C111.211 19.774 116.643 16.5194 121.311 16.5194C123.893 16.5194 125.684 17.1063 126.829 17.7511L126.331 20.214Z" fill="white"/>
<path d="M129.999 35.6055V16.9013H132.846V35.6055H129.999Z" fill="white"/>
<path d="M44.2464 39.2425L43.0588 39.2256L42.9614 46.0064L44.1484 46.0233C46.2089 46.0529 47.9269 45.0048 47.9599 42.6871C47.9932 40.3698 46.3063 39.2721 44.2464 39.2425ZM44.3748 47.2001L41.571 47.1593L41.7027 38.0323L44.5065 38.0727C47.0529 38.1094 49.4187 39.761 49.3759 42.7077C49.3338 45.6547 46.9215 47.2368 44.3748 47.2001Z" fill="#F36730"/>
<path d="M50.8128 47.2931L50.9449 38.1657L55.8659 38.2368L55.8487 39.4241L52.3151 39.3732L52.2747 42.1342L55.2365 42.177L55.2196 43.3646L52.2578 43.3219L52.2177 46.1257L56.252 46.184L56.2348 47.3712L50.8128 47.2931Z" fill="#F36730"/>
<path d="M59.6519 47.5923C58.664 47.5781 57.7678 47.2648 57.2999 46.943L57.0071 45.4222C57.8713 46.0499 58.753 46.3773 59.7401 46.3915C60.7559 46.4063 61.4365 45.8437 61.449 44.9994C61.4601 44.213 60.9817 43.677 59.8847 43.303C58.2621 42.7504 57.4164 41.8222 57.435 40.5632C57.4535 39.29 58.4154 38.0879 60.3604 38.1158C61.262 38.129 62.0157 38.4258 62.3411 38.6738L62.0531 39.8145C61.7418 39.5811 61.0312 39.2698 60.287 39.2593C59.3571 39.2458 58.7759 39.8102 58.7668 40.4827C58.7584 41.0834 59.2661 41.5766 60.2196 41.9199C61.7997 42.4863 62.8603 43.3458 62.8381 44.8909C62.8145 46.5219 61.7114 47.6219 59.6519 47.5923Z" fill="#F36730"/>
<path d="M64.5038 47.491L64.6362 38.3637L66.0233 38.3839L65.8916 47.5109L64.5038 47.491Z" fill="#F36730"/>
<path d="M72.6127 47.7794C70.1522 47.744 67.6293 46.0621 67.6738 42.9719C67.7193 39.8103 70.389 38.2605 72.6639 38.2935C73.9226 38.3117 74.934 38.6267 75.6001 39.0657L75.3248 40.2638C74.6591 39.8251 73.7622 39.5111 72.8034 39.4973C71.0153 39.4717 69.1104 40.6175 69.0757 43.0066C69.0414 45.367 70.8563 46.5523 72.7158 46.5793C73.5594 46.5914 74.2208 46.429 74.6537 46.1345L74.6806 44.2323L72.5783 44.202L72.5941 43.0861L76.0132 43.1353L75.9599 46.8404C75.0769 47.529 73.9721 47.7992 72.6127 47.7794Z" fill="#F36730"/>
<path d="M85.4737 47.9936L81.264 43.2542C80.5878 42.5002 79.8146 41.573 79.1953 40.8203L79.167 40.8345C79.1835 41.6643 79.1721 42.4368 79.1623 43.1235L79.0959 47.7015L77.7082 47.6816L77.8402 38.5539L78.7991 38.568L82.6565 42.9166C83.1777 43.5106 83.9937 44.4381 84.5418 45.1328L84.5708 45.119C84.5523 44.4179 84.5634 43.6312 84.5735 42.9729L84.6358 38.6523L86.0236 38.6725L85.8888 48L85.4737 47.9936Z" fill="#F36730"/>
<path d="M138.608 29.8212C139.432 30.4293 140.291 30.9276 141.191 31.3198C140.018 30.0934 139.245 28.3738 139.245 26.2242C139.245 21.592 142.827 18.9826 146.291 18.9826C149.696 18.9826 153.336 21.592 153.336 26.2242C153.336 28.681 152.311 30.5769 150.841 31.8157C152.187 31.3962 153.438 30.7558 154.614 29.8855L155.844 28.9755C156.082 28.1251 156.213 27.2064 156.213 26.2242C156.213 20.214 151.282 16.5194 146.291 16.5194C141.3 16.5194 136.368 20.214 136.368 26.2242C136.368 26.9577 136.441 27.6555 136.577 28.3168L138.608 29.8212Z" fill="white"/>
<path fill-rule="evenodd" clip-rule="evenodd" d="M155.409 31.0762C150.396 37.9799 142.355 37.4307 137.815 31.0108C140.527 33.0185 143.481 33.8618 146.649 33.8716C149.814 33.8807 152.757 33.037 155.409 31.0762Z" fill="#F36730"/>
<path fill-rule="evenodd" clip-rule="evenodd" d="M7.15306 4.92597C6.53717 4.93305 5.92567 5.66079 5.31383 6.05364C5.42231 6.2413 5.53013 6.42896 5.63761 6.61831C14.8229 6.61831 24.0079 6.61831 33.1936 6.61831C33.2836 6.41009 33.3746 6.20255 33.4645 5.994C32.7967 5.62205 32.132 4.9344 31.4602 4.92934C23.3584 4.8532 15.2559 4.85118 7.15306 4.92597Z" fill="white"/>
<path fill-rule="evenodd" clip-rule="evenodd" d="M7.50376 7.45799C7.51285 13.2546 7.61023 14.4318 7.43402 19.6527C8.0873 18.2198 8.90129 16.86 9.86487 15.5989C10.4188 14.8759 11.0181 14.1913 11.6559 13.5444C11.6559 11.7934 11.6559 9.8602 11.6539 7.45799H7.50376Z" fill="white"/>
<path fill-rule="evenodd" clip-rule="evenodd" d="M14.0315 7.45791C14.0315 8.97807 14.0329 10.2779 14.0335 11.4507C14.5571 11.0531 15.1019 10.6761 15.6646 10.3214C16.4162 9.84866 17.2434 9.40225 18.2507 8.92282C18.2507 8.30626 18.2507 7.80021 18.2487 7.45791H14.0315Z" fill="white"/>
<path fill-rule="evenodd" clip-rule="evenodd" d="M20.7154 7.45798C20.7154 7.99099 20.7154 8.50545 20.7154 9.0051C22.149 9.71027 23.4882 10.5377 24.7109 11.4791C24.7095 10.376 24.7075 9.10112 24.7035 7.45798H20.7154Z" fill="white"/>
<path fill-rule="evenodd" clip-rule="evenodd" d="M26.9731 7.45783C26.9711 8.52619 26.9718 10.9223 26.9731 13.4866C28.1988 14.7315 29.2702 16.1098 30.1627 17.601C30.5081 18.1785 30.8227 18.7732 31.1088 19.3783C31.1162 15.2123 31.1273 12.9866 31.0785 7.45783H26.9731Z" fill="white"/>
<path fill-rule="evenodd" clip-rule="evenodd" d="M36.962 3.8459C36.7589 4.00223 36.4981 4.08005 36.2185 4.08005C35.6376 4.08005 34.3695 3.37354 35.4368 2.94936C35.6309 2.87255 35.8863 2.75429 36.0348 2.9871C35.6282 2.88704 35.6855 3.42879 35.9028 3.59759C36.5635 4.10869 37.0443 3.27112 36.9027 2.68589C36.7845 2.19096 33.5915 2.21186 32.3908 2.22163C31.7072 2.22567 31.2163 2.22904 31.0017 2.19569L8.44142 2.19804C8.2605 2.22903 7.76692 2.225 7.08534 2.22163C5.88288 2.21422 2.69196 2.19096 2.57302 2.68589C2.4551 3.17712 2.68218 3.74011 3.27111 3.64476C3.78053 3.56255 3.82905 2.90657 3.32266 3.13332C3.71483 2.91601 4.46211 2.91836 4.3543 3.5612C4.22021 4.37923 2.96924 4.19528 2.51373 3.8459C2.31225 3.69058 1.99791 3.31964 2.17277 2.58886C2.33887 1.90324 3.95741 1.78936 7.08837 1.8116C7.7019 1.81598 8.23085 1.818 8.40976 1.79037L31.034 1.78835C31.2449 1.818 31.7749 1.8153 32.3867 1.8116C35.5197 1.79037 37.1372 1.90324 37.3023 2.58886C37.4779 3.31964 37.1649 3.69058 36.962 3.8459ZM35.8179 0.0582843C35.7842 0.0582843 35.7518 0.0616579 35.7185 0.0630059C35.7185 0.0582891 35.7185 0.0528994 35.7185 0.0475087C25.0844 0.0475087 14.4527 0.0475087 3.82264 0.0475087C3.65958 0.0178604 3.4928 -1.43051e-06 3.32266 -1.43051e-06C1.77891 -1.43051e-06 0.526596 1.25164 0.526596 2.79606C0.526596 4.33948 1.77891 5.59146 3.32266 5.59146C4.37081 5.59146 5.28081 5.01365 5.76126 4.16091C6.11603 4.16832 6.52067 4.16395 6.9846 4.1589C15.3095 4.04603 23.6357 4.04906 31.9605 4.13969C32.4929 4.14508 32.9467 4.14912 33.3382 4.1407C33.8028 5.03656 34.7381 5.64975 35.8179 5.64975C37.361 5.64975 38.6133 4.3981 38.6133 2.85368C38.6133 1.31026 37.361 0.0582843 35.8179 0.0582843Z" fill="white"/>
<path fill-rule="evenodd" clip-rule="evenodd" d="M31.0077 24.4907C30.567 22.3621 29.7854 20.3598 28.6692 18.4943C27.6446 16.7794 26.3879 15.2515 24.9078 13.9079C23.3331 12.4787 21.5723 11.3294 19.6519 10.4208C19.4929 10.345 19.3403 10.3332 19.1728 10.41C18.2874 10.8264 17.4199 11.2735 16.5914 11.7957C14.5207 13.0989 12.7354 14.7107 11.2476 16.6551C10.0801 18.1837 9.15901 19.8467 8.49023 21.6488C7.69141 23.8011 7.30059 26.0257 7.31238 28.3191C7.31912 29.4704 7.32552 30.6209 7.32687 31.7722C7.32754 33.5635 7.32754 35.3539 7.32687 37.1463H11.974C11.974 34.01 11.974 29.499 11.974 28.3912C11.974 27.7133 11.9689 27.0331 11.9649 26.3542C11.9568 25.0005 12.2051 23.6872 12.7104 22.4174C13.1343 21.3534 13.7165 20.3716 14.4557 19.4693C15.3963 18.3221 16.527 17.369 17.838 16.5998C18.3622 16.2932 18.9111 16.0281 19.4717 15.7835C19.5765 15.7366 19.6738 15.7444 19.7746 15.7892C20.9905 16.3256 22.1047 17.0038 23.1009 17.8474C24.0366 18.6405 24.8334 19.5438 25.4809 20.5556C26.1884 21.6563 26.6827 22.8375 26.961 24.0949C27.117 24.7967 27.2036 25.5086 27.2036 26.2275C27.2022 27.9381 27.2022 33.4793 27.2022 37.1463H31.3881C31.3874 34.1316 31.3867 31.1179 31.3894 28.1048C31.3894 26.8859 31.2533 25.6807 31.0077 24.4907Z" fill="#C8BAA0"/>
<path fill-rule="evenodd" clip-rule="evenodd" d="M16.2756 37.1463H23.5699V30.3167L16.2756 25.454V37.1463Z" fill="#F36730"/>
<path d="M20.1469 42.1223H34.8027L31.6516 38.7717H7.11834L3.96649 42.1223H18.6237H20.1469Z" fill="white"/>
<path d="M35.6157 43.6467H3.15286L0 46.9984H38.7686L35.6157 43.6467Z" fill="white"/>
</svg>
