<?xml version="1.0" encoding="UTF-8" standalone="no"?>
<!-- Created with Inkscape (http://www.inkscape.org/) -->

<svg
   version="1.1"
   id="svg1"
   width="1122.52"
   height="793.70667"
   viewBox="0 0 1122.52 793.70667"
   sodipodi:docname="FINAL-INSPACIO DESIGN-only logo brandname-04.eps"
   xmlns:inkscape="http://www.inkscape.org/namespaces/inkscape"
   xmlns:sodipodi="http://sodipodi.sourceforge.net/DTD/sodipodi-0.dtd"
   xmlns="http://www.w3.org/2000/svg"
   xmlns:svg="http://www.w3.org/2000/svg">
  <defs
     id="defs1" />
  <sodipodi:namedview
     id="namedview1"
     pagecolor="#ffffff"
     bordercolor="#000000"
     borderopacity="0.25"
     inkscape:showpageshadow="2"
     inkscape:pageopacity="0.0"
     inkscape:pagecheckerboard="0"
     inkscape:deskcolor="#d1d1d1">
    <inkscape:page
       x="0"
       y="0"
       inkscape:label="1"
       id="page1"
       width="1122.52"
       height="793.70667"
       margin="0"
       bleed="0" />
  </sodipodi:namedview>
  <g
     id="g1"
     inkscape:groupmode="layer"
     inkscape:label="1">
    <g
       id="group-R5">
      <path
         id="path2"
         d="M 8418.9,-0.0078125 H 0 V 5952.81 H 8418.9 V -0.0078125"
         style="fill:#222f36;fill-opacity:1;fill-rule:evenodd;stroke:none"
         transform="matrix(0.13333333,0,0,-0.13333333,0,793.70667)" />
      <path
         id="path3"
         d="m 3116.69,2679.26 v 555.16 h 84.49 v -555.16 h -84.49"
         style="fill:#ffffff;fill-opacity:1;fill-rule:nonzero;stroke:none"
         transform="matrix(0.13333333,0,0,-0.13333333,0,793.70667)" />
      <path
         id="path4"
         d="m 3800.65,2667.08 -260.52,284.54 c -41.82,45.26 -89.75,100.94 -128.07,146.2 l -1.76,-0.88 c 1.76,-50.47 1.76,-97.44 1.76,-139.23 v -278.45 h -84.53 v 555.16 h 58.38 l 238.73,-261.02 c 32.24,-35.7 82.77,-91.37 116.74,-133.16 l 1.75,0.88 c -1.75,42.63 -1.75,90.49 -1.75,130.51 v 262.79 h 84.53 v -567.34 h -25.26"
         style="fill:#ffffff;fill-opacity:1;fill-rule:nonzero;stroke:none"
         transform="matrix(0.13333333,0,0,-0.13333333,0,793.70667)" />
      <path
         id="path5"
         d="m 4072.47,2668.82 c -60.14,0 -115.02,18.27 -143.79,37.4 l -19.16,92.26 c 53.17,-37.43 107.19,-56.56 167.31,-56.56 61.87,0 102.81,34.81 102.81,86.14 0,47.86 -29.61,80.06 -96.7,101.81 -99.36,32.2 -151.64,87.9 -151.64,164.47 0,77.42 57.52,151.42 176.01,151.42 54.89,0 101.08,-17.42 121.14,-32.21 l -16.57,-69.62 c -19.17,13.92 -62.73,32.2 -108.04,32.2 -56.62,0 -91.51,-34.81 -91.51,-75.69 0,-36.55 31.37,-66.16 89.77,-86.17 96.7,-33.04 162.07,-84.4 162.07,-178.38 0,-99.2 -66.21,-167.07 -191.7,-167.07"
         style="fill:#ffffff;fill-opacity:1;fill-rule:nonzero;stroke:none"
         transform="matrix(0.13333333,0,0,-0.13333333,0,793.70667)" />
      <path
         id="path6"
         d="m 4507.24,3163.09 h -68.85 v -168.83 h 68.85 c 49.66,0 95.82,26.11 95.82,84.4 0,57.44 -46.16,84.43 -95.82,84.43 z m 14.8,-240.18 h -83.65 v -243.65 h -83.63 v 555.16 h 167.28 c 78.42,0 167.29,-50.46 167.29,-155.76 0,-105.26 -88.87,-155.75 -167.29,-155.75"
         style="fill:#ffffff;fill-opacity:1;fill-rule:nonzero;stroke:none"
         transform="matrix(0.13333333,0,0,-0.13333333,0,793.70667)" />
      <path
         id="path7"
         d="m 4937.65,3025.59 c -7.86,18.27 -16.57,44.39 -23.54,67.87 h -1.76 c -6.07,-23.48 -15.68,-49.6 -23.51,-67.87 l -54.88,-135.74 h 158.59 z m 143.75,-346.33 -60.12,143.59 h -216.09 l -60.1,-143.59 h -82.8 l 237.02,562.99 h 30.48 l 237.02,-562.99 h -85.41"
         style="fill:#ffffff;fill-opacity:1;fill-rule:nonzero;stroke:none"
         transform="matrix(0.13333333,0,0,-0.13333333,0,793.70667)" />
      <path
         id="path8"
         d="m 5640.79,3136.1 c -27.03,17.39 -81.91,36.55 -139.45,36.55 -108.89,0 -223.93,-70.48 -223.93,-215.8 0,-143.57 112.4,-214.93 223.93,-214.93 66.25,0 118.53,13.92 153.38,34.81 l -17.44,-80.93 c -34.85,-18.27 -74.05,-26.98 -145.49,-26.98 -140.32,0 -299.77,98.33 -299.77,288.03 0,192.31 161.23,288.91 299.77,288.91 76.64,0 129.8,-17.42 163.77,-36.56 l -14.77,-73.1"
         style="fill:#ffffff;fill-opacity:1;fill-rule:nonzero;stroke:none"
         transform="matrix(0.13333333,0,0,-0.13333333,0,793.70667)" />
      <path
         id="path9"
         d="m 5749.64,2679.26 v 555.16 h 84.51 v -555.16 h -84.51"
         style="fill:#ffffff;fill-opacity:1;fill-rule:nonzero;stroke:none"
         transform="matrix(0.13333333,0,0,-0.13333333,0,793.70667)" />
      <path
         id="path10"
         d="m 3204.44,2571.31 -35.25,0.5 -2.89,-201.26 35.23,-0.5 c 61.16,-0.88 112.15,30.23 113.13,99.02 0.99,68.78 -49.08,101.36 -110.22,102.24 z m 3.81,-236.19 -83.22,1.21 3.91,270.9 83.22,-1.2 c 75.58,-1.09 145.8,-50.11 144.53,-137.57 -1.25,-87.47 -72.85,-134.43 -148.44,-133.34"
         style="fill:#f36730;fill-opacity:1;fill-rule:nonzero;stroke:none"
         transform="matrix(0.13333333,0,0,-0.13333333,0,793.70667)" />
      <path
         id="path11"
         d="m 3399.33,2332.36 3.92,270.91 146.06,-2.11 -0.51,-35.24 -104.88,1.51 -1.2,-81.95 87.91,-1.27 -0.5,-35.25 -87.91,1.27 -1.19,-83.22 119.74,-1.73 -0.51,-35.24 -160.93,2.32"
         style="fill:#f36730;fill-opacity:1;fill-rule:nonzero;stroke:none"
         transform="matrix(0.13333333,0,0,-0.13333333,0,793.70667)" />
      <path
         id="path12"
         d="m 3661.69,2323.48 c -29.32,0.42 -55.92,9.72 -69.81,19.27 l -8.69,45.14 c 25.65,-18.63 51.82,-28.35 81.12,-28.77 30.15,-0.44 50.35,16.26 50.72,41.32 0.33,23.34 -13.87,39.25 -46.43,50.35 -48.16,16.4 -73.26,43.95 -72.71,81.32 0.55,37.79 29.1,73.47 86.83,72.64 26.76,-0.39 49.13,-9.2 58.79,-16.56 l -8.55,-33.86 c -9.24,6.93 -30.33,16.17 -52.42,16.48 -27.6,0.4 -44.85,-16.35 -45.12,-36.31 -0.25,-17.83 14.82,-32.47 43.12,-42.66 46.9,-16.81 78.38,-42.32 77.72,-88.18 -0.7,-48.41 -33.44,-81.06 -94.57,-80.18"
         style="fill:#f36730;fill-opacity:1;fill-rule:nonzero;stroke:none"
         transform="matrix(0.13333333,0,0,-0.13333333,0,793.70667)" />
      <path
         id="path13"
         d="m 3805.69,2326.49 3.93,270.91 41.17,-0.6 -3.91,-270.9 -41.19,0.59"
         style="fill:#f36730;fill-opacity:1;fill-rule:nonzero;stroke:none"
         transform="matrix(0.13333333,0,0,-0.13333333,0,793.70667)" />
      <path
         id="path14"
         d="m 4046.38,2317.93 c -73.03,1.05 -147.91,50.97 -146.59,142.69 1.35,93.84 80.59,139.84 148.11,138.86 37.36,-0.54 67.38,-9.89 87.15,-22.92 l -8.17,-35.56 c -19.76,13.02 -46.38,22.34 -74.84,22.75 -53.07,0.76 -109.61,-33.25 -110.64,-104.16 -1.02,-70.06 52.85,-105.24 108.04,-106.04 25.04,-0.36 44.67,4.46 57.52,13.2 l 0.8,56.46 -62.4,0.9 0.47,33.12 101.48,-1.46 -1.58,-109.97 c -26.21,-20.44 -59,-28.46 -99.35,-27.87"
         style="fill:#f36730;fill-opacity:1;fill-rule:nonzero;stroke:none"
         transform="matrix(0.13333333,0,0,-0.13333333,0,793.70667)" />
      <path
         id="path15"
         d="m 4428.1,2311.57 -124.95,140.67 c -20.07,22.38 -43.02,49.9 -61.4,72.24 l -0.84,-0.42 c 0.49,-24.63 0.15,-47.56 -0.14,-67.94 l -1.97,-135.88 -41.19,0.59 3.92,270.92 28.46,-0.42 114.49,-129.07 c 15.47,-17.63 39.69,-45.16 55.96,-65.78 l 0.86,0.41 c -0.55,20.81 -0.22,44.16 0.08,63.7 l 1.85,128.24 41.19,-0.6 -4,-276.85 -12.32,0.19"
         style="fill:#f36730;fill-opacity:1;fill-rule:nonzero;stroke:none"
         transform="matrix(0.13333333,0,0,-0.13333333,0,793.70667)" />
      <path
         id="path16"
         d="m 6005.19,2850.95 c 24.45,-18.05 49.94,-32.84 76.66,-44.48 -34.83,36.4 -57.76,87.44 -57.76,151.24 0,137.49 106.31,214.94 209.12,214.94 101.06,0 209.1,-77.45 209.1,-214.94 0,-72.92 -30.41,-129.19 -74.04,-165.96 39.94,12.45 77.07,31.46 111.99,57.29 l 36.51,27.01 c 7.05,25.24 10.95,52.51 10.95,81.66 0,178.39 -146.38,288.05 -294.51,288.05 -148.12,0 -294.53,-109.66 -294.53,-288.05 0,-21.77 2.19,-42.48 6.23,-62.11 l 60.28,-44.65"
         style="fill:#ffffff;fill-opacity:1;fill-rule:nonzero;stroke:none"
         transform="matrix(0.13333333,0,0,-0.13333333,0,793.70667)" />
      <path
         id="path17"
         d="m 6503.84,2813.7 c -148.77,-204.91 -387.44,-188.61 -522.19,1.94 80.49,-59.59 168.18,-84.62 262.21,-84.91 93.92,-0.27 181.27,24.77 259.98,82.97"
         style="fill:#f36730;fill-opacity:1;fill-rule:evenodd;stroke:none"
         transform="matrix(0.13333333,0,0,-0.13333333,0,793.70667)" />
      <path
         id="path18"
         d="m 2103.47,3589.86 c -18.28,-0.21 -36.43,-21.81 -54.59,-33.47 3.22,-5.57 6.42,-11.14 9.61,-16.76 272.63,0 545.25,0 817.89,0 2.67,6.18 5.37,12.34 8.04,18.53 -19.82,11.04 -39.55,31.45 -59.49,31.6 -240.47,2.26 -480.96,2.32 -721.46,0.1"
         style="fill:#ffffff;fill-opacity:1;fill-rule:evenodd;stroke:none"
         transform="matrix(0.13333333,0,0,-0.13333333,0,793.70667)" />
      <path
         id="path19"
         d="m 2113.88,3514.71 c 0.27,-172.05 3.16,-206.99 -2.07,-361.95 19.39,42.53 43.55,82.89 72.15,120.32 16.44,21.46 34.23,41.78 53.16,60.98 0,51.97 0,109.35 -0.06,180.65 h -123.18"
         style="fill:#ffffff;fill-opacity:1;fill-rule:evenodd;stroke:none"
         transform="matrix(0.13333333,0,0,-0.13333333,0,793.70667)" />
      <path
         id="path20"
         d="m 2307.63,3514.71 c 0,-45.12 0.04,-83.7 0.06,-118.51 15.54,11.8 31.71,22.99 48.41,33.52 22.31,14.03 46.86,27.28 76.76,41.51 0,18.3 0,33.32 -0.06,43.48 h -125.17"
         style="fill:#ffffff;fill-opacity:1;fill-rule:evenodd;stroke:none"
         transform="matrix(0.13333333,0,0,-0.13333333,0,793.70667)" />
      <path
         id="path21"
         d="m 2506.01,3514.71 c 0,-15.82 0,-31.09 0,-45.92 42.55,-20.93 82.3,-45.49 118.59,-73.43 -0.04,32.74 -0.1,70.58 -0.22,119.35 h -118.37"
         style="fill:#ffffff;fill-opacity:1;fill-rule:evenodd;stroke:none"
         transform="matrix(0.13333333,0,0,-0.13333333,0,793.70667)" />
      <path
         id="path22"
         d="m 2691.75,3514.71 c -0.06,-31.71 -0.04,-102.83 0,-178.94 36.38,-36.95 68.18,-77.86 94.67,-122.12 10.25,-17.14 19.59,-34.79 28.08,-52.75 0.22,123.65 0.55,189.71 -0.9,353.81 h -121.85"
         style="fill:#ffffff;fill-opacity:1;fill-rule:evenodd;stroke:none"
         transform="matrix(0.13333333,0,0,-0.13333333,0,793.70667)" />
      <path
         id="path23"
         d="m 2988.23,3621.92 c -6.03,-4.64 -13.77,-6.95 -22.07,-6.95 -17.24,0 -54.88,20.97 -23.2,33.56 5.76,2.28 13.34,5.79 17.75,-1.12 -12.07,2.97 -10.37,-13.11 -3.92,-18.12 19.61,-15.17 33.88,9.69 29.68,27.06 -3.51,14.69 -98.28,14.07 -133.92,13.78 -20.29,-0.12 -34.86,-0.22 -41.23,0.77 l -669.61,-0.07 c -5.37,-0.92 -20.02,-0.8 -40.25,-0.7 -35.69,0.22 -130.4,0.91 -133.93,-13.78 -3.5,-14.58 3.24,-31.29 20.72,-28.46 15.12,2.44 16.56,21.91 1.53,15.18 11.64,6.45 33.82,6.38 30.62,-12.7 -3.98,-24.28 -41.11,-18.82 -54.63,-8.45 -5.98,4.61 -15.31,15.62 -10.12,37.31 4.93,20.35 52.97,23.73 145.9,23.07 18.21,-0.13 33.91,-0.19 39.22,0.63 l 671.51,0.06 c 6.26,-0.88 21.99,-0.8 40.15,-0.69 92.99,0.63 141,-2.72 145.9,-23.07 5.21,-21.69 -4.08,-32.7 -10.1,-37.31 z m -33.96,112.42 c -1,0 -1.96,-0.1 -2.95,-0.14 0,0.14 0,0.3 0,0.46 -315.63,0 -631.19,0 -946.7,0 -4.84,0.88 -9.79,1.41 -14.84,1.41 -45.82,0 -82.99,-37.15 -82.99,-82.99 0,-45.81 37.17,-82.97 82.99,-82.97 31.11,0 58.12,17.15 72.38,42.46 10.53,-0.22 22.54,-0.09 36.31,0.06 247.09,3.35 494.22,3.26 741.31,0.57 15.8,-0.16 29.27,-0.28 40.89,-0.03 13.79,-26.59 41.55,-44.79 73.6,-44.79 45.8,0 82.97,37.15 82.97,82.99 0,45.81 -37.17,82.97 -82.97,82.97"
         style="fill:#ffffff;fill-opacity:1;fill-rule:evenodd;stroke:none"
         transform="matrix(0.13333333,0,0,-0.13333333,0,793.70667)" />
      <path
         id="path24"
         d="m 2811.49,3009.16 c -13.08,63.18 -36.28,122.61 -69.41,177.98 -30.41,50.9 -67.71,96.25 -111.64,136.13 -46.74,42.42 -99,76.53 -156,103.5 -4.72,2.25 -9.25,2.6 -14.22,0.32 -26.28,-12.36 -52.03,-25.63 -76.62,-41.13 -61.46,-38.68 -114.45,-86.52 -158.61,-144.23 -34.65,-45.37 -61.99,-94.73 -81.84,-148.22 -23.71,-63.88 -35.31,-129.91 -34.96,-197.98 0.2,-34.17 0.39,-68.32 0.43,-102.49 0.02,-53.17 0.02,-106.31 0,-159.51 h 137.93 c 0,93.09 0,226.98 0,259.86 0,20.12 -0.15,40.31 -0.27,60.46 -0.24,40.18 7.13,79.16 22.13,116.85 12.58,31.58 29.86,60.72 51.8,87.5 27.92,34.05 61.48,62.34 100.39,85.17 15.56,9.1 31.85,16.97 48.49,24.23 3.11,1.39 6,1.16 8.99,-0.17 36.09,-15.92 69.16,-36.05 98.73,-61.09 27.77,-23.54 51.42,-50.35 70.64,-80.38 21,-32.67 35.67,-67.73 43.93,-105.05 4.63,-20.83 7.2,-41.96 7.2,-63.3 -0.04,-50.77 -0.04,-215.24 -0.04,-324.08 h 124.24 c -0.02,89.48 -0.04,178.93 0.04,268.36 0,36.18 -4.04,71.95 -11.33,107.27"
         style="fill:#c8baa0;fill-opacity:1;fill-rule:evenodd;stroke:none"
         transform="matrix(0.13333333,0,0,-0.13333333,0,793.70667)" />
      <path
         id="path25"
         d="m 2374.23,2633.53 h 216.5 v 202.71 l -216.5,144.33 v -347.04"
         style="fill:#f36730;fill-opacity:1;fill-rule:evenodd;stroke:none"
         transform="matrix(0.13333333,0,0,-0.13333333,0,793.70667)" />
      <path
         id="path26"
         d="m 2489.13,2485.84 h 435 l -93.53,99.45 h -728.17 l -93.55,-99.45 h 435.04 45.21"
         style="fill:#ffffff;fill-opacity:1;fill-rule:nonzero;stroke:none"
         transform="matrix(0.13333333,0,0,-0.13333333,0,793.70667)" />
      <path
         id="path27"
         d="m 2948.27,2440.59 h -963.53 l -93.58,-99.48 h 1150.69 l -93.58,99.48"
         style="fill:#ffffff;fill-opacity:1;fill-rule:nonzero;stroke:none"
         transform="matrix(0.13333333,0,0,-0.13333333,0,793.70667)" />
    </g>
  </g>
</svg>
