<?xml version="1.0" encoding="UTF-8" standalone="no"?>
<!-- Created with Inkscape (http://www.inkscape.org/) -->

<svg
   version="1.1"
   id="svg1"
   width="1122.52"
   height="793.70667"
   viewBox="0 0 1122.52 793.70667"
   sodipodi:docname="FINAL-INSPACIO DESIGN-only logo brandname-03.eps"
   xmlns:inkscape="http://www.inkscape.org/namespaces/inkscape"
   xmlns:sodipodi="http://sodipodi.sourceforge.net/DTD/sodipodi-0.dtd"
   xmlns="http://www.w3.org/2000/svg"
   xmlns:svg="http://www.w3.org/2000/svg">
  <defs
     id="defs1" />
  <sodipodi:namedview
     id="namedview1"
     pagecolor="#ffffff"
     bordercolor="#000000"
     borderopacity="0.25"
     inkscape:showpageshadow="2"
     inkscape:pageopacity="0.0"
     inkscape:pagecheckerboard="0"
     inkscape:deskcolor="#d1d1d1">
    <inkscape:page
       x="0"
       y="0"
       inkscape:label="1"
       id="page1"
       width="1122.52"
       height="793.70667"
       margin="0"
       bleed="0" />
  </sodipodi:namedview>
  <g
     id="g1"
     inkscape:groupmode="layer"
     inkscape:label="1">
    <g
       id="group-R5">
      <path
         id="path2"
         d="m 3117.12,2678.89 v 555.36 h 84.55 v -555.36 h -84.55"
         style="fill:#2b393c;fill-opacity:1;fill-rule:nonzero;stroke:none"
         transform="matrix(0.13333333,0,0,-0.13333333,0,793.70667)" />
      <path
         id="path3"
         d="m 3801.34,2666.71 -260.62,284.63 c -41.83,45.26 -89.77,100.98 -128.13,146.25 l -1.74,-0.88 c 1.74,-50.49 1.74,-97.49 1.74,-139.28 v -278.54 h -84.55 v 555.36 h 58.41 l 238.82,-261.14 c 32.25,-35.7 82.82,-91.4 116.8,-133.2 l 1.74,0.88 c -1.74,42.65 -1.74,90.53 -1.74,130.57 v 262.89 h 84.55 v -567.54 h -25.28"
         style="fill:#2b393c;fill-opacity:1;fill-rule:nonzero;stroke:none"
         transform="matrix(0.13333333,0,0,-0.13333333,0,793.70667)" />
      <path
         id="path4"
         d="m 4073.26,2668.44 c -60.15,0 -115.07,18.29 -143.84,37.41 l -19.18,92.28 c 53.19,-37.44 107.23,-56.58 167.37,-56.58 61.89,0 102.86,34.82 102.86,86.17 0,47.89 -29.64,80.1 -96.76,101.86 -99.36,32.2 -151.67,87.92 -151.67,164.52 0,77.47 57.53,151.47 176.08,151.47 54.92,0 101.12,-17.41 121.17,-32.2 l -16.58,-69.65 c -19.17,13.93 -62.75,32.21 -108.07,32.21 -56.66,0 -91.53,-34.82 -91.53,-75.73 0,-36.57 31.38,-66.16 89.78,-86.18 96.76,-33.08 162.14,-84.44 162.14,-178.47 0,-99.23 -66.26,-167.11 -191.77,-167.11"
         style="fill:#2b393c;fill-opacity:1;fill-rule:nonzero;stroke:none"
         transform="matrix(0.13333333,0,0,-0.13333333,0,793.70667)" />
      <path
         id="path5"
         d="m 4508.17,3162.87 h -68.86 V 2994 h 68.86 c 49.69,0 95.88,26.11 95.88,84.43 0,57.46 -46.19,84.44 -95.88,84.44 z m 14.81,-240.27 h -83.67 v -243.71 h -83.68 v 555.36 h 167.35 c 78.46,0 167.36,-50.49 167.36,-155.82 0,-105.32 -88.9,-155.83 -167.36,-155.83"
         style="fill:#2b393c;fill-opacity:1;fill-rule:nonzero;stroke:none"
         transform="matrix(0.13333333,0,0,-0.13333333,0,793.70667)" />
      <path
         id="path6"
         d="m 4938.75,3025.33 c -7.85,18.29 -16.56,44.4 -23.54,67.9 h -1.75 c -6.1,-23.5 -15.69,-49.61 -23.54,-67.9 l -54.89,-135.79 h 158.62 z m 143.8,-346.44 -60.13,143.62 h -216.16 l -60.16,-143.62 h -82.79 l 237.08,563.19 h 30.51 l 237.08,-563.19 h -85.43"
         style="fill:#2b393c;fill-opacity:1;fill-rule:nonzero;stroke:none"
         transform="matrix(0.13333333,0,0,-0.13333333,0,793.70667)" />
      <path
         id="path7"
         d="m 5642.13,3135.89 c -27.03,17.4 -81.93,36.56 -139.47,36.56 -108.96,0 -224.02,-70.5 -224.02,-215.88 0,-143.63 112.44,-215.02 224.02,-215.02 66.25,0 118.55,13.93 153.41,34.82 l -17.44,-80.93 c -34.86,-18.28 -74.08,-27 -145.55,-27 -140.36,0 -299.87,98.34 -299.87,288.13 0,192.38 161.27,289 299.87,289 76.69,0 129.87,-17.41 163.85,-36.55 l -14.8,-73.13"
         style="fill:#2b393c;fill-opacity:1;fill-rule:nonzero;stroke:none"
         transform="matrix(0.13333333,0,0,-0.13333333,0,793.70667)" />
      <path
         id="path8"
         d="m 5751.04,2678.89 v 555.36 h 84.54 v -555.36 h -84.54"
         style="fill:#2b393c;fill-opacity:1;fill-rule:nonzero;stroke:none"
         transform="matrix(0.13333333,0,0,-0.13333333,0,793.70667)" />
      <path
         id="path9"
         d="m 3185.52,2571.45 -35.27,0.51 -2.9,-201.34 35.27,-0.51 c 61.16,-0.87 112.17,30.25 113.15,99.06 1,68.81 -49.09,101.39 -110.25,102.28 z m 3.8,-236.27 -83.25,1.2 3.92,270.99 83.24,-1.2 c 75.62,-1.08 145.85,-50.11 144.58,-137.61 -1.26,-87.5 -72.88,-134.47 -148.49,-133.38"
         style="fill:#f36730;fill-opacity:1;fill-rule:nonzero;stroke:none"
         transform="matrix(0.13333333,0,0,-0.13333333,0,793.70667)" />
      <path
         id="path10"
         d="m 3380.49,2332.42 3.91,271 146.12,-2.11 -0.51,-35.26 -104.92,1.52 -1.19,-81.99 87.93,-1.27 -0.51,-35.25 -87.93,1.27 -1.2,-83.25 119.78,-1.73 -0.51,-35.26 -160.97,2.33"
         style="fill:#f36730;fill-opacity:1;fill-rule:nonzero;stroke:none"
         transform="matrix(0.13333333,0,0,-0.13333333,0,793.70667)" />
      <path
         id="path11"
         d="m 3642.91,2323.53 c -29.31,0.42 -55.93,9.73 -69.82,19.28 l -8.69,45.16 c 25.65,-18.64 51.85,-28.36 81.16,-28.79 30.15,-0.43 50.35,16.27 50.71,41.33 0.34,23.36 -13.86,39.28 -46.42,50.38 -48.19,16.41 -73.29,43.96 -72.74,81.34 0.55,37.81 29.1,73.5 86.86,72.67 26.76,-0.39 49.15,-9.21 58.81,-16.57 l -8.56,-33.87 c -9.25,6.93 -30.34,16.16 -52.43,16.48 -27.62,0.4 -44.85,-16.34 -45.14,-36.3 -0.25,-17.85 14.81,-32.5 43.14,-42.69 46.92,-16.83 78.41,-42.34 77.75,-88.21 -0.7,-48.42 -33.47,-81.09 -94.63,-80.21"
         style="fill:#f36730;fill-opacity:1;fill-rule:nonzero;stroke:none"
         transform="matrix(0.13333333,0,0,-0.13333333,0,793.70667)" />
      <path
         id="path12"
         d="m 3786.98,2326.55 3.92,271 41.2,-0.6 -3.92,-271 -41.2,0.6"
         style="fill:#f36730;fill-opacity:1;fill-rule:nonzero;stroke:none"
         transform="matrix(0.13333333,0,0,-0.13333333,0,793.70667)" />
      <path
         id="path13"
         d="m 4027.74,2317.98 c -73.05,1.05 -147.95,50.99 -146.63,142.74 1.36,93.87 80.62,139.88 148.16,138.91 37.37,-0.55 67.41,-9.91 87.19,-22.93 l -8.17,-35.57 c -19.78,13.03 -46.41,22.33 -74.86,22.74 -53.1,0.78 -109.67,-33.25 -110.7,-104.18 -1.01,-70.08 52.87,-105.28 108.08,-106.07 25.07,-0.36 44.67,4.45 57.55,13.18 l 0.82,56.5 -62.44,0.91 0.48,33.12 101.52,-1.46 -1.59,-110.01 c -26.22,-20.44 -59.06,-28.47 -99.41,-27.88"
         style="fill:#f36730;fill-opacity:1;fill-rule:nonzero;stroke:none"
         transform="matrix(0.13333333,0,0,-0.13333333,0,793.70667)" />
      <path
         id="path14"
         d="m 4409.61,2311.61 -125,140.73 c -20.07,22.38 -43.04,49.9 -61.41,72.26 l -0.85,-0.41 c 0.49,-24.65 0.16,-47.59 -0.13,-67.97 l -1.97,-135.93 -41.2,0.6 3.92,270.99 28.46,-0.41 114.54,-129.11 c 15.48,-17.64 39.69,-45.18 55.97,-65.81 l 0.86,0.42 c -0.54,20.82 -0.21,44.18 0.07,63.72 l 1.86,128.27 41.2,-0.59 -4.01,-276.94 -12.31,0.18"
         style="fill:#f36730;fill-opacity:1;fill-rule:nonzero;stroke:none"
         transform="matrix(0.13333333,0,0,-0.13333333,0,793.70667)" />
      <path
         id="path15"
         d="m 6006.69,2850.63 c 24.44,-18.06 49.94,-32.85 76.65,-44.51 -34.83,36.43 -57.76,87.48 -57.76,151.31 0,137.54 106.34,215.02 209.19,215.02 101.11,0 209.19,-77.48 209.19,-215.02 0,-72.95 -30.42,-129.24 -74.07,-166.04 39.94,12.46 77.1,31.49 112.03,57.33 l 36.51,27.01 c 7.06,25.25 10.95,52.54 10.95,81.7 0,178.46 -146.43,288.14 -294.61,288.14 -148.18,0 -294.62,-109.68 -294.62,-288.14 0,-21.78 2.18,-42.5 6.21,-62.13 l 60.33,-44.67"
         style="fill:#2b393c;fill-opacity:1;fill-rule:nonzero;stroke:none"
         transform="matrix(0.13333333,0,0,-0.13333333,0,793.70667)" />
      <path
         id="path16"
         d="m 6505.5,2813.37 c -148.8,-204.98 -387.56,-188.66 -522.37,1.93 80.51,-59.61 168.25,-84.65 262.3,-84.94 93.95,-0.27 181.35,24.78 260.07,83.01"
         style="fill:#f36730;fill-opacity:1;fill-rule:evenodd;stroke:none"
         transform="matrix(0.13333333,0,0,-0.13333333,0,793.70667)" />
      <path
         id="path17"
         d="m 2103.54,3589.81 c -18.31,-0.22 -36.45,-21.82 -54.63,-33.48 3.22,-5.58 6.44,-11.15 9.63,-16.77 272.75,0 545.45,0 818.18,0 2.67,6.19 5.37,12.36 8.07,18.55 -19.85,11.03 -39.59,31.44 -59.52,31.6 -240.57,2.26 -481.15,2.32 -721.73,0.1"
         style="fill:#2b393c;fill-opacity:1;fill-rule:evenodd;stroke:none"
         transform="matrix(0.13333333,0,0,-0.13333333,0,793.70667)" />
      <path
         id="path18"
         d="m 2113.95,3514.64 c 0.27,-172.11 3.16,-207.07 -2.07,-362.09 19.41,42.56 43.57,82.93 72.18,120.37 16.45,21.46 34.24,41.79 53.19,60.99 -0.02,52 -0.02,109.4 -0.06,180.73 h -123.24"
         style="fill:#2b393c;fill-opacity:1;fill-rule:evenodd;stroke:none"
         transform="matrix(0.13333333,0,0,-0.13333333,0,793.70667)" />
      <path
         id="path19"
         d="m 2307.77,3514.64 c 0,-45.14 0.02,-83.73 0.06,-118.56 15.55,11.8 31.72,22.99 48.44,33.54 22.3,14.02 46.87,27.28 76.78,41.52 0,18.3 0,33.34 -0.06,43.5 h -125.22"
         style="fill:#2b393c;fill-opacity:1;fill-rule:evenodd;stroke:none"
         transform="matrix(0.13333333,0,0,-0.13333333,0,793.70667)" />
      <path
         id="path20"
         d="m 2506.21,3514.64 c 0,-15.82 0,-31.1 0,-45.94 42.59,-20.94 82.33,-45.51 118.65,-73.46 -0.04,32.76 -0.1,70.61 -0.21,119.4 h -118.44"
         style="fill:#2b393c;fill-opacity:1;fill-rule:evenodd;stroke:none"
         transform="matrix(0.13333333,0,0,-0.13333333,0,793.70667)" />
      <path
         id="path21"
         d="m 2692.02,3514.64 c -0.05,-31.72 -0.02,-102.88 0,-179.01 36.43,-36.97 68.22,-77.89 94.71,-122.16 10.26,-17.15 19.6,-34.81 28.11,-52.77 0.2,123.68 0.55,189.78 -0.91,353.94 h -121.91"
         style="fill:#2b393c;fill-opacity:1;fill-rule:evenodd;stroke:none"
         transform="matrix(0.13333333,0,0,-0.13333333,0,793.70667)" />
      <path
         id="path22"
         d="m 2988.61,3621.88 c -6.03,-4.63 -13.75,-6.96 -22.05,-6.96 -17.26,0 -54.92,20.98 -23.24,33.58 5.78,2.28 13.36,5.8 17.77,-1.12 -12.09,2.97 -10.37,-13.12 -3.92,-18.12 19.61,-15.18 33.9,9.69 29.71,27.07 -3.52,14.69 -98.33,14.06 -133.99,13.79 -20.29,-0.14 -34.9,-0.24 -41.23,0.76 l -669.86,-0.08 c -5.37,-0.92 -20.02,-0.8 -40.28,-0.68 -35.69,0.21 -130.43,0.9 -133.97,-13.79 -3.51,-14.59 3.25,-31.31 20.73,-28.48 15.12,2.45 16.56,21.92 1.52,15.2 11.66,6.44 33.83,6.37 30.66,-12.72 -4,-24.27 -41.14,-18.82 -54.67,-8.45 -6,4.61 -15.32,15.62 -10.11,37.32 4.92,20.35 52.99,23.73 145.94,23.09 18.2,-0.14 33.93,-0.2 39.24,0.62 l 671.76,0.06 c 6.27,-0.88 21.99,-0.8 40.17,-0.68 93.01,0.62 141.06,-2.74 145.94,-23.09 5.22,-21.7 -4.08,-32.71 -10.12,-37.32 z m -33.96,112.48 c -1,0 -1.97,-0.12 -2.95,-0.16 0,0.16 0,0.31 0,0.47 -315.75,0 -631.43,0 -947.05,0 -4.84,0.88 -9.78,1.41 -14.85,1.41 -45.83,0 -83,-37.17 -83,-83.03 0,-45.82 37.17,-82.99 83,-82.99 31.13,0 58.17,17.15 72.4,42.46 10.55,-0.21 22.57,-0.08 36.32,0.08 247.18,3.34 494.42,3.24 741.6,0.57 15.8,-0.16 29.27,-0.3 40.9,-0.04 13.8,-26.6 41.56,-44.81 73.63,-44.81 45.84,0 82.99,37.17 82.99,83.03 0,45.82 -37.15,83.01 -82.99,83.01"
         style="fill:#2b393c;fill-opacity:1;fill-rule:evenodd;stroke:none"
         transform="matrix(0.13333333,0,0,-0.13333333,0,793.70667)" />
      <path
         id="path23"
         d="m 2811.8,3008.9 c -13.07,63.2 -36.27,122.65 -69.41,178.05 -30.44,50.91 -67.76,96.28 -111.7,136.16 -46.74,42.44 -99.03,76.56 -156.04,103.56 -4.75,2.24 -9.27,2.59 -14.24,0.31 -26.28,-12.36 -52.05,-25.63 -76.64,-41.13 -61.48,-38.69 -114.51,-86.57 -158.65,-144.3 -34.69,-45.37 -62.03,-94.76 -81.88,-148.28 -23.75,-63.9 -35.33,-129.94 -34.98,-198.05 0.18,-34.18 0.39,-68.34 0.43,-102.52 0.02,-53.2 0.02,-106.36 0,-159.57 h 137.99 c 0,93.11 0,227.05 0,259.94 0,20.14 -0.16,40.34 -0.27,60.49 -0.24,40.2 7.11,79.19 22.13,116.9 12.57,31.6 29.88,60.74 51.81,87.54 27.95,34.06 61.51,62.36 100.42,85.19 15.59,9.1 31.88,16.97 48.52,24.24 3.12,1.39 6,1.17 8.99,-0.16 36.11,-15.93 69.19,-36.07 98.77,-61.13 27.79,-23.53 51.45,-50.35 70.68,-80.39 21,-32.69 35.67,-67.77 43.94,-105.09 4.64,-20.84 7.19,-41.98 7.19,-63.33 -0.03,-50.8 -0.03,-215.33 -0.02,-324.2 h 124.27 c 0,89.51 -0.04,178.99 0.03,268.46 0.02,36.19 -4.04,71.98 -11.34,107.31"
         style="fill:#c8baa0;fill-opacity:1;fill-rule:evenodd;stroke:none"
         transform="matrix(0.13333333,0,0,-0.13333333,0,793.70667)" />
      <path
         id="path24"
         d="m 2374.38,2633.13 h 216.6 v 202.78 l -216.6,144.39 v -347.17"
         style="fill:#f36730;fill-opacity:1;fill-rule:evenodd;stroke:none"
         transform="matrix(0.13333333,0,0,-0.13333333,0,793.70667)" />
      <path
         id="path25"
         d="m 2489.33,2485.4 h 435.18 l -93.59,99.49 H 2102.5 l -93.59,-99.49 h 435.18 45.24"
         style="fill:#2b393c;fill-opacity:1;fill-rule:nonzero;stroke:none"
         transform="matrix(0.13333333,0,0,-0.13333333,0,793.70667)" />
      <path
         id="path26"
         d="m 2948.65,2440.12 h -963.88 l -93.61,-99.51 h 1151.11 l -93.62,99.51"
         style="fill:#2b393c;fill-opacity:1;fill-rule:nonzero;stroke:none"
         transform="matrix(0.13333333,0,0,-0.13333333,0,793.70667)" />
    </g>
  </g>
</svg>
