<svg width="108" height="33" viewBox="0 0 108 33" fill="none" xmlns="http://www.w3.org/2000/svg">
<path d="M28.3977 24.4884V11.6242H30.3562V24.4884H28.3977Z" fill="#2B393C"/>
<path d="M44.2468 24.7705L38.2099 18.1775C37.241 17.1291 36.1305 15.8384 35.2419 14.7898L35.2016 14.8102C35.2419 15.9797 35.2419 17.0684 35.2419 18.0364V24.4884H33.2834V11.6242H34.6364L40.1684 17.6732C40.9154 18.5001 42.0868 19.7904 42.8739 20.7586L42.9142 20.7382C42.8739 19.7503 42.8739 18.6412 42.8739 17.7137V11.6242H44.8324V24.7705H44.2468Z" fill="#2B393C"/>
<path d="M50.5454 24.7303C49.1521 24.7303 47.88 24.3067 47.2136 23.8638L46.7693 21.7262C48.0014 22.5935 49.2531 23.0368 50.6462 23.0368C52.0798 23.0368 53.0288 22.2303 53.0288 21.0408C53.0288 19.9315 52.3422 19.1854 50.7875 18.6814C48.4859 17.9355 47.2743 16.6448 47.2743 14.8705C47.2743 13.076 48.6069 11.3619 51.3529 11.3619C52.6251 11.3619 53.6952 11.7652 54.1596 12.1078L53.7756 13.7211C53.3315 13.3984 52.3221 12.975 51.2723 12.975C49.9598 12.975 49.1521 13.7816 49.1521 14.7292C49.1521 15.5763 49.879 16.2617 51.2318 16.7254C53.4731 17.4917 54.9875 18.6814 54.9875 20.8594C54.9875 23.158 53.4527 24.7303 50.5454 24.7303Z" fill="#2B393C"/>
<path d="M60.6193 13.2777H59.0243V17.1893H60.6193C61.7703 17.1893 62.8402 16.5845 62.8402 15.2336C62.8402 13.9026 61.7703 13.2777 60.6193 13.2777ZM60.9624 18.8432H59.0243V24.4884H57.0859V11.6242H60.9624C62.7798 11.6242 64.839 12.7938 64.839 15.2336C64.839 17.6732 62.7798 18.8432 60.9624 18.8432Z" fill="#2B393C"/>
<path d="M70.5931 16.4636C70.4112 16.0399 70.2095 15.4351 70.0478 14.8908H70.0073C69.866 15.4351 69.6438 16.0399 69.462 16.4636L68.1905 19.609H71.8648L70.5931 16.4636ZM73.924 24.4884L72.5312 21.1616H67.5241L66.1306 24.4884H64.2129L69.7045 11.4429H70.4112L75.9029 24.4884H73.924Z" fill="#2B393C"/>
<path d="M86.8862 13.9025C86.2601 13.4994 84.9884 13.0556 83.6555 13.0556C81.1316 13.0556 78.4664 14.6887 78.4664 18.0562C78.4664 21.3832 81.0709 23.0368 83.6555 23.0368C85.1901 23.0368 86.4016 22.7142 87.2091 22.2303L86.8051 24.1049C85.9976 24.5283 85.0891 24.7303 83.4336 24.7303C80.1824 24.7303 76.4875 22.4524 76.4875 18.0562C76.4875 13.6 80.2232 11.3619 83.4336 11.3619C85.21 11.3619 86.4419 11.7652 87.229 12.2085L86.8862 13.9025Z" fill="#2B393C"/>
<path d="M89.4087 24.4884V11.6242H91.3669V24.4884H89.4087Z" fill="#2B393C"/>
<path d="M29.9822 26.977L29.1652 26.9652L29.098 31.629L29.915 31.6408C31.3317 31.6609 32.5133 30.9401 32.536 29.3462C32.5591 27.7523 31.3989 26.9976 29.9822 26.977ZM30.0702 32.4499L28.1418 32.4221L28.2326 26.145L30.1608 26.1728C31.9124 26.1978 33.5392 27.3335 33.5098 29.3603C33.4806 31.3871 31.8216 32.4751 30.0702 32.4499Z" fill="#F36730"/>
<path d="M34.4985 32.5138L34.5891 26.2364L37.9738 26.2853L37.962 27.102L35.5316 27.0668L35.5041 28.966L37.5408 28.9954L37.529 29.8119L35.4923 29.7825L35.4645 31.7109L38.239 31.751L38.2272 32.5677L34.4985 32.5138Z" fill="#F36730"/>
<path d="M40.5766 32.7199C39.8977 32.7101 39.2811 32.4945 38.9594 32.2733L38.7581 31.2272C39.3522 31.659 39.9591 31.8841 40.638 31.8941C41.3364 31.904 41.8043 31.5172 41.8126 30.9367C41.8205 30.3956 41.4916 30.0269 40.7374 29.7697C39.6211 29.3896 39.0397 28.7515 39.0525 27.8856C39.0652 27.0098 39.7265 26.1831 41.0645 26.2023C41.6843 26.2113 42.203 26.4156 42.4267 26.5861L42.2284 27.3707C42.0142 27.2102 41.5257 26.9964 41.014 26.9889C40.3742 26.9797 39.9751 27.3674 39.9684 27.8298C39.9626 28.2433 40.3114 28.5826 40.9676 28.8186C42.0545 29.2085 42.7839 29.7994 42.7686 30.8619C42.7524 31.9835 41.9933 32.7402 40.5766 32.7199Z" fill="#F36730"/>
<path d="M43.9141 32.6499L44.0049 26.3725L44.9592 26.3864L44.8684 32.6638L43.9141 32.6499Z" fill="#F36730"/>
<path d="M49.4909 32.8483C47.7988 32.824 46.0638 31.6672 46.0944 29.5419C46.1259 27.3676 47.9618 26.3018 49.5263 26.3243C50.3919 26.337 51.0878 26.5538 51.5459 26.8554L51.3567 27.6794C50.8985 27.3775 50.2817 27.1621 49.6227 27.1526C48.3927 27.1345 47.0823 27.9228 47.0585 29.5658C47.0351 31.1891 48.2831 32.0045 49.562 32.0228C50.1427 32.0311 50.5967 31.9197 50.8951 31.7175L50.914 30.4087L49.4677 30.3877L49.4788 29.6205L51.8304 29.6543L51.7936 32.2025C51.1862 32.676 50.4255 32.862 49.4909 32.8483Z" fill="#F36730"/>
<path d="M58.3365 32.9958L55.441 29.736C54.9761 29.2176 54.444 28.5802 54.0185 28.0622L53.9988 28.0717C54.0102 28.6427 54.0026 29.1741 53.9958 29.6462L53.9502 32.7948L52.9958 32.7809L53.0867 26.5038L53.7459 26.5133L56.3991 29.5039C56.7576 29.9125 57.3184 30.5505 57.6955 31.0283L57.7154 31.0186C57.7029 30.5363 57.7106 29.9952 57.7171 29.5426L57.7601 26.5714L58.7145 26.5851L58.6216 33L58.3365 32.9958Z" fill="#F36730"/>
<path d="M95.3306 20.5103C95.8967 20.9286 96.4874 21.2712 97.1061 21.5413C96.2993 20.6974 95.7682 19.5149 95.7682 18.0364C95.7682 14.8505 98.2314 13.0558 100.614 13.0558C102.956 13.0558 105.459 14.8505 105.459 18.0364C105.459 19.7262 104.755 21.0301 103.744 21.8825C104.669 21.5939 105.53 21.1531 106.339 20.5545L107.184 19.9289C107.348 19.344 107.438 18.7119 107.438 18.0364C107.438 13.9026 104.046 11.362 100.614 11.362C97.1814 11.362 93.7893 13.9026 93.7893 18.0364C93.7893 18.5409 93.8398 19.0209 93.9332 19.4756L95.3306 20.5103Z" fill="#2B393C"/>
<path fill-rule="evenodd" clip-rule="evenodd" d="M106.885 21.3733C103.438 26.1214 97.9076 25.7434 94.7849 21.3286C96.6498 22.7094 98.6822 23.2894 100.861 23.2961C103.037 23.3024 105.061 22.7221 106.885 21.3733Z" fill="#F36730"/>
<path fill-rule="evenodd" clip-rule="evenodd" d="M4.91948 3.38821C4.49536 3.3933 4.07517 3.89364 3.65405 4.16373C3.72864 4.29298 3.80323 4.422 3.87712 4.55218C10.195 4.55218 16.5117 4.55218 22.8291 4.55218C22.891 4.4088 22.9535 4.26588 23.0161 4.12249C22.5563 3.867 22.099 3.39423 21.6374 3.39053C16.0649 3.33818 10.4922 3.33679 4.91948 3.38821Z" fill="#2B393C"/>
<path fill-rule="evenodd" clip-rule="evenodd" d="M5.16074 5.12929C5.167 9.11599 5.23394 9.92578 5.11279 13.5166C5.5624 12.5308 6.12204 11.5957 6.78475 10.7284C7.16579 10.2313 7.57787 9.7604 8.01682 9.31566C8.01636 8.11115 8.01636 6.78156 8.01543 5.12929H5.16074Z" fill="#2B393C"/>
<path fill-rule="evenodd" clip-rule="evenodd" d="M9.65039 5.12929C9.65039 6.17489 9.65086 7.06877 9.65178 7.87556C10.012 7.60223 10.3865 7.34303 10.7738 7.09865C11.2904 6.7739 11.8595 6.46675 12.5523 6.1369C12.5523 5.71301 12.5523 5.36463 12.5509 5.12929H9.65039Z" fill="#2B393C"/>
<path fill-rule="evenodd" clip-rule="evenodd" d="M14.2466 5.12934C14.2466 5.49579 14.2466 5.84973 14.2466 6.19347C15.2331 6.67852 16.1536 7.24765 16.995 7.89507C16.994 7.13623 16.9926 6.25949 16.9901 5.12934H14.2466Z" fill="#2B393C"/>
<path fill-rule="evenodd" clip-rule="evenodd" d="M18.5507 5.12942C18.5495 5.86417 18.5502 7.51249 18.5507 9.27594C19.3945 10.1323 20.1309 11.0802 20.7445 12.1056C20.9822 12.5029 21.1985 12.9119 21.3956 13.3279C21.4003 10.4631 21.4084 8.93196 21.3746 5.12942H18.5507Z" fill="#2B393C"/>
<path fill-rule="evenodd" clip-rule="evenodd" d="M25.421 2.6453C25.2813 2.75255 25.1025 2.80652 24.9102 2.80652C24.5104 2.80652 23.638 2.32055 24.3719 2.02869C24.5058 1.97587 24.6813 1.89434 24.7835 2.05463C24.5034 1.98584 24.5433 2.35854 24.6927 2.47435C25.1469 2.82598 25.4779 2.2499 25.3809 1.84731C25.2993 1.50704 23.1032 1.52163 22.2772 1.52789C21.8072 1.53113 21.4688 1.53345 21.3221 1.51029L5.80576 1.51214C5.68137 1.53345 5.34202 1.53067 4.87273 1.52789C4.04602 1.52302 1.85149 1.50704 1.7695 1.84731C1.68819 2.18527 1.84478 2.57257 2.24968 2.50701C2.59991 2.45026 2.63327 1.99927 2.28489 2.15493C2.55497 2.00575 3.06851 2.00737 2.99508 2.44957C2.90243 3.01175 2.04213 2.88551 1.72873 2.6453C1.58975 2.53852 1.37386 2.28349 1.49454 1.78084C1.60851 1.30946 2.72199 1.23116 4.87504 1.24599C5.29662 1.24923 5.66099 1.25062 5.78399 1.23163L21.3444 1.23024C21.4896 1.25062 21.8538 1.24877 22.2749 1.24599C24.4293 1.23162 25.5423 1.30946 25.6554 1.78084C25.7763 2.28349 25.5609 2.53852 25.421 2.6453ZM24.6343 0.0398548C24.6111 0.0398548 24.5887 0.0426381 24.566 0.0435646C24.566 0.0398583 24.566 0.0363843 24.566 0.0326784C17.2521 0.0326784 9.93977 0.0326784 2.62887 0.0326784C2.51675 0.0122943 2.40233 1.38283e-05 2.28489 1.38283e-05C1.2233 1.38283e-05 0.362305 0.861007 0.362305 1.92329C0.362305 2.98465 1.2233 3.84564 2.28489 3.84564C3.00597 3.84564 3.63231 3.44838 3.96193 2.86211C4.20631 2.86698 4.48474 2.86396 4.80324 2.86026C10.5288 2.78289 16.2558 2.78521 21.9814 2.84706C22.3474 2.85077 22.6594 2.85401 22.9288 2.84799C23.2484 3.46414 23.8915 3.88594 24.6343 3.88594C25.6961 3.88594 26.5567 3.02495 26.5567 1.96267C26.5567 0.90131 25.6961 0.0398548 24.6343 0.0398548Z" fill="#2B393C"/>
<path fill-rule="evenodd" clip-rule="evenodd" d="M21.3253 16.844C21.0225 15.3801 20.4851 14.003 19.7175 12.7197C19.0124 11.5405 18.1479 10.4896 17.1301 9.56579C16.0474 8.58272 14.8362 7.79238 13.5157 7.16696C13.4056 7.11508 13.3009 7.10697 13.1858 7.15978C12.5771 7.44608 11.9801 7.75346 11.4106 8.1125C9.98645 9.0087 8.75809 10.1178 7.73565 11.455C6.9321 12.5059 6.2988 13.65 5.83901 14.8897C5.28887 16.3699 5.02064 17.8996 5.02874 19.4773C5.03291 20.269 5.03778 21.0603 5.0387 21.852C5.03916 23.0843 5.03916 24.3157 5.0387 25.5482H8.23505C8.23505 23.3915 8.23505 20.2889 8.23505 19.5271C8.23505 19.0606 8.23134 18.5927 8.2288 18.1259C8.22324 17.1947 8.39349 16.2916 8.74141 15.4181C9.03258 14.6861 9.43354 14.0111 9.94152 13.3903C10.5889 12.6014 11.3663 11.9459 12.2676 11.417C12.6287 11.2062 13.0061 11.0239 13.3915 10.8555C13.4638 10.8233 13.5305 10.8284 13.5997 10.8592C14.4362 11.2282 15.2024 11.6948 15.8876 12.2752C16.5313 12.8203 17.0794 13.4415 17.5248 14.1374C18.0113 14.8946 18.3511 15.7072 18.5426 16.5716C18.6501 17.0544 18.7092 17.544 18.7092 18.0386C18.7085 19.2153 18.7085 23.0264 18.7087 25.5482H21.5873C21.5873 23.4749 21.5863 21.4022 21.588 19.3297C21.5884 18.4914 21.4944 17.6624 21.3253 16.844Z" fill="#C8BAA0"/>
<path fill-rule="evenodd" clip-rule="evenodd" d="M11.1931 25.5482H16.2104V20.8511L11.1931 17.5065V25.5482Z" fill="#F36730"/>
<path d="M13.8556 28.9704H23.9359L21.768 26.6658H4.89518L2.72729 28.9704H12.8076H13.8556Z" fill="#2B393C"/>
<path d="M24.4953 30.0191H2.16835L0 32.3241H26.6639L24.4953 30.0191Z" fill="#2B393C"/>
</svg>
