<svg width="466" height="466" viewBox="0 0 466 466" fill="none" xmlns="http://www.w3.org/2000/svg">
<path d="M343.117 205.995C345.042 206.943 347.15 207.461 349.295 207.511C349.415 207.498 349.531 207.46 349.637 207.401C349.743 207.342 349.836 207.262 349.911 207.166C349.985 207.071 350.04 206.962 350.072 206.845C350.104 206.728 350.113 206.606 350.097 206.486C349.919 205.081 348.336 206.285 343.943 204.256L344.166 202.605C344.277 202.137 343.72 201.379 343.117 201.602C342.515 201.825 342.359 202.538 342.181 203.832C342.002 205.125 341.913 205.393 343.117 205.995ZM110.35 212.328C113.034 211.599 115.554 210.365 117.776 208.693C118.646 208.024 118.356 206.463 118.11 205.571C118.041 205.34 117.888 205.142 117.681 205.017C117.475 204.891 117.229 204.846 116.992 204.89C116.754 204.934 116.541 205.065 116.394 205.256C116.246 205.448 116.175 205.687 116.193 205.928C116.235 206.411 116.325 206.889 116.46 207.355C111.175 211.213 109.124 210.254 109.436 211.815C109.505 211.993 109.634 212.142 109.801 212.236C109.968 212.329 110.162 212.362 110.35 212.328ZM104.284 208.203C108.744 208.203 107.228 205.571 106.024 205.973L104.307 206.24C102.835 199.26 104.017 197.789 102.746 197.744C102.554 197.732 102.365 197.795 102.219 197.92C102.073 198.045 101.982 198.222 101.965 198.413C101.808 201.17 102.01 203.937 102.567 206.642C102.813 207.846 103.259 208.203 104.284 208.203ZM233.781 204.367C235.052 204.367 241.742 202.918 242.879 202.739C244.551 202.449 246.536 201.936 246.67 200.13C246.67 199.015 245.867 197.722 244.953 198.391C244.763 198.524 244.622 198.717 244.554 198.939C244.485 199.161 244.492 199.4 244.574 199.617C244.908 200.487 244.195 200.42 233.424 202.761C233.226 202.823 233.058 202.956 232.954 203.135C232.85 203.315 232.817 203.526 232.862 203.729C232.907 203.931 233.026 204.109 233.197 204.227C233.367 204.346 233.575 204.395 233.781 204.367ZM87.1135 149.777C87.6041 150.334 88.8082 149.777 88.4514 148.929C86.2214 143.488 82.1182 137.422 79.5314 131.446C79.13 130.487 78.3273 128.859 77.5468 128.77C77.449 128.756 77.3494 128.77 77.2589 128.809C77.1683 128.849 77.0905 128.912 77.0338 128.993C76.5432 129.662 77.2568 131.513 77.5913 132.293C78.6171 134.501 83.5901 145.74 87.1135 149.777ZM159.41 140.366C159.452 140.54 159.538 140.7 159.661 140.831C159.784 140.961 159.939 141.057 160.11 141.108C160.282 141.16 160.464 141.166 160.638 141.126C160.813 141.086 160.974 141.001 161.105 140.879C162.946 139.203 164.619 137.35 166.1 135.349C172.79 156.757 172.79 157.515 173.838 157.515C173.988 157.511 174.136 157.474 174.271 157.408C174.406 157.342 174.525 157.247 174.62 157.131C174.715 157.014 174.784 156.879 174.823 156.734C174.861 156.588 174.867 156.436 174.842 156.288C172.344 148.394 169.713 140.678 167.438 132.806C167.387 132.611 167.279 132.435 167.129 132.3C166.978 132.165 166.791 132.078 166.59 132.05C166.39 132.021 166.186 132.052 166.004 132.139C165.821 132.226 165.669 132.365 165.565 132.539C164.284 134.553 162.789 136.422 161.105 138.114C159.767 132.004 156.645 118.044 156.645 118.044C156.589 117.819 156.446 117.626 156.247 117.507C156.048 117.387 155.81 117.352 155.586 117.408C155.361 117.464 155.168 117.608 155.048 117.806C154.929 118.005 154.894 118.243 154.95 118.467C155.708 121.924 158.942 138.827 159.41 140.366ZM43.2493 256.371C36.0687 252.936 29.6686 249.413 22.3096 245.533C20.8824 244.775 19.9012 247.384 22.1312 247.986C28.5562 251.996 35.4073 255.28 42.558 257.776C43.45 258.021 44.0744 256.861 43.2493 256.371ZM48.9581 204.88C49.1114 205.016 49.3026 205.101 49.5058 205.125C49.7091 205.149 49.9149 205.11 50.0954 205.014C51.5672 204.3 49.6717 202.538 50.3853 191.946C68.4706 213.778 67.4672 213.22 68.2254 213.22C68.3823 213.23 68.5389 213.195 68.6765 213.118C68.8141 213.042 68.927 212.928 69.002 212.79C69.077 212.652 69.1109 212.495 69.0997 212.338C69.0886 212.181 69.0328 212.031 68.9389 211.904C66.1068 208.336 53.7081 192.927 50.4077 188.735C50.2835 188.578 50.1169 188.459 49.9276 188.394C49.7383 188.328 49.5342 188.318 49.3394 188.365C49.1446 188.412 48.9674 188.514 48.8287 188.658C48.69 188.803 48.5956 188.984 48.5568 189.181C48.1034 193.253 48.0288 197.359 48.3337 201.446C41.6437 195.447 35.2436 189.092 28.4867 183.249C28.2822 183.085 28.0263 182.998 27.7641 183.004C27.5019 183.01 27.2501 183.108 27.0531 183.281C26.856 183.454 26.7263 183.691 26.6867 183.95C26.6471 184.21 26.7001 184.474 26.8365 184.698C29.4679 188.779 44.3197 200.665 48.9581 204.88ZM224.861 122.169C224.861 122.388 224.947 122.598 225.102 122.753C225.257 122.907 225.467 122.994 225.686 122.994C225.904 122.994 226.114 122.907 226.269 122.753C226.424 122.598 226.511 122.388 226.511 122.169C226.893 113.978 226.55 105.77 225.485 97.6393C225.462 97.4248 225.377 97.2215 225.241 97.0541C225.105 96.8868 224.923 96.7625 224.718 96.6964C224.512 96.6303 224.292 96.6252 224.084 96.6818C223.876 96.7383 223.689 96.854 223.545 97.0149C222.541 98.3083 224.95 102.389 224.861 122.169ZM285.204 160.904C302.175 132.271 301.26 133.698 301.127 133.185C300.747 131.892 299.677 132.516 291.092 135.103C293.322 127.187 296.109 118.735 297.96 110.729C297.998 110.471 297.939 110.207 297.792 109.99C297.646 109.773 297.424 109.618 297.17 109.557C296.915 109.495 296.647 109.531 296.418 109.657C296.188 109.784 296.015 109.991 295.931 110.239C293.411 119.159 290.913 127.878 288.505 136.441C288.466 136.618 288.472 136.802 288.524 136.976C288.576 137.15 288.671 137.307 288.8 137.435C288.929 137.562 289.089 137.654 289.263 137.702C289.438 137.751 289.622 137.754 289.798 137.712C289.798 137.712 295.708 135.884 298.094 135.103L283.844 160.146C283.76 160.325 283.747 160.529 283.807 160.718C283.868 160.906 283.998 161.064 284.17 161.16C284.343 161.257 284.546 161.284 284.738 161.236C284.93 161.189 285.096 161.07 285.204 160.904ZM444.649 226.31C443.49 225.753 422.037 239.088 421.814 239.244C421.034 239.802 421.814 241.184 422.617 240.761C423.91 240.181 444.404 228.786 445.095 227.559C445.148 227.448 445.179 227.327 445.185 227.204C445.191 227.081 445.173 226.958 445.131 226.842C445.09 226.726 445.026 226.619 444.943 226.528C444.861 226.437 444.761 226.363 444.649 226.31ZM387.874 200.821C387.874 200.821 409.371 184.431 413.385 181.309C414.254 180.618 413.385 179.079 412.359 179.19C408.313 179.287 404.283 179.742 400.317 180.551C406.073 174.41 411.17 167.683 415.526 160.481C416.261 159.276 414.477 158.028 413.764 159.254C408.851 167.268 403.005 174.672 396.348 181.309C395.634 182 396.08 183.695 397.24 183.539C401.176 182.537 405.189 181.865 409.237 181.532C409.237 181.532 392.2 195.246 386.937 199.595C386.848 199.737 386.805 199.903 386.813 200.07C386.821 200.237 386.88 200.398 386.982 200.532C387.083 200.665 387.223 200.764 387.382 200.815C387.542 200.867 387.713 200.869 387.874 200.821ZM357.122 136.263C370.814 112.669 373.2 109.235 370.903 108.655C369.922 108.41 369.967 108.499 355.583 135.415C355.516 135.614 355.52 135.83 355.596 136.025C355.672 136.221 355.814 136.383 355.997 136.484C356.181 136.585 356.394 136.618 356.6 136.578C356.805 136.538 356.99 136.426 357.122 136.263Z" fill="#3D3834"/>
<path d="M419.91 280.426C410.812 251.726 387.82 229.649 356.779 219.882C356.758 219.313 356.698 218.747 356.6 218.187C365.074 214.485 366.97 201.752 365.097 190.669C366.724 188.015 371.051 174.367 367.862 176.241L362.042 179.675C361.216 177.445 360.257 175.371 359.232 173.319C359.455 169.751 356.199 163.373 350.468 159.203C345.205 155.368 336.151 151.934 322.95 157.419C312.647 161.701 301.029 171.156 299.267 184.893C297.037 202.733 302.946 211.385 291.908 227.954C279.711 222.432 266.71 218.893 253.396 217.473C253.396 216.474 253.329 215.475 253.195 214.485C258.882 211.608 260.086 202.242 260.331 199.187C267.021 193.389 267.802 181.838 262.561 181.57C263.908 173.295 264.423 164.905 264.1 156.527C263.81 151.331 261.58 150.172 260.554 149.949C259.83 149.812 259.082 149.882 258.396 150.15C257.71 150.418 257.113 150.874 256.674 151.465C255.001 148.053 251.79 148.477 249.984 151.064C249.807 150.146 249.345 149.307 248.665 148.665C247.985 148.024 247.12 147.612 246.193 147.489C245.266 147.366 244.324 147.537 243.499 147.978C242.675 148.42 242.01 149.109 241.599 149.949C241.167 149.028 240.471 148.257 239.599 147.733C238.727 147.209 237.719 146.956 236.703 147.006C235.688 147.056 234.71 147.408 233.894 148.015C233.078 148.622 232.461 149.458 232.122 150.417C229.892 145.578 224.205 146.693 222.934 151.599C221.262 147.83 216.69 147.853 215.107 152.223C210.937 149.146 207.659 152.223 206.99 157.286C206.584 165.893 206.943 174.52 208.06 183.064C200.5 181.37 206.387 199.076 210.892 199.499C211.673 206.189 214.438 213.548 219.812 215.332C219.812 216.224 219.678 217.139 219.678 218.031C205.26 220.333 191.384 225.253 178.735 232.548C171.778 227.642 156.302 220.974 141.428 222.201C138.733 216.507 136.705 210.521 135.384 204.361C134.403 198.987 136.923 196.868 136.901 192.23C139.788 186.411 140.507 179.754 138.93 173.453C131.905 151.153 89.4686 159.627 90.6728 184.112C90.8289 186.9 91.0742 189.687 91.3195 191.851C86.079 193.434 86.8595 193.813 88.309 200.191C89.0895 203.67 89.9815 206.546 93.6387 205.788C95.3112 213.036 99.5259 224.609 109.472 224.609C110.074 224.609 109.472 224.23 110.029 227.977C85.0755 238.837 53.744 259.197 45.6268 294.877C43.6644 303.484 42.4825 315.705 48.1021 324.937C54.2792 335.217 65.2062 335.864 73.0558 335.351C71.2184 345.447 70.6268 355.729 71.2941 365.969C71.2981 366.112 71.3414 366.251 71.4192 366.371C71.4971 366.491 71.6064 366.588 71.7353 366.65C71.8642 366.712 72.0077 366.738 72.1501 366.724C72.2926 366.71 72.4284 366.657 72.5429 366.571C73.7471 365.857 71.3833 365.099 75.152 335.195C96.1586 333.255 116.184 324.223 134.693 314.724C137.748 316.954 140.781 319.184 143.925 321.191C146.51 326.418 150.472 330.841 155.383 333.984C160.295 337.128 165.971 338.872 171.8 339.031C171.243 348.418 171.243 357.83 171.8 367.218C171.808 367.331 171.84 367.442 171.892 367.543C171.944 367.644 172.015 367.734 172.103 367.807C172.19 367.88 172.291 367.934 172.4 367.967C172.509 368 172.624 368.011 172.737 367.998C174.655 367.82 172.179 366.861 173.696 339.008C192.249 339.008 207.48 326.899 222.756 317.645C240.729 325.874 284.794 341.194 308.098 336.778C309.168 346.278 309.012 355.287 309.926 364.475C309.956 364.64 310.042 364.789 310.171 364.896C310.299 365.004 310.461 365.063 310.629 365.063C310.796 365.063 310.958 365.004 311.087 364.896C311.215 364.789 311.302 364.64 311.331 364.475C311.917 355.087 311.536 345.664 310.194 336.355C326.361 332.519 336.285 321.124 338.916 303.417C339.987 302.704 341.146 301.901 342.351 300.987C356.154 306.495 384.721 319.897 398.68 320.388C398.034 330.757 397.119 341.707 396.963 352.455C396.994 352.637 397.089 352.802 397.229 352.92C397.37 353.039 397.548 353.104 397.733 353.104C397.917 353.104 398.095 353.039 398.236 352.92C398.377 352.802 398.471 352.637 398.502 352.455C398.814 349.489 400.843 324.179 400.732 320.321C423.077 319.808 426.6 301.522 419.91 280.426ZM260.777 185.116C261.379 184.313 261.714 183.377 262.583 183.644C265.705 184.558 263.208 192.319 260.599 195.775C260.822 192.23 260.889 188.639 260.777 185.116ZM207.547 185.116C208.261 185.116 208.171 185.428 209.777 185.74L210.669 196.757C207.369 193.701 204.983 185.161 207.547 185.161V185.116ZM362.487 182.886C362.582 182.573 362.797 182.309 363.086 182.155C363.375 182 363.713 181.966 364.026 182.061C364.34 182.156 364.603 182.371 364.757 182.659C364.912 182.948 364.946 183.286 364.851 183.6C364.071 186.365 363.469 188.372 362.956 190.29C362.824 190.528 362.638 190.733 362.414 190.888C362.19 191.043 361.932 191.143 361.662 191.182C359.7 191.248 361.796 184.893 362.487 182.841V182.886ZM324.957 191.806C326.228 190.847 327.766 192.074 328.012 192.096C330.108 193.434 332.472 191.494 331.87 190.936L331.424 190.579C329.773 189.286 326.384 186.61 327.097 184.781C327.633 183.399 329.818 183.6 331.245 183.533C331.296 183.531 331.346 183.518 331.39 183.495C331.435 183.471 331.474 183.438 331.504 183.397C331.534 183.356 331.555 183.309 331.564 183.259C331.573 183.209 331.571 183.158 331.557 183.109C331.334 182.395 331.067 181.682 330.799 180.879C339.227 176.699 348.467 174.416 357.871 174.189C358.83 176.419 359.655 178.537 360.391 180.634C357.604 182.217 354.437 183.956 353.701 187.123C353.039 187.041 352.366 187.108 351.733 187.32C351.1 187.533 350.523 187.884 350.044 188.349C346.543 184.135 332.048 184.492 329.127 184.603C325.358 184.759 335.304 192.363 338.047 194.504C347.257 201.663 353.278 196.734 350.981 190.2C351.303 189.806 351.726 189.506 352.205 189.333C352.684 189.16 353.201 189.121 353.701 189.219C353.784 189.643 353.919 190.055 354.103 190.446C353.992 190.391 353.87 190.362 353.746 190.362C353.622 190.362 353.5 190.391 353.389 190.446C352.475 191.025 353.389 191.806 355.485 195.53C355.227 195.793 354.951 196.039 354.66 196.266C353.813 196.89 354.549 199.611 357.381 196.266C357.805 195.753 357.002 194.259 356.11 192.943C357.186 193.677 358.476 194.031 359.776 193.951C361.077 193.87 362.313 193.359 363.29 192.497C364.265 198.484 363.713 204.621 361.685 210.337C359.455 215.801 353.857 216.113 354.995 218.187C355.289 225.539 354.69 232.9 353.211 240.108C347.48 238.859 336.196 224.877 331.691 218.388C332.158 212.965 331.458 207.506 329.64 202.376C328.146 199.789 325.18 198.607 324.399 195.686C324.095 195.035 323.985 194.309 324.084 193.597C324.183 192.884 324.486 192.216 324.957 191.672V191.806ZM358.763 188.082C358.518 188.818 358.362 189.844 357.559 189.844C356.756 189.844 356.355 188.907 356.444 188.104C356.533 187.301 356.756 185.45 357.604 184.96C357.767 184.879 357.946 184.837 358.128 184.837C358.31 184.837 358.489 184.879 358.652 184.96C359.7 185.25 359.143 186.811 358.763 187.948V188.082ZM346.744 193.211C346.498 193.813 346.253 194.906 345.539 195.24C345.414 195.301 345.277 195.333 345.138 195.333C344.999 195.333 344.862 195.301 344.737 195.24C343.399 194.75 344.87 189.777 346.075 188.818C346.18 188.711 346.31 188.632 346.454 188.589C346.597 188.545 346.75 188.539 346.896 188.57C347.043 188.601 347.179 188.669 347.293 188.767C347.407 188.865 347.494 188.99 347.547 189.13C348.015 190.156 346.878 192.743 346.744 193.077V193.211ZM341.86 191.048C341.57 191.628 341.436 192.163 340.678 192.163C340.5 192.175 340.321 192.144 340.158 192.071C339.994 191.998 339.852 191.886 339.741 191.745C339.631 191.605 339.558 191.439 339.526 191.263C339.495 191.087 339.508 190.906 339.563 190.736C339.808 190 340.076 188.327 340.968 187.881C341.109 187.816 341.263 187.78 341.418 187.777C341.574 187.773 341.729 187.801 341.873 187.86C342.017 187.918 342.148 188.006 342.257 188.117C342.366 188.228 342.451 188.36 342.507 188.506C342.819 189.241 342.306 190.245 341.86 191.048ZM330.71 219.636C337.043 230.563 353.724 246.396 355.017 241.089C356.476 234.789 357.15 228.332 357.024 221.866C387.575 232.66 408.314 252.44 417.346 279.133C410.808 276.013 403.625 274.484 396.383 274.673C396.071 267.336 386.014 253.153 382.156 248.894C381.376 248.024 379.926 249.139 380.773 250.009C386.558 256.559 390.984 264.192 393.797 272.465C382.87 264.236 360.86 252.752 330.688 262.207C322.86 248.846 311.431 237.958 297.706 230.786C307.582 224.328 318.94 220.49 330.71 219.636ZM214.415 169.328C227.826 165.667 241.916 165.262 255.514 168.146C255.286 171.925 255.405 175.717 255.871 179.474H255.47C253.619 170.955 241.755 168.324 237.764 177.244C235.724 176.552 233.514 176.552 231.475 177.244C227.617 169.216 216.445 171.803 214.393 179.742H213.969C214.438 176.291 214.588 172.805 214.415 169.328ZM244.743 187.68C245.145 186.543 248.757 178.114 251.099 177.868C251.294 177.866 251.486 177.91 251.661 177.997C251.835 178.084 251.987 178.211 252.102 178.368C252.218 178.525 252.294 178.707 252.325 178.899C252.356 179.092 252.341 179.289 252.281 179.474C250.29 182.31 248.516 185.292 246.973 188.394C246.416 189.777 244.231 189.241 244.743 187.68ZM241.51 184.558C241.242 185.227 240.038 185.629 239.614 184.848C239.191 184.068 240.217 181.102 243.116 176.753C243.851 175.661 244.543 175.126 245.145 175.215C245.341 175.271 245.52 175.374 245.667 175.515C245.814 175.656 245.924 175.831 245.988 176.025C246.052 176.218 246.067 176.424 246.033 176.625C245.999 176.826 245.916 177.016 245.792 177.177C244.094 179.471 242.658 181.947 241.51 184.558ZM222.109 188.26C223.068 186.164 224.138 184.046 225.164 181.972C225.274 181.772 225.435 181.605 225.631 181.488C225.827 181.372 226.051 181.311 226.279 181.311C226.507 181.311 226.731 181.372 226.927 181.488C227.123 181.605 227.285 181.772 227.394 181.972C227.534 182.183 227.609 182.431 227.609 182.685C227.609 182.939 227.534 183.187 227.394 183.399C226.413 185.339 225.409 187.368 224.339 189.331C223.492 190.446 221.44 189.598 222.109 188.26ZM219.411 185.45L219.277 185.607C218.586 186.61 216.846 185.963 217.314 184.692C218.602 181.266 220.246 177.985 222.22 174.903C223.179 173.743 225.119 174.746 224.45 176.107C222.867 179.273 220.927 182.239 219.411 185.45ZM211.45 185.651C212.877 185.049 213.278 183.421 213.68 182.016L214.148 181.882C214.031 183.43 214.221 184.984 214.707 186.458C215.193 187.931 215.966 189.294 216.98 190.468C218.183 191.649 219.69 192.473 221.334 192.847C222.977 193.222 224.693 193.133 226.288 192.589C227.884 192.046 229.297 191.069 230.371 189.77C231.444 188.47 232.135 186.897 232.367 185.227C232.136 187.375 232.04 189.535 232.077 191.694C232.077 193.032 231.765 194.705 233.415 194.816H235.645C236.805 194.816 237.117 192.809 235.779 192.787H234.129C233.999 188.814 234.215 184.837 234.775 180.901C234.931 179.809 233.348 179.652 233.125 180.678C232.144 185.473 233.125 182.73 232.255 179.184C233.813 178.626 235.515 178.626 237.072 179.184C236.581 180.972 236.485 182.845 236.789 184.674C237.093 186.503 237.791 188.244 238.834 189.777C239.629 190.806 240.635 191.653 241.786 192.259C242.936 192.866 244.204 193.218 245.502 193.292C246.8 193.366 248.1 193.16 249.311 192.688C250.523 192.216 251.62 191.49 252.526 190.557C254.717 188.112 255.883 184.918 255.782 181.637H256.206C256.473 183.577 256.875 186.253 258.926 186.097C258.703 193.724 259.372 206.792 253.329 211.564C252.548 212.188 251.656 212.902 251.545 213.615C251.266 215.978 251.266 218.366 251.545 220.729C252.192 226.906 241.376 239.127 235.779 244.345C224.986 229.671 221.886 228.222 221.908 215.355C221.908 214.061 221.752 213.861 220.86 213.415C211.829 209.044 212.654 196.444 211.45 185.651ZM219.79 219.993C220.035 226.839 225.409 236.094 234.887 246.062C236.805 248.559 253.753 227.754 253.418 223.249V219.48C299.066 224.855 331.78 251.124 336.999 286.536C318.044 282.812 294.093 287.183 290.035 287.964C288.294 276.873 285.014 266.08 280.29 255.896C280.21 255.698 280.055 255.54 279.858 255.456C279.661 255.372 279.44 255.37 279.242 255.45C279.043 255.53 278.885 255.685 278.802 255.882C278.718 256.078 278.716 256.3 278.796 256.498C282.896 266.549 285.887 277.018 287.716 287.718C275.986 275.364 258.146 269.878 233.281 270.993C218.315 271.687 203.449 273.8 188.882 277.304C190.047 270.504 192.823 264.081 196.977 258.572C197.068 258.406 197.095 258.213 197.054 258.028C197.013 257.843 196.906 257.679 196.754 257.567C196.601 257.455 196.412 257.403 196.224 257.42C196.035 257.436 195.859 257.521 195.728 257.658C191.042 263.448 187.966 270.37 186.808 277.728C170.64 281.606 154.939 287.221 139.978 294.475C142.03 250.789 182.415 227.374 219.79 219.993ZM123.075 178.694C123.052 180.811 123.178 182.927 123.454 185.027C115.426 185.227 102.67 188.349 93.1704 191.293C92.9251 189.331 92.3676 185.763 92.3453 183.644C101.904 179.089 112.569 177.37 123.075 178.694ZM115.983 190.669C111.523 198.251 112.482 199.589 110.988 199.589C110.82 199.599 110.653 199.569 110.499 199.501C110.346 199.432 110.211 199.328 110.106 199.197C110.001 199.066 109.929 198.912 109.896 198.747C109.864 198.582 109.871 198.412 109.918 198.251C111.947 190.579 113.887 189.152 114.868 188.974C115.082 188.93 115.304 188.952 115.506 189.036C115.707 189.119 115.879 189.262 115.999 189.444C116.119 189.626 116.182 189.841 116.179 190.059C116.176 190.277 116.108 190.489 115.983 190.669ZM109.093 192.341C108.267 193.701 108.067 195.597 106.863 195.307C105.658 195.017 106.528 192.297 107.242 190.847C107.955 189.398 108.58 189.375 109.003 189.487C109.242 189.552 109.455 189.69 109.611 189.882C109.767 190.074 109.858 190.31 109.873 190.557C109.786 191.213 109.515 191.832 109.093 192.341ZM92.5014 196.801C92.2561 197.381 92.2338 199.165 91.0296 199.165C90.7952 199.174 90.5646 199.104 90.3746 198.967C90.1846 198.829 90.0462 198.632 89.9815 198.407C89.8635 196.847 90.3596 195.302 91.3641 194.103C91.5712 193.918 91.8317 193.803 92.1081 193.775C92.3845 193.747 92.6627 193.807 92.9028 193.947C93.438 194.304 93.3265 195.24 92.5014 196.734V196.801ZM93.3265 201.997C95.3558 194.705 96.5154 193.635 97.2067 193.478C97.3488 193.446 97.4972 193.453 97.6352 193.501C97.7731 193.548 97.8951 193.633 97.9872 193.746C98.2903 194.097 98.4426 194.554 98.4109 195.017L95.4673 202.621C95.3756 202.905 95.1749 203.141 94.9094 203.277C94.6438 203.413 94.3351 203.438 94.0512 203.346C93.7673 203.255 93.5315 203.054 93.3956 202.788C93.2597 202.523 93.2348 202.214 93.3265 201.93V201.997ZM95.5565 205.364C99.8381 204.116 101.221 204.472 100.752 197.961C100.596 196.11 100.239 191.895 102.113 191.962C103.629 191.962 103.674 199.009 105.926 201.194C108.178 203.38 111.1 201.841 113.553 201.194C120.243 199.366 118.771 196.511 118.28 187.658L123.9 187.212C126.42 200.28 129.809 190.49 132.084 189.018C133.533 188.104 134.782 190.111 135.05 191.65C135.563 194.95 132.82 198.563 133.4 203.402C134.714 210.406 136.964 217.202 140.09 223.606C135.206 232.883 121.179 241.446 114.935 244.835C112.304 235.291 112.081 222.758 110.475 222.803C103.072 222.848 98.2102 217.25 95.4673 205.297L95.5565 205.364ZM110.23 230.117C110.631 233.485 112.281 247.957 114.69 246.753C120.755 243.899 139.22 231.768 141.851 223.963C145.754 224.855 157.93 222.491 176.84 233.886C162.885 242.221 151.688 254.474 144.639 269.12C126.598 266.89 104.276 264.103 85.5215 274.004C91.2526 260.49 94.6868 259.152 93.0589 258.082C92.9746 258.024 92.8795 257.984 92.7794 257.964C92.6793 257.944 92.5762 257.944 92.4762 257.965C92.3762 257.986 92.2815 258.027 92.1977 258.085C92.1139 258.143 92.0427 258.218 91.9885 258.305C91.4087 259.174 83.2692 272.621 83.0685 275.364C79.9242 277.282 73.2119 282.188 71.2049 286.046C63.0067 286.206 55.0179 288.663 48.1467 293.137C54.9259 266.89 76.3562 245.103 110.141 230.05L110.23 230.117ZM52.406 327.501C43.8874 318.581 45.716 303.663 47.4777 295.479C69.2425 281.184 98.0095 287.295 133.02 313.675C121.246 318.715 69.8 345.542 52.406 327.501ZM73.4572 286.001C91.1634 266.399 116.764 267.648 143.724 270.971C136.811 286.915 136.209 303.752 141.985 317.489C121.915 302.459 98.2102 285.934 73.4572 285.934V286.001ZM173.54 337.291C151.574 337.291 139.777 318.002 140.09 296.594C171.31 282.567 198.582 275.386 228.464 273.312C255.76 271.417 274.135 276.39 286.177 288.922C227.349 302.102 203.065 337.224 173.54 337.224V337.291ZM308.41 334.838C286.578 339.766 250.43 326.877 224.74 316.597C265.683 292.424 302.523 283.303 337.288 288.722C340.031 313.631 329.773 329.999 308.41 334.838ZM339.34 301.076C340.498 288.181 337.772 275.235 331.513 263.902C355.463 257.702 375.689 261.315 393.262 274.918C370.181 276.635 346.922 294.654 339.318 301.076H339.34ZM399.996 318.403C386.349 318.403 357.626 305.023 344.402 299.626C358.54 288.922 375.288 277.572 395.447 276.769C403.322 276.283 411.177 278.005 418.126 281.742C424.102 301.901 421.114 318.269 399.974 318.403H399.996Z" fill="#3D3834"/>
</svg>
