<svg width="48" height="48" viewBox="0 0 48 48" fill="none" xmlns="http://www.w3.org/2000/svg">
<mask id="mask0_803_96" style="mask-type:alpha" maskUnits="userSpaceOnUse" x="0" y="0" width="48" height="48">
<rect width="48" height="48" fill="#D9D9D9"/>
</mask>
<g mask="url(#mask0_803_96)">
<path d="M38 23.9C38 20 36.6417 16.6917 33.925 13.975C31.2083 11.2584 27.9 9.90002 24 9.90002V5.90002C26.5 5.90002 28.8417 6.37502 31.025 7.32502C33.2083 8.27502 35.1083 9.55836 36.725 11.175C38.3417 12.7917 39.625 14.6917 40.575 16.875C41.525 19.0584 42 21.4 42 23.9H38ZM30 23.9C30 22.2334 29.4167 20.8167 28.25 19.65C27.0833 18.4834 25.6667 17.9 24 17.9V13.9C26.7667 13.9 29.125 14.875 31.075 16.825C33.025 18.775 34 21.1334 34 23.9H30ZM39.9 42C35.7333 42 31.6167 41.0917 27.55 39.275C23.4833 37.4584 19.7833 34.8834 16.45 31.55C13.1167 28.2167 10.5417 24.5167 8.725 20.45C6.90833 16.3834 6 12.2667 6 8.10002C6 7.50002 6.2 7.00002 6.6 6.60002C7 6.20002 7.5 6.00002 8.1 6.00002H16.2C16.6667 6.00002 17.0833 6.15836 17.45 6.47502C17.8167 6.79169 18.0333 7.16669 18.1 7.60002L19.4 14.6C19.4667 15.1334 19.45 15.5834 19.35 15.95C19.25 16.3167 19.0667 16.6334 18.8 16.9L13.95 21.8C14.6167 23.0334 15.4083 24.225 16.325 25.375C17.2417 26.525 18.25 27.6334 19.35 28.7C20.3833 29.7334 21.4667 30.6917 22.6 31.575C23.7333 32.4584 24.9333 33.2667 26.2 34L30.9 29.3C31.2 29 31.5917 28.775 32.075 28.625C32.5583 28.475 33.0333 28.4334 33.5 28.5L40.4 29.9C40.8667 30.0334 41.25 30.275 41.55 30.625C41.85 30.975 42 31.3667 42 31.8V39.9C42 40.5 41.8 41 41.4 41.4C41 41.8 40.5 42 39.9 42Z" fill="#FDFDFD"/>
</g>
</svg>
