<svg width="178" height="178" viewBox="0 0 178 178" fill="none" xmlns="http://www.w3.org/2000/svg">
<path d="M172.789 11.952C172.721 10.2755 172.596 8.59991 172.481 6.92433C172.481 4.96772 170.86 4.55636 169.986 5.35425C163.609 11.3544 152.764 20.7652 146.869 25.9222C146.65 26.1156 146.495 26.3708 146.424 26.6541C146.352 26.9375 146.368 27.2358 146.47 27.5098C146.571 27.7839 146.753 28.0208 146.992 28.1896C147.23 28.3583 147.514 28.4508 147.807 28.4551C147.767 28.6031 147.729 28.753 147.697 28.9055C137.497 32.7409 127.1 36.0302 116.55 38.7595C114.364 39.3304 108.512 40.7462 107.779 40.9244C107.987 40.3359 108.397 39.8404 108.937 39.5263C111.529 37.7151 112.15 38.0192 113.377 36.7532C113.653 36.4618 113.819 36.0831 113.845 35.6825C113.872 35.2818 113.758 34.8844 113.523 34.559C113.006 33.9854 111.994 33.8914 111.802 33.207C111.409 31.7956 113.859 29.6608 113.731 27.7583C113.586 25.5933 110.806 22.6588 106.579 22.0462C104.172 21.6637 101.716 21.7292 99.3327 22.2395C97.5434 22.6094 95.9065 23.5082 94.6339 24.8193C93.633 25.8593 92.1303 27.073 91.625 28.4542C91.3236 29.2521 91.2225 30.1732 90.5611 30.628C90.297 30.7701 90.0062 30.8557 89.7073 30.8795C89.4083 30.9033 89.1077 30.8648 88.8244 30.7663C85.7924 30.0012 83.9599 26.8832 81.0617 25.5304C79.772 24.9472 78.345 24.7362 76.9417 24.921C75.5384 25.1059 74.2147 25.6793 73.12 26.5765C72.6196 27.1347 71.9945 27.5669 71.2955 27.838C70.8653 27.9138 70.4238 27.8942 70.002 27.7804C66.7147 26.9364 64.4921 24.7936 61.3271 24.3512C59.8553 24.1513 58.3569 24.3112 56.9605 24.8174C55.564 25.3235 54.3111 26.1608 53.3092 27.2574C52.8176 27.7398 52.4432 28.3286 52.2148 28.9784C51.9864 29.6282 51.9101 30.3218 51.9918 31.0057C52.4351 32.8604 54.436 33.7833 55.2773 34.0944C56.6958 34.6193 58.2721 34.996 59.4228 36.012C59.6081 36.1498 59.7477 36.3401 59.8236 36.5582C59.9858 37.067 59.4255 37.5334 58.9157 37.6522C58.3404 37.6979 57.7684 37.7787 57.2029 37.8942C57.1895 37.8968 57.1773 37.9038 57.1683 37.9141C57.1592 37.9243 57.1538 37.9373 57.1529 37.951C57.152 37.9646 57.1556 37.9782 57.1632 37.9896C57.1708 38.0009 57.182 38.0095 57.1949 38.0139C58.5233 38.4915 59.9392 38.6769 61.3458 38.5573C62.0481 38.4748 62.7079 38.1774 63.2348 37.7058C63.7618 37.2342 64.1303 36.6114 64.29 35.9225C64.3383 35.5127 64.3576 35.1 64.3476 34.6875C64.509 33.2691 65.4531 33.5749 66.6181 34.4038C67.9095 35.338 69.4015 35.9571 70.9749 36.2117C72.5483 36.4663 74.1594 36.3493 75.6795 35.8702C76.8737 35.4881 77.582 34.2549 78.8392 34.2549C79.1469 34.2553 79.4483 34.3422 79.709 34.5057C79.9697 34.6692 80.1792 34.9027 80.3135 35.1796C80.4112 35.573 80.5296 35.9609 80.6681 36.3418C77.5373 36.5999 74.4662 37.3459 71.5659 38.5529C69.9739 39.2226 68.5582 40.2512 67.4293 41.5583C66.2924 41.2896 65.1086 41.2896 63.9717 41.5583C61.1348 42.2826 60.2323 44.8137 59.7978 46.7047C59.7943 46.7602 59.8064 46.8157 59.8328 46.8647C59.8591 46.9137 59.8987 46.9543 59.9469 46.982C59.9952 47.0097 60.0502 47.0233 60.1058 47.0213C60.1614 47.0193 60.2154 47.0018 60.2615 46.9707C61.9613 45.7515 63.8409 44.8051 65.8326 44.1656C65.0434 46.2302 64.9778 48.5015 65.6464 50.6082C63.8981 51.0674 61.9956 51.4788 60.9167 52.9514C60.0014 54.2621 59.4739 55.8042 59.3945 57.4009C59.0978 61.5709 59.6447 65.7578 61.0027 69.7116C61.0137 69.746 61.0299 69.7785 61.0505 69.8082C59.9503 70.4059 58.8847 71.0653 57.859 71.7834C57.1645 72.1511 56.4618 72.5057 55.7507 72.8473C55.7534 72.8273 55.7534 72.807 55.7507 72.787C55.7302 72.5157 55.6251 72.2577 55.4501 72.0493C55.2751 71.841 55.0392 71.6928 54.7755 71.6256C53.9772 71.4209 53.1572 71.3122 52.3331 71.302C47.2115 70.802 47.3374 70.7701 46.5581 70.7701C46.2333 70.7323 45.9043 70.7792 45.6031 70.9063C45.3018 71.0334 45.0386 71.2363 44.8391 71.4953C44.7749 71.606 44.7357 71.7295 44.7244 71.857C44.7131 71.9845 44.7299 72.1129 44.7736 72.2332C44.8173 72.3535 44.8868 72.4627 44.9774 72.5532C45.0679 72.6437 45.1771 72.7132 45.2974 72.7569C47.6814 74.2702 48.3498 73.8349 50.1291 75.0947C37.2219 79.3236 25.6515 77.2694 24.6497 77.4724C24.4662 77.5568 24.2967 77.6686 24.147 77.804C23.39 77.1886 22.5918 76.6258 21.7578 76.1196C21.4661 75.9463 21.1284 75.8667 20.7901 75.8914C20.4518 75.9161 20.1292 76.044 19.8659 76.2579C19.2116 76.7401 18.7133 77.3412 18.1132 77.8341C15.6565 79.8519 12.636 80.7376 12.5616 82.282C12.5199 83.1437 13.2265 83.1942 13.5368 83.2164C16.2647 83.3547 18.2124 82.2669 22.0574 82.1898C22.3021 82.1844 22.3393 82.1951 22.412 82.1614C22.514 84.1499 24.4059 85.0489 26.2889 85.6438C40.1971 90.0623 57.21 89.9302 74.6697 83.5054C75.3687 83.1729 76.0859 82.8802 76.8178 82.6286C73.9809 86.4647 73.7823 86.6394 73.3408 87.6084C71.495 86.9133 70.9817 86.6128 70.2246 86.3167C68.0839 87.1586 65.8763 87.8193 63.6251 88.2919C61.6302 88.7142 59.6099 89.0056 57.577 89.1643C58.3315 89.9489 57.8997 89.6669 65.0764 96.5474C66.8249 98.4522 68.8748 100.056 71.1439 101.296C72.7264 102.113 74.4698 102.57 76.2496 102.634C77.9171 102.537 79.5244 101.976 80.8915 101.017C83.6136 99.148 86.0606 96.9075 88.1612 94.3603C92.4495 89.182 92.9752 89.0862 96.1296 83.1667C96.8388 83.61 103.194 82.7102 106.658 74.0122C107.545 71.641 108.312 69.2262 108.954 66.7771C110.289 62.4792 111.209 58.0632 111.702 53.5897C116.681 52.3751 119.512 50.7252 127.5 46.8634C132.694 44.3797 137.676 41.4739 142.394 38.1752C144.978 36.303 147.371 34.1803 149.538 31.8382C149.576 31.7803 149.595 31.7122 149.592 31.6431C150.28 31.3671 150.88 30.9096 151.329 30.3195C151.777 29.7294 152.057 29.0287 152.139 28.292C152.477 28.2919 152.814 28.3159 153.148 28.3638C148.59 38.763 138.302 52.3609 131.275 61.8647C110.352 90.1288 79.8419 125.689 49.0192 142.301C48.2585 142.705 41.5252 146.606 41.0633 146.153L44.848 150.006C36.9436 155.306 27.993 158.847 18.6016 160.389C18.5219 160.395 18.4468 160.429 18.3898 160.485C18.3727 160.52 18.3639 160.558 18.3639 160.596C18.3639 160.635 18.3727 160.673 18.3898 160.707C18.6557 162.059 19.5423 162.27 23.8793 166.026C18.6788 169.01 13.0146 170.907 4.4328 171.909V172.092C15.7603 173.286 26.4609 169.944 31.672 166.958C29.8227 165.35 27.3758 164.338 25.5167 162.72C31.5754 161.227 45.8116 157.393 54.1913 151.836C52.9395 150.565 49.8765 148.629 48.614 147.357C49.0475 147.839 57.2251 143.331 58.0921 142.879C76.8639 132.957 93.0701 120.483 109.209 104.765C114.371 99.747 119.493 94.8151 124.311 89.5082C130.799 82.3591 145.473 64.9056 158.572 46.7517C161.464 42.9416 164.102 38.9455 166.47 34.7895C166.681 34.3675 166.97 34.4233 167.145 34.8471C167.539 35.8099 167.886 36.6769 168.214 37.5954C168.324 37.8926 168.528 38.1458 168.796 38.3163C169.063 38.4869 169.378 38.5657 169.694 38.5406C170.01 38.5155 170.309 38.388 170.546 38.1774C170.783 37.9668 170.945 37.6846 171.007 37.3738C172.524 28.9899 173.121 20.4655 172.789 11.952ZM22.4218 81.6694C20.572 81.5946 18.7213 81.7936 16.9296 82.2598C15.8216 82.4747 14.6964 82.5896 13.5678 82.6029C13.1423 82.5577 13.2939 82.0887 13.4659 81.8768C14.5164 80.7482 15.2842 80.844 18.8525 78.1081C19.49 77.554 20.3224 76.3687 21.1354 76.601C21.5944 76.7945 22.0197 77.06 22.3952 77.3873L23.7419 78.3297C23.0806 79.3422 22.6315 80.4784 22.4218 81.6694ZM50.6141 74.9387C50.3494 74.502 49.9366 74.1751 49.4509 74.0175C48.1487 73.5627 46.8963 72.976 45.7132 72.2666C45.5927 72.1851 45.4544 72.0609 45.4792 71.9297C45.512 71.7524 45.7921 71.5494 46.0758 71.4865C46.6255 71.4031 46.6485 71.4466 53.6674 72.1398C54.366 72.2081 55.0513 72.3171 55.0956 72.8092C55.0952 72.8655 55.1099 72.9209 55.1383 72.9696C55.1667 73.0183 55.2077 73.0584 55.2569 73.0858C53.7446 73.7876 52.1949 74.4062 50.615 74.9387H50.6141ZM102.522 30.1972C103.467 29.7548 104.39 29.2648 105.286 28.729C105.624 28.5637 106.001 28.4924 106.377 28.5225C106.752 28.5526 107.113 28.683 107.421 28.9001C107.311 28.9431 107.214 29.0125 107.137 29.1022C107.061 29.1919 107.008 29.2992 106.983 29.4143C106.981 29.4755 107.001 29.5353 107.038 29.5837C107.075 29.6321 107.128 29.6661 107.188 29.6801C107.247 29.694 107.31 29.687 107.365 29.6603C107.42 29.6335 107.464 29.5886 107.49 29.5331C107.514 29.4853 107.553 29.4467 107.601 29.4238C107.649 29.4008 107.704 29.3946 107.756 29.4064C107.91 29.4528 108.05 29.5365 108.164 29.6502C108.247 29.7348 108.353 29.7933 108.469 29.8186C108.514 29.8209 108.559 29.8121 108.6 29.7927C108.641 29.7734 108.676 29.7442 108.703 29.7078L108.845 29.7406C109.633 31.2181 110.124 32.8348 110.293 34.5005C110.344 35.205 110.243 35.9121 109.999 36.5747C109.754 37.2373 109.371 37.8401 108.875 38.3428C107.641 39.4199 106.596 39.2923 106.018 40.2932C105.557 40.9732 106.359 40.6097 104.682 40.6221C103.179 40.6406 101.699 40.2554 100.396 39.5068C100.701 39.3328 101.026 39.1939 101.363 39.0928C101.847 38.9399 102.265 38.6274 102.549 38.2062C102.725 37.7778 102.739 37.2999 102.589 36.8618C102.438 36.4237 102.133 36.0554 101.731 35.8259C101.455 35.6751 101.211 35.4732 101.012 35.231C100.143 33.8559 101.869 31.7078 100.68 30.1777C100.969 30.3094 101.282 30.3792 101.599 30.3826C101.917 30.3859 102.231 30.3228 102.522 30.1972H102.522ZM97.3725 34.074C97.8982 33.8914 98.9887 34.6388 99.2635 35.0555C99.643 35.6264 100.832 37.1202 100.834 37.6956C100.805 37.846 100.744 37.9887 100.656 38.1143C100.568 38.2398 100.455 38.3455 100.324 38.4243C100.1 38.5573 99.8829 38.6995 99.6713 38.8508C99.4794 38.6293 99.3065 38.392 99.1545 38.1415C99.4179 37.8722 99.6073 37.5393 99.7041 37.1752C99.7066 37.1659 99.7068 37.1561 99.7049 37.1466C99.703 37.1372 99.6989 37.1283 99.693 37.1207C99.6871 37.113 99.6795 37.1069 99.6708 37.1026C99.6621 37.0984 99.6526 37.0962 99.643 37.0963C97.4461 37.0954 96.5347 34.3631 97.3734 34.074H97.3725ZM81.5529 36.9234C82.6061 37.1894 82.7152 36.3853 90.7783 37.0298C93.0284 37.6016 95.4824 38.7878 97.3627 38.7985C97.2032 39.3659 97.001 40.771 96.353 43.0184C93.7079 42.3696 90.9726 42.1703 88.2614 42.4289C88.2227 42.3877 88.1724 42.3593 88.1171 42.3472C88.0619 42.3352 88.0043 42.3401 87.952 42.3614C87.8996 42.3827 87.8549 42.4194 87.8237 42.4665C87.7926 42.5137 87.7764 42.5692 87.7774 42.6257C87.7895 43.0741 87.8307 43.5213 87.9006 43.9644C86.841 43.3098 85.8868 42.4982 85.0707 41.5574C85.0139 41.5154 84.9446 41.4937 84.874 41.496C84.8033 41.4982 84.7355 41.5242 84.6815 41.5698C83.4382 42.7019 81.9627 43.5488 80.358 44.0516C78.7534 44.5543 77.0584 44.7006 75.3914 44.4804C75.3383 44.4805 75.2862 44.4944 75.2402 44.5208C75.1942 44.5472 75.1559 44.5852 75.129 44.6309C75.1022 44.6767 75.0877 44.7286 75.0871 44.7817C75.0864 44.8347 75.0997 44.887 75.1254 44.9334C76.0989 46.2978 77.347 47.4435 78.7895 48.297C78.919 48.6746 79.0348 49.0561 79.137 49.4415C79.137 49.4415 78.4065 49.4841 78.1007 49.4974C78.0476 49.5055 77.9979 49.5282 77.957 49.563C77.9161 49.5978 77.8858 49.6432 77.8693 49.6943C77.8528 49.7454 77.8509 49.8001 77.8637 49.8522C77.8766 49.9043 77.9037 49.9518 77.942 49.9894C81.2284 54.4035 81.9545 57.9488 83.084 61.1209C83.1647 61.3484 83.1913 61.5916 83.1618 61.8312C83.1322 62.0708 83.0473 62.3002 82.9138 62.5013C82.5118 63.287 81.8489 63.9083 81.0387 64.2584C80.6779 64.3338 80.1335 63.9924 79.8614 63.8408C77.1976 62.5896 74.7043 61.0038 72.4418 59.1217C70.2894 57.3613 68.5071 55.1918 67.1979 52.7386C66.4592 51.4072 66.0237 49.929 65.9227 48.4097C65.8217 46.8905 66.0577 45.3677 66.6136 43.9502C67.3591 43.7662 68.119 43.6464 68.885 43.592C70.1394 43.8263 71.3383 44.2952 72.4188 44.9742C72.478 45.009 72.5479 45.021 72.6153 45.0079C72.6828 44.9948 72.7431 44.9575 72.785 44.9031C72.8269 44.8487 72.8475 44.7808 72.8429 44.7123C72.8383 44.6438 72.8089 44.5793 72.7601 44.5309C71.6962 43.0628 70.1129 42.2808 68.0108 41.701C71.2884 38.3685 76.8959 37.3126 81.5529 36.9234ZM99.2245 47.89L101.53 51.3777C101.246 52.1337 100.947 52.8846 100.632 53.6304C99.8609 51.7757 98.7682 50.0716 97.4044 48.5966C97.8176 47.2668 98.2289 45.913 98.5622 44.5566C99.6817 45.7792 100.594 47.1765 101.263 48.6932C101.706 49.6596 101.617 49.7208 101.897 50.3706L101.795 50.6543L99.7422 47.5514C99.7198 47.5174 99.6908 47.4881 99.6571 47.4653C99.6233 47.4425 99.5854 47.4266 99.5454 47.4184C99.5055 47.4103 99.4644 47.4101 99.4244 47.4178C99.3844 47.4256 99.3463 47.4411 99.3123 47.4636C99.2783 47.4861 99.249 47.515 99.2262 47.5488C99.2034 47.5826 99.1875 47.6205 99.1793 47.6604C99.1712 47.7003 99.171 47.7415 99.1787 47.7815C99.1865 47.8215 99.202 47.8596 99.2245 47.8936V47.89ZM95.9044 56.5064L97.6473 59.7193C96.5157 61.8059 95.262 63.8239 93.8928 65.7629L92.156 61.9507C92.565 61.1782 92.9551 60.396 93.3263 59.604L94.4956 61.6998C94.5357 61.7718 94.6028 61.8249 94.682 61.8474C94.7612 61.8699 94.8461 61.86 94.9181 61.82C94.99 61.7799 95.0431 61.7128 95.0656 61.6336C95.0882 61.5544 95.0783 61.4695 95.0382 61.3975C93.9016 59.3638 93.7288 59.0109 93.6437 58.9152C94.4416 57.1421 95.3015 54.9142 95.9008 53.22L97.5587 56.4621C97.5769 56.499 97.6022 56.5319 97.6333 56.5589C97.6643 56.5859 97.7004 56.6065 97.7394 56.6194C97.7785 56.6323 97.8197 56.6374 97.8608 56.6342C97.9018 56.631 97.9418 56.6198 97.9784 56.601C98.015 56.5823 98.0475 56.5564 98.0741 56.525C98.1006 56.4935 98.1206 56.4571 98.133 56.4179C98.1453 56.3787 98.1497 56.3373 98.1459 56.2964C98.1422 56.2554 98.1303 56.2156 98.111 56.1793L96.1827 52.4088C96.3069 52.0447 96.4292 51.678 96.5498 51.3086L98.0099 53.8796C98.0301 53.915 98.057 53.9462 98.0892 53.9712C98.1213 53.9962 98.1581 54.0147 98.1974 54.0255C98.2368 54.0364 98.2778 54.0393 98.3183 54.0343C98.3587 54.0293 98.3978 54.0163 98.4333 53.9961C98.4687 53.976 98.4998 53.9491 98.5249 53.9169C98.5499 53.8847 98.5684 53.8479 98.5792 53.8086C98.59 53.7693 98.593 53.7283 98.588 53.6878C98.5829 53.6473 98.57 53.6083 98.5498 53.5728L96.8113 50.5045C96.8512 50.3777 97.1925 49.2846 97.1925 49.2846C98.522 50.7955 99.5748 52.5289 100.303 54.4053C99.6057 55.994 98.8409 57.5511 98.0082 59.0765L96.4496 56.2076C96.4307 56.1709 96.4046 56.1384 96.3729 56.1119C96.3412 56.0854 96.3046 56.0655 96.2651 56.0534C96.2256 56.0412 96.1841 56.0371 96.143 56.0412C96.1019 56.0453 96.0621 56.0576 96.0258 56.0773C95.9895 56.097 95.9575 56.1237 95.9317 56.156C95.9058 56.1882 95.8867 56.2253 95.8754 56.265C95.8641 56.3047 95.8608 56.3463 95.8658 56.3873C95.8708 56.4283 95.8839 56.4679 95.9044 56.5038V56.5064ZM86.8279 63.3887C86.8698 63.342 86.9097 63.2924 86.9476 63.2398C87.0256 63.0786 87.0509 62.897 87.0199 62.7207C86.9888 62.5443 86.9031 62.3823 86.7747 62.2575C86.6225 62.1522 86.4458 62.0877 86.2616 62.0702C86.0773 62.0526 85.8917 62.0826 85.7223 62.1573C85.4458 62.2244 85.1628 62.2609 84.8783 62.2663C84.9905 62.1742 85.0834 62.0608 85.1517 61.9327C85.22 61.8046 85.2624 61.6643 85.2764 61.5199C85.2471 61.3518 85.1604 61.1991 85.031 61.0879C84.9017 60.9766 84.7377 60.9137 84.5672 60.9099C84.8674 59.9725 85.1511 59.0295 85.4183 58.0809C86.702 58.8788 86.8367 58.9852 87.8926 59.7379C88.1885 60.0132 88.5275 60.2381 88.8962 60.4037C87.9972 62.7575 87.9901 62.7867 87.2782 64.3311C87.2481 64.4029 87.0655 64.9269 86.9999 65.0767C86.8944 65.0143 86.7952 64.9419 86.7038 64.8604C86.6887 64.7948 86.6642 64.7318 86.6311 64.6733C87.3642 64.2327 87.2366 63.5545 86.8279 63.3887ZM85.9874 65.0731L85.9768 65.0838C85.458 65.3117 84.8917 65.4107 84.3264 65.3723C83.761 65.3338 83.2134 65.1591 82.7302 64.863C82.4868 64.7587 82.2606 64.6182 82.0591 64.4464C82.3677 64.2213 82.6419 63.9525 82.873 63.6485C83.2843 63.2064 83.5766 62.6671 83.7223 62.081C83.9367 61.7929 84.2438 61.5875 84.592 61.4995C84.545 61.5881 84.6806 61.5775 84.3659 61.8408C84.1605 61.9895 84.0161 62.2079 83.9599 62.4552C83.9496 62.499 83.949 62.5445 83.9582 62.5886C83.9675 62.6326 83.9863 62.6741 84.0134 62.7101C84.0405 62.746 84.0751 62.7756 84.1149 62.7967C84.1547 62.8177 84.1986 62.8298 84.2436 62.832C84.827 62.8865 85.4155 62.8345 85.9803 62.6786C86.1461 62.6724 86.46 62.5899 86.3128 62.8878C86.2076 63.0741 86.0471 63.2231 85.8535 63.3142C85.8069 63.318 85.762 63.3334 85.7229 63.3589C85.6837 63.3845 85.6515 63.4194 85.6292 63.4605C85.607 63.5016 85.5953 63.5476 85.5953 63.5944C85.5953 63.6411 85.607 63.6871 85.6293 63.7283C85.6293 64.1175 86.3075 63.9118 86.5282 63.9437C86.386 64.1183 86.1915 64.2426 85.9732 64.2983C85.5858 64.316 85.4874 64.5864 85.5876 64.7762C85.6718 64.9402 85.9067 64.9898 85.9874 65.0785V65.0731ZM84.6434 55.2564C84.4218 55.1899 81.2869 54.5392 81.1983 54.5205C80.8401 53.7717 80.4524 53.0368 80.0351 52.3157C80.0674 51.9348 80.0534 51.5514 79.9935 51.1738C80.6699 51.2625 81.3614 51.3298 82.0325 51.3919C83.5006 51.5275 84.6479 51.6632 86.2498 51.8636C86.1848 52.1762 86.1189 52.4874 86.0521 52.7971C85.1542 52.6175 84.2475 52.4852 83.3358 52.4008C83.2805 52.3962 83.2255 52.4125 83.1816 52.4465C83.1378 52.4804 83.1083 52.5296 83.0989 52.5843C83.0896 52.639 83.101 52.6952 83.1311 52.7418C83.1612 52.7884 83.2076 52.8221 83.2613 52.8361C83.6097 52.9248 84.4475 53.0196 85.928 53.3485C85.3358 56.0188 84.6053 58.6182 83.8003 61.2601C83.7613 61.2938 83.7241 61.3275 83.6877 61.3612C83.5826 60.7443 83.3857 60.1466 83.1035 59.5881C82.6691 58.0467 82.1185 56.5406 81.4563 55.0826C81.9111 55.1961 82.3668 55.2989 82.8198 55.4044C83.3973 55.5668 83.9833 55.6973 84.5751 55.7954C84.6417 55.7952 84.7059 55.7708 84.7557 55.7267C84.8056 55.6826 84.8377 55.6219 84.8461 55.5559C84.8544 55.4899 84.8385 55.4231 84.8012 55.3679C84.7639 55.3128 84.7078 55.2732 84.6434 55.2564ZM79.0945 47.6081C80.193 47.7561 81.2986 47.8449 82.4066 47.8741C82.7435 47.8856 84.5592 47.8493 85.7933 47.7118C85.9794 47.7118 86.7915 47.5274 87.0468 47.5035C86.9954 47.9921 86.9124 48.4769 86.7986 48.9548C86.6931 49.5603 86.4014 51.1268 86.3651 51.305C84.8952 51.1277 81.4102 50.7137 79.9261 50.6711C79.7528 49.6247 79.4742 48.5985 79.0945 47.6081ZM79.5466 51.5036C79.2511 51.0308 78.9432 50.5621 78.6228 50.0975L79.2869 50.0612C79.3939 50.5364 79.4804 51.0163 79.5466 51.501V51.5036ZM78.4411 47.3785C78.4562 47.414 78.4704 47.4503 78.4846 47.4858C77.9684 47.1004 77.4788 46.6807 77.0191 46.2295C76.6583 45.8742 76.3187 45.498 76.0022 45.1027C77.8954 45.2526 79.7971 44.9487 81.5494 44.2162C81.513 44.475 81.5813 44.5158 81.6947 44.6958C81.1876 45.1311 81.3189 45.5823 81.8162 45.8173C82.0397 45.8995 82.2782 45.9328 82.5157 45.9148C82.7905 45.9086 83.1682 45.929 83.3083 46.1657C83.3969 46.3111 83.0609 46.4201 82.8783 46.3802C82.2985 46.2535 82.1965 46.0504 82.0148 46.1684C81.9748 46.1962 81.9438 46.2351 81.9255 46.2803C81.9072 46.3255 81.9025 46.375 81.9119 46.4228C81.9119 46.6001 82.3552 47.0248 82.9271 47.0248C83.06 47.0225 83.1923 47.0055 83.3216 46.9742C83.3455 46.992 83.5494 47.1515 83.5742 47.1631C83.451 47.1968 83.3269 47.2278 83.2028 47.2579C81.7083 47.2835 80.2141 47.1931 78.7337 46.9875C78.6856 46.9846 78.6376 46.9937 78.5939 47.0139C78.5502 47.034 78.5121 47.0647 78.4832 47.1032C78.4542 47.1416 78.4352 47.1866 78.4279 47.2342C78.4205 47.2818 78.4251 47.3304 78.4411 47.3758V47.3785ZM92.7456 49.4007C92.7094 49.3977 92.6729 49.4024 92.6386 49.4145C92.6044 49.4266 92.5731 49.4459 92.5468 49.4711C92.5206 49.4962 92.5 49.5267 92.4864 49.5604C92.4728 49.5941 92.4666 49.6304 92.4681 49.6667C92.4702 49.7169 92.4887 49.765 92.5207 49.8037C92.5527 49.8425 92.5965 49.8697 92.6454 49.8812C93.4433 50.1064 94.0267 50.3245 94.5621 50.524C95.0814 50.6428 95.5699 50.8697 95.9957 51.1898C95.8964 51.4888 95.7953 51.7873 95.6925 52.0852L94.1614 51.4531C94.1233 51.4352 94.082 51.4252 94.0399 51.4238C93.9979 51.4223 93.9559 51.4294 93.9167 51.4446C93.8774 51.4598 93.8417 51.4829 93.8116 51.5123C93.7815 51.5417 93.7577 51.5769 93.7416 51.6158C93.7255 51.6547 93.7175 51.6965 93.718 51.7386C93.7185 51.7807 93.7276 51.8222 93.7446 51.8607C93.7617 51.8992 93.7863 51.9338 93.8171 51.9625C93.8479 51.9912 93.8842 52.0133 93.9238 52.0276L95.4886 52.6739C94.4532 55.7404 93.1761 58.72 91.6693 61.5846L90.3067 60.9383C90.2698 60.9208 90.2299 60.9108 90.1892 60.9087C90.1485 60.9067 90.1077 60.9127 90.0693 60.9264C90.0309 60.9401 89.9956 60.9613 89.9654 60.9886C89.9351 61.016 89.9106 61.049 89.8931 61.0859C89.8757 61.1227 89.8656 61.1627 89.8636 61.2034C89.8616 61.2441 89.8676 61.2848 89.8813 61.3232C89.895 61.3617 89.9161 61.397 89.9435 61.4272C89.9708 61.4575 90.0039 61.482 90.0407 61.4995L91.3706 62.1316C90.6731 63.4094 89.9249 64.6576 89.1258 65.8764C88.7495 65.3985 88.326 64.9598 87.8616 64.5669C89.2287 61.5527 91.5505 55.1863 92.117 51.2616C92.1602 51.2372 92.1971 51.2032 92.225 51.1623C92.2528 51.1213 92.2708 51.0745 92.2776 51.0254C92.2844 50.9763 92.2797 50.9263 92.264 50.8793C92.2483 50.8323 92.222 50.7896 92.1871 50.7545C91.0948 49.7171 89.9465 48.7405 88.7472 47.8289C88.7472 47.6516 88.7473 47.468 88.7384 47.2969C91.4618 47.4347 94.1422 48.0327 96.6659 49.0656C96.5959 49.2961 96.2767 50.3121 96.1872 50.5905C95.0803 50.0849 93.9279 49.6857 92.7456 49.3981V49.4007ZM89.7437 55.1633C89.2347 54.7421 88.6805 54.3787 88.0912 54.0799C87.6183 53.7887 87.1219 53.5375 86.6071 53.329C86.7029 52.8928 86.7954 52.4561 86.8846 52.0187C87.559 52.3758 88.215 52.7667 88.8501 53.1898C89.5194 53.6336 90.1604 54.1186 90.7695 54.642C90.5549 55.4222 90.0177 57.2529 89.6116 58.4488C88.4788 57.5214 87.2599 56.7044 85.9715 56.0091C86.1529 55.2951 86.3252 54.5788 86.4883 53.8601C86.6355 53.939 86.7835 54.0161 86.9316 54.0932C87.7962 54.546 88.632 55.0517 89.4343 55.6075C89.4929 55.6381 89.5607 55.6464 89.625 55.6307C89.6892 55.615 89.7456 55.5765 89.7835 55.5223C89.8214 55.4681 89.8383 55.4019 89.8309 55.3362C89.8236 55.2704 89.7926 55.2096 89.7437 55.1651V55.1633ZM89.4467 58.9178C89.3235 59.268 89.1941 59.6173 89.062 59.9657C87.962 59.0759 86.7864 58.2839 85.5486 57.5986C85.6461 57.244 85.7413 56.8894 85.8341 56.5348C89.1542 58.6013 88.6613 58.4019 89.4467 58.9196V58.9178ZM91.6427 51.0869C91.3581 52.0621 91.1808 53.0267 90.9388 54.0019C89.7251 53.0138 88.3995 52.1718 86.9892 51.493C87.0968 50.948 87.1987 50.4025 87.2951 49.8564C88.6152 50.5009 90.6108 51.7962 90.6312 51.8068C90.6653 51.8291 90.7036 51.8443 90.7436 51.8518C90.7837 51.8593 90.8249 51.8588 90.8648 51.8503C90.9046 51.8419 90.9425 51.8257 90.9761 51.8026C91.0097 51.7796 91.0385 51.7501 91.0607 51.7159C91.0829 51.6818 91.0982 51.6436 91.1057 51.6035C91.1132 51.5634 91.1127 51.5222 91.1042 51.4824C91.0958 51.4425 91.0796 51.4046 91.0565 51.371C91.0335 51.3374 91.004 51.3086 90.9698 51.2864C89.819 50.5341 88.629 49.8434 87.405 49.2172C87.4854 48.7349 87.5622 48.2529 87.6355 47.7712C89.0488 48.7799 90.3879 49.8886 91.6427 51.0887V51.0869ZM87.7189 47.132C87.7128 47.0922 87.6986 47.054 87.6771 47.0198C87.6557 46.9857 87.6275 46.9563 87.5943 46.9334C87.5611 46.9106 87.5235 46.8948 87.4839 46.887C87.4444 46.8792 87.4036 46.8797 87.3642 46.8882C86.7407 46.9893 86.1154 47.0703 85.4883 47.1311C86.3994 46.7662 87.2642 46.2948 88.0646 45.7269C88.1116 46.2818 88.1533 46.8359 88.1994 47.4432C88.0424 47.3421 87.882 47.234 87.7189 47.1338V47.132ZM87.5912 45.3119C86.5108 46.0741 85.3129 46.6542 84.045 47.0292C84.0504 47.0111 84.0531 46.9923 84.053 46.9733C84.053 46.796 84.053 46.781 83.7985 46.6081C84.1204 46.085 83.7666 45.601 83.2152 45.4237C82.9031 45.3235 82.1921 45.4237 81.974 45.2463C82.0523 45.1527 82.1416 45.0687 82.24 44.9963C82.266 45.0231 82.2983 45.0429 82.3338 45.0542C82.3694 45.0655 82.4072 45.0679 82.4439 45.0611H82.4598C82.6496 45.1027 82.8003 44.8837 82.763 44.6887C82.7461 44.6149 82.7102 44.5469 82.6589 44.4912C82.6076 44.4355 82.5426 44.3942 82.4705 44.3713C82.38 44.3524 82.2859 44.3607 82.2001 44.3953C82.1868 44.3731 82.1487 44.3172 82.1336 44.296C82.0958 44.1907 82.019 44.1041 81.919 44.0539C82.9664 43.5755 83.9436 42.9563 84.8234 42.2135C85.7437 43.1858 86.7981 44.0216 87.9547 44.6958C87.968 44.7977 87.9813 44.897 87.9946 45.0105C87.8572 45.1063 87.7215 45.2144 87.5912 45.3119ZM87.6196 65.1033C88.7162 66.2558 89.054 66.6548 89.054 66.6548C89.054 66.6548 89.9796 68.3658 90.187 68.802C89.1309 67.8786 88.1266 66.8975 87.1789 65.8631C87.3137 65.801 87.3252 65.7283 87.6169 65.1033H87.6196ZM89.4928 66.4482C90.3096 65.207 91.075 63.9363 91.789 62.636L93.4646 66.3125C92.6885 67.2738 91.8441 68.1777 90.9379 69.0174C90.8874 68.9279 89.6781 66.7576 89.4902 66.4482H89.4928ZM97.1961 47.2579C96.1641 46.8067 93.7944 46.0531 93.0665 45.851C93.0082 45.8382 92.9472 45.8478 92.8956 45.8779C92.8441 45.9081 92.8057 45.9565 92.7883 46.0137C92.7709 46.0708 92.7756 46.1324 92.8015 46.1862C92.8274 46.24 92.8727 46.282 92.9282 46.304C95.7306 47.226 95.5577 47.2943 97.0321 47.8306C96.97 48.0443 96.9079 48.2588 96.845 48.4725C94.288 47.3373 91.521 46.752 88.7233 46.7544C88.718 46.6471 88.6036 44.8731 88.5948 44.7658C90.6412 44.6395 92.6953 44.7793 94.7057 45.1816C94.7737 45.1832 94.8396 45.1587 94.8901 45.1132C94.9405 45.0677 94.9716 45.0047 94.977 44.9369C94.983 44.8749 94.9652 44.8129 94.9272 44.7635C94.8892 44.7141 94.8338 44.681 94.7722 44.671C93.685 44.3296 92.5509 44.1605 91.4113 44.1701C90.4528 44.1076 89.4906 44.1307 88.5363 44.2392C88.4582 43.6009 88.4937 43.5415 88.4059 42.9821C91.6882 42.7394 94.9864 43.1307 98.1208 44.1346C97.8176 45.0797 97.4948 46.1967 97.1934 47.2579H97.1961ZM67.2803 42.9626C67.3744 42.8568 67.4329 42.7242 67.4475 42.5834C67.4622 42.4427 67.4322 42.3008 67.3619 42.178C68.1457 42.3793 68.9139 42.6368 69.6607 42.9484C68.6528 42.9585 67.6492 43.0814 66.6686 43.3145C66.6722 43.2982 66.674 43.2816 66.6739 43.2649V43.2427C66.9051 43.2328 67.123 43.1322 67.2803 42.9626ZM60.5966 46.0256C61.4743 43.1833 63.2962 41.6815 66.2794 41.9892C66.4563 42.1421 66.6432 42.2831 66.8388 42.4112C66.9629 42.5051 66.806 42.6523 66.6686 42.6496C66.3707 42.6186 66.3601 42.5167 66.0064 42.3917C65.9486 42.3745 65.8869 42.3759 65.83 42.3956C65.7731 42.4153 65.7237 42.4524 65.689 42.5016C65.6637 42.5478 65.6513 42.6 65.6528 42.6526C65.6544 42.7053 65.6699 42.7566 65.6978 42.8012C65.8333 42.975 66.0191 43.1029 66.2298 43.1674C66.2369 43.2667 66.2023 43.3234 66.2705 43.4138C64.252 43.976 62.3364 44.8577 60.5966 46.0256ZM64.2554 69.0892C62.0142 69.294 62.5887 69.1974 62.039 69.2568C61.8589 69.2912 61.6739 69.2912 61.4938 69.2568C61.3643 69.0292 61.2744 68.7813 61.2279 68.5236C60.8165 67.1887 60.4908 65.8289 60.2526 64.4526C59.7693 61.7694 59.7501 59.0232 60.1959 56.3335C60.3671 55.0445 60.9505 53.8453 61.8591 52.915C62.9318 51.9398 64.4912 51.6393 65.8672 51.266C67.8858 56.9213 73.7335 61.644 79.1654 64.3116C74.5476 66.8451 69.4857 68.4671 64.2554 69.0892ZM96.3787 72.7773C94.6484 72.7546 92.9251 72.5523 91.2367 72.1735C86.7538 70.9843 82.7613 68.4089 79.8294 64.8152C79.8033 64.7456 79.7811 64.6745 79.763 64.6024C80.0778 64.8159 80.4466 64.9358 80.8268 64.9481C81.0645 64.9524 81.2997 64.8988 81.5121 64.7921C81.8901 65.1498 82.3372 65.4265 82.826 65.6051C83.779 66.0741 84.8788 66.147 85.8855 65.8081C86.0223 65.7664 86.1556 65.7143 86.2844 65.6521C87.5438 67.1129 88.9067 68.4811 90.3625 69.7461C90.3737 69.7946 90.3967 69.8395 90.4296 69.8768C90.4625 69.914 90.5042 69.9424 90.551 69.9595C90.5977 69.9765 90.6479 69.9815 90.6971 69.9741C90.7462 69.9668 90.7928 69.9472 90.8324 69.9173C93.8077 67.6663 95.7634 64.2522 97.4904 61.2379C98.3202 59.7441 100.123 56.4683 100.942 54.6677C101.552 53.3321 102.041 51.944 102.401 50.5204C102.447 50.4678 102.47 50.3994 102.466 50.3298C102.351 49.7334 102.152 49.1566 101.874 48.617C101.161 46.8598 100.08 45.2756 98.7041 43.9706C98.7493 43.7694 98.4966 43.6115 98.3761 43.5814C97.9316 43.4378 97.4827 43.3057 97.0294 43.1851C97.4602 41.742 97.7611 40.2633 97.9284 38.7665C98.2381 38.7195 98.5341 38.6064 98.7963 38.435C98.9184 38.6962 99.0698 38.9428 99.2476 39.1699C99.0998 39.2881 98.9553 39.4108 98.814 39.5378C98.5739 39.7628 98.4169 40.0623 98.3686 40.3878C98.3203 40.7133 98.3835 41.0455 98.5481 41.3305C98.8084 41.6162 99.1537 41.8108 99.533 41.8854C99.763 41.9806 100.014 42.0148 100.261 41.9846C100.508 41.9545 100.743 41.8611 100.944 41.7134C100.954 41.7055 100.961 41.6945 100.965 41.6821C100.969 41.6696 100.969 41.6563 100.965 41.644C100.961 41.6317 100.953 41.6209 100.942 41.6132C100.932 41.6055 100.919 41.6011 100.906 41.6008C100.656 41.6034 100.41 41.5418 100.191 41.4218C99.9716 41.3018 99.7869 41.1275 99.6545 40.9155C99.602 40.7293 99.599 40.5326 99.6456 40.3448C99.6922 40.1571 99.787 39.9847 99.9204 39.8446C101.117 40.6306 102.505 41.0762 103.936 41.1336C104.538 41.1492 105.14 41.2067 105.734 41.3056C105.734 41.3056 106.072 41.8845 106.105 41.9262C105.919 42.054 105.741 42.1938 105.573 42.3447C105.458 42.4901 105.381 42.6619 105.349 42.8445C105.317 43.027 105.331 43.2147 105.39 43.3905C105.448 43.5664 105.55 43.7249 105.685 43.8518C105.82 43.9788 105.984 44.0702 106.164 44.1178C107.418 52.7173 105.95 61.9472 101.794 71.607C100.206 72.679 98.267 73.0981 96.3787 72.7773ZM148.331 32.1582C140.551 40.1132 130.038 44.9024 120.147 49.6951C117.475 51.0657 114.658 52.1321 111.748 52.8742C111.858 50.8375 111.786 48.795 111.532 46.7712C111.532 46.7116 111.515 46.6532 111.483 46.6028C111.451 46.5524 111.405 46.5122 111.351 46.4868C111.297 46.4614 111.237 46.4519 111.178 46.4594C111.119 46.4669 111.063 46.4911 111.017 46.5292C110.964 46.5649 110.922 46.6149 110.896 46.6733C110.87 46.7318 110.861 46.7964 110.869 46.8599C111.972 54.9026 109.32 63.5589 106.715 71.9164C105.961 74.4243 104.753 76.7724 103.151 78.8439C101.61 80.8028 99.393 82.1162 96.9345 82.5275C104.008 70.4705 109.29 56.7449 106.519 43.1532C106.511 43.1142 106.492 43.0782 106.465 43.0488C106.439 43.0193 106.405 42.9975 106.367 42.9856C106.328 42.965 106.285 42.9555 106.241 42.9581C106.198 42.9608 106.156 42.9755 106.12 43.0006C106.085 43.0258 106.057 43.0604 106.04 43.1005C106.023 43.1406 106.018 43.1846 106.024 43.2277C105.779 42.7427 106.283 42.5991 106.57 42.3198C106.89 42.4695 107.241 42.5396 107.594 42.5241C107.947 42.5087 108.291 42.4082 108.596 42.2312C108.608 42.2242 108.617 42.2135 108.622 42.2009C108.627 42.1882 108.628 42.1742 108.625 42.161C108.621 42.1477 108.614 42.136 108.603 42.1276C108.592 42.1191 108.579 42.1144 108.565 42.1142C108.382 42.1006 108.209 42.0273 108.072 41.9056C107.935 41.7838 107.841 41.6204 107.806 41.4404C131.58 36.2895 147.148 29.5367 147.683 29.5925C148.228 30.125 148.634 30.7837 148.863 31.5101C148.838 31.7256 148.51 31.9703 148.329 32.1582H148.331ZM151.331 29.2751C151.002 30.051 150.383 30.6677 149.606 30.9942C149.534 31.0287 149.461 31.0633 149.389 31.0997C149.096 30.4052 148.718 29.75 148.262 29.1493C148.336 28.7216 148.444 28.3004 148.583 27.8895C148.678 27.6847 148.829 27.5116 149.02 27.3913C149.211 27.2709 149.432 27.2085 149.658 27.2115C149.883 27.2145 150.103 27.2828 150.29 27.4082C150.478 27.5336 150.625 27.7106 150.714 27.9178C150.752 27.9828 150.778 28.0539 150.791 28.1279C150.684 28.1896 150.562 28.2206 150.439 28.2175C150.316 28.2144 150.196 28.1772 150.092 28.1102C150.038 28.0821 149.977 28.0697 149.916 28.0745C149.855 28.0793 149.797 28.1011 149.747 28.1373C149.698 28.1736 149.66 28.2229 149.638 28.2797C149.615 28.3365 149.609 28.3985 149.62 28.4586C149.66 28.6572 149.656 28.8623 149.607 29.0591C149.558 29.2558 149.466 29.439 149.337 29.5952C149.294 29.6638 149.279 29.7457 149.293 29.8251C149.307 29.9045 149.35 29.9758 149.414 30.0252C149.478 30.0746 149.558 30.0986 149.638 30.0925C149.719 30.0864 149.794 30.0508 149.85 29.9924C150.124 29.6718 150.282 29.2684 150.3 28.8469C150.465 28.8657 150.632 28.8507 150.792 28.8026C150.951 28.7546 151.099 28.6747 151.226 28.5677C151.318 28.5151 151.387 28.4291 151.417 28.3274C151.498 28.3194 151.579 28.3132 151.66 28.3079C151.592 28.6425 151.482 28.9673 151.334 29.2751H151.331Z" fill="#3D3834"/>
<path d="M103.752 32.4557C103.892 33.0125 104.294 33.5613 104.736 33.1534C105.069 32.8476 104.782 31.9229 104.484 31.6906C104.186 31.4584 103.494 31.4291 103.752 32.4557Z" fill="#3D3834"/>
<path d="M107.703 31.2604C107.873 31.8809 108.378 31.9208 108.589 31.6425C108.846 31.2967 108.575 30.5981 108.351 30.3481C108.037 30.0015 107.429 30.2594 107.703 31.2604Z" fill="#3D3834"/>
<path d="M107.264 32.2183C107.878 33.1137 108.062 33.5437 108.312 33.9391C108.043 33.9972 107.779 34.077 107.523 34.1775C107.46 34.2006 107.406 34.2447 107.371 34.3025C107.336 34.3603 107.322 34.4284 107.331 34.4954C107.34 34.5625 107.371 34.6244 107.421 34.6709C107.47 34.7174 107.533 34.7457 107.601 34.7511C108.048 34.7013 108.48 34.562 108.872 34.3416C109.166 34.018 108.711 33.424 108.561 33.1731C108.119 32.3969 107.588 31.6756 106.977 31.0241C106.937 30.9917 106.886 30.9745 106.834 30.9756C106.782 30.9767 106.733 30.996 106.693 31.0301C106.654 31.0641 106.628 31.1109 106.62 31.1621C106.612 31.2133 106.622 31.2658 106.648 31.3104C106.835 31.6249 107.041 31.928 107.264 32.2183Z" fill="#3D3834"/>
<path d="M102.893 31.7568C102.903 31.807 102.931 31.8522 102.971 31.8845C103.011 31.9168 103.061 31.9343 103.112 31.9341H103.201C103.237 31.9341 103.274 31.9251 103.306 31.9077C103.338 31.8903 103.366 31.8651 103.386 31.8344C103.406 31.8037 103.419 31.7685 103.422 31.7319C103.425 31.6953 103.419 31.6584 103.405 31.6247C103.404 31.3869 103.485 31.1563 103.634 30.9707C103.782 30.7852 103.99 30.6559 104.222 30.6042C104.671 30.6042 104.805 30.3303 104.677 30.1246C104.664 30.0933 104.645 30.0651 104.62 30.0422C104.377 29.9749 104.12 29.9799 103.881 30.0564C103.641 30.1329 103.429 30.2777 103.27 30.473C103.111 30.6429 102.995 30.8474 102.929 31.0703C102.864 31.2931 102.851 31.5282 102.893 31.7568Z" fill="#3D3834"/>
<path d="M104.384 34.557C104.483 35.7395 105.014 36.8442 105.876 37.6599C106.401 38.0615 106.988 37.8195 107.515 37.4161C108.025 37.038 108.458 36.5673 108.792 36.0286C108.821 35.9687 108.828 35.9008 108.813 35.8361C108.797 35.7715 108.76 35.7141 108.707 35.6737C108.655 35.6333 108.589 35.6123 108.523 35.6143C108.457 35.6163 108.393 35.6412 108.343 35.6846C107.88 36.2956 107.307 36.8138 106.653 37.2122C106.548 37.2408 106.438 37.2367 106.335 37.2006C106.233 37.1645 106.144 37.098 106.081 37.01C105.591 36.4514 105.245 35.782 105.072 35.0596C105.589 35.2887 106.14 35.4304 106.703 35.479C107.452 35.6512 108.239 35.5407 108.912 35.1687C109.172 35.0251 108.919 34.5481 108.673 34.7325C108.068 34.9878 107.396 35.0425 106.757 34.8885C106.075 34.8096 105.418 34.5827 104.832 34.2236C104.78 34.2002 104.723 34.191 104.666 34.1972C104.61 34.2033 104.556 34.2245 104.51 34.2585C104.464 34.2925 104.428 34.3381 104.406 34.3906C104.384 34.4431 104.377 34.5005 104.384 34.557Z" fill="#3D3834"/>
<path d="M46.2779 56.7393C49.2576 57.6364 52.927 57.288 55.3659 55.0894C56.6466 53.9051 57.7247 52.5191 58.5575 50.9864C58.7118 50.7799 58.5947 50.4297 58.1985 50.4979C56.1724 50.8356 54.1071 50.8679 52.0715 50.5937C52.0198 50.5926 51.9685 50.6042 51.9224 50.6277C51.8763 50.6511 51.8366 50.6856 51.8071 50.7281C51.7775 50.7706 51.7589 50.8197 51.7529 50.8711C51.7469 50.9226 51.7537 50.9746 51.7727 51.0228C50.7772 52.4379 49.3364 53.4788 47.6802 53.9795C46.024 54.4801 44.2479 54.4118 42.6351 53.7853C42.5732 53.7732 42.509 53.7799 42.451 53.8044C42.3929 53.829 42.3435 53.8704 42.3091 53.9233C42.2747 53.9762 42.2569 54.0382 42.2579 54.1012C42.259 54.1643 42.2789 54.2256 42.315 54.2773C43.3182 55.524 44.7158 56.3922 46.2779 56.7393ZM57.6257 51.1992C56.7434 52.6732 55.6021 53.9758 54.2569 55.0442C54.2743 55.0052 54.2829 54.9629 54.2819 54.9202C54.281 54.8775 54.2705 54.8356 54.2513 54.7975C54.2321 54.7594 54.2047 54.726 54.171 54.6998C54.1373 54.6736 54.0982 54.6553 54.0565 54.6461C53.9626 54.5917 53.8618 54.5502 53.7568 54.5229C53.7661 54.3657 53.7395 54.2085 53.679 54.0632C53.6185 53.9179 53.5256 53.7883 53.4075 53.6842C53.1607 53.5059 52.857 53.4245 52.5541 53.4556C52.2512 53.4866 51.9703 53.628 51.7648 53.8526C51.364 54.1851 51.0041 54.7232 50.5431 54.5548C50.3082 54.475 50.3339 54.3775 50.3489 54.319C50.3951 54.2039 50.4643 54.0994 50.5525 54.0122C50.6406 53.925 50.7458 53.8568 50.8614 53.8119C50.8772 53.8377 50.8982 53.8601 50.9231 53.8775C50.948 53.8948 50.9761 53.9069 51.0059 53.9129C51.1007 53.9351 51.1548 53.8917 51.2452 53.8243C51.4846 53.6541 51.224 53.2826 50.8977 53.2587C50.6146 53.2816 50.3489 53.4048 50.1486 53.6062C50.0865 53.6147 50.0236 53.6147 49.9615 53.6062H49.8631C50.8072 52.996 51.6142 52.1963 52.2329 51.2577C54.0234 51.4768 55.835 51.4574 57.6204 51.2001L57.6257 51.1992ZM49.544 54.0424C49.5724 54.0798 49.6107 54.1085 49.6545 54.1254C49.6983 54.1423 49.746 54.1467 49.7922 54.1381C49.7427 54.3418 49.7752 54.5567 49.8829 54.7366C49.9906 54.9164 50.1647 55.0466 50.3676 55.0991C51.0768 55.3456 51.6823 54.7277 51.8889 54.514C52.0728 54.2954 52.311 54.1291 52.5795 54.0317C52.6844 53.9959 52.7988 53.9997 52.9012 54.0423C53.0036 54.0849 53.0868 54.1634 53.1354 54.2631C53.1794 54.3672 53.182 54.4843 53.1426 54.5902C53.1032 54.6962 53.0248 54.7831 52.9235 54.8332C52.6537 54.922 52.3715 54.9672 52.0875 54.967C52.0081 54.9592 51.9288 54.9826 51.8665 55.0323C51.8041 55.0819 51.7635 55.1539 51.7532 55.233C51.7481 55.2981 51.7672 55.3629 51.8067 55.4149C51.8463 55.4669 51.9036 55.5025 51.9678 55.5149C52.2494 55.5969 52.5484 55.5979 52.8306 55.518C53.1128 55.438 53.3668 55.2803 53.5636 55.0628C53.8038 55.1337 53.8295 55.2286 53.9856 55.2303C53.1632 55.7907 52.2378 56.1825 51.263 56.3829C49.7732 56.6693 48.2383 56.6199 46.7699 56.2384C45.6098 56.0278 44.5284 55.507 43.6404 54.7312C45.6348 55.1714 47.7217 54.8505 49.4916 53.8314C49.4802 53.9054 49.497 53.981 49.5386 54.0433L49.544 54.0424Z" fill="#3D3834"/>
<path d="M17.5812 53.0827C17.5871 53.1425 17.6099 53.1993 17.6469 53.2466C17.6839 53.294 17.7335 53.3298 17.79 53.3501C17.8466 53.3703 17.9077 53.3741 17.9663 53.361C18.0249 53.3479 18.0786 53.3184 18.1211 53.276C19.8701 51.3213 22.0254 49.7727 24.436 48.7386C25.5951 48.2555 26.8491 48.0433 28.1026 48.1181C29.3561 48.1929 30.576 48.5528 31.6693 49.1704C31.7276 49.2002 31.7933 49.2122 31.8583 49.2049C31.9234 49.1976 31.9848 49.1713 32.035 49.1293C32.0852 49.0874 32.1219 49.0316 32.1406 48.9689C32.1593 48.9062 32.1591 48.8394 32.1401 48.7768C31.5919 47.2581 30.869 45.8083 29.9858 44.4566C29.9581 44.4221 29.9237 44.3936 29.8848 44.3726C29.8458 44.3516 29.8031 44.3386 29.7591 44.3344C29.715 44.3302 29.6706 44.3348 29.6284 44.3481C29.5862 44.3613 29.547 44.3828 29.5133 44.4114C26.7437 43.5446 23.7466 43.7786 21.1451 45.0648C19.8268 45.6158 18.7716 46.6538 18.1991 47.9629C17.6199 49.6035 17.4089 51.3515 17.5812 53.0827ZM29.539 44.9486C30.1843 45.9969 30.7474 47.0936 31.2234 48.2289C29.3032 47.3688 27.1393 47.2217 25.1204 47.814C25.1537 47.7742 25.1719 47.724 25.1718 47.6721C25.1718 47.4487 25.1231 47.4948 25.0185 47.2475C25.1742 47.2004 25.3187 47.1222 25.4433 47.0174C25.5678 46.9127 25.6697 46.7838 25.7428 46.6384C26.0025 45.9983 25.272 45.3972 24.4972 45.3033C24.3211 45.2957 24.1457 45.2762 23.9723 45.2448C23.9288 45.2306 23.8924 45.2003 23.8708 45.1599C23.8491 45.1196 23.8439 45.0725 23.8562 45.0284C23.9845 44.8395 24.1744 44.701 24.3934 44.6366C24.4144 44.6298 24.4342 44.6196 24.4519 44.6064C26.1516 44.3324 27.8913 44.4494 29.539 44.9486ZM23.3606 44.844C23.193 45.3015 23.4218 45.7306 24.053 45.8272C24.4045 45.8054 24.7523 45.909 25.0344 46.1198C25.0991 46.1765 25.2463 46.3193 25.2117 46.3999C25.0016 46.8086 24.272 46.7616 23.8606 46.4345C23.8252 46.4123 23.7853 46.398 23.7438 46.3925C23.7023 46.3871 23.6601 46.3907 23.6202 46.4031C23.5802 46.4154 23.5434 46.4363 23.5122 46.4642C23.481 46.4921 23.4562 46.5265 23.4395 46.5648C23.4267 46.6097 23.4241 46.6568 23.4317 46.7028C23.4394 46.7488 23.4572 46.7925 23.4838 46.8308C23.6103 46.9735 23.7645 47.0889 23.937 47.17C24.1096 47.2511 24.2969 47.2962 24.4874 47.3024C24.514 47.4301 24.5626 47.5522 24.631 47.6633C24.6558 47.7156 24.691 47.7623 24.7344 47.8006C24.7779 47.8388 24.8287 47.8678 24.8837 47.8858C22.3212 48.8266 20.0079 50.3414 18.1211 52.3141C18.0808 51.0324 18.2405 49.7522 18.5945 48.5197C18.8507 47.8411 19.2437 47.2224 19.7491 46.7022C20.2546 46.182 20.8616 45.7713 21.5325 45.4956C22.1252 45.2341 22.7362 45.0163 23.3606 44.844Z" fill="#3D3834"/>
<path d="M164.55 46.6133C164.572 46.5467 164.578 46.4757 164.568 46.4063C164.557 46.3369 164.53 46.2711 164.489 46.2141C164.448 46.1571 164.394 46.1107 164.332 46.0787C164.269 46.0467 164.2 46.03 164.13 46.0299C164.031 46.0215 163.932 46.0465 163.849 46.1008C163.766 46.1551 163.704 46.2357 163.672 46.3296C146.853 95.4764 116.799 138.835 70.9541 164.102C70.8487 164.173 70.7739 164.282 70.7446 164.406C70.7152 164.53 70.7335 164.661 70.7957 164.772C70.8579 164.883 70.9596 164.967 71.0807 165.007C71.2017 165.047 71.3334 165.04 71.4497 164.988C116.479 140.711 148.115 95.9187 164.55 46.6133Z" fill="#3D3834"/>
<path d="M166.569 43.1373C163.078 81.2217 148.331 117.405 124.206 147.08C122.284 149.436 122.304 149.334 122.304 149.557C122.299 149.657 122.326 149.757 122.38 149.841C122.435 149.926 122.514 149.992 122.607 150.03C122.7 150.067 122.803 150.075 122.901 150.052C122.998 150.029 123.087 149.976 123.153 149.901C142.915 126.387 156.76 98.4829 163.531 68.5228C165.414 60.1877 166.727 51.7341 167.461 43.2206C167.514 42.6338 166.619 42.6089 166.569 43.1373Z" fill="#3D3834"/>
</svg>
