<svg width="466" height="466" viewBox="0 0 466 466" fill="none" xmlns="http://www.w3.org/2000/svg">
<path d="M445.936 339.279C445.809 338.713 445.336 338.508 444.821 338.164C444.821 338.164 445.958 312.39 445.958 312.098C445.958 302.435 432.132 294.178 412.368 291.582C413.328 291.193 414.158 290.54 414.762 289.699C415.366 288.857 415.719 287.862 415.78 286.828C415.979 286.785 416.163 286.689 416.312 286.549C416.461 286.409 416.568 286.23 416.622 286.034C423.654 260.543 429.03 237.576 423.558 214.647C418.059 190.991 400.892 165.524 381.803 152.713C362.46 140.27 339.171 135.492 316.491 139.313C316.33 138.932 316.177 138.546 316.025 138.149C318.084 138.355 320.147 137.801 321.825 136.592C323.504 135.382 324.682 133.6 325.137 131.582C325.563 129.193 324.646 129.662 325.743 129.575C328.639 129.025 331.203 127.358 332.879 124.934C334.605 122.055 333.994 116.402 330.792 114.676C331.504 113.55 332.066 112.337 332.465 111.066C334.128 105.609 330.31 104.072 326.867 102.07C322.2 99.5008 323.371 90.6411 320.958 85.5477C316.462 75.4369 305.287 65.5736 295.201 69.3423C289.377 66.7781 282.922 66.0064 276.658 67.1256C270.394 68.2448 264.605 71.2042 260.03 75.6265C255.259 80.4214 251.65 86.2444 249.477 92.6496C247.304 99.0547 246.626 105.872 247.495 112.58C248.364 116.498 248.716 120.514 248.541 124.524C248.307 127.577 245.642 130.181 245.102 133.689C244.801 134.84 244.82 136.051 245.158 137.191C245.496 138.332 246.14 139.358 247.019 140.159C247.899 140.959 248.981 141.504 250.148 141.733C251.316 141.963 252.523 141.869 253.641 141.461C253.791 143.007 254.355 144.484 255.276 145.736C256.196 146.987 257.437 147.967 258.868 148.572C260.319 149.101 261.892 149.201 263.398 148.859C264.904 148.517 266.28 147.747 267.36 146.643C268.125 147.62 270.216 149.261 271.313 149.152C272.362 149.343 273.444 149.134 274.347 148.567C275.25 148 275.907 147.115 276.19 146.088C278.31 147.618 280.741 148.661 283.311 149.14C285.881 149.62 288.525 149.525 291.053 148.862V148.931C242.968 161.847 223.567 206.719 219.68 210.805C218.785 211.412 217.758 211.798 216.685 211.931C205.312 214.016 195.759 221.908 187.325 228.879C177.513 236.991 176.547 236.925 176.22 237.553C168.459 234.746 163.138 237.054 160.273 241.496C153.482 241.976 151.643 251.863 150.028 258.571C149.092 262.46 147.778 268.18 148.895 272.009C148.724 272.232 148.646 272.419 138.954 289.069C137.571 288.609 136.169 288.22 134.746 287.9C133.9 287.566 132.997 287.404 132.088 287.422C131.179 287.441 130.283 287.64 129.452 288.007C127.648 289.053 126.284 290.716 125.612 292.69C124.896 294.122 124.151 295.828 123.311 297.975C122.68 290.101 122.553 282.194 122.929 274.304C123.567 257.106 122.63 239.563 121.895 222.447C130.363 213.859 137.951 204.447 144.547 194.349C144.695 194.413 144.856 194.443 145.017 194.439C145.178 194.434 145.337 194.394 145.481 194.323C150.151 191.924 154.691 189.281 159.084 186.406C162.532 187.181 166.114 187.13 169.538 186.257C170.415 190.271 174.647 192.222 178.075 193.805C178.25 193.886 178.443 193.92 178.635 193.903C178.827 193.887 179.012 193.821 179.171 193.712C179.33 193.603 179.458 193.455 179.543 193.282C179.627 193.108 179.666 192.916 179.654 192.724C179.579 190.912 178.967 189.164 177.894 187.702C176.822 186.24 175.338 185.13 173.633 184.515C174.246 184.163 174.83 183.788 175.383 183.4C175.574 183.495 175.789 183.534 176.001 183.511C176.213 183.488 176.415 183.405 176.581 183.271C178.113 182.038 187.075 187.967 196.544 185.4C197.139 185.238 199.933 184.435 200.292 184.932C200.467 185.162 200.725 185.315 201.01 185.359C201.296 185.403 201.588 185.334 201.824 185.167C202.059 185.001 202.221 184.749 202.275 184.465C202.329 184.181 202.271 183.887 202.112 183.645C199.124 179.185 189.981 175.209 181.121 178.262C183.327 176.483 185.084 174.211 186.25 171.628C187.353 168.894 188.175 166.054 188.703 163.154C188.742 162.932 188.712 162.704 188.618 162.499C188.525 162.294 188.371 162.123 188.178 162.007C187.985 161.891 187.762 161.836 187.537 161.85C187.312 161.864 187.097 161.945 186.919 162.084C183.639 164.554 180.558 167.277 177.705 170.23C176.401 171.785 175.419 173.583 174.813 175.52C174.208 177.457 173.992 179.495 174.177 181.516C172.94 182.396 171.613 183.144 170.219 183.746C167.457 184.651 164.529 184.934 161.644 184.575C165.658 181.469 169.817 177.379 171.106 172.087C172.257 170.624 173.3 169.079 174.228 167.465C176.318 163.281 176.828 155.766 176.472 151.168C176.456 150.974 176.391 150.788 176.281 150.628C176.172 150.467 176.022 150.338 175.848 150.253C175.673 150.168 175.479 150.13 175.286 150.143C175.092 150.156 174.905 150.22 174.743 150.327C171.393 152.604 168.824 155.856 167.384 159.642C167.37 159.679 167.358 159.717 167.349 159.755C166.166 164.088 166.567 168.7 168.479 172.763C168.495 172.796 168.513 172.828 168.533 172.859C165.703 180.7 153.603 187.557 146.262 191.424C159.566 167.531 150.985 157.806 160.271 131.593C164.573 130.156 168.594 127.985 172.156 125.177C176.014 125.202 179.199 126.531 183.22 126.261C187.273 125.777 191.127 124.234 194.394 121.787C194.533 121.684 194.645 121.549 194.722 121.394C194.8 121.239 194.84 121.069 194.84 120.895C194.84 118.797 184.794 116.951 178.831 118.773C181.943 115.066 184.407 110.862 186.121 106.336C187.776 106.528 189.451 106.204 190.915 105.408C191.997 105.002 193.081 104.529 194.162 104.055C197.337 103.003 200.31 101.419 202.955 99.3715C203.12 99.2348 203.241 99.0536 203.306 98.8497C203.37 98.6457 203.374 98.4275 203.318 98.2211C203.262 98.0147 203.148 97.8289 202.989 97.6857C202.83 97.5425 202.633 97.448 202.422 97.4136C198.182 96.7081 193.827 97.3721 189.99 99.3091C190.267 98.2999 190.355 97.2484 190.251 96.2071C190.074 94.8451 190.074 93.466 190.251 92.1039C190.351 91.9962 190.429 91.8698 190.48 91.7319C190.531 91.5941 190.554 91.4475 190.549 91.3006C190.543 91.1537 190.509 91.0093 190.448 90.8757C190.386 90.742 190.299 90.6218 190.192 90.5218C190.084 90.4217 189.957 90.3439 189.82 90.2928C189.682 90.2416 189.535 90.2181 189.388 90.2236C189.241 90.2291 189.097 90.2635 188.963 90.3248C188.83 90.3861 188.709 90.4731 188.609 90.5808C185.006 93.7408 181.652 99.8889 184.341 104.715C182.415 110.14 179.362 115.096 175.383 119.258C171.404 123.419 166.59 126.691 161.256 128.859C166.586 114.741 174.052 101.171 177.089 86.297C182.64 85.9937 183.86 80.5548 186.058 77.9189C186.204 77.7377 186.29 77.5153 186.303 77.2829C186.317 77.0505 186.257 76.8198 186.133 76.6231C186.008 76.4263 185.825 76.2735 185.61 76.1859C185.394 76.0984 185.156 76.0806 184.93 76.1349C182.322 76.6375 179.98 78.0566 178.327 80.1355C178.327 76.7615 176.373 76.2977 174.293 68.6666C174.23 68.4355 174.095 68.2307 173.907 68.0825C173.718 67.9343 173.488 67.8506 173.248 67.8439C173.009 67.8371 172.774 67.9076 172.577 68.045C172.381 68.1823 172.234 68.3792 172.159 68.6064C171.308 71.2453 171.018 74.0331 171.309 76.7905C171.619 79.6831 172.988 82.3589 175.151 84.3034C173.663 89.7654 171.752 95.1037 169.438 100.27C168.624 97.2042 168.298 94.0293 168.47 90.8618C168.487 90.5671 168.387 90.2776 168.191 90.0569C167.995 89.8362 167.719 89.7022 167.424 89.6844C167.278 89.6756 167.132 89.6958 166.993 89.7438C166.855 89.7917 166.727 89.8665 166.617 89.9639C166.508 90.0612 166.418 90.1792 166.354 90.3111C166.291 90.443 166.253 90.5862 166.245 90.7325C166.018 95.0293 166.63 99.3292 168.047 103.392C161.939 116.85 154.428 130.277 151.877 145.214C151.27 149.005 151 152.914 150.65 156.718C146.016 150.369 143.035 142.967 141.973 135.179C144.183 134.101 146.024 132.394 147.265 130.273C147.439 129.994 148.641 125.793 149.179 124.934C149.368 124.772 149.498 124.552 149.548 124.307C149.597 124.063 149.563 123.809 149.452 123.586C149.34 123.363 149.157 123.184 148.932 123.078C148.706 122.971 148.452 122.943 148.209 122.998C146.893 123.324 145.657 123.912 144.574 124.728C143.491 125.543 142.585 126.569 141.909 127.744C141.158 129.189 140.543 130.701 140.071 132.26C138.546 128.912 136.613 125.766 134.316 122.894C134.237 122.672 134.09 122.481 133.896 122.349C133.702 122.216 133.471 122.148 133.236 122.154C133.001 122.16 132.774 122.24 132.588 122.383C132.401 122.526 132.264 122.724 132.197 122.949C131.502 125.152 131.518 127.517 132.242 129.71C132.966 131.902 134.362 133.812 136.231 135.167C134.061 134.229 131.793 133.533 129.47 133.091C129.248 133.051 129.018 133.079 128.813 133.172C128.607 133.265 128.434 133.418 128.317 133.611C127.664 134.688 129.046 135.395 130.072 137.179C131.28 139.028 132.961 140.52 134.94 141.5C136.919 142.48 139.124 142.913 141.327 142.754C143.143 149.016 146.201 154.848 150.318 159.903C148.001 180.017 136.967 196.323 121.295 208.646C120.209 183.224 119.379 157.231 121.721 131.693C135.718 120.338 141.213 98.756 141.059 80.6841C143.155 79.2087 144.937 77.3319 146.303 75.1626C147.668 72.9933 148.59 70.5746 149.014 68.0467C149.046 67.8401 149.02 67.6284 148.938 67.436C148.856 67.2436 148.721 67.0782 148.549 66.9587C148.378 66.8391 148.176 66.7703 147.967 66.76C147.758 66.7497 147.55 66.7984 147.368 66.9005C141.476 70.2143 138.448 74.4825 138.738 78.9782C137.983 76.8012 136.869 74.766 135.442 72.9572C134.648 71.9688 133.937 70.9172 133.314 69.8129C133.332 69.5427 133.25 69.2755 133.085 69.0611C132.92 68.8467 132.682 68.6997 132.416 68.6475C132.151 68.5954 131.875 68.6417 131.641 68.7777C131.407 68.9138 131.231 69.1303 131.145 69.3869C130.003 72.7232 130.003 76.3444 131.145 79.6806C131.165 79.7431 131.191 79.8035 131.223 79.8612C132.928 82.9936 135.505 85.5639 138.642 87.2604C138.352 91.7604 137.688 96.2285 136.655 100.618C132.257 93.5645 129.049 85.8354 127.16 77.7405C127.128 77.5956 127.068 77.4584 126.983 77.337C126.898 77.2155 126.79 77.1122 126.665 77.0331C126.539 76.954 126.399 76.9007 126.253 76.8763C126.107 76.8519 125.957 76.8569 125.813 76.891C125.669 76.9251 125.533 76.9876 125.413 77.0749C125.293 77.1622 125.192 77.2724 125.115 77.3993C125.039 77.5262 124.988 77.667 124.967 77.8137C124.945 77.9604 124.953 78.1098 124.99 78.2534C125.201 79.1454 125.424 80.0374 125.659 80.9294C123.852 79.7872 122.31 78.2722 121.136 76.4857C119.963 74.6993 119.184 72.6828 118.853 70.5711C120.224 70.158 121.496 69.466 122.588 68.5385C123.679 67.611 124.568 66.468 125.197 65.1811C126.518 62.5569 127.611 59.824 128.464 57.0127C128.529 56.7962 128.526 56.5653 128.457 56.3504C128.387 56.1355 128.254 55.9468 128.075 55.8092C127.896 55.6717 127.679 55.5918 127.453 55.5801C127.228 55.5684 127.004 55.6255 126.812 55.7438C123.281 57.9647 120.245 60.8878 117.892 64.3315C116.942 59.4032 115.325 59.4054 113.264 53.904C113.182 53.6856 113.034 53.4984 112.84 53.3688C112.646 53.2391 112.416 53.1737 112.183 53.1815C111.95 53.1894 111.725 53.2703 111.54 53.4127C111.355 53.5551 111.22 53.7519 111.153 53.9754C110.343 56.7486 110.242 59.6808 110.86 62.5029C111.794 65.5461 113.767 68.1644 116.435 69.8998C116.744 72.1978 117.452 74.4241 118.527 76.4783C115.036 75.8057 111.419 76.4891 108.414 78.3894C108.263 78.4866 108.137 78.619 108.048 78.7754C107.958 78.9318 107.908 79.1074 107.902 79.2873C107.895 79.4673 107.932 79.6461 108.01 79.8086C108.087 79.971 108.203 80.1123 108.347 80.2203C109.641 81.1931 111.209 81.7317 112.827 81.759C115.708 81.947 118.589 81.3902 121.192 80.1422C122.72 81.7366 124.536 83.0267 126.544 83.9444C128.709 90.8902 131.857 97.4909 135.89 103.546C133.25 113.039 129.254 121.888 122.019 128.489C122.476 124.038 123.038 119.602 123.705 115.182C123.75 114.9 123.685 114.611 123.523 114.376C123.361 114.14 123.115 113.976 122.835 113.916C122.556 113.857 122.264 113.908 122.02 114.057C121.777 114.207 121.6 114.444 121.527 114.721C117.399 130.464 114.829 146.575 113.853 162.822C105.136 159.107 98.9411 147.729 96.5193 141.075C96.1269 139.737 96.1982 140.082 96.2696 139.784C99.803 125.217 101.07 110.192 100.025 95.2393C100.004 94.9436 99.8663 94.6683 99.6424 94.4741C99.4184 94.2798 99.1265 94.1825 98.8307 94.2035C98.535 94.2245 98.2598 94.3621 98.0655 94.586C97.8712 94.81 97.7739 95.1019 97.7949 95.3976C98.7387 108.745 97.7951 122.158 94.9918 135.241C94.422 132.747 94.0536 130.212 93.8902 127.659L91.2142 106.887C91.2053 106.591 91.0793 106.311 90.864 106.108C90.6486 105.905 90.3614 105.796 90.0657 105.805C89.77 105.814 89.4899 105.94 89.2871 106.155C89.0843 106.371 88.9753 106.658 88.9842 106.954C88.8236 109.378 88.7723 111.637 88.8348 113.775C85.8517 110.415 83.5953 106.475 82.2072 102.201C80.8192 97.9277 80.3295 93.4135 80.7689 88.9418C80.8207 88.8944 80.8671 88.8412 80.9071 88.7835C83.1906 88.9463 85.1798 85.7953 85.4028 85.6325C87.6223 82.9082 89.4555 79.8908 90.8507 76.6656C90.9814 76.3995 91.001 76.0923 90.9053 75.8117C90.8095 75.5311 90.6062 75.3 90.34 75.1693C90.0739 75.0386 89.7667 75.019 89.4861 75.1148C89.2055 75.2105 88.9744 75.4138 88.8437 75.68C87.8432 76.3702 86.7738 76.9546 85.6526 77.4238C83.5318 78.5493 81.7712 80.2496 80.5726 82.3298C79.8511 77.3228 78.1759 72.5006 75.6376 68.1247C75.5311 67.9427 75.375 67.7946 75.1877 67.6977C75.0003 67.6008 74.7893 67.5591 74.5791 67.5773C74.369 67.5955 74.1683 67.6729 74.0004 67.8006C73.8325 67.9283 73.7043 68.101 73.6306 68.2987C72.4326 71.649 72.2214 75.2728 73.0223 78.7396C73.8232 82.2064 75.6024 85.3704 78.1486 87.8558C78.2782 87.9846 78.4375 88.0795 78.6124 88.1323C77.9984 93.4524 78.6218 98.8425 80.4341 103.882C82.2463 108.921 85.1984 113.474 89.06 117.185C91.3324 141.949 91.2142 151.382 113.334 171.853C112.665 186.727 112.785 201.668 113.066 216.453C106.448 211.833 100.095 206.845 94.0374 201.512C87.4031 196.043 81.5604 189.678 76.6768 182.602C71.5656 175.02 68.6711 166.191 66.0642 157.43C66.2405 157.285 66.3682 157.089 66.43 156.87C68.776 148.2 68.7081 139.054 66.2337 130.42C67.507 130.001 68.5083 128.297 69.5787 126.292C71.3125 122.798 72.1654 118.932 72.0629 115.033C72.0629 114.826 72.0053 114.623 71.8964 114.447C71.7876 114.27 71.6318 114.128 71.4466 114.036C71.2614 113.943 71.054 113.904 70.8478 113.922C70.6416 113.941 70.4446 114.017 70.2789 114.141C68.5861 115.38 67.159 116.946 66.0819 118.746C65.0048 120.546 64.2997 122.544 64.0082 124.622C63.822 125.383 63.7026 126.159 63.6514 126.941C60.826 124.162 59.2627 124.2 51.7387 120.432C51.5436 120.335 51.3245 120.298 51.1084 120.324C50.8924 120.351 50.6888 120.44 50.5228 120.581C50.3568 120.722 50.2357 120.908 50.1744 121.117C50.113 121.326 50.1142 121.548 50.1777 121.756C51.2352 125.452 53.6619 128.606 56.9636 130.576C57.9983 131.352 63.7004 133.314 64.6125 134.144C64.6856 134.297 64.7923 134.432 64.9247 134.539C66.2319 140.821 66.2379 147.305 64.9425 153.589L64.0327 150.41C63.9926 150.269 63.9251 150.137 63.8341 150.022C63.7432 149.908 63.6305 149.812 63.5025 149.741C63.3745 149.669 63.2338 149.624 63.0883 149.607C62.9428 149.59 62.7954 149.602 62.6546 149.642C62.5137 149.683 62.3821 149.75 62.2673 149.841C62.1526 149.932 62.0568 150.045 61.9856 150.173C61.9144 150.301 61.869 150.441 61.8522 150.587C61.8353 150.732 61.8473 150.88 61.8874 151.021C63.9589 159.035 66.6053 166.89 69.8062 174.525C61.9613 171.796 55.4097 166.25 51.4221 158.964C51.2874 158.718 51.065 158.532 50.7993 158.443C50.5336 158.353 50.244 158.367 49.9882 158.482C48.1621 157.103 46.0393 156.169 43.7888 155.755C40.5008 154.957 37.0818 154.86 33.7538 155.469C33.5515 155.503 33.3623 155.591 33.207 155.725C33.0518 155.859 32.9364 156.033 32.8738 156.229C32.8111 156.424 32.8034 156.633 32.8517 156.832C32.8999 157.031 33.0022 157.213 33.1472 157.358C35.3362 159.655 38.1719 161.231 41.2778 161.878C41.8338 162.079 42.3854 162.252 42.9324 162.396C40.004 163.293 37.3055 164.816 35.0241 166.859C32.7426 168.903 30.9327 171.418 29.7197 174.23C29.6475 174.395 29.6161 174.574 29.6283 174.754C29.6404 174.933 29.6957 175.107 29.7895 175.26C29.8832 175.413 30.0126 175.542 30.1666 175.634C30.3207 175.727 30.4948 175.781 30.6741 175.791C35.3519 176.119 40.0463 175.46 44.4533 173.858C48.2648 172.278 51.4422 169.475 53.4848 165.89C58.08 171.363 64.22 175.323 71.1018 177.25C76.4373 187.265 83.7472 196.095 92.5901 203.207C99.1096 208.945 105.967 214.286 113.126 219.203C114.082 246.242 113.679 273.312 111.92 300.31C111.606 304.943 110.552 309.495 108.798 313.795C108.764 313.876 108.741 313.96 108.729 314.047C99.3371 317.669 90.571 322.74 82.7491 329.075C81.2642 330.285 79.6174 331.282 77.8565 332.036C75.4836 332.23 73.095 332.044 70.7807 331.486C55.2041 330.114 43.2915 347.836 30.3084 352.869C23.6363 355.619 20.2734 359.071 20.0348 363.426C20.0184 363.721 20.1198 364.01 20.3167 364.231C20.5137 364.451 20.7901 364.584 21.0851 364.601C21.3802 364.617 21.6698 364.516 21.8901 364.319C22.1105 364.122 22.2437 363.846 22.2603 363.551C22.4499 360.139 25.36 357.32 31.1357 354.941C44.315 349.829 56.3169 332.435 70.4395 333.684C72.9932 334.295 75.6301 334.482 78.2445 334.237C80.4009 333.434 82.4046 332.269 84.1696 330.792C91.848 324.58 100.455 319.613 109.676 316.074C125.926 310.086 128.277 317.668 136.577 321.125C150.626 326.972 164.516 317.37 173.856 333.191C178.218 340.238 178.922 343.619 186.832 349.281C190.779 352.106 191.961 353.246 193.471 359.568C194.39 363.426 195.134 364.893 203.267 366.969C205.529 367.52 207.641 368.563 209.453 370.024C211.265 371.486 212.732 373.329 213.748 375.423C213.811 375.556 213.898 375.675 214.007 375.773C214.115 375.872 214.242 375.948 214.38 375.998C214.517 376.047 214.664 376.069 214.81 376.062C214.956 376.055 215.1 376.02 215.232 375.957C215.365 375.895 215.484 375.807 215.582 375.699C215.681 375.59 215.757 375.464 215.807 375.326C215.856 375.188 215.878 375.042 215.871 374.896C215.864 374.749 215.829 374.606 215.766 374.473C214.611 372.082 212.942 369.975 210.877 368.304C208.813 366.634 206.404 365.44 203.825 364.808C193.018 362.052 197.83 361.497 193.344 352.543C191.337 349.105 188.016 347.704 185.378 345.334C180.207 340.936 179.268 337.689 175.765 332.034C166.947 317.093 154.513 322.69 142.25 320.425C145.657 315.784 149.522 309.237 152.423 306.224C153.716 304.978 154.575 303.351 154.876 301.581C155.394 298.013 151.364 295.337 148.304 293.437C158.319 276.387 157.748 277.428 157.8 277.123C161.844 276.015 165.562 273.95 168.64 271.102C167.901 277.763 169.825 284.446 173.992 289.695C178.464 294.281 183.7 298.054 189.466 300.845C209.525 311.164 230.826 318.866 252.847 323.761C240.256 335.459 227.704 349.796 225.11 370.535C223.206 385.121 233.631 389.969 248.342 389.969C279.406 389.969 320.639 371.168 346.366 352.98C346.357 354.774 345.953 356.543 345.182 358.162C344.411 359.78 343.293 361.209 341.906 362.346C339.195 364.458 335.783 366.51 336.432 370.067C336.607 371.05 337.063 371.962 337.746 372.691C338.428 373.421 339.307 373.938 340.276 374.179C345.431 374.71 350.589 373.208 354.653 369.993L355.59 391.455C355.59 403.43 374.678 412.809 399.048 412.809C423.417 412.809 442.245 403.428 442.506 391.504C442.611 386.618 442.598 387.293 442.923 387.142C443.108 387.057 443.265 386.923 443.379 386.755C443.493 386.586 443.559 386.39 443.57 386.187C446.17 336.151 445.989 339.511 445.936 339.279ZM177.027 190.835C174.816 190.018 172.985 188.415 171.882 186.333C173.057 186.571 174.15 187.111 175.052 187.901C175.954 188.69 176.635 189.702 177.027 190.835ZM194.468 180.8C195.804 181.197 197.052 181.845 198.145 182.711C196.542 183.014 194.706 183.672 193.897 183.681C189.033 183.912 184.177 183.096 179.656 181.288C181.945 180.148 184.453 179.516 187.008 179.435C189.564 179.354 192.107 179.825 194.463 180.818L194.468 180.8ZM179.333 171.733C181.343 169.609 183.511 167.639 185.817 165.841C183.534 174.5 181.409 174.725 176.344 179.493C176.466 176.652 177.514 173.929 179.328 171.739L179.333 171.733ZM169.485 160.36C170.517 157.685 172.18 155.299 174.331 153.404C174.351 156.1 174.143 158.793 173.711 161.455C173.279 164.647 171.921 167.643 169.804 170.071C168.739 166.943 168.626 163.568 169.48 160.375L169.485 160.36ZM199.068 99.3648C197.209 100.403 195.271 101.291 193.27 102.021C192.222 102.467 191.178 102.937 189.95 103.417C189.401 103.731 188.801 103.945 188.177 104.048C188.45 103.588 188.698 103.113 188.917 102.625C191.874 100.499 195.426 99.3583 199.068 99.3648ZM187.918 94.6528C187.956 95.5069 188.045 96.7825 188.072 97.0813C187.944 98.5166 187.603 99.9249 187.062 101.26C186.616 101.652 186.208 102.083 185.842 102.549C185.593 101.161 185.65 99.7343 186.01 98.3702C186.371 97.0061 187.025 95.7374 187.927 94.6528H187.918ZM180.394 120.637C182.752 120.181 185.167 120.101 187.55 120.4C187.925 120.432 189.747 120.846 191.219 121.228C188.702 122.726 185.9 123.681 182.992 124.031C180.182 123.975 177.383 123.663 174.63 123.099C176.412 121.985 178.357 121.155 180.394 120.637ZM146.253 126.265C146.03 126.921 145.303 129.198 145.303 129.198C144.536 130.435 143.542 131.515 142.373 132.382C142.941 129.965 144.308 127.81 146.253 126.265ZM133.95 126.207C135.792 128.594 137.301 131.22 138.437 134.012C137.064 133.226 135.924 132.089 135.135 130.717C134.345 129.346 133.934 127.79 133.943 126.207H133.95ZM131.947 135.995C133.777 136.549 135.556 137.257 137.266 138.113C138.315 138.68 139.178 139.537 139.752 140.582C138.188 140.462 136.672 139.987 135.319 139.192C133.966 138.397 132.813 137.303 131.947 135.995ZM133.227 78.8956C132.585 76.9676 132.379 74.9211 132.623 72.9036C133.486 74.1078 134.659 75.6042 134.962 76.1661C136.493 78.4199 137.337 81.069 137.393 83.7927C135.691 82.4549 134.274 80.7888 133.227 78.8934V78.8956ZM112.711 58.141C113.216 59.111 113.788 60.044 114.424 60.933C115.315 62.7193 115.833 64.6687 115.945 66.6619C114.783 65.5887 113.886 64.2601 113.325 62.781C112.764 61.3019 112.555 59.7127 112.714 58.1388L112.711 58.141ZM125.219 59.6485C124.637 61.1649 123.966 62.6858 123.212 64.1955C122.283 66.1009 120.653 67.5733 118.663 68.3054C119.123 65.4421 122.303 62.0212 125.222 59.6463L125.219 59.6485ZM113.026 79.5557C112.498 79.5557 111.972 79.4806 111.465 79.3327C113.683 78.4517 116.114 78.2499 118.447 78.7529C116.741 79.49 114.872 79.7668 113.026 79.5557ZM146.177 70.3101C145.164 73.2779 143.361 75.9137 140.963 77.9345C141.233 76.3637 141.839 74.8695 142.739 73.5538C143.638 72.2381 144.811 71.1318 146.177 70.3101ZM82.2072 83.8708C83.1487 82.3013 84.3737 80.9205 85.8198 79.7988C85.9982 79.7096 86.0428 79.6873 87.0954 79.1967C85.4251 82.1225 81.6274 87.2871 81.0253 86.5044C81.0119 86.3238 81.0008 86.1431 80.9852 85.9625C81.2749 85.2029 81.6877 84.4962 82.2072 83.8708ZM75.0065 71.6526C77.0205 75.8922 78.2656 80.4558 78.6838 85.1307C77.1203 83.2911 75.9804 81.1302 75.3449 78.801C74.7094 76.4718 74.5939 74.0314 75.0065 71.6526ZM66.1958 125.025C66.5691 122.248 67.8027 119.656 69.7237 117.615C69.5423 119.896 69.016 122.137 68.1627 124.261C67.4842 125.569 66.7276 126.834 65.897 128.052C65.8506 127.034 65.9513 126.015 66.1958 125.025ZM58.1968 128.707C56.1767 127.529 54.5232 125.814 53.4201 123.752C59.8648 126.722 61.6957 126.93 63.5599 131.06C61.7581 130.259 58.7967 129.144 58.1968 128.707ZM36.5658 157.374C38.8105 157.195 41.0695 157.378 43.2558 157.918C45.3501 158.24 47.3078 159.157 48.8955 160.56C46.5191 160.898 44.0959 160.613 41.862 159.735C39.9396 159.362 38.128 158.555 36.5658 157.374ZM43.6728 171.771C40.0973 173.076 36.3104 173.705 32.505 173.626C33.9611 170.921 36.0555 168.612 38.6064 166.9C41.1572 165.187 44.0875 164.124 47.1427 163.801C50.4431 163.355 51.48 163.897 51.5715 164.247C51.9394 165.739 47.4326 170.337 43.6728 171.771ZM339.224 294.291C340.273 294.264 341.318 294.144 342.346 293.93L353.607 306.766C352.512 308.64 352.015 310.804 352.182 312.968L353.099 333.93L339.224 294.291ZM263.517 205.314C263.87 200.379 264.396 195.264 264.835 188.534C264.811 187.599 265.016 186.673 265.434 185.837C265.852 185.001 266.468 184.281 267.23 183.739C269.095 183.474 268.296 188.799 268.031 192.262L265.159 230.065C264.349 235.816 262.465 236.483 260.788 236.887C261.566 234.61 263.283 208.436 263.506 205.308L263.517 205.314ZM168.107 258.89C168.195 259.113 168.209 259.359 168.147 259.59C167.393 262.01 161.39 266.836 158.215 267.895C157.992 267.964 157.628 268.009 156.941 267.589C155.157 265.058 156.852 258.446 159.022 254.863C159.358 255.161 159.776 255.351 160.222 255.407C160.667 255.464 161.12 255.384 161.519 255.179C161.589 255.831 161.897 256.434 162.385 256.871C162.872 257.309 163.504 257.551 164.16 257.55C164.542 257.522 164.898 257.347 165.154 257.061C165.451 256.838 165.31 256.789 165.451 257.407C165.514 257.687 165.635 257.951 165.807 258.181C165.979 258.411 166.197 258.602 166.448 258.742C166.698 258.881 166.976 258.967 167.261 258.993C167.547 259.018 167.835 258.983 168.107 258.89ZM251.286 233.956C254.296 232.176 257.098 230.066 259.639 227.663C259.412 230.03 259.171 232.342 258.917 234.599C258.953 235.403 258.745 236.2 258.321 236.884C257.896 237.568 257.274 238.108 256.537 238.432L246.262 244.491C223.382 241.295 227.871 247.718 251.286 233.956ZM374.212 255.601C374.881 254.243 374.368 254.816 374.701 239.15C375.178 229.881 374.55 220.588 372.83 211.467C379.992 219.08 384.591 221.101 385.688 231.267C387.764 248.911 401.251 265.132 398.475 283.177C398.452 283.34 398.466 283.506 398.515 283.663C391.881 287.534 390.297 288.025 387.947 291.343C384.014 291.771 380.113 292.462 376.273 293.413C378.303 281.188 377.169 268.646 372.979 256.983C373.521 256.658 373.95 256.176 374.21 255.601H374.212ZM415.291 317.686C422.086 318.691 428.723 320.565 435.04 323.261C418.297 333.002 385.666 334.07 366.077 324.842C379.511 316.487 400.546 315.686 415.289 317.686H415.291ZM406.781 291.007C405.657 291.278 404.604 291.787 403.691 292.498C402.779 293.209 402.028 294.106 401.49 295.13C400.573 297.072 401.338 299.554 401.28 301.405C401.251 302.395 400.955 302.781 400.856 302.803C400.758 302.826 400.513 302.685 400.31 302.275C399.113 299.866 398.514 297.205 398.564 294.517C398.564 294.221 398.446 293.937 398.237 293.728C398.028 293.519 397.745 293.402 397.449 293.402C397.153 293.402 396.87 293.519 396.661 293.728C396.451 293.937 396.334 294.221 396.334 294.517C396.334 294.517 396.356 300.961 396.37 301.231C396.51 304.529 393.68 304.407 393.745 300.629C393.787 298.176 393.883 295.792 394.033 293.524C394.057 293.228 393.964 292.935 393.772 292.708C393.581 292.482 393.307 292.34 393.011 292.316C392.716 292.291 392.422 292.384 392.195 292.576C391.969 292.767 391.827 293.041 391.803 293.337L391.006 301.048C390.904 300.885 390.822 300.71 390.763 300.526C389.648 297.474 388.826 294.748 389.825 292.498C391.031 290.8 392.654 289.441 394.539 288.554L402.4 283.966C406.192 284.467 409.944 285.233 413.63 286.257C413.302 289.909 410.838 289.642 406.779 291.007H406.781ZM315.835 107.81C316.404 107.81 316.965 107.936 317.479 108.179C317.992 108.423 318.445 108.777 318.804 109.218C319.164 109.658 319.421 110.172 319.557 110.724C319.693 111.276 319.705 111.851 319.591 112.408C318.645 116.327 316.625 119.905 313.759 122.74C315.338 117.624 310.35 107.81 315.835 107.81ZM292.521 157.369C292.786 158.433 294.383 158.168 294.383 156.836L292.786 147.247C292.521 146.714 292.253 146.447 291.72 146.714C281.525 150.013 268.064 142.074 264.811 121.754C265.141 120.169 265.725 118.648 266.541 117.249C269.266 113.271 274.29 110.64 277.105 106.171C277.876 108.122 280.76 108.753 283.614 104.708C285.278 109.132 292.534 109.487 294.688 98.7203C296.917 101.088 298.734 103.81 300.067 106.775C301.232 108.948 302.081 111.276 302.589 113.688C302.589 117.466 302.504 122.008 306.262 122.385C304.897 126.479 302.056 132.793 304.431 136.224C304.873 136.824 305.455 137.306 306.127 137.627C306.799 137.948 307.54 138.099 308.284 138.066C309.028 138.033 309.752 137.817 310.393 137.438C311.033 137.058 311.571 136.527 311.957 135.89C312.345 136.359 312.795 136.771 313.295 137.116C314.248 140.028 315.537 142.819 317.135 145.432C317.212 145.557 317.313 145.665 317.432 145.751C317.551 145.837 317.685 145.899 317.828 145.932C317.97 145.966 318.118 145.972 318.263 145.948C318.407 145.925 318.546 145.874 318.671 145.797C318.796 145.72 318.904 145.619 318.99 145.5C319.076 145.382 319.137 145.247 319.171 145.105C319.205 144.962 319.21 144.814 319.187 144.669C319.164 144.525 319.112 144.386 319.035 144.261C318.465 143.334 317.941 142.39 317.454 141.405C319.047 141.162 320.637 140.96 322.227 140.796C321.357 153.953 315.559 165.469 306.641 170.495C304.757 171.476 302.697 172.072 300.581 172.25C298.465 172.427 296.335 172.183 294.314 171.53C292.975 170.996 291.765 170.183 290.765 169.145C289.765 168.107 288.998 166.867 288.516 165.509C286.976 161.229 286.759 156.585 287.893 152.18C289.071 151.81 290.26 151.463 291.461 151.139L292.521 157.369ZM165.498 239.567C167.812 238.439 170.459 238.193 172.941 238.876C177.299 240.073 181.284 241.88 182.885 245.278C183.69 246.984 184 250.342 182.439 250.853C180.147 251.618 177.845 252.474 175.281 253.25C174.864 253.217 174.663 253.099 174.634 253.027C174.54 252.782 174.772 251.877 176.088 250.65C177.228 249.901 178.458 249.296 179.747 248.851C180.024 248.747 180.249 248.537 180.372 248.268C180.494 247.999 180.505 247.692 180.401 247.414C180.297 247.137 180.087 246.913 179.818 246.79C179.549 246.668 179.242 246.657 178.965 246.761C175.852 247.67 173.118 249.565 171.173 252.16C170.294 253.9 169.069 255.443 167.574 256.694C167.168 254.018 169.84 249.386 171.688 247.006C171.852 246.795 171.935 246.532 171.921 246.264C171.907 245.997 171.798 245.743 171.612 245.55C171.427 245.357 171.178 245.237 170.912 245.212C170.645 245.187 170.379 245.259 170.161 245.414C168.172 246.779 166.644 248.715 165.779 250.967C165.263 252.437 164.629 253.863 163.881 255.231C163.658 255.028 163.658 254.399 163.658 254.116C163.957 250.463 164.917 246.895 166.49 243.586C166.6 243.348 166.623 243.079 166.555 242.826C166.486 242.573 166.331 242.352 166.116 242.202C165.901 242.052 165.64 241.983 165.379 242.006C165.118 242.03 164.873 242.144 164.688 242.33C162.383 244.794 161.038 248.002 160.897 251.373C160.897 253.469 160.228 253.636 160.179 252.245C159.515 248.387 161.013 241.935 165.498 239.567ZM127.681 293.493C128.186 291.993 129.215 290.726 130.58 289.925C128.542 297.911 127.048 304.817 125.935 311.366C124.961 308.621 124.259 305.788 123.837 302.906C124.943 299.699 126.227 296.557 127.681 293.493ZM180.659 80.9272C181.151 80.3265 181.751 79.8228 182.428 79.442C181.155 81.672 180.089 83.2798 178.164 83.8641C178.883 82.7947 179.72 81.8095 180.659 80.9272ZM173.479 73.3452C175.263 77.9702 176.059 78.2266 176.115 79.9214C175.994 80.5191 175.872 81.1279 175.774 81.7411C174.816 80.5851 174.115 79.238 173.72 77.7897C173.324 76.3415 173.242 74.8255 173.479 73.3429V73.3452ZM150.824 304.679C147.589 308.037 143.274 315.43 139.882 319.881C136.934 319.016 134.177 317.602 131.753 315.715C137.722 309.425 144.805 304.296 152.644 300.589C152.65 301.361 152.49 302.125 152.176 302.831C151.863 303.536 151.402 304.166 150.824 304.679ZM151.538 298.647C143.376 302.516 136.025 307.903 129.876 314.52C129.222 314.12 128.553 313.741 127.869 313.405C129.028 306.217 130.652 298.651 132.953 289.715C133.34 289.775 133.719 289.877 134.084 290.019C140.531 291.392 146.532 294.358 151.538 298.647ZM141.086 289.829L150.048 274.442C150.624 275.286 151.386 275.987 152.275 276.489C153.164 276.992 154.157 277.283 155.177 277.341L146.382 292.318C144.674 291.372 142.904 290.541 141.086 289.829ZM255.949 387.414C239.741 388.654 225.224 386.85 227.316 370.82C229.416 354.002 238.089 341.355 250.846 328.781C263.01 317.2 275.905 306.412 289.45 296.483C289.588 296.382 289.701 296.251 289.78 296.099C289.86 295.947 289.903 295.779 289.906 295.607C289.91 295.436 289.874 295.266 289.802 295.111C289.729 294.956 289.622 294.82 289.488 294.713C286.802 292.54 283.861 290.703 280.731 289.243C280.463 289.128 280.161 289.123 279.889 289.228C279.617 289.333 279.398 289.541 279.277 289.806C279.156 290.071 279.144 290.373 279.243 290.647C279.343 290.921 279.545 291.145 279.807 291.272C282.332 292.444 284.724 293.882 286.944 295.56C281.803 299.351 276.714 303.309 271.612 307.482C271.517 307.339 271.391 307.22 271.242 307.134C271.093 307.048 270.927 306.998 270.756 306.987C240.71 305.064 211.523 296.181 185.501 281.038C185.374 280.955 185.231 280.898 185.082 280.871C184.932 280.844 184.779 280.849 184.631 280.883C184.483 280.918 184.344 280.983 184.221 281.074C184.099 281.164 183.997 281.279 183.921 281.41C183.845 281.542 183.797 281.688 183.779 281.838C183.761 281.989 183.774 282.142 183.818 282.288C183.861 282.434 183.934 282.569 184.032 282.685C184.13 282.802 184.25 282.897 184.386 282.965C210.409 298.107 239.565 307.064 269.601 309.145C264.316 313.525 258.977 318.181 254.883 321.905C232.498 317.079 210.847 309.322 190.489 298.836C184.985 296.18 179.982 292.592 175.702 288.23C173.661 285.647 172.196 282.656 171.408 279.459C170.619 276.262 170.525 272.933 171.131 269.697C171.177 269.459 171.144 269.212 171.037 268.994C175.649 265.039 179.403 260.182 182.067 254.722C185.899 252.611 189.921 250.864 194.08 249.504C204.025 249.385 213.922 248.097 223.567 245.666C233.717 245.192 243.887 246 253.835 248.072C259.488 250.068 264.744 253.663 270.214 256.116C299.119 269.458 345.655 276.989 371.108 258.375C375.089 269.831 376.053 282.119 373.905 294.055C365.076 296.588 358.382 300.39 354.869 304.855L344.658 293.21C350.933 290.534 347.938 284.618 338.593 284.618C326.961 284.618 325.926 293.234 336.826 294.224L349.156 329.483C320.467 355.779 287.931 371.242 252.443 375.437C252.153 375.476 251.89 375.627 251.711 375.858C251.531 376.089 251.45 376.382 251.484 376.672C251.518 376.963 251.666 377.228 251.894 377.411C252.122 377.594 252.413 377.68 252.704 377.651C288.384 373.434 321.089 358 349.957 331.771C353.237 341.15 352.985 340.673 353.382 340.961L353.549 344.779C326.397 366.682 284.513 384.99 255.949 387.414ZM344.799 371.98C342.134 372.426 339.065 372.348 338.624 369.685C338.225 367.491 340.99 365.879 343.276 364.11C345.126 362.59 346.573 360.637 347.492 358.426C348.41 356.214 348.771 353.81 348.543 351.426C350.3 350.146 352.01 348.851 353.672 347.539L354.533 367.266C351.729 369.619 348.384 371.239 344.799 371.98ZM440.272 391.455C440.272 402 421.778 410.579 399.043 410.579C376.309 410.579 357.815 402 357.815 391.401L354.664 319.163C368.883 338.184 429.195 338.196 443.418 319.163L442.653 336.684C438.32 333.738 438.512 333.742 437.897 333.916L429.909 336.046C429.709 336.099 429.528 336.206 429.386 336.356C429.244 336.506 429.146 336.692 429.103 336.894C429.061 337.096 429.075 337.306 429.145 337.5C429.215 337.695 429.337 337.866 429.498 337.995L435.743 342.986L434.469 387.307L428.854 390.48C428.64 390.601 428.472 390.79 428.376 391.017C428.281 391.244 428.263 391.496 428.325 391.734C428.388 391.972 428.528 392.183 428.723 392.333C428.917 392.483 429.156 392.565 429.403 392.565C431.649 391.982 433.85 391.237 435.988 390.335L440.41 388.295L440.272 391.455Z" fill="#3D3834"/>
<path d="M285.991 132.954C286.905 131.582 284.541 129.914 281.515 131.941C281.23 132.13 280.921 132.28 280.597 132.387C280.652 131.236 280.927 126.384 281.116 123.084C281.125 122.937 281.104 122.791 281.056 122.652C281.008 122.514 280.933 122.386 280.835 122.277C280.737 122.168 280.619 122.079 280.487 122.015C280.355 121.951 280.212 121.914 280.066 121.906C279.773 121.899 279.488 122.003 279.27 122.198C279.052 122.394 278.916 122.665 278.891 122.956C278.728 125.768 278.36 132.336 278.355 132.561C278.315 134.9 280.572 135.253 282.751 133.801C283.225 133.411 283.831 133.22 284.443 133.268C284.565 133.349 284.702 133.405 284.846 133.434C284.99 133.462 285.139 133.461 285.282 133.432C285.426 133.403 285.563 133.345 285.684 133.263C285.806 133.181 285.91 133.076 285.991 132.954Z" fill="#3D3834"/>
<path d="M293.743 130.166C293.598 130.145 293.45 130.153 293.308 130.189C293.166 130.226 293.032 130.29 292.915 130.378C292.798 130.466 292.699 130.576 292.625 130.702C292.55 130.829 292.501 130.968 292.481 131.114C292.262 132.792 291.569 134.374 290.484 135.674C289.4 136.974 287.967 137.939 286.355 138.455C286.078 138.543 285.847 138.735 285.71 138.99C285.573 139.246 285.541 139.545 285.621 139.824C285.701 140.103 285.886 140.34 286.138 140.484C286.389 140.629 286.687 140.669 286.968 140.598C288.993 139.96 290.794 138.759 292.161 137.135C293.528 135.511 294.405 133.532 294.688 131.428C294.709 131.283 294.701 131.135 294.665 130.993C294.629 130.852 294.565 130.718 294.477 130.601C294.389 130.484 294.279 130.385 294.153 130.31C294.027 130.236 293.888 130.187 293.743 130.166Z" fill="#3D3834"/>
<path d="M285.063 115.341C287.26 114.414 289.696 114.218 292.012 114.783C292.301 114.847 292.604 114.794 292.853 114.635C293.103 114.476 293.279 114.225 293.343 113.936C293.408 113.647 293.354 113.344 293.195 113.095C293.036 112.845 292.785 112.669 292.496 112.605C289.872 111.931 287.099 112.143 284.608 113.207C284.375 113.31 284.184 113.491 284.067 113.719C283.951 113.947 283.917 114.208 283.97 114.458C284.024 114.708 284.161 114.933 284.36 115.093C284.559 115.254 284.808 115.341 285.063 115.341Z" fill="#3D3834"/>
<path d="M273.74 118.528C273.887 118.549 274.037 118.542 274.181 118.505C274.325 118.468 274.46 118.403 274.578 118.313C274.697 118.223 274.796 118.11 274.87 117.982C274.944 117.853 274.992 117.711 275.01 117.563C275.029 117.416 275.018 117.266 274.977 117.123C274.937 116.98 274.869 116.846 274.776 116.73C274.683 116.614 274.568 116.517 274.438 116.446C274.307 116.375 274.164 116.33 274.016 116.315C272.721 116.209 271.423 116.481 270.281 117.1C269.139 117.718 268.201 118.656 267.583 119.799C267.509 119.926 267.462 120.066 267.443 120.211C267.424 120.357 267.434 120.505 267.472 120.646C267.51 120.788 267.576 120.921 267.665 121.037C267.754 121.153 267.866 121.251 267.993 121.324C268.12 121.397 268.26 121.445 268.406 121.464C268.551 121.483 268.699 121.473 268.841 121.435C268.982 121.397 269.115 121.331 269.231 121.242C269.347 121.152 269.445 121.041 269.518 120.914C269.918 120.152 270.529 119.523 271.278 119.099C272.026 118.676 272.881 118.478 273.74 118.528Z" fill="#3D3834"/>
<path d="M273.039 120.818C271.133 121.313 272.025 125.278 273.209 126.132C274.393 126.986 275.374 125.523 275.408 124.27C275.441 123.017 274.732 120.385 273.039 120.818Z" fill="#3D3834"/>
<path d="M288.973 116.837C287.066 117.332 287.958 121.297 289.142 122.151C290.326 123.006 291.307 121.543 291.341 120.289C291.374 119.036 290.654 116.398 288.973 116.837Z" fill="#3D3834"/>
</svg>
